<?xml version="1.0" encoding="us-ascii" standalone="no"?><svg xmlns="http://www.w3.org/2000/svg" xmlns:xlink="http://www.w3.org/1999/xlink" contentStyleType="text/css" height="466.2px" preserveAspectRatio="none" style="width:1201px;height:466px;background:#FFFFFF;" version="1.1" viewBox="0 0 1201 466" width="1201.2px" zoomAndPan="magnify"><defs/><g><polygon fill="#FFFFFF" points="411.25,81.8385,411.25,81.8875,412.65,81.7418,414.05,81.8836,415.45,81.9317,416.85,81.672,418.25,81.8385,418.1956,81.8385,417.9515,88.7858,417.9816,95.7332,418.2023,102.6806,417.766,109.6279,418.6375,116.5753,417.8088,123.5227,418.1116,130.47,418.5524,137.4174,418.19,144.3647,418.2978,151.3121,418.2276,158.2595,418.375,165.2068,418.4174,172.1542,418.66,179.1016,418.7197,186.0489,418.7255,192.9963,418.4282,199.9437,418.5745,206.891,418.7416,213.8384,417.7452,220.7857,418.725,227.7331,418.0424,234.6805,418.6237,241.6278,417.9035,248.5752,418.2021,255.5226,418.7691,262.4699,418.2159,269.4173,418.3237,276.3646,418.487,283.312,418.5414,290.2594,418.2473,297.2067,418.451,304.1541,417.8493,311.1015,418.4491,318.0488,418.6337,324.9962,418.5612,331.9436,418.6791,338.8909,417.9118,345.8383,417.7935,352.7856,417.815,359.733,418.2088,366.6804,418.1124,373.6277,418.727,380.5751,418.1277,387.5225,418.0099,394.4698,418.25,401.4172,418.25,401.4705,416.85,401.2616,415.45,401.2961,414.05,401.5686,412.65,401.5188,411.25,401.4172,411.7641,401.4172,411.0247,394.4698,411.4734,387.5225,411.6633,380.5751,410.9193,373.6277,411.1829,366.6804,411.3382,359.733,411.7062,352.7856,411.2471,345.8383,411.5738,338.8909,410.8624,331.9436,410.7759,324.9962,411.6025,318.0488,410.7481,311.1015,411.6063,304.1541,411.3946,297.2067,411.0625,290.2594,411.0024,283.312,411.5711,276.3646,411.0405,269.4173,411.6643,262.4699,410.8631,255.5226,411.6822,248.5752,411.589,241.6278,411.4215,234.6805,411.2831,227.7331,411.7586,220.7857,411.6795,213.8384,411.3685,206.891,411.4377,199.9437,411.1588,192.9963,411.7515,186.0489,411.3584,179.1016,411.3708,172.1542,410.8242,165.2068,410.9663,158.2595,411.6215,151.3121,411.5508,144.3647,411.2199,137.4174,411.0245,130.47,411.0968,123.5227,410.7697,116.5753,411.5403,109.6279,411.7677,102.6806,411.6185,95.7332,411.7365,88.7858,411.25,81.8385" style="stroke:#181818;stroke-width:0.6999999999999998;"/><polygon fill="#FFFFFF" points="806.05,125.6459,806.05,125.6949,807.45,125.5492,808.85,125.691,810.25,125.7392,811.65,125.4794,813.05,125.6459,812.9956,125.6459,812.7515,132.64,812.7816,139.634,813.0023,146.6281,812.566,153.6222,813.4375,160.6163,812.6088,167.6104,812.9116,174.6044,813.3524,181.5985,812.99,188.5926,813.0978,195.5867,813.0276,202.5807,813.175,209.5748,813.2174,216.5689,813.46,223.563,813.5197,230.557,813.5255,237.5511,813.2282,244.5452,813.3745,251.5393,813.5416,258.5333,812.5452,265.5274,813.525,272.5215,812.8424,279.5156,813.4237,286.5096,812.7035,293.5037,813.0021,300.4978,813.5691,307.4919,813.0159,314.4859,813.1237,321.48,813.287,328.4741,813.05,335.4682,813.05,335.5653,811.65,335.4673,810.25,335.5352,808.85,335.3346,807.45,335.5345,806.05,335.4682,806.4337,335.4682,806.3612,328.4741,806.4791,321.48,805.7118,314.4859,805.5935,307.4919,805.615,300.4978,806.0088,293.5037,805.9124,286.5096,806.527,279.5156,805.9277,272.5215,805.8099,265.5274,806.2098,258.5333,805.5832,251.5393,805.6866,244.5452,806.5043,237.5511,806.355,230.557,806.5641,223.563,805.8247,216.5689,806.2734,209.5748,806.4633,202.5807,805.7193,195.5867,805.9829,188.5926,806.1382,181.5985,806.5062,174.6044,806.0471,167.6104,806.3738,160.6163,805.6624,153.6222,805.5759,146.6281,806.4025,139.634,805.5481,132.64,806.05,125.6459" style="stroke:#181818;stroke-width:0.6999999999999998;"/><polygon fill="#FFFFFF" points="948.85,147.5496,948.85,147.5987,950.25,147.4529,951.65,147.5947,953.05,147.6429,954.45,147.3832,955.85,147.5496,955.7956,147.5496,955.5515,154.7002,955.5816,161.8508,955.8023,169.0015,955.366,176.1521,956.2375,183.3027,955.4088,190.4533,955.7116,197.6039,956.1524,204.7546,955.79,211.9052,955.8978,219.0558,955.8276,226.2064,955.85,233.357,955.85,233.3987,954.45,233.4128,953.05,233.4937,951.65,233.5136,950.25,233.5155,948.85,233.357,949.0282,233.357,949.1745,226.2064,949.3416,219.0558,948.3452,211.9052,949.325,204.7546,948.6424,197.6039,949.2237,190.4533,948.5035,183.3027,948.8021,176.1521,949.3691,169.0015,948.8159,161.8508,948.9237,154.7002,948.85,147.5496" style="stroke:#181818;stroke-width:0.6999999999999998;"/><polygon fill="#FFFFFF" points="1051.05,169.4533,1051.05,169.5024,1052.45,169.3566,1053.85,169.4984,1055.25,169.5466,1056.65,169.2869,1058.05,169.4533,1058.0319,169.4533,1057.9505,173.6533,1057.9605,177.8533,1058.0341,182.0533,1057.8887,186.2533,1058.05,190.4533,1058.05,190.5825,1056.65,190.3063,1055.25,190.4072,1053.85,190.5541,1052.45,190.4333,1051.05,190.4533,1051.0659,190.4533,1051.0425,186.2533,1051.0917,182.0533,1051.1058,177.8533,1051.1867,173.6533,1051.05,169.4533" style="stroke:#181818;stroke-width:0.6999999999999998;"/><polygon fill="#FFFFFF" points="1051.05,304.6682,1051.05,304.7172,1052.45,304.5715,1053.85,304.7133,1055.25,304.7614,1056.65,304.5017,1058.05,304.6682,1058.0319,304.6682,1057.9505,308.8682,1057.9605,313.0682,1058.0341,317.2682,1057.8887,321.4682,1058.05,325.6682,1058.05,325.7973,1056.65,325.5211,1055.25,325.622,1053.85,325.769,1052.45,325.6481,1051.05,325.6682,1051.0659,325.6682,1051.0425,321.4682,1051.0917,317.2682,1051.1058,313.0682,1051.1867,308.8682,1051.05,304.6682" style="stroke:#181818;stroke-width:0.6999999999999998;"/><polygon fill="#FFFFFF" points="1146.25,212.357,1146.25,212.4061,1147.65,212.2604,1149.05,212.4021,1150.45,212.4503,1151.85,212.1906,1153.25,212.357,1153.2319,212.357,1153.1505,216.557,1153.1605,220.757,1153.2341,224.957,1153.0887,229.157,1153.25,233.357,1153.25,233.4862,1151.85,233.21,1150.45,233.3109,1149.05,233.4578,1147.65,233.337,1146.25,233.357,1146.2659,233.357,1146.2425,229.157,1146.2917,224.957,1146.3058,220.757,1146.3867,216.557,1146.25,212.357" style="stroke:#181818;stroke-width:0.6999999999999998;"/><polygon fill="none" points="7,243.857,7,244.0042,13.9777,243.567,20.9554,243.9923,27.9331,244.1368,34.9108,243.3577,41.8885,243.8026,48.8662,243.5585,55.8439,243.5886,62.8217,243.8093,69.7994,243.3731,76.7771,244.2446,83.7548,243.4158,90.7325,243.7186,97.7102,244.1594,104.6879,243.797,111.6656,243.9048,118.6433,243.8347,125.621,243.982,132.5987,244.0244,139.5764,244.267,146.5541,244.3268,153.5318,244.3325,160.5096,244.0353,167.4873,244.1815,174.465,244.3486,181.4427,243.3522,188.4204,244.332,195.3981,243.6495,202.3758,244.2307,209.3535,243.5105,216.3312,243.8091,223.3089,244.3762,230.2866,243.8229,237.2643,243.9307,244.242,244.0941,251.2197,244.1484,258.1975,243.8543,265.1752,244.0581,272.1529,243.4563,279.1306,244.0561,286.1083,244.2408,293.086,244.1682,300.0637,244.2861,307.0414,243.5189,314.0191,243.4005,320.9968,243.4221,327.9745,243.8158,334.9522,243.7195,341.9299,244.334,348.9076,243.7348,355.8854,243.6169,362.8631,244.0168,369.8408,243.3902,376.8185,243.4936,383.7962,244.3113,390.7739,244.162,397.7516,244.3712,404.7293,243.6318,411.707,244.0805,418.6847,244.2703,425.6624,243.5263,432.6401,243.7899,439.6178,243.9452,446.5955,244.3133,453.5732,243.8541,460.551,244.1808,467.5287,243.4694,474.5064,243.383,481.4841,244.2096,488.4618,243.3552,495.4395,244.2133,502.4172,244.0017,509.3949,243.6695,516.3726,243.6094,523.3503,244.1782,530.328,243.6475,537.3057,244.2713,544.2834,243.4701,551.2611,244.2892,558.2389,244.196,565.2166,244.0285,572.1943,243.8901,579.172,244.3657,586.1497,244.2865,593.1274,243.9755,600.1051,244.0448,607.0828,243.7658,614.0605,244.3585,621.0382,243.9654,628.0159,243.9778,634.9936,243.4312,641.9713,243.5734,648.949,244.2286,655.9268,244.1579,662.9045,243.827,669.8822,243.6315,676.8599,243.7038,683.8376,243.3767,690.8153,244.1473,697.793,244.3747,704.7707,244.2255,711.7484,244.3435,718.7261,243.7613,725.7038,243.9181,732.6815,243.5857,739.6592,244.0559,746.6369,244.0298,753.6146,244.2437,760.5924,243.6963,767.5701,243.7629,774.5478,244.1675,781.5255,244.2542,788.5032,243.4983,795.4809,243.7213,802.4586,243.9615,809.4363,243.4294,816.414,244.1044,823.3917,244.0376,830.3694,243.7865,837.3471,243.9566,844.3248,244.3671,851.3025,243.638,858.2803,244.0775,865.258,244.057,872.2357,243.9381,879.2134,243.9557,886.1911,243.9365,893.1688,243.4201,900.1465,243.5765,907.1242,243.534,914.1019,243.9017,921.0796,243.9187,928.0573,243.9703,935.035,243.6533,942.0127,243.8098,948.9904,243.7729,955.9682,244.2608,962.9459,244.1556,969.9236,243.5172,976.9013,243.806,983.879,243.453,990.8567,244.0589,997.8344,244.283,1004.8121,244.2382,1011.7898,243.5521,1018.7675,244.1818,1025.7452,243.3371,1032.7229,243.9971,1039.7006,243.6475,1046.6783,243.9247,1053.6561,244.0253,1060.6338,244.1875,1067.6115,243.3531,1074.5892,244.1899,1081.5669,243.9818,1088.5446,244.1058,1095.5223,244.3805,1102.5,243.857,1102.5038,243.857,1102.6227,250.7961,1102.6494,257.7352,1102.6381,264.6743,1102.4994,271.6134,1102.9975,278.5525,1102.0732,285.4916,1102.8957,292.4307,1102.0632,299.3698,1102.1218,306.3089,1102.528,313.248,1102.5198,320.1871,1102.155,327.1262,1102.7896,334.0653,1102.5762,341.0044,1103.0087,347.9435,1102.967,354.8826,1102.1862,361.8217,1102.2215,368.7608,1102.4096,375.6999,1102.7489,382.639,1102.7821,389.5781,1102.5,396.5172,1102.5,396.728,1095.5223,396.2778,1088.5446,396.9626,1081.5669,396.9608,1074.5892,396.4841,1067.6115,396.3498,1060.6338,396.2362,1053.6561,396.367,1046.6783,396.6134,1039.7006,396.4693,1032.7229,396.2247,1025.7452,396.8584,1018.7675,396.1959,1011.7898,396.8689,1004.8121,396.8163,997.8344,396.7775,990.8567,397.0019,983.879,396.3451,976.9013,396.3067,969.9236,396.8804,962.9459,396.0994,955.9682,396.3534,948.9904,396.598,942.0127,396.5653,935.035,396.2663,928.0573,396.4871,921.0796,397.0384,914.1019,396.9711,907.1242,396.0998,900.1465,396.5722,893.1688,396.1575,886.1911,396.4988,879.2134,396.7223,872.2357,396.8111,865.258,396.0519,858.2803,396.7976,851.3025,396.5231,844.3248,396.1284,837.3471,396.1875,830.3694,396.7458,823.3917,396.6921,816.414,396.5057,809.4363,396.0467,802.4586,396.9779,795.4809,396.2989,788.5032,396.1475,781.5255,396.4701,774.5478,396.93,767.5701,396.948,760.5924,396.5418,753.6146,396.4114,746.6369,396.636,739.6592,396.6475,732.6815,396.1617,725.7038,396.807,718.7261,396.9083,711.7484,396.3662,704.7707,396.2168,697.793,396.9894,690.8153,396.5319,683.8376,396.5171,676.8599,396.7265,669.8822,396.0652,662.9045,396.8882,655.9268,396.5064,648.949,396.9854,641.9713,396.3661,634.9936,396.8035,628.0159,396.2064,621.0382,396.6887,614.0605,396.7827,607.0828,396.288,600.1051,396.7713,593.1274,396.1172,586.1497,396.1878,579.172,396.9952,572.1943,396.9963,565.2166,396.9151,558.2389,396.2649,551.2611,396.7861,544.2834,396.1867,537.3057,396.5579,530.328,396.5163,523.3503,396.3335,516.3726,396.9483,509.3949,396.8275,502.4172,396.2927,495.4395,396.8858,488.4618,396.5815,481.4841,396.1087,474.5064,396.3539,467.5287,396.1495,460.551,396.4198,453.5732,396.0769,446.5955,396.0971,439.6178,396.5664,432.6401,396.4329,425.6624,396.4762,418.6847,396.4169,411.707,396.6343,404.7293,396.1286,397.7516,396.6292,390.7739,395.997,383.7962,396.7244,376.8185,396.9321,369.8408,396.8827,362.8631,396.7701,355.8854,396.6517,348.9076,396.5912,341.9299,396.0692,334.9522,396.8298,327.9745,396.7479,320.9968,396.4098,314.0191,396.5131,307.0414,396.3712,300.0637,396.6696,293.086,396.9936,286.1083,396.2695,279.1306,396.8454,272.1529,396.4547,265.1752,396.2517,258.1975,396.2149,251.2197,396.0659,244.242,396.2086,237.2643,396.5426,230.2866,396.7083,223.3089,396.9205,216.3312,396.8113,209.3535,396.0192,202.3758,396.9505,195.3981,396.8575,188.4204,396.8957,181.4427,396.8825,174.465,396.0558,167.4873,396.3368,160.5096,396.7384,153.5318,396.1801,146.5541,396.4452,139.5764,396.5641,132.5987,396.7454,125.621,396.5492,118.6433,397.0385,111.6656,396.8052,104.6879,396.6964,97.7102,396.1392,90.7325,396.7543,83.7548,396.1151,76.7771,396.7312,69.7994,396.5226,62.8217,396.7268,55.8439,396.456,48.8662,396.3799,41.8885,395.9986,34.9108,396.3671,27.9331,396.0237,20.9554,396.3449,13.9777,396.8237,7,396.5172,7.1125,396.5172,6.6839,389.5781,7.1721,382.639,7.0459,375.6999,7.3803,368.7608,7.3955,361.8217,7.0656,354.8826,6.8747,347.9435,6.8499,341.0044,6.9955,334.0653,7.4684,327.1262,6.5284,320.1871,6.8853,313.248,7.1867,306.3089,7.5122,299.3698,7.1483,292.4307,6.8612,285.4916,6.4834,278.5525,6.7033,271.6134,6.8447,264.6743,7.2379,257.7352,7.2586,250.7961,7,243.857" style="stroke:#000000;stroke-width:1.0499999999999998;"/><path d="M34.3,58.5348 L34.4962,58.5348 L33.9133,65.5324 L34.4804,72.5301 L34.673,79.5277 L33.6342,86.5254 L34.2275,93.523 L33.9019,100.5207 L33.9421,107.5183 L34.2364,114.516 L33.6547,121.5136 L34.8167,128.5112 L33.7117,135.5089 L34.1154,142.5065 L34.7032,149.5042 L34.2199,156.5018 L34.3637,163.4995 L34.2702,170.4971 L34.4666,177.4948 L34.5232,184.4924 L34.8466,191.4901 L34.9263,198.4877 L34.934,205.4854 L34.5377,212.483 L34.7327,219.4807 L34.9554,226.4783 L33.6269,233.476 L34.9333,240.4736 L34.0233,247.4713 L34.7982,254.4689 L33.838,261.4666 L34.2361,268.4642 L34.9922,275.4619 L34.2545,282.4595 L34.3983,289.4572 L34.6161,296.4548 L34.6885,303.4525 L34.2964,310.4501 L34.5681,317.4478 L33.7657,324.4454 L34.5654,331.4431 L34.8116,338.4407 L34.7149,345.4384 L34.8722,352.436 L33.8491,359.4336 L33.6913,366.4313 L33.72,373.4289 L34.245,380.4266 L34.1166,387.4242 L34.936,394.4219 L34.137,401.4195 L34.3,408.4172 " fill="none" style="stroke:#181818;stroke-width:0.3499999999999999;stroke-dasharray:5.0,5.0;"/><path d="M414.75,58.5348 L414.9462,58.5348 L414.3633,65.5324 L414.9304,72.5301 L415.123,79.5277 L414.0842,86.5254 L414.6775,93.523 L414.3519,100.5207 L414.3921,107.5183 L414.6864,114.516 L414.1047,121.5136 L415.2667,128.5112 L414.1617,135.5089 L414.5654,142.5065 L415.1532,149.5042 L414.6699,156.5018 L414.8137,163.4995 L414.7202,170.4971 L414.9166,177.4948 L414.9732,184.4924 L415.2966,191.4901 L415.3763,198.4877 L415.384,205.4854 L414.9877,212.483 L415.1827,219.4807 L415.4054,226.4783 L414.0769,233.476 L415.3833,240.4736 L414.4733,247.4713 L415.2482,254.4689 L414.288,261.4666 L414.6861,268.4642 L415.4422,275.4619 L414.7045,282.4595 L414.8483,289.4572 L415.0661,296.4548 L415.1385,303.4525 L414.7464,310.4501 L415.0181,317.4478 L414.2157,324.4454 L415.0154,331.4431 L415.2616,338.4407 L415.1649,345.4384 L415.3222,352.436 L414.2991,359.4336 L414.1413,366.4313 L414.17,373.4289 L414.695,380.4266 L414.5666,387.4242 L415.386,394.4219 L414.587,401.4195 L414.75,408.4172 " fill="none" style="stroke:#181818;stroke-width:0.3499999999999999;stroke-dasharray:5.0,5.0;"/><path d="M809.55,58.5348 L809.7462,58.5348 L809.1633,65.5324 L809.7304,72.5301 L809.923,79.5277 L808.8842,86.5254 L809.4775,93.523 L809.1519,100.5207 L809.1921,107.5183 L809.4864,114.516 L808.9047,121.5136 L810.0667,128.5112 L808.9617,135.5089 L809.3654,142.5065 L809.9532,149.5042 L809.4699,156.5018 L809.6137,163.4995 L809.5202,170.4971 L809.7166,177.4948 L809.7732,184.4924 L810.0966,191.4901 L810.1763,198.4877 L810.184,205.4854 L809.7877,212.483 L809.9827,219.4807 L810.2054,226.4783 L808.8769,233.476 L810.1833,240.4736 L809.2733,247.4713 L810.0482,254.4689 L809.088,261.4666 L809.4861,268.4642 L810.2422,275.4619 L809.5045,282.4595 L809.6483,289.4572 L809.8661,296.4548 L809.9385,303.4525 L809.5464,310.4501 L809.8181,317.4478 L809.0157,324.4454 L809.8154,331.4431 L810.0616,338.4407 L809.9649,345.4384 L810.1222,352.436 L809.0991,359.4336 L808.9413,366.4313 L808.97,373.4289 L809.495,380.4266 L809.3666,387.4242 L810.186,394.4219 L809.387,401.4195 L809.55,408.4172 " fill="none" style="stroke:#181818;stroke-width:0.3499999999999999;stroke-dasharray:5.0,5.0;"/><path d="M952,58.5348 L952.1962,58.5348 L951.6133,65.5324 L952.1804,72.5301 L952.373,79.5277 L951.3342,86.5254 L951.9275,93.523 L951.6019,100.5207 L951.6421,107.5183 L951.9364,114.516 L951.3547,121.5136 L952.5167,128.5112 L951.4117,135.5089 L951.8154,142.5065 L952.4032,149.5042 L951.9199,156.5018 L952.0637,163.4995 L951.9702,170.4971 L952.1666,177.4948 L952.2232,184.4924 L952.5466,191.4901 L952.6263,198.4877 L952.634,205.4854 L952.2377,212.483 L952.4327,219.4807 L952.6554,226.4783 L951.3269,233.476 L952.6333,240.4736 L951.7233,247.4713 L952.4982,254.4689 L951.538,261.4666 L951.9361,268.4642 L952.6922,275.4619 L951.9545,282.4595 L952.0983,289.4572 L952.3161,296.4548 L952.3885,303.4525 L951.9964,310.4501 L952.2681,317.4478 L951.4657,324.4454 L952.2654,331.4431 L952.5116,338.4407 L952.4149,345.4384 L952.5722,352.436 L951.5491,359.4336 L951.3913,366.4313 L951.42,373.4289 L951.945,380.4266 L951.8166,387.4242 L952.636,394.4219 L951.837,401.4195 L952,408.4172 " fill="none" style="stroke:#181818;stroke-width:0.3499999999999999;stroke-dasharray:5.0,5.0;"/><path d="M1054.2,58.5348 L1054.3962,58.5348 L1053.8133,65.5324 L1054.3804,72.5301 L1054.573,79.5277 L1053.5342,86.5254 L1054.1275,93.523 L1053.8019,100.5207 L1053.8421,107.5183 L1054.1364,114.516 L1053.5547,121.5136 L1054.7167,128.5112 L1053.6117,135.5089 L1054.0154,142.5065 L1054.6032,149.5042 L1054.1199,156.5018 L1054.2637,163.4995 L1054.1702,170.4971 L1054.3666,177.4948 L1054.4232,184.4924 L1054.7466,191.4901 L1054.8263,198.4877 L1054.834,205.4854 L1054.4377,212.483 L1054.6327,219.4807 L1054.8554,226.4783 L1053.5269,233.476 L1054.8333,240.4736 L1053.9233,247.4713 L1054.6982,254.4689 L1053.738,261.4666 L1054.1361,268.4642 L1054.8922,275.4619 L1054.1545,282.4595 L1054.2983,289.4572 L1054.5161,296.4548 L1054.5885,303.4525 L1054.1964,310.4501 L1054.4681,317.4478 L1053.6657,324.4454 L1054.4654,331.4431 L1054.7116,338.4407 L1054.6149,345.4384 L1054.7722,352.436 L1053.7491,359.4336 L1053.5913,366.4313 L1053.62,373.4289 L1054.145,380.4266 L1054.0166,387.4242 L1054.836,394.4219 L1054.037,401.4195 L1054.2,408.4172 " fill="none" style="stroke:#181818;stroke-width:0.3499999999999999;stroke-dasharray:5.0,5.0;"/><path d="M1149.4,58.5348 L1149.5962,58.5348 L1149.0133,65.5324 L1149.5804,72.5301 L1149.773,79.5277 L1148.7342,86.5254 L1149.3275,93.523 L1149.0019,100.5207 L1149.0421,107.5183 L1149.3364,114.516 L1148.7547,121.5136 L1149.9167,128.5112 L1148.8117,135.5089 L1149.2154,142.5065 L1149.8032,149.5042 L1149.3199,156.5018 L1149.4637,163.4995 L1149.3702,170.4971 L1149.5666,177.4948 L1149.6232,184.4924 L1149.9466,191.4901 L1150.0263,198.4877 L1150.034,205.4854 L1149.6377,212.483 L1149.8327,219.4807 L1150.0554,226.4783 L1148.7269,233.476 L1150.0333,240.4736 L1149.1233,247.4713 L1149.8982,254.4689 L1148.938,261.4666 L1149.3361,268.4642 L1150.0922,275.4619 L1149.3545,282.4595 L1149.4983,289.4572 L1149.7161,296.4548 L1149.7885,303.4525 L1149.3964,310.4501 L1149.6681,317.4478 L1148.8657,324.4454 L1149.6654,331.4431 L1149.9116,338.4407 L1149.8149,345.4384 L1149.9722,352.436 L1148.9491,359.4336 L1148.7913,366.4313 L1148.82,373.4289 L1149.345,380.4266 L1149.2166,387.4242 L1150.036,394.4219 L1149.237,401.4195 L1149.4,408.4172 " fill="none" style="stroke:#181818;stroke-width:0.3499999999999999;stroke-dasharray:5.0,5.0;"/><text fill="#000000" font-family="FG Virgil" font-size="9.8" lengthAdjust="spacing" textLength="37.1" x="14" y="56.0752">Teacher</text><polygon fill="#E3E3E3" points="40.2809,10.8121,39.4601,11.9337,38.4892,13.5765,37.1006,14.6837,35.6414,15.2891,34.4779,15.3416,32.9826,14.5845,31.5716,14.0898,30.5007,13.0855,29.9389,11.9358,29.6058,11.0203,29.2794,9.8245,28.7496,8.7955,29.1567,7.7909,29.5134,6.6903,30.8518,5.8199,31.7935,4.6906,32.959,4.3155,34.3446,3.9926,36.1215,4.1845,37.0947,4.6434,38.2262,4.8515,39.602,6.261,40.0816,7.7491,40.29,8.7644,40.054,10.4376" style="stroke:#181818;stroke-width:0.3499999999999999;"/><path d="M34.65,15.05 L34.7808,15.05 L34.3922,18.83 L34.7703,22.61 L34.8987,26.39 L34.2061,30.17 L34.65,33.95 M25.55,20.65 L25.55,20.6016 L29.19,20.3846 L32.83,20.4114 L36.47,20.6076 L40.11,20.2198 L43.75,20.65 M34.65,33.95 L34.9103,34.1756 L32.5336,35.7932 L30.917,38.0694 L29.3931,40.426 L27.3297,42.315 L25.55,44.45 M34.65,33.95 L34.6821,33.9778 L36.455,36.037 L38.3739,38.2228 L40.2224,40.3474 L42.2054,42.5887 L43.75,44.45 " fill="none" style="stroke:#181818;stroke-width:0.3499999999999999;"/><text fill="#000000" font-family="FG Virgil" font-size="9.8" lengthAdjust="spacing" textLength="37.1" x="14" y="418.2924">Teacher</text><polygon fill="#E3E3E3" points="40.2809,428.0641,39.4601,429.1857,38.4892,430.8285,37.1006,431.9356,35.6414,432.541,34.4779,432.5936,32.9826,431.8364,31.5716,431.3418,30.5007,430.3375,29.9389,429.1877,29.6058,428.2723,29.2794,427.0765,28.7496,426.0475,29.1567,425.0428,29.5134,423.9423,30.8518,423.0719,31.7935,421.9425,32.959,421.5675,34.3446,421.2445,36.1215,421.4364,37.0947,421.8954,38.2262,422.1034,39.602,423.513,40.0816,425.0011,40.29,426.0164,40.054,427.6895" style="stroke:#181818;stroke-width:0.3499999999999999;"/><path d="M34.65,432.302 L34.7808,432.302 L34.3922,436.082 L34.7703,439.862 L34.8987,443.642 L34.2061,447.422 L34.65,451.202 M25.55,437.902 L25.55,437.8536 L29.19,437.6366 L32.83,437.6633 L36.47,437.8595 L40.11,437.4718 L43.75,437.902 M34.65,451.202 L34.9103,451.4276 L32.5336,453.0451 L30.917,455.3214 L29.3931,457.678 L27.3297,459.567 L25.55,461.702 M34.65,451.202 L34.6821,451.2298 L36.455,453.2889 L38.3739,455.4747 L40.2224,457.5994 L42.2054,459.8406 L43.75,461.702 " fill="none" style="stroke:#181818;stroke-width:0.3499999999999999;"/><polygon fill="#E3E3E3" points="374.5,35,374.5,35.1471,381.2083,34.71,387.9167,35.1353,394.625,35.2798,401.3333,34.5006,408.0417,34.9456,414.75,34.7015,421.4583,34.7316,428.1667,34.9523,434.875,34.516,441.5833,35.3875,448.2917,34.5588,455,35,454.9823,34.9574,455.2861,35.1956,455.4873,35.1865,455.7486,35.3222,455.9871,35.4032,456.2374,35.5126,456.2759,35.5285,456.3915,35.7814,456.5687,36.0598,456.6896,36.3149,456.7939,36.5632,456.75,36.75,456.8094,36.75,456.8582,40.617,456.9139,44.4839,456.5817,48.3509,456.9083,52.2178,456.75,56.0848,456.6861,56.0583,456.7626,56.3799,456.4383,56.5355,456.4277,56.8211,456.4998,57.1409,456.2374,57.3222,456.2331,57.3117,455.9994,57.4474,455.7727,57.6002,455.5321,57.7195,455.2471,57.7314,455,57.8348,455,58.0358,448.2917,57.4341,441.5833,58.0338,434.875,58.2185,428.1667,58.1459,421.4583,58.2639,414.75,57.4966,408.0417,57.3782,401.3333,57.3998,394.625,57.7935,387.9167,57.6972,381.2083,58.3118,374.5,57.8348,374.4844,57.7971,374.2219,57.6583,374.0254,57.6789,373.698,57.3835,373.4637,57.3128,373.2626,57.3222,373.4025,57.3801,373.254,57.1136,373.2159,56.8928,372.8857,56.551,372.9213,56.3608,372.75,56.0848,372.8878,56.0848,372.6398,52.2178,372.7276,48.3509,372.7794,44.4839,372.9021,40.617,372.75,36.75,372.7491,36.7496,372.9522,36.5438,372.8356,36.2056,372.9115,35.9471,373.2686,35.805,373.2626,35.5126,373.1985,35.358,373.5555,35.5198,373.776,35.3521,373.9811,35.1473,374.2209,35.0262,374.5,35" style="stroke:#181818;stroke-width:0.3499999999999999;"/><text fill="#000000" font-family="FG Virgil" font-size="9.8" lengthAdjust="spacing" textLength="74.2" x="377.65" y="50.4752">ScheduleClassUI</text><polygon fill="#E3E3E3" points="374.5,407.7172,374.5,407.8643,381.2083,407.4272,387.9167,407.8525,394.625,407.997,401.3333,407.2178,408.0417,407.6628,414.75,407.4186,421.4583,407.4487,428.1667,407.6695,434.875,407.2332,441.5833,408.1047,448.2917,407.276,455,407.7172,454.9823,407.6746,455.2861,407.9128,455.4873,407.9037,455.7486,408.0394,455.9871,408.1204,456.2374,408.2298,456.2759,408.2457,456.3915,408.4986,456.5687,408.777,456.6896,409.0321,456.7939,409.2804,456.75,409.4672,456.8094,409.4672,456.8582,413.3341,456.9139,417.2011,456.5817,421.068,456.9083,424.935,456.75,428.802,456.6861,428.7755,456.7626,429.0971,456.4383,429.2527,456.4277,429.5383,456.4998,429.8581,456.2374,430.0394,456.2331,430.0289,455.9994,430.1646,455.7727,430.3174,455.5321,430.4367,455.2471,430.4486,455,430.552,455,430.753,448.2917,430.1513,441.5833,430.751,434.875,430.9357,428.1667,430.8631,421.4583,430.9811,414.75,430.2138,408.0417,430.0954,401.3333,430.117,394.625,430.5107,387.9167,430.4144,381.2083,431.0289,374.5,430.552,374.4844,430.5143,374.2219,430.3755,374.0254,430.3961,373.698,430.1007,373.4637,430.03,373.2626,430.0394,373.4025,430.0973,373.254,429.8308,373.2159,429.61,372.8857,429.2682,372.9213,429.0779,372.75,428.802,372.8878,428.802,372.6398,424.935,372.7276,421.068,372.7794,417.2011,372.9021,413.3341,372.75,409.4672,372.7491,409.4668,372.9522,409.261,372.8356,408.9228,372.9115,408.6643,373.2686,408.5222,373.2626,408.2298,373.1985,408.0752,373.5555,408.237,373.776,408.0693,373.9811,407.8645,374.2209,407.7434,374.5,407.7172" style="stroke:#181818;stroke-width:0.3499999999999999;"/><text fill="#000000" font-family="FG Virgil" font-size="9.8" lengthAdjust="spacing" textLength="74.2" x="377.65" y="423.1924">ScheduleClassUI</text><polygon fill="#E3E3E3" points="751.8,35,751.8,35.1471,758.5941,34.71,765.3882,35.1353,772.1824,35.2798,778.9765,34.5006,785.7706,34.9456,792.5647,34.7015,799.3588,34.7316,806.1529,34.9523,812.9471,34.516,819.7412,35.3875,826.5353,34.5588,833.3294,34.8616,840.1235,35.3024,846.9176,34.94,853.7118,35.0478,860.5059,34.9776,867.3,35,867.3159,35.0385,867.5688,35.1541,867.8473,35.3313,868.1024,35.4522,868.3506,35.5565,868.5374,35.5126,868.5923,35.5353,868.7399,35.8014,868.8938,36.0702,868.6895,36.1906,869.0938,36.5631,869.05,36.75,868.9808,36.75,869.1746,40.617,868.9345,44.4839,869.034,48.3509,869.223,52.2178,869.05,56.0848,869.0395,56.0804,868.9702,56.3417,868.918,56.61,868.8322,56.8644,868.6391,57.0744,868.5374,57.3222,868.5631,57.3841,868.2388,57.3013,868.0679,57.5885,867.8439,57.7479,867.5872,57.8281,867.3,57.8348,867.3,58.2639,860.5059,57.4966,853.7118,57.3782,846.9176,57.3998,840.1235,57.7935,833.3294,57.6972,826.5353,58.3118,819.7412,57.7125,812.9471,57.5946,806.1529,57.9946,799.3588,57.368,792.5647,57.4714,785.7706,58.289,778.9765,58.1397,772.1824,58.3489,765.3882,57.6095,758.5941,58.0582,751.8,57.8348,751.8527,57.962,751.5103,57.6304,751.2965,57.6091,751.0688,57.5544,750.8682,57.5652,750.5626,57.3222,750.5617,57.3218,750.5598,57.116,750.2382,56.7778,750.109,56.5193,750.2611,56.3772,750.05,56.0848,749.8827,56.0848,750.1688,52.2178,750.0982,48.3509,749.9875,44.4839,749.9675,40.617,750.05,36.75,750.1489,36.791,750.088,36.4758,750.3826,36.3079,750.2384,35.9582,750.5932,35.8152,750.5626,35.5126,750.6058,35.617,750.8319,35.4629,751.0618,35.3177,751.3699,35.3617,751.6073,35.2348,751.8,35" style="stroke:#181818;stroke-width:0.3499999999999999;"/><text fill="#000000" font-family="FG Virgil" font-size="9.8" lengthAdjust="spacing" textLength="109.2" x="754.95" y="50.4752">ScheduleClassController</text><polygon fill="#E3E3E3" points="751.8,407.7172,751.8,407.8643,758.5941,407.4272,765.3882,407.8525,772.1824,407.997,778.9765,407.2178,785.7706,407.6628,792.5647,407.4186,799.3588,407.4487,806.1529,407.6695,812.9471,407.2332,819.7412,408.1047,826.5353,407.276,833.3294,407.5788,840.1235,408.0196,846.9176,407.6571,853.7118,407.765,860.5059,407.6948,867.3,407.7172,867.3159,407.7557,867.5688,407.8713,867.8473,408.0485,868.1024,408.1694,868.3506,408.2737,868.5374,408.2298,868.5923,408.2525,868.7399,408.5186,868.8938,408.7874,868.6895,408.9078,869.0938,409.2803,869.05,409.4672,868.9808,409.4672,869.1746,413.3341,868.9345,417.2011,869.034,421.068,869.223,424.935,869.05,428.802,869.0395,428.7976,868.9702,429.0588,868.918,429.3272,868.8322,429.5816,868.6391,429.7916,868.5374,430.0394,868.5631,430.1013,868.2388,430.0185,868.0679,430.3057,867.8439,430.4651,867.5872,430.5453,867.3,430.552,867.3,430.9811,860.5059,430.2138,853.7118,430.0954,846.9176,430.117,840.1235,430.5107,833.3294,430.4144,826.5353,431.0289,819.7412,430.4297,812.9471,430.3118,806.1529,430.7117,799.3588,430.0852,792.5647,430.1886,785.7706,431.0062,778.9765,430.8569,772.1824,431.0661,765.3882,430.3267,758.5941,430.7754,751.8,430.552,751.8527,430.6792,751.5103,430.3476,751.2965,430.3263,751.0688,430.2716,750.8682,430.2824,750.5626,430.0394,750.5617,430.039,750.5598,429.8332,750.2382,429.495,750.109,429.2365,750.2611,429.0944,750.05,428.802,749.8827,428.802,750.1688,424.935,750.0982,421.068,749.9875,417.2011,749.9675,413.3341,750.05,409.4672,750.1489,409.5082,750.088,409.193,750.3826,409.0251,750.2384,408.6754,750.5932,408.5324,750.5626,408.2298,750.6058,408.3342,750.8319,408.18,751.0618,408.0349,751.3699,408.0788,751.6073,407.952,751.8,407.7172" style="stroke:#181818;stroke-width:0.3499999999999999;"/><text fill="#000000" font-family="FG Virgil" font-size="9.8" lengthAdjust="spacing" textLength="109.2" x="754.95" y="423.1924">ScheduleClassController</text><polygon fill="#E3E3E3" points="899.85,35,899.85,35.1471,906.85,34.71,913.85,35.1353,920.85,35.2798,927.85,34.5006,934.85,34.9456,941.85,34.7015,948.85,34.7316,955.85,34.9523,962.85,34.516,969.85,35.3875,976.85,34.5588,983.85,34.8616,990.85,35.3024,997.85,34.94,1004.85,35,1004.8561,35.0147,1005.0946,35.0956,1005.3609,35.2435,1005.6138,35.3591,1005.8922,35.5363,1006.0874,35.5126,1006.2321,35.5725,1006.3364,35.8207,1006.3474,36.0303,1006.4949,36.2964,1006.6489,36.5652,1006.6,36.75,1006.4317,36.75,1006.7583,40.617,1006.5308,44.4839,1006.7246,48.3509,1006.4845,52.2178,1006.6,56.0848,1006.5852,56.0786,1006.6574,56.3985,1006.3845,56.5754,1006.3152,56.8366,1006.2629,57.105,1006.0874,57.3222,1006.1246,57.4119,1005.8396,57.4239,1005.6181,57.5891,1005.2939,57.5063,1005.1229,57.7936,1004.85,57.8348,1004.85,58.2185,997.85,58.1459,990.85,58.2639,983.85,57.4966,976.85,57.3782,969.85,57.3998,962.85,57.7935,955.85,57.6972,948.85,58.3118,941.85,57.7125,934.85,57.5946,927.85,57.9946,920.85,57.368,913.85,57.4714,906.85,58.289,899.85,57.8348,899.8889,57.9287,899.6681,57.8906,899.3263,57.5604,899.136,57.596,898.9128,57.552,898.6126,57.3222,898.5107,57.28,898.4894,57.0662,898.4347,56.8385,898.4455,56.6379,898.2016,56.3319,898.1,56.0848,898.2079,56.0848,897.9708,52.2178,897.942,48.3509,898.2175,44.4839,897.9327,40.617,898.1,36.75,898.2097,36.7954,898.2471,36.521,898.2473,36.2311,898.3313,35.9759,898.6089,35.801,898.6126,35.5126,898.5858,35.448,898.9129,35.5376,899.0582,35.1884,899.4102,35.3381,899.6458,35.2069,899.85,35" style="stroke:#181818;stroke-width:0.3499999999999999;"/><text fill="#000000" font-family="FG Virgil" font-size="9.8" lengthAdjust="spacing" textLength="98.7" x="903" y="50.4752">ScheduleClassService</text><polygon fill="#E3E3E3" points="899.85,407.7172,899.85,407.8643,906.85,407.4272,913.85,407.8525,920.85,407.997,927.85,407.2178,934.85,407.6628,941.85,407.4186,948.85,407.4487,955.85,407.6695,962.85,407.2332,969.85,408.1047,976.85,407.276,983.85,407.5788,990.85,408.0196,997.85,407.6571,1004.85,407.7172,1004.8561,407.7319,1005.0946,407.8128,1005.3609,407.9607,1005.6138,408.0763,1005.8922,408.2535,1006.0874,408.2298,1006.2321,408.2897,1006.3364,408.5379,1006.3474,408.7475,1006.4949,409.0136,1006.6489,409.2824,1006.6,409.4672,1006.4317,409.4672,1006.7583,413.3341,1006.5308,417.2011,1006.7246,421.068,1006.4845,424.935,1006.6,428.802,1006.5852,428.7958,1006.6574,429.1157,1006.3845,429.2926,1006.3152,429.5538,1006.2629,429.8221,1006.0874,430.0394,1006.1246,430.1291,1005.8396,430.1411,1005.6181,430.3063,1005.2939,430.2235,1005.1229,430.5107,1004.85,430.552,1004.85,430.9357,997.85,430.8631,990.85,430.9811,983.85,430.2138,976.85,430.0954,969.85,430.117,962.85,430.5107,955.85,430.4144,948.85,431.0289,941.85,430.4297,934.85,430.3118,927.85,430.7117,920.85,430.0852,913.85,430.1886,906.85,431.0062,899.85,430.552,899.8889,430.6459,899.6681,430.6078,899.3263,430.2776,899.136,430.3132,898.9128,430.2692,898.6126,430.0394,898.5107,429.9972,898.4894,429.7833,898.4347,429.5557,898.4455,429.3551,898.2016,429.0491,898.1,428.802,898.2079,428.802,897.9708,424.935,897.942,421.068,898.2175,417.2011,897.9327,413.3341,898.1,409.4672,898.2097,409.5126,898.2471,409.2382,898.2473,408.9483,898.3313,408.6931,898.6089,408.5182,898.6126,408.2298,898.5858,408.1652,898.9129,408.2548,899.0582,407.9056,899.4102,408.0553,899.6458,407.9241,899.85,407.7172" style="stroke:#181818;stroke-width:0.3499999999999999;"/><text fill="#000000" font-family="FG Virgil" font-size="9.8" lengthAdjust="spacing" textLength="98.7" x="903" y="423.1924">ScheduleClassService</text><polygon fill="#E3E3E3" points="1015.35,35,1015.35,35.1471,1022.4773,34.71,1029.6045,35.1353,1036.7318,35.2798,1043.8591,34.5006,1050.9864,34.9456,1058.1136,34.7015,1065.2409,34.7316,1072.3682,34.9523,1079.4955,34.516,1086.6227,35.3875,1093.75,35,1093.6937,34.8641,1093.9798,35.0599,1094.2835,35.2981,1094.4848,35.289,1094.746,35.4248,1094.9874,35.5126,1094.9805,35.5097,1095.1284,35.776,1095.244,36.0289,1095.4212,36.3073,1095.5421,36.5624,1095.5,36.75,1095.6585,36.75,1095.5594,40.617,1095.6082,44.4839,1095.6639,48.3509,1095.3317,52.2178,1095.5,56.0848,1095.6463,56.1454,1095.3336,56.3058,1095.41,56.6274,1095.0857,56.783,1095.0752,57.0686,1094.9874,57.3222,1095.0537,57.4821,1094.7356,57.4142,1094.5019,57.5499,1094.2752,57.7027,1094.0347,57.822,1093.75,57.8348,1093.75,57.832,1086.6227,58.0358,1079.4955,57.4341,1072.3682,58.0338,1065.2409,58.2185,1058.1136,58.1459,1050.9864,58.2639,1043.8591,57.4966,1036.7318,57.3782,1029.6045,57.3998,1022.4773,57.7935,1015.35,57.8348,1015.3325,57.7924,1015.1634,57.8791,1014.8394,57.5921,1014.5769,57.4533,1014.3804,57.4739,1014.1126,57.3222,1013.9688,57.2627,1013.8981,57.0284,1014.0474,56.8852,1013.8989,56.6186,1013.8608,56.3978,1013.6,56.0848,1013.5249,56.0848,1013.6745,52.2178,1013.7378,48.3509,1013.4898,44.4839,1013.5776,40.617,1013.6,36.75,1013.6272,36.7612,1013.843,36.5607,1013.8041,36.2547,1014.0073,36.0488,1013.8907,35.7106,1014.1126,35.5126,1014.0521,35.3666,1014.405,35.5186,1014.5435,35.153,1014.9005,35.3147,1015.121,35.1471,1015.35,35" style="stroke:#181818;stroke-width:0.3499999999999999;"/><text fill="#000000" font-family="FG Virgil" font-size="9.8" lengthAdjust="spacing" textLength="72.1" x="1018.5" y="50.4752">ClassRepository</text><polygon fill="#E3E3E3" points="1015.35,407.7172,1015.35,407.8643,1022.4773,407.4272,1029.6045,407.8525,1036.7318,407.997,1043.8591,407.2178,1050.9864,407.6628,1058.1136,407.4186,1065.2409,407.4487,1072.3682,407.6695,1079.4955,407.2332,1086.6227,408.1047,1093.75,407.7172,1093.6937,407.5813,1093.9798,407.7771,1094.2835,408.0153,1094.4848,408.0062,1094.746,408.1419,1094.9874,408.2298,1094.9805,408.2269,1095.1284,408.4932,1095.244,408.7461,1095.4212,409.0245,1095.5421,409.2796,1095.5,409.4672,1095.6585,409.4672,1095.5594,413.3341,1095.6082,417.2011,1095.6639,421.068,1095.3317,424.935,1095.5,428.802,1095.6463,428.8625,1095.3336,429.023,1095.41,429.3446,1095.0857,429.5002,1095.0752,429.7858,1094.9874,430.0394,1095.0537,430.1993,1094.7356,430.1314,1094.5019,430.2671,1094.2752,430.4199,1094.0347,430.5392,1093.75,430.552,1093.75,430.5492,1086.6227,430.753,1079.4955,430.1513,1072.3682,430.751,1065.2409,430.9357,1058.1136,430.8631,1050.9864,430.9811,1043.8591,430.2138,1036.7318,430.0954,1029.6045,430.117,1022.4773,430.5107,1015.35,430.552,1015.3325,430.5096,1015.1634,430.5963,1014.8394,430.3093,1014.5769,430.1705,1014.3804,430.1911,1014.1126,430.0394,1013.9688,429.9798,1013.8981,429.7455,1014.0474,429.6024,1013.8989,429.3358,1013.8608,429.115,1013.6,428.802,1013.5249,428.802,1013.6745,424.935,1013.7378,421.068,1013.4898,417.2011,1013.5776,413.3341,1013.6,409.4672,1013.6272,409.4784,1013.843,409.2779,1013.8041,408.9718,1014.0073,408.766,1013.8907,408.4278,1014.1126,408.2298,1014.0521,408.0838,1014.405,408.2358,1014.5435,407.8702,1014.9005,408.0319,1015.121,407.8642,1015.35,407.7172" style="stroke:#181818;stroke-width:0.3499999999999999;"/><text fill="#000000" font-family="FG Virgil" font-size="9.8" lengthAdjust="spacing" textLength="72.1" x="1018.5" y="423.1924">ClassRepository</text><polygon fill="#E3E3E3" points="1104.25,35,1104.25,35.1471,1111.25,34.71,1118.25,35.1353,1125.25,35.2798,1132.25,34.5006,1139.25,34.9456,1146.25,34.7015,1153.25,34.7316,1160.25,34.9523,1167.25,34.516,1174.25,35.3875,1181.25,34.5588,1188.25,34.8616,1195.25,35,1195.2886,35.0931,1195.4898,35.084,1195.7511,35.2197,1195.9896,35.3007,1196.2559,35.4485,1196.4874,35.5126,1196.539,35.5339,1196.7162,35.8123,1196.8371,36.0675,1196.9414,36.3157,1196.9524,36.5252,1197,36.75,1197.1082,36.75,1197.1639,40.617,1196.8317,44.4839,1197.1583,48.3509,1196.9308,52.2178,1197,56.0848,1197.1151,56.1324,1196.7908,56.2881,1196.7802,56.5736,1196.8523,56.8934,1196.5794,57.0704,1196.4874,57.3222,1196.4968,57.3449,1196.2702,57.4977,1196.0296,57.617,1195.7446,57.6289,1195.5231,57.7942,1195.25,57.8348,1195.25,57.4341,1188.25,58.0338,1181.25,58.2185,1174.25,58.1459,1167.25,58.2639,1160.25,57.4966,1153.25,57.3782,1146.25,57.3998,1139.25,57.7935,1132.25,57.6972,1125.25,58.3118,1118.25,57.7125,1111.25,57.5946,1104.25,57.8348,1104.2704,57.884,1103.943,57.5885,1103.7087,57.5178,1103.5655,57.6671,1103.299,57.5186,1103.0126,57.3222,1103.1709,57.3878,1102.8407,57.046,1102.8763,56.8557,1102.8323,56.6325,1102.5007,56.2901,1102.5,56.0848,1102.4776,56.0848,1102.5294,52.2178,1102.6521,48.3509,1102.499,44.4839,1102.6079,40.617,1102.5,36.75,1102.3806,36.7006,1102.4565,36.442,1102.8136,36.3,1102.653,35.9435,1103.0198,35.8055,1103.0126,35.5126,1103.031,35.5571,1103.2361,35.3523,1103.4759,35.2313,1103.796,35.3039,1103.9758,35.038,1104.25,35" style="stroke:#181818;stroke-width:0.3499999999999999;"/><text fill="#000000" font-family="FG Virgil" font-size="9.8" lengthAdjust="spacing" textLength="84.7" x="1107.4" y="50.4752">TeacherRepository</text><polygon fill="#E3E3E3" points="1104.25,407.7172,1104.25,407.8643,1111.25,407.4272,1118.25,407.8525,1125.25,407.997,1132.25,407.2178,1139.25,407.6628,1146.25,407.4186,1153.25,407.4487,1160.25,407.6695,1167.25,407.2332,1174.25,408.1047,1181.25,407.276,1188.25,407.5788,1195.25,407.7172,1195.2886,407.8103,1195.4898,407.8012,1195.7511,407.9369,1195.9896,408.0178,1196.2559,408.1657,1196.4874,408.2298,1196.539,408.2511,1196.7162,408.5295,1196.8371,408.7846,1196.9414,409.0329,1196.9524,409.2424,1197,409.4672,1197.1082,409.4672,1197.1639,413.3341,1196.8317,417.2011,1197.1583,421.068,1196.9308,424.935,1197,428.802,1197.1151,428.8496,1196.7908,429.0052,1196.7802,429.2908,1196.8523,429.6106,1196.5794,429.7876,1196.4874,430.0394,1196.4968,430.0621,1196.2702,430.2149,1196.0296,430.3341,1195.7446,430.3461,1195.5231,430.5114,1195.25,430.552,1195.25,430.1513,1188.25,430.751,1181.25,430.9357,1174.25,430.8631,1167.25,430.9811,1160.25,430.2138,1153.25,430.0954,1146.25,430.117,1139.25,430.5107,1132.25,430.4144,1125.25,431.0289,1118.25,430.4297,1111.25,430.3118,1104.25,430.552,1104.2704,430.6012,1103.943,430.3057,1103.7087,430.235,1103.5655,430.3843,1103.299,430.2358,1103.0126,430.0394,1103.1709,430.105,1102.8407,429.7632,1102.8763,429.5729,1102.8323,429.3496,1102.5007,429.0073,1102.5,428.802,1102.4776,428.802,1102.5294,424.935,1102.6521,421.068,1102.499,417.2011,1102.6079,413.3341,1102.5,409.4672,1102.3806,409.4177,1102.4565,409.1592,1102.8136,409.0172,1102.653,408.6607,1103.0198,408.5227,1103.0126,408.2298,1103.031,408.2743,1103.2361,408.0695,1103.4759,407.9485,1103.796,408.0211,1103.9758,407.7552,1104.25,407.7172" style="stroke:#181818;stroke-width:0.3499999999999999;"/><text fill="#000000" font-family="FG Virgil" font-size="9.8" lengthAdjust="spacing" textLength="84.7" x="1107.4" y="423.1924">TeacherRepository</text><polygon fill="#FFFFFF" points="411.25,81.8385,411.25,81.8875,412.65,81.7418,414.05,81.8836,415.45,81.9317,416.85,81.672,418.25,81.8385,418.1956,81.8385,417.9515,88.7858,417.9816,95.7332,418.2023,102.6806,417.766,109.6279,418.6375,116.5753,417.8088,123.5227,418.1116,130.47,418.5524,137.4174,418.19,144.3647,418.2978,151.3121,418.2276,158.2595,418.375,165.2068,418.4174,172.1542,418.66,179.1016,418.7197,186.0489,418.7255,192.9963,418.4282,199.9437,418.5745,206.891,418.7416,213.8384,417.7452,220.7857,418.725,227.7331,418.0424,234.6805,418.6237,241.6278,417.9035,248.5752,418.2021,255.5226,418.7691,262.4699,418.2159,269.4173,418.3237,276.3646,418.487,283.312,418.5414,290.2594,418.2473,297.2067,418.451,304.1541,417.8493,311.1015,418.4491,318.0488,418.6337,324.9962,418.5612,331.9436,418.6791,338.8909,417.9118,345.8383,417.7935,352.7856,417.815,359.733,418.2088,366.6804,418.1124,373.6277,418.727,380.5751,418.1277,387.5225,418.0099,394.4698,418.25,401.4172,418.25,401.4705,416.85,401.2616,415.45,401.2961,414.05,401.5686,412.65,401.5188,411.25,401.4172,411.7641,401.4172,411.0247,394.4698,411.4734,387.5225,411.6633,380.5751,410.9193,373.6277,411.1829,366.6804,411.3382,359.733,411.7062,352.7856,411.2471,345.8383,411.5738,338.8909,410.8624,331.9436,410.7759,324.9962,411.6025,318.0488,410.7481,311.1015,411.6063,304.1541,411.3946,297.2067,411.0625,290.2594,411.0024,283.312,411.5711,276.3646,411.0405,269.4173,411.6643,262.4699,410.8631,255.5226,411.6822,248.5752,411.589,241.6278,411.4215,234.6805,411.2831,227.7331,411.7586,220.7857,411.6795,213.8384,411.3685,206.891,411.4377,199.9437,411.1588,192.9963,411.7515,186.0489,411.3584,179.1016,411.3708,172.1542,410.8242,165.2068,410.9663,158.2595,411.6215,151.3121,411.5508,144.3647,411.2199,137.4174,411.0245,130.47,411.0968,123.5227,410.7697,116.5753,411.5403,109.6279,411.7677,102.6806,411.6185,95.7332,411.7365,88.7858,411.25,81.8385" style="stroke:#181818;stroke-width:0.6999999999999998;"/><polygon fill="#FFFFFF" points="806.05,125.6459,806.05,125.6949,807.45,125.5492,808.85,125.691,810.25,125.7392,811.65,125.4794,813.05,125.6459,812.9956,125.6459,812.7515,132.64,812.7816,139.634,813.0023,146.6281,812.566,153.6222,813.4375,160.6163,812.6088,167.6104,812.9116,174.6044,813.3524,181.5985,812.99,188.5926,813.0978,195.5867,813.0276,202.5807,813.175,209.5748,813.2174,216.5689,813.46,223.563,813.5197,230.557,813.5255,237.5511,813.2282,244.5452,813.3745,251.5393,813.5416,258.5333,812.5452,265.5274,813.525,272.5215,812.8424,279.5156,813.4237,286.5096,812.7035,293.5037,813.0021,300.4978,813.5691,307.4919,813.0159,314.4859,813.1237,321.48,813.287,328.4741,813.05,335.4682,813.05,335.5653,811.65,335.4673,810.25,335.5352,808.85,335.3346,807.45,335.5345,806.05,335.4682,806.4337,335.4682,806.3612,328.4741,806.4791,321.48,805.7118,314.4859,805.5935,307.4919,805.615,300.4978,806.0088,293.5037,805.9124,286.5096,806.527,279.5156,805.9277,272.5215,805.8099,265.5274,806.2098,258.5333,805.5832,251.5393,805.6866,244.5452,806.5043,237.5511,806.355,230.557,806.5641,223.563,805.8247,216.5689,806.2734,209.5748,806.4633,202.5807,805.7193,195.5867,805.9829,188.5926,806.1382,181.5985,806.5062,174.6044,806.0471,167.6104,806.3738,160.6163,805.6624,153.6222,805.5759,146.6281,806.4025,139.634,805.5481,132.64,806.05,125.6459" style="stroke:#181818;stroke-width:0.6999999999999998;"/><polygon fill="#FFFFFF" points="948.85,147.5496,948.85,147.5987,950.25,147.4529,951.65,147.5947,953.05,147.6429,954.45,147.3832,955.85,147.5496,955.7956,147.5496,955.5515,154.7002,955.5816,161.8508,955.8023,169.0015,955.366,176.1521,956.2375,183.3027,955.4088,190.4533,955.7116,197.6039,956.1524,204.7546,955.79,211.9052,955.8978,219.0558,955.8276,226.2064,955.85,233.357,955.85,233.3987,954.45,233.4128,953.05,233.4937,951.65,233.5136,950.25,233.5155,948.85,233.357,949.0282,233.357,949.1745,226.2064,949.3416,219.0558,948.3452,211.9052,949.325,204.7546,948.6424,197.6039,949.2237,190.4533,948.5035,183.3027,948.8021,176.1521,949.3691,169.0015,948.8159,161.8508,948.9237,154.7002,948.85,147.5496" style="stroke:#181818;stroke-width:0.6999999999999998;"/><polygon fill="#FFFFFF" points="1051.05,169.4533,1051.05,169.5024,1052.45,169.3566,1053.85,169.4984,1055.25,169.5466,1056.65,169.2869,1058.05,169.4533,1058.0319,169.4533,1057.9505,173.6533,1057.9605,177.8533,1058.0341,182.0533,1057.8887,186.2533,1058.05,190.4533,1058.05,190.5825,1056.65,190.3063,1055.25,190.4072,1053.85,190.5541,1052.45,190.4333,1051.05,190.4533,1051.0659,190.4533,1051.0425,186.2533,1051.0917,182.0533,1051.1058,177.8533,1051.1867,173.6533,1051.05,169.4533" style="stroke:#181818;stroke-width:0.6999999999999998;"/><polygon fill="#FFFFFF" points="1051.05,304.6682,1051.05,304.7172,1052.45,304.5715,1053.85,304.7133,1055.25,304.7614,1056.65,304.5017,1058.05,304.6682,1058.0319,304.6682,1057.9505,308.8682,1057.9605,313.0682,1058.0341,317.2682,1057.8887,321.4682,1058.05,325.6682,1058.05,325.7973,1056.65,325.5211,1055.25,325.622,1053.85,325.769,1052.45,325.6481,1051.05,325.6682,1051.0659,325.6682,1051.0425,321.4682,1051.0917,317.2682,1051.1058,313.0682,1051.1867,308.8682,1051.05,304.6682" style="stroke:#181818;stroke-width:0.6999999999999998;"/><polygon fill="#FFFFFF" points="1146.25,212.357,1146.25,212.4061,1147.65,212.2604,1149.05,212.4021,1150.45,212.4503,1151.85,212.1906,1153.25,212.357,1153.2319,212.357,1153.1505,216.557,1153.1605,220.757,1153.2341,224.957,1153.0887,229.157,1153.25,233.357,1153.25,233.4862,1151.85,233.21,1150.45,233.3109,1149.05,233.4578,1147.65,233.337,1146.25,233.357,1146.2659,233.357,1146.2425,229.157,1146.2917,224.957,1146.3058,220.757,1146.3867,216.557,1146.25,212.357" style="stroke:#181818;stroke-width:0.6999999999999998;"/><polygon fill="#181818" points="42.35,79.0385,42.3682,79.084,40.9141,79.5087,39.5667,80.2004,38.1846,80.8051,36.6882,81.1239,35.35,81.8385,35.3433,81.8216,36.713,82.3061,38.1168,82.8754,39.5441,83.5037,40.8901,83.9287,42.35,84.6385,42.4413,84.7298,41.686,83.9745,41.1974,83.4858,40.7413,83.0297,40.0958,82.3843,39.55,81.8385,39.5613,81.8497,40.1047,81.2732,40.6995,80.7479,41.2695,80.1979,41.8866,79.6951,42.35,79.0385" style="stroke:#181818;stroke-width:0.6999999999999998;"/><path d="M38.15,81.8385 L38.15,82.0346 L45.1764,81.4518 L52.2028,82.0189 L59.2292,82.2115 L66.2557,81.1726 L73.2821,81.7659 L80.3085,81.4404 L87.3349,81.4805 L94.3613,81.7749 L101.3877,81.1932 L108.4142,82.3552 L115.4406,81.2502 L122.467,81.6539 L129.4934,82.2416 L136.5198,81.7584 L143.5462,81.9022 L150.5726,81.8087 L157.5991,82.0051 L164.6255,82.0617 L171.6519,82.3851 L178.6783,82.4648 L185.7047,82.4725 L192.7311,82.0761 L199.7575,82.2712 L206.784,82.4939 L213.8104,81.1654 L220.8368,82.4718 L227.8632,81.5617 L234.8896,82.3367 L241.916,81.3765 L248.9425,81.7745 L255.9689,82.5306 L262.9953,81.793 L270.0217,81.9368 L277.0481,82.1545 L284.0745,82.227 L291.1009,81.8348 L298.1274,82.1065 L305.1538,81.3042 L312.1802,82.1039 L319.2066,82.3501 L326.233,82.2534 L333.2594,82.4106 L340.2858,81.3876 L347.3123,81.2298 L354.3387,81.2585 L361.3651,81.7835 L368.3915,81.6551 L375.4179,82.4745 L382.4443,81.6754 L389.4708,81.5183 L396.4972,82.0515 L403.5236,81.2161 L410.55,81.8385 " fill="none" style="stroke:#181818;stroke-width:0.6999999999999998;"/><text fill="#000000" font-family="FG Virgil" font-size="9.1" lengthAdjust="spacing" textLength="363.3" x="46.55" y="78.1546">Request data (e.g., ID, title, start time, finish time, start date, finish date, day of the week)</text><polygon fill="#181818" points="402.85,100.9422,402.8682,100.9877,404.2141,101.4124,405.6667,102.1041,407.0846,102.7088,408.3882,103.0276,409.85,103.7422,409.8433,103.7254,408.413,104.2098,407.0168,104.7791,405.6441,105.4074,404.1901,105.8324,402.85,106.5422,402.9413,106.6335,403.306,105.8782,403.9374,105.3896,404.6013,104.9335,405.0758,104.288,405.65,103.7422,405.6613,103.7534,405.0847,103.1769,404.5595,102.6516,404.0095,102.1016,403.5066,101.5988,402.85,100.9422" style="stroke:#181818;stroke-width:0.6999999999999998;"/><path d="M34.65,103.7422 L34.65,103.9384 L41.6764,103.3555 L48.7028,103.9226 L55.7292,104.1152 L62.7557,103.0764 L69.7821,103.6697 L76.8085,103.3441 L83.8349,103.3843 L90.8613,103.6786 L97.8877,103.0969 L104.9142,104.2589 L111.9406,103.1539 L118.967,103.5576 L125.9934,104.1453 L133.0198,103.6621 L140.0462,103.8059 L147.0726,103.7124 L154.0991,103.9088 L161.1255,103.9654 L168.1519,104.2888 L175.1783,104.3685 L182.2047,104.3762 L189.2311,103.9798 L196.2575,104.1749 L203.284,104.3976 L210.3104,103.0691 L217.3368,104.3755 L224.3632,103.4655 L231.3896,104.2404 L238.416,103.2802 L245.4425,103.6783 L252.4689,104.4344 L259.4953,103.6967 L266.5217,103.8405 L273.5481,104.0582 L280.5745,104.1307 L287.6009,103.7385 L294.6274,104.0103 L301.6538,103.2079 L308.6802,104.0076 L315.7066,104.2538 L322.733,104.1571 L329.7594,104.3143 L336.7858,103.2913 L343.8123,103.1335 L350.8387,103.1622 L357.8651,103.6872 L364.8915,103.5588 L371.9179,104.3782 L378.9443,103.5792 L385.9708,103.422 L392.9972,103.9552 L400.0236,103.1198 L407.05,103.7422 " fill="none" style="stroke:#181818;stroke-width:0.6999999999999998;"/><text fill="#000000" font-family="FG Virgil" font-size="9.1" lengthAdjust="spacing" textLength="92.4" x="39.55" y="100.0583">Provide requested data</text><polygon fill="#181818" points="797.65,122.8459,797.6682,122.8914,799.0141,123.3161,800.4667,124.0078,801.8846,124.6125,803.1882,124.9313,804.65,125.6459,804.6433,125.6291,803.213,126.1135,801.8168,126.6828,800.4441,127.3111,798.9901,127.7361,797.65,128.4459,797.7413,128.5372,798.106,127.7819,798.7374,127.2933,799.4013,126.8372,799.8758,126.1917,800.45,125.6459,800.4613,125.6572,799.8847,125.0806,799.3595,124.5554,798.8095,124.0054,798.3066,123.5025,797.65,122.8459" style="stroke:#181818;stroke-width:0.6999999999999998;"/><path d="M418.25,125.6459 L418.25,125.8421 L425.2245,125.2592 L432.1991,125.8263 L439.1736,126.0189 L446.1482,124.9801 L453.1227,125.5734 L460.0973,125.2478 L467.0718,125.288 L474.0464,125.5823 L481.0209,125.0006 L487.9955,126.1626 L494.97,125.0576 L501.9445,125.4613 L508.9191,126.049 L515.8936,125.5658 L522.8682,125.7096 L529.8427,125.6161 L536.8173,125.8125 L543.7918,125.8691 L550.7664,126.1925 L557.7409,126.2722 L564.7155,126.2799 L571.69,125.8836 L578.6645,126.0786 L585.6391,126.3013 L592.6136,124.9728 L599.5882,126.2792 L606.5627,125.3692 L613.5373,126.1441 L620.5118,125.1839 L627.4864,125.582 L634.4609,126.3381 L641.4355,125.6004 L648.41,125.7442 L655.3845,125.962 L662.3591,126.0344 L669.3336,125.6423 L676.3082,125.914 L683.2827,125.1116 L690.2573,125.9113 L697.2318,126.1575 L704.2064,126.0608 L711.1809,126.2181 L718.1555,125.195 L725.13,125.0372 L732.1045,125.0659 L739.0791,125.5909 L746.0536,125.4625 L753.0282,126.2819 L760.0027,125.4829 L766.9773,125.3257 L773.9518,125.8589 L780.9264,125.0235 L787.9009,125.1614 L794.8755,126.2516 L801.85,125.6459 " fill="none" style="stroke:#181818;stroke-width:0.6999999999999998;"/><text fill="#000000" font-family="FG Virgil" font-size="9.1" lengthAdjust="spacing" textLength="374.5" x="423.15" y="121.962">scheduleClass( id, title,startTime,  finishTime, start_date,  finishDate,  day, teacherAcronym)</text><polygon fill="#181818" points="940.45,144.7496,940.4682,144.7951,941.8141,145.2198,943.2667,145.9115,944.6846,146.5162,945.9882,146.8351,947.45,147.5496,947.4433,147.5328,946.013,148.0172,944.6168,148.5865,943.2441,149.2148,941.7901,149.6398,940.45,150.3496,940.5413,150.441,940.906,149.6856,941.5374,149.197,942.2013,148.7409,942.6758,148.0955,943.25,147.5496,943.2613,147.5609,942.6847,146.9843,942.1595,146.4591,941.6095,145.9091,941.1066,145.4062,940.45,144.7496" style="stroke:#181818;stroke-width:0.6999999999999998;"/><path d="M813.05,147.5496 L813.05,147.7458 L819.9763,147.1629 L826.9026,147.73 L833.8289,147.9226 L840.7553,146.8838 L847.6816,147.4771 L854.6079,147.1515 L861.5342,147.1917 L868.4605,147.486 L875.3868,146.9043 L882.3132,148.0663 L889.2395,146.9613 L896.1658,147.365 L903.0921,147.9528 L910.0184,147.4696 L916.9447,147.6133 L923.8711,147.5198 L930.7974,147.7162 L937.7237,147.7728 L944.65,147.5496 " fill="none" style="stroke:#181818;stroke-width:0.6999999999999998;"/><text fill="#000000" font-family="FG Virgil" font-size="9.1" lengthAdjust="spacing" textLength="122.5" x="817.95" y="143.8657">scheduleClass(Classe classe)</text><polygon fill="#181818" points="1042.65,166.6533,1042.6682,166.6989,1044.0141,167.1236,1045.4667,167.8152,1046.8846,168.4199,1048.1882,168.7388,1049.65,169.4533,1049.6433,169.4365,1048.213,169.9209,1046.8168,170.4902,1045.4441,171.1186,1043.9901,171.5435,1042.65,172.2533,1042.7413,172.3447,1043.106,171.5893,1043.7374,171.1007,1044.4013,170.6446,1044.8758,169.9992,1045.45,169.4533,1045.4613,169.4646,1044.8847,168.888,1044.3595,168.3628,1043.8095,167.8128,1043.3066,167.31,1042.65,166.6533" style="stroke:#181818;stroke-width:0.6999999999999998;"/><path d="M955.85,169.4533 L955.85,169.6495 L962.85,169.0666 L969.85,169.6337 L976.85,169.8264 L983.85,168.7875 L990.85,169.3808 L997.85,169.0553 L1004.85,169.0954 L1011.85,169.3897 L1018.85,168.808 L1025.85,169.9701 L1032.85,168.8651 L1039.85,169.2687 L1046.85,169.4533 " fill="none" style="stroke:#181818;stroke-width:0.6999999999999998;"/><text fill="#000000" font-family="FG Virgil" font-size="9.1" lengthAdjust="spacing" textLength="30.1" x="960.75" y="165.7694">findAll()</text><polygon fill="#181818" points="1137.85,209.557,1137.8682,209.6026,1139.2141,210.0273,1140.6667,210.7189,1142.0846,211.3236,1143.3882,211.6425,1144.85,212.357,1144.8433,212.3402,1143.413,212.8246,1142.0168,213.3939,1140.6441,214.0223,1139.1901,214.4472,1137.85,215.157,1137.9413,215.2484,1138.306,214.493,1138.9374,214.0044,1139.6013,213.5483,1140.0758,212.9029,1140.65,212.357,1140.6613,212.3683,1140.0847,211.7918,1139.5595,211.2665,1139.0095,210.7165,1138.5066,210.2137,1137.85,209.557" style="stroke:#181818;stroke-width:0.6999999999999998;"/><path d="M955.85,212.357 L955.85,212.5532 L962.7463,211.9703 L969.6426,212.5374 L976.5389,212.7301 L983.4352,211.6912 L990.3315,212.2845 L997.2278,211.959 L1004.1241,211.9991 L1011.0204,212.2934 L1017.9167,211.7118 L1024.813,212.8738 L1031.7093,211.7688 L1038.6056,212.1724 L1045.5019,212.7602 L1052.3981,212.277 L1059.2944,212.4207 L1066.1907,212.3272 L1073.087,212.5237 L1079.9833,212.5802 L1086.8796,212.9037 L1093.7759,212.9833 L1100.6722,212.991 L1107.5685,212.5947 L1114.4648,212.7897 L1121.3611,213.0124 L1128.2574,211.6839 L1135.1537,212.9903 L1142.05,212.357 " fill="none" style="stroke:#181818;stroke-width:0.6999999999999998;"/><text fill="#000000" font-family="FG Virgil" font-size="9.1" lengthAdjust="spacing" textLength="99.4" x="960.75" y="208.6731">findTeacherByAcronym()</text><path d="M7,243.857 L7,244.2494 L14.1167,243.0836 L21.2333,244.2178 L28.35,244.6031 L35.4667,242.5254 L42.5833,243.712 L49.7,243.857 L49.4346,243.857 L49.4614,245.1578 L49.6576,246.4585 L49.2698,247.7593 L50.0445,249.06 L49.7,250.3607 L49.4227,250.0834 L48.213,251.6737 L47.09,253.3508 L45.4623,254.523 L44.13,255.9908 L42.7,257.3607 L42.7,257.3011 L35.56,257.694 L28.42,257.8071 L21.28,258.454 L14.14,258.6134 L7,257.3607 L7.4226,257.3607 L7.1584,254.66 L7.2885,251.9593 L7.4369,249.2585 L6.5513,246.5578 L7,243.857 " fill="#EEEEEE" style="stroke:#000000;stroke-width:1.0499999999999998;"/><polygon fill="none" points="7,243.857,7,244.0042,13.9777,243.567,20.9554,243.9923,27.9331,244.1368,34.9108,243.3577,41.8885,243.8026,48.8662,243.5585,55.8439,243.5886,62.8217,243.8093,69.7994,243.3731,76.7771,244.2446,83.7548,243.4158,90.7325,243.7186,97.7102,244.1594,104.6879,243.797,111.6656,243.9048,118.6433,243.8347,125.621,243.982,132.5987,244.0244,139.5764,244.267,146.5541,244.3268,153.5318,244.3325,160.5096,244.0353,167.4873,244.1815,174.465,244.3486,181.4427,243.3522,188.4204,244.332,195.3981,243.6495,202.3758,244.2307,209.3535,243.5105,216.3312,243.8091,223.3089,244.3762,230.2866,243.8229,237.2643,243.9307,244.242,244.0941,251.2197,244.1484,258.1975,243.8543,265.1752,244.0581,272.1529,243.4563,279.1306,244.0561,286.1083,244.2408,293.086,244.1682,300.0637,244.2861,307.0414,243.5189,314.0191,243.4005,320.9968,243.4221,327.9745,243.8158,334.9522,243.7195,341.9299,244.334,348.9076,243.7348,355.8854,243.6169,362.8631,244.0168,369.8408,243.3902,376.8185,243.4936,383.7962,244.3113,390.7739,244.162,397.7516,244.3712,404.7293,243.6318,411.707,244.0805,418.6847,244.2703,425.6624,243.5263,432.6401,243.7899,439.6178,243.9452,446.5955,244.3133,453.5732,243.8541,460.551,244.1808,467.5287,243.4694,474.5064,243.383,481.4841,244.2096,488.4618,243.3552,495.4395,244.2133,502.4172,244.0017,509.3949,243.6695,516.3726,243.6094,523.3503,244.1782,530.328,243.6475,537.3057,244.2713,544.2834,243.4701,551.2611,244.2892,558.2389,244.196,565.2166,244.0285,572.1943,243.8901,579.172,244.3657,586.1497,244.2865,593.1274,243.9755,600.1051,244.0448,607.0828,243.7658,614.0605,244.3585,621.0382,243.9654,628.0159,243.9778,634.9936,243.4312,641.9713,243.5734,648.949,244.2286,655.9268,244.1579,662.9045,243.827,669.8822,243.6315,676.8599,243.7038,683.8376,243.3767,690.8153,244.1473,697.793,244.3747,704.7707,244.2255,711.7484,244.3435,718.7261,243.7613,725.7038,243.9181,732.6815,243.5857,739.6592,244.0559,746.6369,244.0298,753.6146,244.2437,760.5924,243.6963,767.5701,243.7629,774.5478,244.1675,781.5255,244.2542,788.5032,243.4983,795.4809,243.7213,802.4586,243.9615,809.4363,243.4294,816.414,244.1044,823.3917,244.0376,830.3694,243.7865,837.3471,243.9566,844.3248,244.3671,851.3025,243.638,858.2803,244.0775,865.258,244.057,872.2357,243.9381,879.2134,243.9557,886.1911,243.9365,893.1688,243.4201,900.1465,243.5765,907.1242,243.534,914.1019,243.9017,921.0796,243.9187,928.0573,243.9703,935.035,243.6533,942.0127,243.8098,948.9904,243.7729,955.9682,244.2608,962.9459,244.1556,969.9236,243.5172,976.9013,243.806,983.879,243.453,990.8567,244.0589,997.8344,244.283,1004.8121,244.2382,1011.7898,243.5521,1018.7675,244.1818,1025.7452,243.3371,1032.7229,243.9971,1039.7006,243.6475,1046.6783,243.9247,1053.6561,244.0253,1060.6338,244.1875,1067.6115,243.3531,1074.5892,244.1899,1081.5669,243.9818,1088.5446,244.1058,1095.5223,244.3805,1102.5,243.857,1102.5038,243.857,1102.6227,250.7961,1102.6494,257.7352,1102.6381,264.6743,1102.4994,271.6134,1102.9975,278.5525,1102.0732,285.4916,1102.8957,292.4307,1102.0632,299.3698,1102.1218,306.3089,1102.528,313.248,1102.5198,320.1871,1102.155,327.1262,1102.7896,334.0653,1102.5762,341.0044,1103.0087,347.9435,1102.967,354.8826,1102.1862,361.8217,1102.2215,368.7608,1102.4096,375.6999,1102.7489,382.639,1102.7821,389.5781,1102.5,396.5172,1102.5,396.728,1095.5223,396.2778,1088.5446,396.9626,1081.5669,396.9608,1074.5892,396.4841,1067.6115,396.3498,1060.6338,396.2362,1053.6561,396.367,1046.6783,396.6134,1039.7006,396.4693,1032.7229,396.2247,1025.7452,396.8584,1018.7675,396.1959,1011.7898,396.8689,1004.8121,396.8163,997.8344,396.7775,990.8567,397.0019,983.879,396.3451,976.9013,396.3067,969.9236,396.8804,962.9459,396.0994,955.9682,396.3534,948.9904,396.598,942.0127,396.5653,935.035,396.2663,928.0573,396.4871,921.0796,397.0384,914.1019,396.9711,907.1242,396.0998,900.1465,396.5722,893.1688,396.1575,886.1911,396.4988,879.2134,396.7223,872.2357,396.8111,865.258,396.0519,858.2803,396.7976,851.3025,396.5231,844.3248,396.1284,837.3471,396.1875,830.3694,396.7458,823.3917,396.6921,816.414,396.5057,809.4363,396.0467,802.4586,396.9779,795.4809,396.2989,788.5032,396.1475,781.5255,396.4701,774.5478,396.93,767.5701,396.948,760.5924,396.5418,753.6146,396.4114,746.6369,396.636,739.6592,396.6475,732.6815,396.1617,725.7038,396.807,718.7261,396.9083,711.7484,396.3662,704.7707,396.2168,697.793,396.9894,690.8153,396.5319,683.8376,396.5171,676.8599,396.7265,669.8822,396.0652,662.9045,396.8882,655.9268,396.5064,648.949,396.9854,641.9713,396.3661,634.9936,396.8035,628.0159,396.2064,621.0382,396.6887,614.0605,396.7827,607.0828,396.288,600.1051,396.7713,593.1274,396.1172,586.1497,396.1878,579.172,396.9952,572.1943,396.9963,565.2166,396.9151,558.2389,396.2649,551.2611,396.7861,544.2834,396.1867,537.3057,396.5579,530.328,396.5163,523.3503,396.3335,516.3726,396.9483,509.3949,396.8275,502.4172,396.2927,495.4395,396.8858,488.4618,396.5815,481.4841,396.1087,474.5064,396.3539,467.5287,396.1495,460.551,396.4198,453.5732,396.0769,446.5955,396.0971,439.6178,396.5664,432.6401,396.4329,425.6624,396.4762,418.6847,396.4169,411.707,396.6343,404.7293,396.1286,397.7516,396.6292,390.7739,395.997,383.7962,396.7244,376.8185,396.9321,369.8408,396.8827,362.8631,396.7701,355.8854,396.6517,348.9076,396.5912,341.9299,396.0692,334.9522,396.8298,327.9745,396.7479,320.9968,396.4098,314.0191,396.5131,307.0414,396.3712,300.0637,396.6696,293.086,396.9936,286.1083,396.2695,279.1306,396.8454,272.1529,396.4547,265.1752,396.2517,258.1975,396.2149,251.2197,396.0659,244.242,396.2086,237.2643,396.5426,230.2866,396.7083,223.3089,396.9205,216.3312,396.8113,209.3535,396.0192,202.3758,396.9505,195.3981,396.8575,188.4204,396.8957,181.4427,396.8825,174.465,396.0558,167.4873,396.3368,160.5096,396.7384,153.5318,396.1801,146.5541,396.4452,139.5764,396.5641,132.5987,396.7454,125.621,396.5492,118.6433,397.0385,111.6656,396.8052,104.6879,396.6964,97.7102,396.1392,90.7325,396.7543,83.7548,396.1151,76.7771,396.7312,69.7994,396.5226,62.8217,396.7268,55.8439,396.456,48.8662,396.3799,41.8885,395.9986,34.9108,396.3671,27.9331,396.0237,20.9554,396.3449,13.9777,396.8237,7,396.5172,7.1125,396.5172,6.6839,389.5781,7.1721,382.639,7.0459,375.6999,7.3803,368.7608,7.3955,361.8217,7.0656,354.8826,6.8747,347.9435,6.8499,341.0044,6.9955,334.0653,7.4684,327.1262,6.5284,320.1871,6.8853,313.248,7.1867,306.3089,7.5122,299.3698,7.1483,292.4307,6.8612,285.4916,6.4834,278.5525,6.7033,271.6134,6.8447,264.6743,7.2379,257.7352,7.2586,250.7961,7,243.857" style="stroke:#000000;stroke-width:1.0499999999999998;"/><text fill="#000000" font-family="FG Virgil" font-size="9.1" font-weight="bold" lengthAdjust="spacing" textLength="11.2" x="17.5" y="254.3769">alt</text><text fill="#000000" font-family="FG Virgil" font-size="7.7" font-weight="bold" lengthAdjust="spacing" textLength="90.3" x="60.2" y="253.5661">[Does not have conflict]</text><path d="M813.05,273.6645 L813.05,273.7298 L818.93,273.5356 L824.81,273.7246 L830.69,273.7888 L836.57,273.4425 L842.45,273.6645 " fill="none" style="stroke:#181818;stroke-width:0.6999999999999998;"/><path d="M842.45,273.6645 L842.5154,273.6645 L842.3211,275.4845 L842.5101,277.3045 L842.5743,279.1245 L842.2281,280.9445 L842.45,282.7645 " fill="none" style="stroke:#181818;stroke-width:0.6999999999999998;"/><path d="M813.75,282.7645 L813.75,282.8298 L819.49,282.6356 L825.23,282.8246 L830.97,282.8888 L836.71,282.5425 L842.45,282.7645 " fill="none" style="stroke:#181818;stroke-width:0.6999999999999998;"/><polygon fill="#181818" points="820.75,279.9645,820.7682,280.01,819.3141,280.4347,817.9667,281.1263,816.5846,281.731,815.0882,282.0499,813.75,282.7645,813.7433,282.7476,815.113,283.2321,816.5168,283.8014,817.9441,284.4297,819.2901,284.8547,820.75,285.5645,820.8413,285.6558,820.086,284.9005,819.5974,284.4118,819.1413,283.9557,818.4958,283.3103,817.95,282.7645,817.9613,282.7757,818.5047,282.1992,819.0995,281.6739,819.6695,281.1239,820.2866,280.6211,820.75,279.9645" style="stroke:#181818;stroke-width:0.6999999999999998;"/><text fill="#000000" font-family="FG Virgil" font-size="9.1" lengthAdjust="spacing" textLength="83.3" x="817.95" y="269.9806">checkClassConflict()</text><polygon fill="#181818" points="1042.65,301.8682,1042.6682,301.9137,1044.0141,302.3384,1045.4667,303.03,1046.8846,303.6348,1048.1882,303.9536,1049.65,304.6682,1049.6433,304.6513,1048.213,305.1358,1046.8168,305.7051,1045.4441,306.3334,1043.9901,306.7584,1042.65,307.4682,1042.7413,307.5595,1043.106,306.8042,1043.7374,306.3155,1044.4013,305.8594,1044.8758,305.214,1045.45,304.6682,1045.4613,304.6794,1044.8847,304.1029,1044.3595,303.5776,1043.8095,303.0276,1043.3066,302.5248,1042.65,301.8682" style="stroke:#181818;stroke-width:0.6999999999999998;"/><path d="M813.05,304.6682 L813.05,304.8643 L820.1348,304.2815 L827.2197,304.8486 L834.3045,305.0412 L841.3894,304.0023 L848.4742,304.5956 L855.5591,304.2701 L862.6439,304.3102 L869.7288,304.6046 L876.8136,304.0229 L883.8985,305.1849 L890.9833,304.0799 L898.0682,304.4836 L905.153,305.0713 L912.2379,304.5881 L919.3227,304.7319 L926.4076,304.6383 L933.4924,304.8348 L940.5773,304.8914 L947.6621,305.2148 L954.747,305.2945 L961.8318,305.3021 L968.9167,304.9058 L976.0015,305.1008 L983.0864,305.3236 L990.1712,303.9951 L997.2561,305.3014 L1004.3409,304.3914 L1011.4258,305.1664 L1018.5106,304.2061 L1025.5955,304.6042 L1032.6803,305.3603 L1039.7652,304.6227 L1046.85,304.6682 " fill="none" style="stroke:#181818;stroke-width:0.6999999999999998;"/><text fill="#000000" font-family="FG Virgil" font-size="9.1" lengthAdjust="spacing" textLength="81.2" x="817.95" y="300.9843">save(Classe classe)</text><polygon fill="#181818" points="425.95,332.6682,425.9682,332.7137,424.5141,333.1384,423.1667,333.83,421.7846,334.4348,420.2882,334.7536,418.95,335.4682,418.9433,335.4513,420.313,335.9358,421.7168,336.5051,423.1441,337.1334,424.4901,337.5584,425.95,338.2682,426.0413,338.3595,425.286,337.6042,424.7974,337.1155,424.3413,336.6594,423.6958,336.014,423.15,335.4682,423.1613,335.4794,423.7047,334.9029,424.2995,334.3776,424.8695,333.8276,425.4866,333.3248,425.95,332.6682" style="stroke:#181818;stroke-width:0.6999999999999998;"/><path d="M421.75,335.4682 L421.75,335.6643 L428.7882,335.0815 L435.8264,335.6486 L442.8645,335.8412 L449.9027,334.8023 L456.9409,335.3956 L463.9791,335.0701 L471.0173,335.1102 L478.0555,335.4046 L485.0936,334.8229 L492.1318,335.9849 L499.17,334.8799 L506.2082,335.2836 L513.2464,335.8713 L520.2845,335.3881 L527.3227,335.5319 L534.3609,335.4383 L541.3991,335.6348 L548.4373,335.6914 L555.4755,336.0148 L562.5136,336.0945 L569.5518,336.1021 L576.59,335.7058 L583.6282,335.9008 L590.6664,336.1236 L597.7045,334.7951 L604.7427,336.1014 L611.7809,335.1914 L618.8191,335.9664 L625.8573,335.0061 L632.8955,335.4042 L639.9336,336.1603 L646.9718,335.4227 L654.01,335.5664 L661.0482,335.7842 L668.0864,335.8566 L675.1245,335.4645 L682.1627,335.7362 L689.2009,334.9339 L696.2391,335.7336 L703.2773,335.9798 L710.3155,335.8831 L717.3536,336.0403 L724.3918,335.0173 L731.43,334.8595 L738.4682,334.8882 L745.5064,335.4132 L752.5445,335.2847 L759.5827,336.1041 L766.6209,335.3051 L773.6591,335.148 L780.6973,335.6812 L787.7355,334.8458 L794.7736,334.9836 L801.8118,336.0739 L808.85,335.4682 " fill="none" style="stroke:#181818;stroke-width:0.6999999999999998;"/><polygon fill="#181818" points="42.35,354.5719,42.3682,354.6174,40.9141,355.0421,39.5667,355.7337,38.1846,356.3385,36.6882,356.6573,35.35,357.3719,35.3433,357.355,36.713,357.8395,38.1168,358.4088,39.5441,359.0371,40.8901,359.4621,42.35,360.1719,42.4413,360.2632,41.686,359.5079,41.1974,359.0192,40.7413,358.5631,40.0958,357.9177,39.55,357.3719,39.5613,357.3831,40.1047,356.8066,40.6995,356.2813,41.2695,355.7313,41.8866,355.2285,42.35,354.5719" style="stroke:#181818;stroke-width:0.6999999999999998;"/><path d="M38.15,357.3719 L38.15,357.568 L45.1764,356.9852 L52.2028,357.5523 L59.2292,357.7449 L66.2557,356.706 L73.2821,357.2993 L80.3085,356.9738 L87.3349,357.0139 L94.3613,357.3083 L101.3877,356.7266 L108.4142,357.8886 L115.4406,356.7836 L122.467,357.1873 L129.4934,357.775 L136.5198,357.2918 L143.5462,357.4356 L150.5726,357.3421 L157.5991,357.5385 L164.6255,357.5951 L171.6519,357.9185 L178.6783,357.9982 L185.7047,358.0058 L192.7311,357.6095 L199.7575,357.8046 L206.784,358.0273 L213.8104,356.6988 L220.8368,358.0052 L227.8632,357.0951 L234.8896,357.8701 L241.916,356.9099 L248.9425,357.3079 L255.9689,358.064 L262.9953,357.3264 L270.0217,357.4702 L277.0481,357.6879 L284.0745,357.7604 L291.1009,357.3682 L298.1274,357.6399 L305.1538,356.8376 L312.1802,357.6373 L319.2066,357.8835 L326.233,357.7868 L333.2594,357.944 L340.2858,356.921 L347.3123,356.7632 L354.3387,356.7919 L361.3651,357.3169 L368.3915,357.1884 L375.4179,358.0079 L382.4443,357.2088 L389.4708,357.0517 L396.4972,357.5849 L403.5236,356.7495 L410.55,357.3719 " fill="none" style="stroke:#181818;stroke-width:0.6999999999999998;"/><text fill="#000000" font-family="FG Virgil" font-size="9.1" lengthAdjust="spacing" textLength="179.2" x="46.55" y="353.688">System types : "Class has been scheduled"</text><path d="M7,363.6719 L7,363.868 L13.9777,363.2852 L20.9554,363.8523 L27.9331,364.0449 L34.9108,363.006 L41.8885,363.5993 L48.8662,363.2738 L55.8439,363.3139 L62.8217,363.6083 L69.7994,363.0266 L76.7771,364.1886 L83.7548,363.0836 L90.7325,363.4873 L97.7102,364.075 L104.6879,363.5918 L111.6656,363.7356 L118.6433,363.6421 L125.621,363.8385 L132.5987,363.8951 L139.5764,364.2185 L146.5541,364.2982 L153.5318,364.3058 L160.5096,363.9095 L167.4873,364.1046 L174.465,364.3273 L181.4427,362.9988 L188.4204,364.3052 L195.3981,363.3951 L202.3758,364.1701 L209.3535,363.2099 L216.3312,363.6079 L223.3089,364.364 L230.2866,363.6264 L237.2643,363.7702 L244.242,363.9879 L251.2197,364.0604 L258.1975,363.6682 L265.1752,363.9399 L272.1529,363.1376 L279.1306,363.9373 L286.1083,364.1835 L293.086,364.0868 L300.0637,364.244 L307.0414,363.221 L314.0191,363.0632 L320.9968,363.0919 L327.9745,363.6169 L334.9522,363.4884 L341.9299,364.3079 L348.9076,363.5088 L355.8854,363.3517 L362.8631,363.8849 L369.8408,363.0495 L376.8185,363.1874 L383.7962,364.2776 L390.7739,364.0785 L397.7516,364.3574 L404.7293,363.3715 L411.707,363.9698 L418.6847,364.2229 L425.6624,363.231 L432.6401,363.5824 L439.6178,363.7895 L446.5955,364.2802 L453.5732,363.668 L460.551,364.1036 L467.5287,363.155 L474.5064,363.0398 L481.4841,364.1419 L488.4618,363.0027 L495.4395,364.1469 L502.4172,363.8647 L509.3949,363.4218 L516.3726,363.3417 L523.3503,364.1001 L530.328,363.3925 L537.3057,364.2243 L544.2834,363.156 L551.2611,364.2481 L558.2389,364.1239 L565.2166,363.9005 L572.1943,363.7159 L579.172,364.35 L586.1497,364.2445 L593.1274,363.8298 L600.1051,363.9222 L607.0828,363.5503 L614.0605,364.3406 L621.0382,363.8164 L628.0159,363.8329 L634.9936,363.1041 L641.9713,363.2937 L648.949,364.1672 L655.9268,364.073 L662.9045,363.6318 L669.8822,363.3712 L676.8599,363.4675 L683.8376,363.0314 L690.8153,364.059 L697.793,364.3621 L704.7707,364.1632 L711.7484,364.3205 L718.7261,363.5443 L725.7038,363.7533 L732.6815,363.3101 L739.6592,363.937 L746.6369,363.9022 L753.6146,364.1874 L760.5924,363.4575 L767.5701,363.5464 L774.5478,364.0858 L781.5255,364.2014 L788.5032,363.1935 L795.4809,363.4909 L802.4586,363.8112 L809.4363,363.1018 L816.414,364.0017 L823.3917,363.9127 L830.3694,363.5778 L837.3471,363.8046 L844.3248,364.352 L851.3025,363.3799 L858.2803,363.9659 L865.258,363.9385 L872.2357,363.7799 L879.2134,363.8034 L886.1911,363.7778 L893.1688,363.0893 L900.1465,363.2978 L907.1242,363.2411 L914.1019,363.7314 L921.0796,363.7541 L928.0573,363.8228 L935.035,363.4003 L942.0127,363.6089 L948.9904,363.5597 L955.9682,364.2103 L962.9459,364.07 L969.9236,363.2187 L976.9013,363.6038 L983.879,363.1331 L990.8567,363.941 L997.8344,364.2398 L1004.8121,364.1801 L1011.7898,363.2654 L1018.7675,364.1049 L1025.7452,362.9786 L1032.7229,363.8587 L1039.7006,363.3925 L1046.6783,363.7621 L1053.6561,363.8962 L1060.6338,364.1125 L1067.6115,363 L1074.5892,364.1157 L1081.5669,363.8382 L1088.5446,364.0035 L1095.5223,364.3698 L1102.5,363.6719 " fill="none" style="stroke:#000000;stroke-width:0.6999999999999998;stroke-dasharray:2.0,2.0;"/><text fill="#000000" font-family="FG Virgil" font-size="7.7" font-weight="bold" lengthAdjust="spacing" textLength="49.7" x="10.5" y="371.981">[Has conflict]</text><polygon fill="#181818" points="42.35,388.1172,42.3682,388.1627,40.9141,388.5874,39.5667,389.2791,38.1846,389.8838,36.6882,390.2026,35.35,390.9172,35.3433,390.9004,36.713,391.3848,38.1168,391.9541,39.5441,392.5824,40.8901,393.0074,42.35,393.7172,42.4413,393.8085,41.686,393.0532,41.1974,392.5646,40.7413,392.1085,40.0958,391.463,39.55,390.9172,39.5613,390.9284,40.1047,390.3519,40.6995,389.8266,41.2695,389.2766,41.8866,388.7738,42.35,388.1172" style="stroke:#181818;stroke-width:0.6999999999999998;"/><path d="M38.15,390.9172 L38.15,391.1134 L45.1764,390.5305 L52.2028,391.0976 L59.2292,391.2902 L66.2557,390.2514 L73.2821,390.8447 L80.3085,390.5191 L87.3349,390.5593 L94.3613,390.8536 L101.3877,390.2719 L108.4142,391.4339 L115.4406,390.3289 L122.467,390.7326 L129.4934,391.3203 L136.5198,390.8371 L143.5462,390.9809 L150.5726,390.8874 L157.5991,391.0838 L164.6255,391.1404 L171.6519,391.4638 L178.6783,391.5435 L185.7047,391.5512 L192.7311,391.1548 L199.7575,391.3499 L206.784,391.5726 L213.8104,390.2441 L220.8368,391.5505 L227.8632,390.6405 L234.8896,391.4154 L241.916,390.4552 L248.9425,390.8533 L255.9689,391.6094 L262.9953,390.8717 L270.0217,391.0155 L277.0481,391.2332 L284.0745,391.3057 L291.1009,390.9135 L298.1274,391.1853 L305.1538,390.3829 L312.1802,391.1826 L319.2066,391.4288 L326.233,391.3321 L333.2594,391.4893 L340.2858,390.4663 L347.3123,390.3085 L354.3387,390.3372 L361.3651,390.8622 L368.3915,390.7338 L375.4179,391.5532 L382.4443,390.7542 L389.4708,390.597 L396.4972,391.1302 L403.5236,390.2948 L410.55,390.9172 " fill="none" style="stroke:#181818;stroke-width:0.6999999999999998;"/><text fill="#000000" font-family="FG Virgil" font-size="9.1" lengthAdjust="spacing" textLength="174.3" x="46.55" y="387.2333">System types : "Conflict between Classes"</text><!--SRC=[XLH1Zjim3Bph5SHUcWBfFi270ka6s_fI54tIQw5QJ2n4bbo9IU3VbvBbHbx4s4jYaiFHa2FxGpXhsqilEmX8fEqfY7kgbLRTl2P22-GlM9GwPrtJUjVXsqelcxCyuOu6W-2neQAcy2WlXbwTfU-IMr-_mY_jJzeKcD1AvMwi18xI11H2DkGyx54sBNgG0JOn8HXDkj6zj0GxBgcBmHSZGpZK4NIebn4lVBvtnenqzsYvOuV-gXkCyFmumoRCJ-nTq2njYB0OpJ1vW3cgI0h1mZzz7gUhkF_l1GE1aYHXXS-dvpNKspMG9eDh2CJK77JyVDHMXpO7Ou6xxeKnK780TmHg4Mw8vuznh_hAfRYgT6Wy_L1NyCExgrRHl2G1LH8nwRklgu9GxcW5Matwaefz4fHLxE_gVe-2Sc4x1YoFcyTrR1hlxD0L4WkF2lDOJNRZhPJqYz2alu9dCc_oandYxg6AOjJ6c5K1JguedCT5Ps5U9iYPBqEUe6GhhIv85zAJK6a8jWu3M4VyFbvv9cUFHlDhDLz44LN0ZCrvkke9pKhc-AmwCENYjXukO4x3Tw8g8OLHvNtcatO3NwKEQEXvcWgUqg4yKe0_oD-NoJ_r90JoUm_VkF9_rlUuCewfw1RPneb2vB9A2F7OXYKV7XcnD6IPFzJ_0000]--></g></svg>