<?xml version="1.0" encoding="UTF-8" standalone="no"?><svg xmlns="http://www.w3.org/2000/svg" xmlns:xlink="http://www.w3.org/1999/xlink" contentStyleType="text/css" height="817px" preserveAspectRatio="none" style="width:1952px;height:817px;background:#FFFFFF;" version="1.1" viewBox="0 0 1952 817" width="1952px" zoomAndPan="magnify"><defs/><g><polygon fill="#FFFFFF" points="211.5,111.1641,211.5,111.2341,213.5,111.026,215.5,111.2285,217.5,111.2973,219.5,110.9263,221.5,111.1641,221.4223,111.1641,221.0735,121.1374,221.1165,131.1108,221.4318,141.0841,220.8086,151.0575,222.0536,161.0309,220.8697,171.0042,221.3022,180.9776,221.9319,190.9509,221.4142,200.9243,221.5682,210.8977,221.4681,220.871,221.6785,230.8444,221.7391,240.8178,222.0857,250.7911,222.1711,260.7645,222.1793,270.7378,221.7546,280.7112,221.9636,290.6846,222.2022,300.6579,220.7788,310.6313,222.1785,320.6046,221.2035,330.578,222.0338,340.5514,221.005,350.5247,221.4315,360.4981,222.2416,370.4714,221.4513,380.4448,221.6053,390.4182,221.8386,400.3915,221.9162,410.3649,221.4961,420.3382,221.7872,430.3116,220.9276,440.285,221.7844,450.2583,222.0482,460.2317,221.9445,470.205,222.113,480.1784,221.0169,490.1518,220.8478,500.1251,220.8786,510.0985,221.4411,520.0718,221.3035,530.0452,222.1814,540.0186,221.3253,549.9919,221.1569,559.9653,221.7283,569.9387,220.8332,579.912,220.9809,589.8854,222.149,599.8587,221.9357,609.8321,222.2345,619.8055,221.1782,629.7788,221.8192,639.7522,222.0904,649.7255,221.0276,659.6989,221.4041,669.6723,221.626,679.6456,222.1518,689.619,221.4958,699.5923,221.9626,709.5657,221.5,719.5391,221.5,719.3545,219.5,719.3133,217.5,719.7069,215.5,719.3001,213.5,719.7087,211.5,719.5391,211.7066,719.5391,211.2321,709.5657,211.1462,699.5923,211.9588,689.619,211.2007,679.6456,212.0919,669.6723,210.9473,659.6989,212.1174,649.7255,211.9843,639.7522,211.745,629.7788,211.5472,619.8055,212.2266,609.8321,212.1136,599.8587,211.6693,589.8854,211.7682,579.912,211.3697,569.9387,212.2165,559.9653,211.6549,549.9919,211.6726,540.0186,210.8916,530.0452,211.0948,520.0718,212.0307,510.0985,211.9298,500.1251,211.4571,490.1518,211.1778,480.1784,211.2811,470.205,210.8138,460.2317,211.9147,450.2583,212.2396,440.285,212.0264,430.3116,212.1949,420.3382,211.3633,410.3649,211.5872,400.3915,211.1124,390.4182,211.784,380.4448,211.7468,370.4714,212.0524,360.4981,211.2703,350.5247,211.3656,340.5514,211.9435,330.578,212.0673,320.6046,210.9875,310.6313,211.3061,300.6579,211.6493,290.6846,210.8892,280.7112,211.8534,270.7378,211.758,260.7645,211.3992,250.7911,211.6422,240.8178,212.2287,230.8444,211.1871,220.871,211.815,210.8977,211.7856,200.9243,211.6158,190.9509,211.6409,180.9776,211.6135,171.0042,210.8758,161.0309,211.0992,151.0575,211.0385,141.0841,211.5638,131.1108,211.5881,121.1374,211.5,111.1641" style="stroke:#181818;stroke-width:1.0;"/><polygon fill="#FFFFFF" points="404.5,139.6875,404.5,139.7576,406.5,139.5494,408.5,139.7519,410.5,139.8207,412.5,139.4497,414.5,139.6875,414.4741,139.6875,414.3578,145.6875,414.3722,151.6875,414.4773,157.6875,414.2695,163.6875,414.5,169.6875,414.5,169.872,412.5,169.4774,410.5,169.6216,408.5,169.8315,406.5,169.6589,404.5,169.6875,404.5227,169.6875,404.4894,163.6875,404.5595,157.6875,404.5797,151.6875,404.6952,145.6875,404.5,139.6875" style="stroke:#181818;stroke-width:1.0;"/><polygon fill="#FFFFFF" points="536.5,198.2109,536.5,198.281,538.5,198.0728,540.5,198.2754,542.5,198.3442,544.5,197.9731,546.5,198.2109,546.4741,198.2109,546.3578,204.2109,546.3722,210.2109,546.4773,216.2109,546.2695,222.2109,546.5,228.2109,546.5,228.3955,544.5,228.0008,542.5,228.145,540.5,228.3549,538.5,228.1823,536.5,228.2109,536.5227,228.2109,536.4894,222.2109,536.5595,216.2109,536.5797,210.2109,536.6952,204.2109,536.5,198.2109" style="stroke:#181818;stroke-width:1.0;"/><polygon fill="#FFFFFF" points="664.5,256.7344,664.5,256.8044,666.5,256.5963,668.5,256.7988,670.5,256.8676,672.5,256.4966,674.5,256.7344,674.4741,256.7344,674.3578,262.7344,674.3722,268.7344,674.4773,274.7344,674.2695,280.7344,674.5,286.7344,674.5,286.9189,672.5,286.5243,670.5,286.6685,668.5,286.8784,666.5,286.7058,664.5,286.7344,664.5227,286.7344,664.4894,280.7344,664.5595,274.7344,664.5797,268.7344,664.6952,262.7344,664.5,256.7344" style="stroke:#181818;stroke-width:1.0;"/><polygon fill="#FFFFFF" points="817,315.2578,817,315.3279,819,315.1197,821,315.3222,823,315.391,825,315.02,827,315.2578,826.9223,315.2578,826.5735,325.0117,826.6165,334.7656,826.9318,344.5195,826.3086,354.2734,827.5536,364.0273,827,373.7813,827,373.5712,825,373.7153,823,373.9252,821,373.7527,819,373.804,817,373.7813,816.9681,373.7813,817.1785,364.0273,817.2391,354.2734,817.5857,344.5195,817.6711,334.7656,817.6793,325.0117,817,315.2578" style="stroke:#181818;stroke-width:1.0;"/><polygon fill="#FFFFFF" points="817,402.3047,817,402.3747,819,402.1666,821,402.3691,823,402.4379,825,402.0669,827,402.3047,826.9223,402.3047,826.5735,411.9766,826.6165,421.6484,826.9318,431.3203,826.3086,440.9922,827.5536,450.6641,826.3697,460.3359,826.8022,470.0078,827.4319,479.6797,827,489.3516,827,489.323,825,489.3743,823,489.3409,821,489.4111,819,489.4313,817,489.3516,817.5857,489.3516,817.6711,479.6797,817.6793,470.0078,817.2546,460.3359,817.4636,450.6641,817.7022,440.9922,816.2788,431.3203,817.6785,421.6484,816.7035,411.9766,817,402.3047" style="stroke:#181818;stroke-width:1.0;"/><polygon fill="#FFFFFF" points="817,589.4453,817,589.5154,819,589.3072,821,589.5097,823,589.5785,825,589.2075,827,589.4453,826.9223,589.4453,826.5735,599.1172,826.6165,608.7891,826.9318,618.4609,826.3086,628.1328,827.5536,637.8047,826.3697,647.4766,826.8022,657.1484,827.4319,666.8203,827,676.4922,827,676.4636,825,676.5149,823,676.4815,821,676.5517,819,676.5719,817,676.4922,817.5857,676.4922,817.6711,666.8203,817.6793,657.1484,817.2546,647.4766,817.4636,637.8047,817.7022,628.1328,816.2788,618.4609,817.6785,608.7891,816.7035,599.1172,817,589.4453" style="stroke:#181818;stroke-width:1.0;"/><polygon fill="#FFFFFF" points="1104,343.7813,1104,343.8513,1106,343.6431,1108,343.8457,1110,343.9145,1112,343.5435,1114,343.7813,1113.9741,343.7813,1113.8578,349.7813,1113.8722,355.7813,1113.9773,361.7813,1113.7695,367.7813,1114,373.7813,1114,373.9658,1112,373.5712,1110,373.7153,1108,373.9252,1106,373.7527,1104,373.7813,1104.0227,373.7813,1103.9894,367.7813,1104.0595,361.7813,1104.0797,355.7813,1104.1952,349.7813,1104,343.7813" style="stroke:#181818;stroke-width:1.0;"/><polygon fill="#FFFFFF" points="1104,430.8281,1104,430.8982,1106,430.69,1108,430.8926,1110,430.9614,1112,430.5903,1114,430.8281,1113.9223,430.8281,1113.5735,440.582,1113.6165,450.3359,1113.9318,460.0898,1113.3086,469.8438,1114.5536,479.5977,1114,489.3516,1114,489.1415,1112,489.2856,1110,489.4955,1108,489.323,1106,489.3743,1104,489.3516,1103.9681,489.3516,1104.1785,479.5977,1104.2391,469.8438,1104.5857,460.0898,1104.6711,450.3359,1104.6793,440.582,1104,430.8281" style="stroke:#181818;stroke-width:1.0;"/><polygon fill="#FFFFFF" points="1104,617.9688,1104,618.0388,1106,617.8306,1108,618.0332,1110,618.102,1112,617.731,1114,617.9688,1113.9223,617.9688,1113.5735,627.7227,1113.6165,637.4766,1113.9318,647.2305,1113.3086,656.9844,1114.5536,666.7383,1114,676.4922,1114,676.2821,1112,676.4263,1110,676.6362,1108,676.4636,1106,676.5149,1104,676.4922,1103.9681,676.4922,1104.1785,666.7383,1104.2391,656.9844,1104.5857,647.2305,1104.6711,637.4766,1104.6793,627.7227,1104,617.9688" style="stroke:#181818;stroke-width:1.0;"/><polygon fill="#FFFFFF" points="1335,459.3516,1335,459.4216,1337,459.2135,1339,459.416,1341,459.4848,1343,459.1138,1345,459.3516,1344.9741,459.3516,1344.8578,465.3516,1344.8722,471.3516,1344.9773,477.3516,1344.7695,483.3516,1345,489.3516,1345,489.5361,1343,489.1415,1341,489.2856,1339,489.4955,1337,489.323,1335,489.3516,1335.0227,489.3516,1334.9894,483.3516,1335.0595,477.3516,1335.0797,471.3516,1335.1952,465.3516,1335,459.3516" style="stroke:#181818;stroke-width:1.0;"/><polygon fill="#FFFFFF" points="1531,646.4922,1531,646.5622,1533,646.3541,1535,646.5566,1537,646.6254,1539,646.2544,1541,646.4922,1540.9741,646.4922,1540.8578,652.4922,1540.8722,658.4922,1540.9773,664.4922,1540.7695,670.4922,1541,676.4922,1541,676.6767,1539,676.2821,1537,676.4263,1535,676.6362,1533,676.4636,1531,676.4922,1531.0227,676.4922,1530.9894,670.4922,1531.0595,664.4922,1531.0797,658.4922,1531.1952,652.4922,1531,646.4922" style="stroke:#181818;stroke-width:1.0;"/><path d="M45,80.6406 L45.2802,80.6406 L44.4476,90.5936 L45.2577,100.5466 L45.5329,110.4996 L44.0488,120.4527 L44.8964,130.4057 L44.4313,140.3587 L44.4887,150.3117 L44.9091,160.2647 L44.0782,170.2177 L45.7382,180.1707 L44.1596,190.1237 L44.7363,200.0767 L45.5759,210.0297 L44.8856,219.9827 L45.091,229.9357 L44.9574,239.8887 L45.238,249.8417 L45.3188,259.7947 L45.7809,269.7478 L45.8947,279.7008 L45.9057,289.6538 L45.3395,299.6068 L45.6181,309.5598 L45.9363,319.5128 L44.0384,329.4658 L45.9047,339.4188 L44.6047,349.3718 L45.7117,359.3248 L44.34,369.2778 L44.9087,379.2308 L45.9888,389.1838 L44.935,399.1368 L45.1404,409.0898 L45.4515,419.0429 L45.555,428.9959 L44.9948,438.9489 L45.383,448.9019 L44.2368,458.8549 L45.3792,468.8079 L45.7309,478.7609 L45.5927,488.7139 L45.8174,498.6669 L44.3559,508.6199 L44.1304,518.5729 L44.1715,528.5259 L44.9215,538.4789 L44.738,548.4319 L45.9085,558.3849 L44.7671,568.3379 L44.5426,578.291 L45.3044,588.244 L44.1109,598.197 L44.3078,608.15 L45.8653,618.103 L45.5809,628.056 L45.9793,638.009 L44.5709,647.962 L45.4256,657.915 L45.7872,667.868 L44.3701,677.821 L44.8722,687.774 L45.168,697.727 L45.869,707.68 L44.9944,717.633 L45.6168,727.5861 L45,737.5391 " fill="none" style="stroke:#181818;stroke-width:0.5;stroke-dasharray:5.0,5.0;"/><path d="M216.5,80.6406 L216.7802,80.6406 L215.9476,90.5936 L216.7577,100.5466 L217.0329,110.4996 L215.5488,120.4527 L216.3964,130.4057 L215.9313,140.3587 L215.9887,150.3117 L216.4091,160.2647 L215.5782,170.2177 L217.2382,180.1707 L215.6596,190.1237 L216.2363,200.0767 L217.0759,210.0297 L216.3856,219.9827 L216.591,229.9357 L216.4574,239.8887 L216.738,249.8417 L216.8188,259.7947 L217.2809,269.7478 L217.3947,279.7008 L217.4057,289.6538 L216.8395,299.6068 L217.1181,309.5598 L217.4363,319.5128 L215.5384,329.4658 L217.4047,339.4188 L216.1047,349.3718 L217.2117,359.3248 L215.84,369.2778 L216.4087,379.2308 L217.4888,389.1838 L216.435,399.1368 L216.6404,409.0898 L216.9515,419.0429 L217.055,428.9959 L216.4948,438.9489 L216.883,448.9019 L215.7368,458.8549 L216.8792,468.8079 L217.2309,478.7609 L217.0927,488.7139 L217.3174,498.6669 L215.8559,508.6199 L215.6304,518.5729 L215.6715,528.5259 L216.4215,538.4789 L216.238,548.4319 L217.4085,558.3849 L216.2671,568.3379 L216.0426,578.291 L216.8044,588.244 L215.6109,598.197 L215.8078,608.15 L217.3653,618.103 L217.0809,628.056 L217.4793,638.009 L216.0709,647.962 L216.9256,657.915 L217.2872,667.868 L215.8701,677.821 L216.3722,687.774 L216.668,697.727 L217.369,707.68 L216.4944,717.633 L217.1168,727.5861 L216.5,737.5391 " fill="none" style="stroke:#181818;stroke-width:0.5;stroke-dasharray:5.0,5.0;"/><path d="M409,80.6406 L409.2802,80.6406 L408.4476,90.5936 L409.2577,100.5466 L409.5329,110.4996 L408.0488,120.4527 L408.8964,130.4057 L408.4313,140.3587 L408.4887,150.3117 L408.9091,160.2647 L408.0782,170.2177 L409.7382,180.1707 L408.1596,190.1237 L408.7363,200.0767 L409.5759,210.0297 L408.8856,219.9827 L409.091,229.9357 L408.9574,239.8887 L409.238,249.8417 L409.3188,259.7947 L409.7809,269.7478 L409.8947,279.7008 L409.9057,289.6538 L409.3395,299.6068 L409.6181,309.5598 L409.9363,319.5128 L408.0384,329.4658 L409.9047,339.4188 L408.6047,349.3718 L409.7117,359.3248 L408.34,369.2778 L408.9087,379.2308 L409.9888,389.1838 L408.935,399.1368 L409.1404,409.0898 L409.4515,419.0429 L409.555,428.9959 L408.9948,438.9489 L409.383,448.9019 L408.2368,458.8549 L409.3792,468.8079 L409.7309,478.7609 L409.5927,488.7139 L409.8174,498.6669 L408.3559,508.6199 L408.1304,518.5729 L408.1715,528.5259 L408.9215,538.4789 L408.738,548.4319 L409.9085,558.3849 L408.7671,568.3379 L408.5426,578.291 L409.3044,588.244 L408.1109,598.197 L408.3078,608.15 L409.8653,618.103 L409.5809,628.056 L409.9793,638.009 L408.5709,647.962 L409.4256,657.915 L409.7872,667.868 L408.3701,677.821 L408.8722,687.774 L409.168,697.727 L409.869,707.68 L408.9944,717.633 L409.6168,727.5861 L409,737.5391 " fill="none" style="stroke:#181818;stroke-width:0.5;stroke-dasharray:5.0,5.0;"/><path d="M541,80.6406 L541.2802,80.6406 L540.4476,90.5936 L541.2577,100.5466 L541.5329,110.4996 L540.0488,120.4527 L540.8964,130.4057 L540.4313,140.3587 L540.4887,150.3117 L540.9091,160.2647 L540.0782,170.2177 L541.7382,180.1707 L540.1596,190.1237 L540.7363,200.0767 L541.5759,210.0297 L540.8856,219.9827 L541.091,229.9357 L540.9574,239.8887 L541.238,249.8417 L541.3188,259.7947 L541.7809,269.7478 L541.8947,279.7008 L541.9057,289.6538 L541.3395,299.6068 L541.6181,309.5598 L541.9363,319.5128 L540.0384,329.4658 L541.9047,339.4188 L540.6047,349.3718 L541.7117,359.3248 L540.34,369.2778 L540.9087,379.2308 L541.9888,389.1838 L540.935,399.1368 L541.1404,409.0898 L541.4515,419.0429 L541.555,428.9959 L540.9948,438.9489 L541.383,448.9019 L540.2368,458.8549 L541.3792,468.8079 L541.7309,478.7609 L541.5927,488.7139 L541.8174,498.6669 L540.3559,508.6199 L540.1304,518.5729 L540.1715,528.5259 L540.9215,538.4789 L540.738,548.4319 L541.9085,558.3849 L540.7671,568.3379 L540.5426,578.291 L541.3044,588.244 L540.1109,598.197 L540.3078,608.15 L541.8653,618.103 L541.5809,628.056 L541.9793,638.009 L540.5709,647.962 L541.4256,657.915 L541.7872,667.868 L540.3701,677.821 L540.8722,687.774 L541.168,697.727 L541.869,707.68 L540.9944,717.633 L541.6168,727.5861 L541,737.5391 " fill="none" style="stroke:#181818;stroke-width:0.5;stroke-dasharray:5.0,5.0;"/><path d="M669,80.6406 L669.2802,80.6406 L668.4476,90.5936 L669.2577,100.5466 L669.5329,110.4996 L668.0488,120.4527 L668.8964,130.4057 L668.4313,140.3587 L668.4887,150.3117 L668.9091,160.2647 L668.0782,170.2177 L669.7382,180.1707 L668.1596,190.1237 L668.7363,200.0767 L669.5759,210.0297 L668.8856,219.9827 L669.091,229.9357 L668.9574,239.8887 L669.238,249.8417 L669.3188,259.7947 L669.7809,269.7478 L669.8947,279.7008 L669.9057,289.6538 L669.3395,299.6068 L669.6181,309.5598 L669.9363,319.5128 L668.0384,329.4658 L669.9047,339.4188 L668.6047,349.3718 L669.7117,359.3248 L668.34,369.2778 L668.9087,379.2308 L669.9888,389.1838 L668.935,399.1368 L669.1404,409.0898 L669.4515,419.0429 L669.555,428.9959 L668.9948,438.9489 L669.383,448.9019 L668.2368,458.8549 L669.3792,468.8079 L669.7309,478.7609 L669.5927,488.7139 L669.8174,498.6669 L668.3559,508.6199 L668.1304,518.5729 L668.1715,528.5259 L668.9215,538.4789 L668.738,548.4319 L669.9085,558.3849 L668.7671,568.3379 L668.5426,578.291 L669.3044,588.244 L668.1109,598.197 L668.3078,608.15 L669.8653,618.103 L669.5809,628.056 L669.9793,638.009 L668.5709,647.962 L669.4256,657.915 L669.7872,667.868 L668.3701,677.821 L668.8722,687.774 L669.168,697.727 L669.869,707.68 L668.9944,717.633 L669.6168,727.5861 L669,737.5391 " fill="none" style="stroke:#181818;stroke-width:0.5;stroke-dasharray:5.0,5.0;"/><path d="M822,80.6406 L822.2802,80.6406 L821.4476,90.5936 L822.2577,100.5466 L822.5329,110.4996 L821.0488,120.4527 L821.8964,130.4057 L821.4313,140.3587 L821.4887,150.3117 L821.9091,160.2647 L821.0782,170.2177 L822.7382,180.1707 L821.1596,190.1237 L821.7363,200.0767 L822.5759,210.0297 L821.8856,219.9827 L822.091,229.9357 L821.9574,239.8887 L822.238,249.8417 L822.3188,259.7947 L822.7809,269.7478 L822.8947,279.7008 L822.9057,289.6538 L822.3395,299.6068 L822.6181,309.5598 L822.9363,319.5128 L821.0384,329.4658 L822.9047,339.4188 L821.6047,349.3718 L822.7117,359.3248 L821.34,369.2778 L821.9087,379.2308 L822.9888,389.1838 L821.935,399.1368 L822.1404,409.0898 L822.4515,419.0429 L822.555,428.9959 L821.9948,438.9489 L822.383,448.9019 L821.2368,458.8549 L822.3792,468.8079 L822.7309,478.7609 L822.5927,488.7139 L822.8174,498.6669 L821.3559,508.6199 L821.1304,518.5729 L821.1715,528.5259 L821.9215,538.4789 L821.738,548.4319 L822.9085,558.3849 L821.7671,568.3379 L821.5426,578.291 L822.3044,588.244 L821.1109,598.197 L821.3078,608.15 L822.8653,618.103 L822.5809,628.056 L822.9793,638.009 L821.5709,647.962 L822.4256,657.915 L822.7872,667.868 L821.3701,677.821 L821.8722,687.774 L822.168,697.727 L822.869,707.68 L821.9944,717.633 L822.6168,727.5861 L822,737.5391 " fill="none" style="stroke:#181818;stroke-width:0.5;stroke-dasharray:5.0,5.0;"/><path d="M1108.5,80.6406 L1108.7802,80.6406 L1107.9476,90.5936 L1108.7577,100.5466 L1109.0329,110.4996 L1107.5488,120.4527 L1108.3964,130.4057 L1107.9313,140.3587 L1107.9887,150.3117 L1108.4091,160.2647 L1107.5782,170.2177 L1109.2382,180.1707 L1107.6596,190.1237 L1108.2363,200.0767 L1109.0759,210.0297 L1108.3856,219.9827 L1108.591,229.9357 L1108.4574,239.8887 L1108.738,249.8417 L1108.8188,259.7947 L1109.2809,269.7478 L1109.3947,279.7008 L1109.4057,289.6538 L1108.8395,299.6068 L1109.1181,309.5598 L1109.4363,319.5128 L1107.5384,329.4658 L1109.4047,339.4188 L1108.1047,349.3718 L1109.2117,359.3248 L1107.84,369.2778 L1108.4087,379.2308 L1109.4888,389.1838 L1108.435,399.1368 L1108.6404,409.0898 L1108.9515,419.0429 L1109.055,428.9959 L1108.4948,438.9489 L1108.883,448.9019 L1107.7368,458.8549 L1108.8792,468.8079 L1109.2309,478.7609 L1109.0927,488.7139 L1109.3174,498.6669 L1107.8559,508.6199 L1107.6304,518.5729 L1107.6715,528.5259 L1108.4215,538.4789 L1108.238,548.4319 L1109.4085,558.3849 L1108.2671,568.3379 L1108.0426,578.291 L1108.8044,588.244 L1107.6109,598.197 L1107.8078,608.15 L1109.3653,618.103 L1109.0809,628.056 L1109.4793,638.009 L1108.0709,647.962 L1108.9256,657.915 L1109.2872,667.868 L1107.8701,677.821 L1108.3722,687.774 L1108.668,697.727 L1109.369,707.68 L1108.4944,717.633 L1109.1168,727.5861 L1108.5,737.5391 " fill="none" style="stroke:#181818;stroke-width:0.5;stroke-dasharray:5.0,5.0;"/><path d="M1340,80.6406 L1340.2802,80.6406 L1339.4476,90.5936 L1340.2577,100.5466 L1340.5329,110.4996 L1339.0488,120.4527 L1339.8964,130.4057 L1339.4313,140.3587 L1339.4887,150.3117 L1339.9091,160.2647 L1339.0782,170.2177 L1340.7382,180.1707 L1339.1596,190.1237 L1339.7363,200.0767 L1340.5759,210.0297 L1339.8856,219.9827 L1340.091,229.9357 L1339.9574,239.8887 L1340.238,249.8417 L1340.3188,259.7947 L1340.7809,269.7478 L1340.8947,279.7008 L1340.9057,289.6538 L1340.3395,299.6068 L1340.6181,309.5598 L1340.9363,319.5128 L1339.0384,329.4658 L1340.9047,339.4188 L1339.6047,349.3718 L1340.7117,359.3248 L1339.34,369.2778 L1339.9087,379.2308 L1340.9888,389.1838 L1339.935,399.1368 L1340.1404,409.0898 L1340.4515,419.0429 L1340.555,428.9959 L1339.9948,438.9489 L1340.383,448.9019 L1339.2368,458.8549 L1340.3792,468.8079 L1340.7309,478.7609 L1340.5927,488.7139 L1340.8174,498.6669 L1339.3559,508.6199 L1339.1304,518.5729 L1339.1715,528.5259 L1339.9215,538.4789 L1339.738,548.4319 L1340.9085,558.3849 L1339.7671,568.3379 L1339.5426,578.291 L1340.3044,588.244 L1339.1109,598.197 L1339.3078,608.15 L1340.8653,618.103 L1340.5809,628.056 L1340.9793,638.009 L1339.5709,647.962 L1340.4256,657.915 L1340.7872,667.868 L1339.3701,677.821 L1339.8722,687.774 L1340.168,697.727 L1340.869,707.68 L1339.9944,717.633 L1340.6168,727.5861 L1340,737.5391 " fill="none" style="stroke:#181818;stroke-width:0.5;stroke-dasharray:5.0,5.0;"/><path d="M1536,80.6406 L1536.2802,80.6406 L1535.4476,90.5936 L1536.2577,100.5466 L1536.5329,110.4996 L1535.0488,120.4527 L1535.8964,130.4057 L1535.4313,140.3587 L1535.4887,150.3117 L1535.9091,160.2647 L1535.0782,170.2177 L1536.7382,180.1707 L1535.1596,190.1237 L1535.7363,200.0767 L1536.5759,210.0297 L1535.8856,219.9827 L1536.091,229.9357 L1535.9574,239.8887 L1536.238,249.8417 L1536.3188,259.7947 L1536.7809,269.7478 L1536.8947,279.7008 L1536.9057,289.6538 L1536.3395,299.6068 L1536.6181,309.5598 L1536.9363,319.5128 L1535.0384,329.4658 L1536.9047,339.4188 L1535.6047,349.3718 L1536.7117,359.3248 L1535.34,369.2778 L1535.9087,379.2308 L1536.9888,389.1838 L1535.935,399.1368 L1536.1404,409.0898 L1536.4515,419.0429 L1536.555,428.9959 L1535.9948,438.9489 L1536.383,448.9019 L1535.2368,458.8549 L1536.3792,468.8079 L1536.7309,478.7609 L1536.5927,488.7139 L1536.8174,498.6669 L1535.3559,508.6199 L1535.1304,518.5729 L1535.1715,528.5259 L1535.9215,538.4789 L1535.738,548.4319 L1536.9085,558.3849 L1535.7671,568.3379 L1535.5426,578.291 L1536.3044,588.244 L1535.1109,598.197 L1535.3078,608.15 L1536.8653,618.103 L1536.5809,628.056 L1536.9793,638.009 L1535.5709,647.962 L1536.4256,657.915 L1536.7872,667.868 L1535.3701,677.821 L1535.8722,687.774 L1536.168,697.727 L1536.869,707.68 L1535.9944,717.633 L1536.6168,727.5861 L1536,737.5391 " fill="none" style="stroke:#181818;stroke-width:0.5;stroke-dasharray:5.0,5.0;"/><path d="M1673,80.6406 L1673.2802,80.6406 L1672.4476,90.5936 L1673.2577,100.5466 L1673.5329,110.4996 L1672.0488,120.4527 L1672.8964,130.4057 L1672.4313,140.3587 L1672.4887,150.3117 L1672.9091,160.2647 L1672.0782,170.2177 L1673.7382,180.1707 L1672.1596,190.1237 L1672.7363,200.0767 L1673.5759,210.0297 L1672.8856,219.9827 L1673.091,229.9357 L1672.9574,239.8887 L1673.238,249.8417 L1673.3188,259.7947 L1673.7809,269.7478 L1673.8947,279.7008 L1673.9057,289.6538 L1673.3395,299.6068 L1673.6181,309.5598 L1673.9363,319.5128 L1672.0384,329.4658 L1673.9047,339.4188 L1672.6047,349.3718 L1673.7117,359.3248 L1672.34,369.2778 L1672.9087,379.2308 L1673.9888,389.1838 L1672.935,399.1368 L1673.1404,409.0898 L1673.4515,419.0429 L1673.555,428.9959 L1672.9948,438.9489 L1673.383,448.9019 L1672.2368,458.8549 L1673.3792,468.8079 L1673.7309,478.7609 L1673.5927,488.7139 L1673.8174,498.6669 L1672.3559,508.6199 L1672.1304,518.5729 L1672.1715,528.5259 L1672.9215,538.4789 L1672.738,548.4319 L1673.9085,558.3849 L1672.7671,568.3379 L1672.5426,578.291 L1673.3044,588.244 L1672.1109,598.197 L1672.3078,608.15 L1673.8653,618.103 L1673.5809,628.056 L1673.9793,638.009 L1672.5709,647.962 L1673.4256,657.915 L1673.7872,667.868 L1672.3701,677.821 L1672.8722,687.774 L1673.168,697.727 L1673.869,707.68 L1672.9944,717.633 L1673.6168,727.5861 L1673,737.5391 " fill="none" style="stroke:#181818;stroke-width:0.5;stroke-dasharray:5.0,5.0;"/><path d="M1796,80.6406 L1796.2802,80.6406 L1795.4476,90.5936 L1796.2577,100.5466 L1796.5329,110.4996 L1795.0488,120.4527 L1795.8964,130.4057 L1795.4313,140.3587 L1795.4887,150.3117 L1795.9091,160.2647 L1795.0782,170.2177 L1796.7382,180.1707 L1795.1596,190.1237 L1795.7363,200.0767 L1796.5759,210.0297 L1795.8856,219.9827 L1796.091,229.9357 L1795.9574,239.8887 L1796.238,249.8417 L1796.3188,259.7947 L1796.7809,269.7478 L1796.8947,279.7008 L1796.9057,289.6538 L1796.3395,299.6068 L1796.6181,309.5598 L1796.9363,319.5128 L1795.0384,329.4658 L1796.9047,339.4188 L1795.6047,349.3718 L1796.7117,359.3248 L1795.34,369.2778 L1795.9087,379.2308 L1796.9888,389.1838 L1795.935,399.1368 L1796.1404,409.0898 L1796.4515,419.0429 L1796.555,428.9959 L1795.9948,438.9489 L1796.383,448.9019 L1795.2368,458.8549 L1796.3792,468.8079 L1796.7309,478.7609 L1796.5927,488.7139 L1796.8174,498.6669 L1795.3559,508.6199 L1795.1304,518.5729 L1795.1715,528.5259 L1795.9215,538.4789 L1795.738,548.4319 L1796.9085,558.3849 L1795.7671,568.3379 L1795.5426,578.291 L1796.3044,588.244 L1795.1109,598.197 L1795.3078,608.15 L1796.8653,618.103 L1796.5809,628.056 L1796.9793,638.009 L1795.5709,647.962 L1796.4256,657.915 L1796.7872,667.868 L1795.3701,677.821 L1795.8722,687.774 L1796.168,697.727 L1796.869,707.68 L1795.9944,717.633 L1796.6168,727.5861 L1796,737.5391 " fill="none" style="stroke:#181818;stroke-width:0.5;stroke-dasharray:5.0,5.0;"/><path d="M1920,80.6406 L1920.2802,80.6406 L1919.4476,90.5936 L1920.2577,100.5466 L1920.5329,110.4996 L1919.0488,120.4527 L1919.8964,130.4057 L1919.4313,140.3587 L1919.4887,150.3117 L1919.9091,160.2647 L1919.0782,170.2177 L1920.7382,180.1707 L1919.1596,190.1237 L1919.7363,200.0767 L1920.5759,210.0297 L1919.8856,219.9827 L1920.091,229.9357 L1919.9574,239.8887 L1920.238,249.8417 L1920.3188,259.7947 L1920.7809,269.7478 L1920.8947,279.7008 L1920.9057,289.6538 L1920.3395,299.6068 L1920.6181,309.5598 L1920.9363,319.5128 L1919.0384,329.4658 L1920.9047,339.4188 L1919.6047,349.3718 L1920.7117,359.3248 L1919.34,369.2778 L1919.9087,379.2308 L1920.9888,389.1838 L1919.935,399.1368 L1920.1404,409.0898 L1920.4515,419.0429 L1920.555,428.9959 L1919.9948,438.9489 L1920.383,448.9019 L1919.2368,458.8549 L1920.3792,468.8079 L1920.7309,478.7609 L1920.5927,488.7139 L1920.8174,498.6669 L1919.3559,508.6199 L1919.1304,518.5729 L1919.1715,528.5259 L1919.9215,538.4789 L1919.738,548.4319 L1920.9085,558.3849 L1919.7671,568.3379 L1919.5426,578.291 L1920.3044,588.244 L1919.1109,598.197 L1919.3078,608.15 L1920.8653,618.103 L1920.5809,628.056 L1920.9793,638.009 L1919.5709,647.962 L1920.4256,657.915 L1920.7872,667.868 L1919.3701,677.821 L1919.8722,687.774 L1920.168,697.727 L1920.869,707.68 L1919.9944,717.633 L1920.6168,727.5861 L1920,737.5391 " fill="none" style="stroke:#181818;stroke-width:0.5;stroke-dasharray:5.0,5.0;"/><text fill="#000000" font-family="FG Virgil" font-size="14" lengthAdjust="spacing" textLength="75" x="5" y="77.6738">SystemUser</text><polygon fill="#E3E3E3" points="53.5442,15.4459,52.3715,17.0482,50.9845,19.3951,49.0008,20.9767,46.9163,21.8415,45.2542,21.9166,43.118,20.8349,41.1023,20.1283,39.5724,18.6936,38.7699,17.0511,38.2939,15.7433,37.8277,14.0351,37.0709,12.5651,37.6525,11.1298,38.162,9.5576,40.074,8.3142,41.4192,6.7008,43.0843,6.165,45.0637,5.7037,47.6021,5.9778,48.9924,6.6335,50.6089,6.9307,52.5743,8.9443,53.2595,11.0701,53.5571,12.5206,53.22,14.9108" style="stroke:#181818;stroke-width:0.5;"/><path d="M45.5,21.5 L45.6868,21.5 L45.1317,26.9 L45.6718,32.3 L45.8553,37.7 L44.8659,43.1 L45.5,48.5 M32.5,29.5 L32.5,29.4309 L37.7,29.1209 L42.9,29.1591 L48.1,29.4394 L53.3,28.8854 L58.5,29.5 M45.5,48.5 L45.8719,48.8223 L42.4766,51.1331 L40.1672,54.3849 L37.9901,57.7515 L35.0424,60.4501 L32.5,63.5 M45.5,48.5 L45.5458,48.5397 L48.0785,51.4814 L50.8199,54.6039 L53.4606,57.6392 L56.2934,60.841 L58.5,63.5 " fill="none" style="stroke:#181818;stroke-width:0.5;"/><text fill="#000000" font-family="FG Virgil" font-size="14" lengthAdjust="spacing" textLength="75" x="5" y="749.2129">SystemUser</text><polygon fill="#E3E3E3" points="53.5442,762.6256,52.3715,764.2279,50.9845,766.5747,49.0008,768.1563,46.9163,769.0212,45.2542,769.0963,43.118,768.0146,41.1023,767.308,39.5724,765.8733,38.7699,764.2308,38.2939,762.923,37.8277,761.2147,37.0709,759.7448,37.6525,758.3095,38.162,756.7373,40.074,755.4939,41.4192,753.8805,43.0843,753.3447,45.0637,752.8834,47.6021,753.1575,48.9924,753.8132,50.6089,754.1104,52.5743,756.124,53.2595,758.2498,53.5571,759.7003,53.22,762.0905" style="stroke:#181818;stroke-width:0.5;"/><path d="M45.5,768.6797 L45.6868,768.6797 L45.1317,774.0797 L45.6718,779.4797 L45.8553,784.8797 L44.8659,790.2797 L45.5,795.6797 M32.5,776.6797 L32.5,776.6106 L37.7,776.3006 L42.9,776.3388 L48.1,776.6191 L53.3,776.0651 L58.5,776.6797 M45.5,795.6797 L45.8719,796.002 L42.4766,798.3128 L40.1672,801.5646 L37.9901,804.9312 L35.0424,807.6298 L32.5,810.6797 M45.5,795.6797 L45.5458,795.7194 L48.0785,798.6611 L50.8199,801.7836 L53.4606,804.8189 L56.2934,808.0207 L58.5,810.6797 " fill="none" style="stroke:#181818;stroke-width:0.5;"/><polygon fill="#E3E3E3" points="148,50,148,50.2102,157.7857,49.5857,167.5714,50.1933,177.3571,50.3997,187.1429,49.2866,196.9286,49.9223,206.7143,49.5735,216.5,49.6165,226.2857,49.9318,236.0714,49.3086,245.8571,50.5536,255.6429,49.3697,265.4286,49.8022,275.2143,50.4319,285,50,284.9891,49.9736,285.3623,50.1675,285.703,50.2831,286.0834,50.4943,286.4447,50.6594,286.7678,50.7322,286.9481,50.8069,287.1209,51.1714,287.2698,51.526,287.2855,51.8254,287.4963,52.2056,287.5,52.5,287.7341,52.5,287.2596,57.4281,287.7262,62.3563,287.4012,67.2844,287.6779,72.2125,287.5,77.1406,287.3476,77.0775,287.3325,77.4854,287.4355,77.9423,287.0457,78.1951,286.9466,78.5683,286.7678,78.9084,286.811,79.0127,286.4673,79.183,286.0602,79.2001,285.7437,79.4362,285.2805,79.3179,285,79.6406,285,79.925,275.2143,80.1888,265.4286,80.0852,255.6429,80.2536,245.8571,79.1575,236.0714,78.9884,226.2857,79.0192,216.5,79.5817,206.7143,79.4441,196.9286,80.322,187.1429,79.4659,177.3571,79.2976,167.5714,79.8689,157.7857,78.9738,148,79.6406,147.9338,79.4808,147.7292,79.694,147.3485,79.4819,147.033,79.4275,146.5447,78.9557,146.2322,78.9084,146.3305,78.9491,146.2676,78.6302,145.7939,78.141,145.7634,77.8355,145.6852,77.5102,145.5,77.1406,145.7173,77.1406,145.4986,72.2125,145.6542,67.2844,145.3154,62.3563,145.2742,57.4281,145.5,52.5,145.6551,52.5642,145.4257,52.055,145.9496,51.8578,146.003,51.4657,146.0033,51.0516,146.2322,50.7322,146.1871,50.6233,146.6443,50.7271,146.9012,50.3472,147.3684,50.4752,147.5759,49.9762,148,50" style="stroke:#181818;stroke-width:0.5;"/><text fill="#000000" font-family="FG Virgil" font-size="14" lengthAdjust="spacing" textLength="128" x="152.5" y="69.6738">CreateBoardPostItUI</text><polygon fill="#E3E3E3" points="148,736.5391,148,736.7492,157.7857,736.1247,167.5714,736.7323,177.3571,736.9387,187.1429,735.8257,196.9286,736.4613,206.7143,736.1126,216.5,736.1556,226.2857,736.4709,236.0714,735.8477,245.8571,737.0927,255.6429,735.9088,265.4286,736.3413,275.2143,736.971,285,736.5391,284.9891,736.5126,285.3623,736.7065,285.703,736.8221,286.0834,737.0334,286.4447,737.1985,286.7678,737.2713,286.9481,737.346,287.1209,737.7104,287.2698,738.065,287.2855,738.3644,287.4963,738.7446,287.5,739.0391,287.7341,739.0391,287.2596,743.9672,287.7262,748.8953,287.4012,753.8234,287.6779,758.7516,287.5,763.6797,287.3476,763.6165,287.3325,764.0245,287.4355,764.4814,287.0457,764.7341,286.9466,765.1073,286.7678,765.4475,286.811,765.5517,286.4673,765.7221,286.0602,765.7391,285.7437,765.9752,285.2805,765.857,285,766.1797,285,766.4641,275.2143,766.7279,265.4286,766.6242,255.6429,766.7927,245.8571,765.6966,236.0714,765.5275,226.2857,765.5583,216.5,766.1208,206.7143,765.9832,196.9286,766.8611,187.1429,766.005,177.3571,765.8366,167.5714,766.408,157.7857,765.5128,148,766.1797,147.9338,766.0198,147.7292,766.2331,147.3485,766.021,147.033,765.9665,146.5447,765.4948,146.2322,765.4475,146.3305,765.4882,146.2676,765.1692,145.7939,764.6801,145.7634,764.3746,145.6852,764.0493,145.5,763.6797,145.7173,763.6797,145.4986,758.7516,145.6542,753.8234,145.3154,748.8953,145.2742,743.9672,145.5,739.0391,145.6551,739.1033,145.4257,738.5941,145.9496,738.3969,146.003,738.0048,146.0033,737.5907,146.2322,737.2713,146.1871,737.1623,146.6443,737.2661,146.9012,736.8862,147.3684,737.0142,147.5759,736.5153,148,736.5391" style="stroke:#181818;stroke-width:0.5;"/><text fill="#000000" font-family="FG Virgil" font-size="14" lengthAdjust="spacing" textLength="128" x="152.5" y="756.2129">CreateBoardPostItUI</text><polygon fill="#E3E3E3" points="361.5,50,361.5,50.2102,371.1,49.5857,380.7,50.1933,390.3,50.3997,399.9,49.2866,409.5,49.9223,419.1,49.5735,428.7,49.6165,438.3,49.9318,447.9,49.3086,457.5,50,457.5706,50.1705,457.7732,49.9523,458.1819,50.232,458.6158,50.5724,458.9033,50.5594,459.2678,50.7322,459.2888,50.7409,459.4044,51.0817,459.6156,51.4621,459.7808,51.8234,460.0339,52.2212,460,52.5,460.2237,52.5,460.2264,57.4281,460.0849,62.3563,460.1545,67.2844,460.2341,72.2125,460,77.1406,459.7779,77.0486,460.0625,77.5807,459.6158,77.8099,459.7251,78.2694,459.2618,78.4917,459.2678,78.9084,459.259,78.8873,459.0088,79.2832,458.5544,79.1863,458.2205,79.3802,457.8967,79.5985,457.5,79.6406,457.5,80.0569,447.9,79.6367,438.3,79.9278,428.7,79.0682,419.1,79.925,409.5,80.1888,399.9,80.0852,390.3,80.2536,380.7,79.1575,371.1,78.9884,361.5,79.6406,361.4207,79.4493,361.1389,79.476,360.7678,79.2872,360.5263,79.4111,360.0635,79.001,359.7322,78.9084,359.6266,78.8646,359.6561,78.584,359.234,78.1162,359.133,77.7815,359.3463,77.577,359,77.1406,359.1452,77.1406,359.2448,72.2125,358.8927,67.2844,359.1064,62.3563,359.1968,57.4281,359,52.5,358.8545,52.4397,359.1169,52.1342,359.3317,51.809,359.6401,51.5225,359.5845,51.0853,359.7322,50.7322,359.7912,50.8747,360.0151,50.4152,360.3529,50.2308,360.8571,50.448,361.055,49.9257,361.5,50" style="stroke:#181818;stroke-width:0.5;"/><text fill="#000000" font-family="FG Virgil" font-size="14" lengthAdjust="spacing" textLength="87" x="366" y="69.6738">AuthzRegistry</text><polygon fill="#E3E3E3" points="361.5,736.5391,361.5,736.7492,371.1,736.1247,380.7,736.7323,390.3,736.9387,399.9,735.8257,409.5,736.4613,419.1,736.1126,428.7,736.1556,438.3,736.4709,447.9,735.8477,457.5,736.5391,457.5706,736.7096,457.7732,736.4914,458.1819,736.7711,458.6158,737.1114,458.9033,737.0984,459.2678,737.2713,459.2888,737.28,459.4044,737.6208,459.6156,738.0012,459.7808,738.3625,460.0339,738.7602,460,739.0391,460.2237,739.0391,460.2264,743.9672,460.0849,748.8953,460.1545,753.8234,460.2341,758.7516,460,763.6797,459.7779,763.5877,460.0625,764.1198,459.6158,764.349,459.7251,764.8084,459.2618,765.0308,459.2678,765.4475,459.259,765.4264,459.0088,765.8223,458.5544,765.7253,458.2205,765.9192,457.8967,766.1375,457.5,766.1797,457.5,766.5959,447.9,766.1758,438.3,766.4669,428.7,765.6073,419.1,766.4641,409.5,766.7279,399.9,766.6242,390.3,766.7927,380.7,765.6966,371.1,765.5275,361.5,766.1797,361.4207,765.9883,361.1389,766.0151,360.7678,765.8263,360.5263,765.9502,360.0635,765.5401,359.7322,765.4475,359.6266,765.4037,359.6561,765.123,359.234,764.6553,359.133,764.3206,359.3463,764.116,359,763.6797,359.1452,763.6797,359.2448,758.7516,358.8927,753.8234,359.1064,748.8953,359.1968,743.9672,359,739.0391,358.8545,738.9788,359.1169,738.6733,359.3317,738.348,359.6401,738.0615,359.5845,737.6243,359.7322,737.2713,359.7912,737.4137,360.0151,736.9543,360.3529,736.7698,360.8571,736.987,361.055,736.4647,361.5,736.5391" style="stroke:#181818;stroke-width:0.5;"/><text fill="#000000" font-family="FG Virgil" font-size="14" lengthAdjust="spacing" textLength="87" x="366" y="756.2129">AuthzRegistry</text><polygon fill="#E3E3E3" points="472.5,50,472.5,50.2102,482.3571,49.5857,492.2143,50.1933,502.0714,50.3997,511.9286,49.2866,521.7857,49.9223,531.6429,49.5735,541.5,49.6165,551.3571,49.9318,561.2143,49.3086,571.0714,50.5536,580.9286,49.3697,590.7857,49.8022,600.6429,50.4319,610.5,50,610.4891,49.9736,610.8623,50.1675,611.203,50.2831,611.5834,50.4943,611.9447,50.6594,612.2678,50.7322,612.4481,50.8069,612.6209,51.1714,612.7698,51.526,612.7855,51.8254,612.9963,52.2056,613,52.5,613.2341,52.5,612.7596,57.4281,613.2262,62.3563,612.9012,67.2844,613.1779,72.2125,613,77.1406,612.8476,77.0775,612.8325,77.4854,612.9355,77.9423,612.5457,78.1951,612.4466,78.5683,612.2678,78.9084,612.311,79.0127,611.9673,79.183,611.5602,79.2001,611.2437,79.4362,610.7805,79.3179,610.5,79.6406,610.5,79.925,600.6429,80.1888,590.7857,80.0852,580.9286,80.2536,571.0714,79.1575,561.2143,78.9884,551.3571,79.0192,541.5,79.5817,531.6429,79.4441,521.7857,80.322,511.9286,79.4659,502.0714,79.2976,492.2143,79.8689,482.3571,78.9738,472.5,79.6406,472.4338,79.4808,472.2292,79.694,471.8485,79.4819,471.533,79.4275,471.0447,78.9557,470.7322,78.9084,470.8305,78.9491,470.7676,78.6302,470.2939,78.141,470.2634,77.8355,470.1852,77.5102,470,77.1406,470.2173,77.1406,469.9986,72.2125,470.1542,67.2844,469.8154,62.3563,469.7742,57.4281,470,52.5,470.1551,52.5642,469.9257,52.055,470.4496,51.8578,470.503,51.4657,470.5033,51.0516,470.7322,50.7322,470.6871,50.6233,471.1443,50.7271,471.4012,50.3472,471.8684,50.4752,472.0759,49.9762,472.5,50" style="stroke:#181818;stroke-width:0.5;"/><text fill="#000000" font-family="FG Virgil" font-size="14" lengthAdjust="spacing" textLength="129" x="477" y="69.6738">AuthorizationService</text><polygon fill="#E3E3E3" points="472.5,736.5391,472.5,736.7492,482.3571,736.1247,492.2143,736.7323,502.0714,736.9387,511.9286,735.8257,521.7857,736.4613,531.6429,736.1126,541.5,736.1556,551.3571,736.4709,561.2143,735.8477,571.0714,737.0927,580.9286,735.9088,590.7857,736.3413,600.6429,736.971,610.5,736.5391,610.4891,736.5126,610.8623,736.7065,611.203,736.8221,611.5834,737.0334,611.9447,737.1985,612.2678,737.2713,612.4481,737.346,612.6209,737.7104,612.7698,738.065,612.7855,738.3644,612.9963,738.7446,613,739.0391,613.2341,739.0391,612.7596,743.9672,613.2262,748.8953,612.9012,753.8234,613.1779,758.7516,613,763.6797,612.8476,763.6165,612.8325,764.0245,612.9355,764.4814,612.5457,764.7341,612.4466,765.1073,612.2678,765.4475,612.311,765.5517,611.9673,765.7221,611.5602,765.7391,611.2437,765.9752,610.7805,765.857,610.5,766.1797,610.5,766.4641,600.6429,766.7279,590.7857,766.6242,580.9286,766.7927,571.0714,765.6966,561.2143,765.5275,551.3571,765.5583,541.5,766.1208,531.6429,765.9832,521.7857,766.8611,511.9286,766.005,502.0714,765.8366,492.2143,766.408,482.3571,765.5128,472.5,766.1797,472.4338,766.0198,472.2292,766.2331,471.8485,766.021,471.533,765.9665,471.0447,765.4948,470.7322,765.4475,470.8305,765.4882,470.7676,765.1692,470.2939,764.6801,470.2634,764.3746,470.1852,764.0493,470,763.6797,470.2173,763.6797,469.9986,758.7516,470.1542,753.8234,469.8154,748.8953,469.7742,743.9672,470,739.0391,470.1551,739.1033,469.9257,738.5941,470.4496,738.3969,470.503,738.0048,470.5033,737.5907,470.7322,737.2713,470.6871,737.1623,471.1443,737.2661,471.4012,736.8862,471.8684,737.0142,472.0759,736.5153,472.5,736.5391" style="stroke:#181818;stroke-width:0.5;"/><text fill="#000000" font-family="FG Virgil" font-size="14" lengthAdjust="spacing" textLength="129" x="477" y="756.2129">AuthorizationService</text><polygon fill="#E3E3E3" points="625.5,50,625.5,50.2102,635.2778,49.5857,645.0556,50.1933,654.8333,50.3997,664.6111,49.2866,674.3889,49.9223,684.1667,49.5735,693.9444,49.6165,703.7222,49.9318,713.5,50,713.4118,49.7871,713.9242,50.3169,714.1267,50.0988,714.5354,50.3784,714.9693,50.7188,715.2678,50.7322,715.2414,50.7213,715.4352,51.0945,715.5508,51.4353,715.7621,51.8157,715.9272,52.177,716,52.5,716.1952,52.5,716.2237,57.4281,716.2264,62.3563,716.0849,67.2844,716.1545,72.2125,716,77.1406,716.2163,77.2302,715.6315,77.4022,715.9161,77.9343,715.4693,78.1635,715.5786,78.6229,715.2678,78.9084,715.2046,78.7559,714.9055,79.0337,714.6553,79.4297,714.2009,79.3327,713.867,79.5266,713.5,79.6406,713.5,79.9793,703.7222,80.0569,693.9444,79.6367,684.1667,79.9278,674.3889,79.0682,664.6111,79.925,654.8333,80.1888,645.0556,80.0852,635.2778,80.2536,625.5,79.6406,625.4384,79.4919,625.0633,79.2933,624.7136,79.1564,624.4318,79.1832,624.0607,78.9943,623.7322,78.9084,623.9421,78.9953,623.532,78.5326,623.3337,78.1575,623.3632,77.8768,622.9411,77.4091,623,77.1406,622.827,77.1406,623.2163,72.2125,623.1452,67.2844,623.2448,62.3563,622.8927,57.4281,623,52.5,623.0983,52.5407,623.3283,52.2218,623.1474,51.7326,623.4098,51.4271,623.6246,51.1019,623.7322,50.7322,623.8154,50.9329,624.0853,50.5845,624.4983,50.5818,624.7223,50.1223,625.0601,49.9379,625.5,50" style="stroke:#181818;stroke-width:0.5;"/><text fill="#000000" font-family="FG Virgil" font-size="14" lengthAdjust="spacing" textLength="79" x="630" y="69.6738">UserSession</text><polygon fill="#E3E3E3" points="625.5,736.5391,625.5,736.7492,635.2778,736.1247,645.0556,736.7323,654.8333,736.9387,664.6111,735.8257,674.3889,736.4613,684.1667,736.1126,693.9444,736.1556,703.7222,736.4709,713.5,736.5391,713.4118,736.3261,713.9242,736.856,714.1267,736.6379,714.5354,736.9175,714.9693,737.2579,715.2678,737.2713,715.2414,737.2604,715.4352,737.6336,715.5508,737.9743,715.7621,738.3547,715.9272,738.716,716,739.0391,716.1952,739.0391,716.2237,743.9672,716.2264,748.8953,716.0849,753.8234,716.1545,758.7516,716,763.6797,716.2163,763.7693,715.6315,763.9412,715.9161,764.4733,715.4693,764.7025,715.5786,765.162,715.2678,765.4475,715.2046,765.295,714.9055,765.5728,714.6553,765.9687,714.2009,765.8718,713.867,766.0657,713.5,766.1797,713.5,766.5183,703.7222,766.5959,693.9444,766.1758,684.1667,766.4669,674.3889,765.6073,664.6111,766.4641,654.8333,766.7279,645.0556,766.6242,635.2778,766.7927,625.5,766.1797,625.4384,766.0309,625.0633,765.8324,624.7136,765.6954,624.4318,765.7222,624.0607,765.5334,623.7322,765.4475,623.9421,765.5344,623.532,765.0716,623.3337,764.6966,623.3632,764.4159,622.9411,763.9482,623,763.6797,622.827,763.6797,623.2163,758.7516,623.1452,753.8234,623.2448,748.8953,622.8927,743.9672,623,739.0391,623.0983,739.0798,623.3283,738.7608,623.1474,738.2717,623.4098,737.9662,623.6246,737.6409,623.7322,737.2713,623.8154,737.472,624.0853,737.1236,624.4983,737.1209,624.7223,736.6614,625.0601,736.4769,625.5,736.5391" style="stroke:#181818;stroke-width:0.5;"/><text fill="#000000" font-family="FG Virgil" font-size="14" lengthAdjust="spacing" textLength="79" x="630" y="756.2129">UserSession</text><polygon fill="#E3E3E3" points="728.5,50,728.5,50.2102,738.3421,49.5857,748.1842,50.1933,758.0263,50.3997,767.8684,49.2866,777.7105,49.9223,787.5526,49.5735,797.3947,49.6165,807.2368,49.9318,817.0789,49.3086,826.9211,50.5536,836.7632,49.3697,846.6053,49.8022,856.4474,50.4319,866.2895,49.9142,876.1316,50.0682,885.9737,49.9681,895.8158,50.1785,905.6579,50.2391,915.5,50,915.5747,50.1804,915.9392,50.3531,916.2938,50.5021,916.5931,50.5178,916.9733,50.7286,917.2678,50.7322,917.484,50.8218,917.1921,50.9938,917.7696,51.5259,917.6158,51.7551,918.0179,52.2145,918,52.5,917.835,52.5,917.9772,57.4281,918.2472,62.3563,917.9838,67.2844,918.0351,72.2125,918,77.1406,918.1043,77.1838,917.9817,77.5473,917.7059,77.8472,917.6491,78.2379,917.2379,78.4818,917.2678,78.9084,917.304,78.996,916.9841,79.2237,916.6174,79.3382,916.2853,79.5365,915.7919,79.3454,915.5,79.6406,915.5,78.9884,905.6579,79.0192,895.8158,79.5817,885.9737,79.4441,876.1316,80.322,866.2895,79.4659,856.4474,79.2976,846.6053,79.8689,836.7632,78.9738,826.9211,79.1215,817.0789,80.2896,807.2368,80.0763,797.3947,80.3751,787.5526,79.3188,777.7105,79.9598,767.8684,80.231,758.0263,79.1682,748.1842,79.5448,738.3421,79.7666,728.5,79.6406,728.5831,79.8413,728.1459,79.4929,727.8519,79.4902,727.3687,79.0307,726.9994,78.8463,726.7322,78.9084,726.8873,78.9726,726.365,78.4634,726.5961,78.2662,726.3565,77.8741,726.0639,77.46,726,77.1406,725.8821,77.1406,726.1529,72.2125,725.9002,67.2844,726.1973,62.3563,725.8158,57.4281,726,52.5,726.1901,52.5788,726.2956,52.2082,726.3683,51.8241,726.4539,51.4454,726.8096,51.1785,726.7322,50.7322,726.8105,50.9212,727.1074,50.6379,727.4736,50.5219,727.7763,50.2528,728.2378,50.3671,728.5,50" style="stroke:#181818;stroke-width:0.5;"/><text fill="#000000" font-family="FG Virgil" font-size="14" lengthAdjust="spacing" textLength="178" x="733" y="69.6738">CreateBoardPostItController</text><polygon fill="#E3E3E3" points="728.5,736.5391,728.5,736.7492,738.3421,736.1247,748.1842,736.7323,758.0263,736.9387,767.8684,735.8257,777.7105,736.4613,787.5526,736.1126,797.3947,736.1556,807.2368,736.4709,817.0789,735.8477,826.9211,737.0927,836.7632,735.9088,846.6053,736.3413,856.4474,736.971,866.2895,736.4533,876.1316,736.6073,885.9737,736.5071,895.8158,736.7176,905.6579,736.7782,915.5,736.5391,915.5747,736.7194,915.9392,736.8922,916.2938,737.0411,916.5931,737.0568,916.9733,737.2676,917.2678,737.2713,917.484,737.3609,917.1921,737.5329,917.7696,738.065,917.6158,738.2941,918.0179,738.7536,918,739.0391,917.835,739.0391,917.9772,743.9672,918.2472,748.8953,917.9838,753.8234,918.0351,758.7516,918,763.6797,918.1043,763.7229,917.9817,764.0863,917.7059,764.3863,917.6491,764.777,917.2379,765.0209,917.2678,765.4475,917.304,765.535,916.9841,765.7627,916.6174,765.8772,916.2853,766.0756,915.7919,765.8845,915.5,766.1797,915.5,765.5275,905.6579,765.5583,895.8158,766.1208,885.9737,765.9832,876.1316,766.8611,866.2895,766.005,856.4474,765.8366,846.6053,766.408,836.7632,765.5128,826.9211,765.6606,817.0789,766.8286,807.2368,766.6154,797.3947,766.9142,787.5526,765.8579,777.7105,766.4989,767.8684,766.7701,758.0263,765.7073,748.1842,766.0838,738.3421,766.3057,728.5,766.1797,728.5831,766.3804,728.1459,766.032,727.8519,766.0292,727.3687,765.5698,726.9994,765.3853,726.7322,765.4475,726.8873,765.5117,726.365,765.0024,726.5961,764.8053,726.3565,764.4132,726.0639,763.9991,726,763.6797,725.8821,763.6797,726.1529,758.7516,725.9002,753.8234,726.1973,748.8953,725.8158,743.9672,726,739.0391,726.1901,739.1178,726.2956,738.7473,726.3683,738.3632,726.4539,737.9844,726.8096,737.7175,726.7322,737.2713,726.8105,737.4603,727.1074,737.177,727.4736,737.061,727.7763,736.7918,728.2378,736.9061,728.5,736.5391" style="stroke:#181818;stroke-width:0.5;"/><text fill="#000000" font-family="FG Virgil" font-size="14" lengthAdjust="spacing" textLength="178" x="733" y="756.2129">CreateBoardPostItController</text><polygon fill="#E3E3E3" points="1023,50,1023,50.2102,1033.1176,49.5857,1043.2353,50.1933,1053.3529,50.3997,1063.4706,49.2866,1073.5882,49.9223,1083.7059,49.5735,1093.8235,49.6165,1103.9412,49.9318,1114.0588,49.3086,1124.1765,50.5536,1134.2941,49.3697,1144.4118,49.8022,1154.5294,50.4319,1164.6471,49.9142,1174.7647,50.0682,1184.8824,49.9681,1195,50,1195.0228,50.055,1195.3841,50.2201,1195.7818,50.4733,1196.1463,50.646,1196.5009,50.795,1196.7678,50.7322,1196.8462,50.7647,1197.057,51.1449,1197.2769,51.5289,1196.985,51.7009,1197.5625,52.233,1197.5,52.5,1197.4012,52.5,1197.6779,57.4281,1197.335,62.3563,1197.4772,67.2844,1197.7472,72.2125,1197.5,77.1406,1197.485,77.1344,1197.386,77.5076,1197.3114,77.8909,1197.1888,78.2544,1196.913,78.5543,1196.7678,78.9084,1196.8044,78.9968,1196.3412,78.8786,1196.0969,79.2889,1195.777,79.5166,1195.4103,79.6311,1195,79.6406,1195,80.2536,1184.8824,79.1575,1174.7647,78.9884,1164.6471,79.0192,1154.5294,79.5817,1144.4118,79.4441,1134.2941,80.322,1124.1765,79.4659,1114.0588,79.2976,1103.9412,79.8689,1093.8235,78.9738,1083.7059,79.1215,1073.5882,80.2896,1063.4706,80.0763,1053.3529,80.3751,1043.2353,79.3188,1033.1176,79.9598,1023,79.6406,1023.0753,79.8225,1022.5862,79.3487,1022.2807,79.3182,1021.9554,79.2401,1021.6689,79.2556,1021.2322,78.9084,1021.2309,78.9079,1021.2282,78.6138,1020.7688,78.1306,1020.5843,77.7613,1020.8015,77.5584,1020.5,77.1406,1020.261,77.1406,1020.6697,72.2125,1020.5689,67.2844,1020.4107,62.3563,1020.3821,57.4281,1020.5,52.5,1020.6413,52.5585,1020.5543,52.1083,1020.9752,51.8684,1020.7691,51.3688,1021.2759,51.1645,1021.2322,50.7322,1021.294,50.8814,1021.617,50.6612,1021.9454,50.4539,1022.3856,50.5167,1022.7247,50.3354,1023,50" style="stroke:#181818;stroke-width:0.5;"/><text fill="#000000" font-family="FG Virgil" font-size="14" lengthAdjust="spacing" textLength="163" x="1027.5" y="69.6738">CreateBoardPostItService</text><polygon fill="#E3E3E3" points="1023,736.5391,1023,736.7492,1033.1176,736.1247,1043.2353,736.7323,1053.3529,736.9387,1063.4706,735.8257,1073.5882,736.4613,1083.7059,736.1126,1093.8235,736.1556,1103.9412,736.4709,1114.0588,735.8477,1124.1765,737.0927,1134.2941,735.9088,1144.4118,736.3413,1154.5294,736.971,1164.6471,736.4533,1174.7647,736.6073,1184.8824,736.5071,1195,736.5391,1195.0228,736.594,1195.3841,736.7592,1195.7818,737.0123,1196.1463,737.1851,1196.5009,737.334,1196.7678,737.2713,1196.8462,737.3038,1197.057,737.684,1197.2769,738.068,1196.985,738.24,1197.5625,738.7721,1197.5,739.0391,1197.4012,739.0391,1197.6779,743.9672,1197.335,748.8953,1197.4772,753.8234,1197.7472,758.7516,1197.5,763.6797,1197.485,763.6735,1197.386,764.0467,1197.3114,764.43,1197.1888,764.7934,1196.913,765.0934,1196.7678,765.4475,1196.8044,765.5359,1196.3412,765.4176,1196.0969,765.8279,1195.777,766.0556,1195.4103,766.1701,1195,766.1797,1195,766.7927,1184.8824,765.6966,1174.7647,765.5275,1164.6471,765.5583,1154.5294,766.1208,1144.4118,765.9832,1134.2941,766.8611,1124.1765,766.005,1114.0588,765.8366,1103.9412,766.408,1093.8235,765.5128,1083.7059,765.6606,1073.5882,766.8286,1063.4706,766.6154,1053.3529,766.9142,1043.2353,765.8579,1033.1176,766.4989,1023,766.1797,1023.0753,766.3615,1022.5862,765.8878,1022.2807,765.8573,1021.9554,765.7791,1021.6689,765.7946,1021.2322,765.4475,1021.2309,765.4469,1021.2282,765.1529,1020.7688,764.6697,1020.5843,764.3004,1020.8015,764.0975,1020.5,763.6797,1020.261,763.6797,1020.6697,758.7516,1020.5689,753.8234,1020.4107,748.8953,1020.3821,743.9672,1020.5,739.0391,1020.6413,739.0976,1020.5543,738.6473,1020.9752,738.4075,1020.7691,737.9079,1021.2759,737.7036,1021.2322,737.2713,1021.294,737.4204,1021.617,737.2003,1021.9454,736.9929,1022.3856,737.0557,1022.7247,736.8745,1023,736.5391" style="stroke:#181818;stroke-width:0.5;"/><text fill="#000000" font-family="FG Virgil" font-size="14" lengthAdjust="spacing" textLength="163" x="1027.5" y="756.2129">CreateBoardPostItService</text><polygon fill="#E3E3E3" points="1259.5,50,1259.5,50.2102,1269.5625,49.5857,1279.625,50.1933,1289.6875,50.3997,1299.75,49.2866,1309.8125,49.9223,1319.875,49.5735,1329.9375,49.6165,1340,49.9318,1350.0625,49.3086,1360.125,50.5536,1370.1875,49.3697,1380.25,49.8022,1390.3125,50.4319,1400.375,49.9142,1410.4375,50.0682,1420.5,50,1420.4959,49.9902,1420.8763,50.2014,1421.2376,50.3665,1421.6354,50.6197,1421.9998,50.7924,1422.2678,50.7322,1422.477,50.8189,1422.4926,51.1183,1422.7034,51.4985,1422.9234,51.8825,1422.6315,52.0545,1423,52.5,1423.2262,52.5,1422.9012,57.4281,1423.1779,62.3563,1422.835,67.2844,1422.9772,72.2125,1423,77.1406,1423.2284,77.2352,1422.8385,77.488,1422.7395,77.8612,1422.6649,78.2445,1422.5424,78.6079,1422.2678,78.9084,1422.2673,78.9072,1421.9509,79.1433,1421.4876,79.025,1421.2434,79.4353,1420.9235,79.663,1420.5,79.6406,1420.5,80.0852,1410.4375,80.2536,1400.375,79.1575,1390.3125,78.9884,1380.25,79.0192,1370.1875,79.5817,1360.125,79.4441,1350.0625,80.322,1340,79.4659,1329.9375,79.2976,1319.875,79.8689,1309.8125,78.9738,1299.75,79.1215,1289.6875,80.2896,1279.625,80.0763,1269.5625,80.3751,1259.5,79.6406,1259.459,79.5415,1259.1872,79.5925,1258.8682,79.5296,1258.3791,79.0558,1258.0736,79.0253,1257.7322,78.9084,1257.771,78.9245,1257.7865,78.638,1257.438,78.2008,1257.4353,77.9067,1256.9759,77.4235,1257,77.1406,1256.7742,77.1406,1257.1679,72.2125,1256.761,67.2844,1257.1697,62.3563,1257.0689,57.4281,1257,52.5,1256.9175,52.4658,1257.0375,52.1013,1257.4342,51.8514,1257.3472,51.4012,1257.7681,51.1613,1257.7322,50.7322,1257.6617,50.562,1258.1645,50.7759,1258.5011,50.5885,1258.8241,50.3683,1259.1525,50.161,1259.5,50" style="stroke:#181818;stroke-width:0.5;"/><text fill="#000000" font-family="FG Virgil" font-size="14" lengthAdjust="spacing" textLength="152" x="1264" y="69.6738">SharedBoardRepository</text><polygon fill="#E3E3E3" points="1259.5,736.5391,1259.5,736.7492,1269.5625,736.1247,1279.625,736.7323,1289.6875,736.9387,1299.75,735.8257,1309.8125,736.4613,1319.875,736.1126,1329.9375,736.1556,1340,736.4709,1350.0625,735.8477,1360.125,737.0927,1370.1875,735.9088,1380.25,736.3413,1390.3125,736.971,1400.375,736.4533,1410.4375,736.6073,1420.5,736.5391,1420.4959,736.5292,1420.8763,736.7405,1421.2376,736.9056,1421.6354,737.1588,1421.9998,737.3315,1422.2678,737.2713,1422.477,737.3579,1422.4926,737.6573,1422.7034,738.0375,1422.9234,738.4215,1422.6315,738.5935,1423,739.0391,1423.2262,739.0391,1422.9012,743.9672,1423.1779,748.8953,1422.835,753.8234,1422.9772,758.7516,1423,763.6797,1423.2284,763.7743,1422.8385,764.027,1422.7395,764.4002,1422.6649,764.7835,1422.5424,765.147,1422.2678,765.4475,1422.2673,765.4463,1421.9509,765.6824,1421.4876,765.5641,1421.2434,765.9744,1420.9235,766.2021,1420.5,766.1797,1420.5,766.6242,1410.4375,766.7927,1400.375,765.6966,1390.3125,765.5275,1380.25,765.5583,1370.1875,766.1208,1360.125,765.9832,1350.0625,766.8611,1340,766.005,1329.9375,765.8366,1319.875,766.408,1309.8125,765.5128,1299.75,765.6606,1289.6875,766.8286,1279.625,766.6154,1269.5625,766.9142,1259.5,766.1797,1259.459,766.0806,1259.1872,766.1315,1258.8682,766.0686,1258.3791,765.5949,1258.0736,765.5644,1257.7322,765.4475,1257.771,765.4635,1257.7865,765.177,1257.438,764.7398,1257.4353,764.4458,1256.9759,763.9626,1257,763.6797,1256.7742,763.6797,1257.1679,758.7516,1256.761,753.8234,1257.1697,748.8953,1257.0689,743.9672,1257,739.0391,1256.9175,739.0049,1257.0375,738.6404,1257.4342,738.3905,1257.3472,737.9402,1257.7681,737.7003,1257.7322,737.2713,1257.6617,737.1011,1258.1645,737.315,1258.5011,737.1275,1258.8241,736.9074,1259.1525,736.7001,1259.5,736.5391" style="stroke:#181818;stroke-width:0.5;"/><text fill="#000000" font-family="FG Virgil" font-size="14" lengthAdjust="spacing" textLength="152" x="1264" y="756.2129">SharedBoardRepository</text><polygon fill="#E3E3E3" points="1435.5,50,1435.5,50.2102,1445.55,49.5857,1455.6,50.1933,1465.65,50.3997,1475.7,49.2866,1485.75,49.9223,1495.8,49.5735,1505.85,49.6165,1515.9,49.9318,1525.95,49.3086,1536,50.5536,1546.05,49.3697,1556.1,49.8022,1566.15,50.4319,1576.2,49.9142,1586.25,50.0682,1596.3,49.9681,1606.35,50.1785,1616.4,50.2391,1626.45,50.5857,1636.5,50,1636.5856,50.2067,1636.9402,50.3556,1637.2396,50.3713,1637.6198,50.5821,1638.0038,50.802,1638.2678,50.7322,1638.0457,50.6402,1638.6232,51.1723,1638.4693,51.4015,1638.8715,51.861,1638.7011,52.0833,1639,52.5,1638.9772,52.5,1639.2472,57.4281,1638.9838,62.3563,1639.0351,67.2844,1639.1129,72.2125,1639,77.1406,1639.1282,77.1937,1638.8524,77.4937,1638.7956,77.8844,1638.3844,78.1283,1638.5018,78.5911,1638.2678,78.9084,1638.3377,79.0772,1637.9709,79.1917,1637.6389,79.3901,1637.1455,79.199,1636.7704,79.2933,1636.5,79.6406,1636.5,79.0192,1626.45,79.5817,1616.4,79.4441,1606.35,80.322,1596.3,79.4659,1586.25,79.2976,1576.2,79.8689,1566.15,78.9738,1556.1,79.1215,1546.05,80.2896,1536,80.0763,1525.95,80.3751,1515.9,79.3188,1505.85,79.9598,1495.8,80.231,1485.75,79.1682,1475.7,79.5448,1465.65,79.7666,1455.6,80.2924,1445.55,79.6364,1435.5,79.6406,1435.559,79.7831,1435.0758,79.3236,1434.7065,79.1392,1434.5036,79.3564,1433.9943,78.834,1433.7322,78.9084,1433.889,78.9733,1433.6494,78.5812,1433.3568,78.1671,1433.1839,77.8026,1433.2877,77.5527,1433,77.1406,1432.9002,77.1406,1433.1973,72.2125,1432.8158,67.2844,1433.2058,62.3563,1433.1614,57.4281,1433,52.5,1433.0754,52.5312,1433.161,52.1525,1433.5167,51.8856,1433.6283,51.5176,1433.6379,51.1074,1433.7322,50.7322,1433.7664,50.8148,1434.0692,50.5457,1434.5307,50.66,1434.8126,50.3406,1435.1685,50.1996,1435.5,50" style="stroke:#181818;stroke-width:0.5;"/><text fill="#000000" font-family="FG Virgil" font-size="14" lengthAdjust="spacing" textLength="192" x="1440" y="69.6738">theSharedBoard:SharedBoard</text><polygon fill="#E3E3E3" points="1435.5,736.5391,1435.5,736.7492,1445.55,736.1247,1455.6,736.7323,1465.65,736.9387,1475.7,735.8257,1485.75,736.4613,1495.8,736.1126,1505.85,736.1556,1515.9,736.4709,1525.95,735.8477,1536,737.0927,1546.05,735.9088,1556.1,736.3413,1566.15,736.971,1576.2,736.4533,1586.25,736.6073,1596.3,736.5071,1606.35,736.7176,1616.4,736.7782,1626.45,737.1248,1636.5,736.5391,1636.5856,736.7457,1636.9402,736.8947,1637.2396,736.9104,1637.6198,737.1212,1638.0038,737.3411,1638.2678,737.2713,1638.0457,737.1793,1638.6232,737.7114,1638.4693,737.9406,1638.8715,738.4,1638.7011,738.6224,1639,739.0391,1638.9772,739.0391,1639.2472,743.9672,1638.9838,748.8953,1639.0351,753.8234,1639.1129,758.7516,1639,763.6797,1639.1282,763.7328,1638.8524,764.0327,1638.7956,764.4234,1638.3844,764.6673,1638.5018,765.1302,1638.2678,765.4475,1638.3377,765.6163,1637.9709,765.7308,1637.6389,765.9291,1637.1455,765.738,1636.7704,765.8324,1636.5,766.1797,1636.5,765.5583,1626.45,766.1208,1616.4,765.9832,1606.35,766.8611,1596.3,766.005,1586.25,765.8366,1576.2,766.408,1566.15,765.5128,1556.1,765.6606,1546.05,766.8286,1536,766.6154,1525.95,766.9142,1515.9,765.8579,1505.85,766.4989,1495.8,766.7701,1485.75,765.7073,1475.7,766.0838,1465.65,766.3057,1455.6,766.8314,1445.55,766.1755,1435.5,766.1797,1435.559,766.3221,1435.0758,765.8627,1434.7065,765.6782,1434.5036,765.8954,1433.9943,765.3731,1433.7322,765.4475,1433.889,765.5124,1433.6494,765.1203,1433.3568,764.7062,1433.1839,764.3417,1433.2877,764.0918,1433,763.6797,1432.9002,763.6797,1433.1973,758.7516,1432.8158,753.8234,1433.2058,748.8953,1433.1614,743.9672,1433,739.0391,1433.0754,739.0703,1433.161,738.6915,1433.5167,738.4246,1433.6283,738.0567,1433.6379,737.6464,1433.7322,737.2713,1433.7664,737.3539,1434.0692,737.0847,1434.5307,737.199,1434.8126,736.8796,1435.1685,736.7387,1435.5,736.5391" style="stroke:#181818;stroke-width:0.5;"/><text fill="#000000" font-family="FG Virgil" font-size="14" lengthAdjust="spacing" textLength="192" x="1440" y="756.2129">theSharedBoard:SharedBoard</text><polygon fill="#E3E3E3" points="1651.5,50,1651.5,50.0701,1660.3,49.8619,1669.1,50.0644,1677.9,50.1332,1686.7,49.7622,1695.5,50,1695.4901,49.9761,1695.7991,50.0151,1696.1582,50.1748,1696.552,50.4184,1696.826,50.3729,1697.2678,50.7322,1697.4383,50.8029,1697.2201,51.0054,1697.4998,51.4141,1697.8401,51.848,1697.8271,52.1355,1698,52.5,1698.0227,52.5,1697.9894,57.4281,1698.0595,62.3563,1698.0797,67.2844,1698.1952,72.2125,1698,77.1406,1698.2067,77.2262,1698.0627,77.5808,1697.7855,77.8802,1697.7034,78.2604,1697.6305,78.6444,1697.2678,78.9084,1697.1758,78.6863,1697.0008,79.2638,1696.5228,79.11,1696.2752,79.5121,1695.7904,79.3417,1695.5,79.6406,1695.5,79.6178,1686.7,79.8878,1677.9,79.6244,1669.1,79.6757,1660.3,79.7535,1651.5,79.6406,1651.5531,79.7688,1651.1459,79.493,1650.8295,79.4362,1650.3663,79.025,1650.1221,79.1424,1649.7322,78.9084,1649.9011,78.9783,1649.7227,78.6115,1649.6281,78.2795,1649.1441,77.7861,1648.9456,77.411,1649,77.1406,1648.7929,77.1406,1648.9804,72.2125,1648.9345,67.2844,1649.2271,62.3563,1648.9418,57.4281,1649,52.5,1648.8944,52.4562,1649.2167,52.1756,1649.0875,51.7078,1649.2795,51.3731,1649.7856,51.1686,1649.7322,50.7322,1649.7878,50.8664,1650.1795,50.812,1650.3983,50.3402,1650.8336,50.3912,1651.2218,50.3283,1651.5,50" style="stroke:#181818;stroke-width:0.5;"/><text fill="#000000" font-family="FG Virgil" font-size="14" lengthAdjust="spacing" textLength="35" x="1656" y="69.6738">PostIt</text><polygon fill="#E3E3E3" points="1651.5,736.5391,1651.5,736.6091,1660.3,736.401,1669.1,736.6035,1677.9,736.6723,1686.7,736.3013,1695.5,736.5391,1695.4901,736.5151,1695.7991,736.5542,1696.1582,736.7139,1696.552,736.9574,1696.826,736.9119,1697.2678,737.2713,1697.4383,737.3419,1697.2201,737.5444,1697.4998,737.9532,1697.8401,738.3871,1697.8271,738.6746,1698,739.0391,1698.0227,739.0391,1697.9894,743.9672,1698.0595,748.8953,1698.0797,753.8234,1698.1952,758.7516,1698,763.6797,1698.2067,763.7653,1698.0627,764.1199,1697.7855,764.4193,1697.7034,764.7995,1697.6305,765.1835,1697.2678,765.4475,1697.1758,765.2254,1697.0008,765.8029,1696.5228,765.649,1696.2752,766.0512,1695.7904,765.8808,1695.5,766.1797,1695.5,766.1569,1686.7,766.4269,1677.9,766.1634,1669.1,766.2148,1660.3,766.2926,1651.5,766.1797,1651.5531,766.3079,1651.1459,766.032,1650.8295,765.9752,1650.3663,765.5641,1650.1221,765.6815,1649.7322,765.4475,1649.9011,765.5174,1649.7227,765.1506,1649.6281,764.8185,1649.1441,764.3252,1648.9456,763.95,1649,763.6797,1648.7929,763.6797,1648.9804,758.7516,1648.9345,753.8234,1649.2271,748.8953,1648.9418,743.9672,1649,739.0391,1648.8944,738.9953,1649.2167,738.7146,1649.0875,738.2469,1649.2795,737.9122,1649.7856,737.7076,1649.7322,737.2713,1649.7878,737.4055,1650.1795,737.351,1650.3983,736.8793,1650.8336,736.9303,1651.2218,736.8673,1651.5,736.5391" style="stroke:#181818;stroke-width:0.5;"/><text fill="#000000" font-family="FG Virgil" font-size="14" lengthAdjust="spacing" textLength="35" x="1656" y="756.2129">PostIt</text><polygon fill="#E3E3E3" points="1710.5,50,1710.5,50.2102,1720.5588,49.5857,1730.6176,50.1933,1740.6765,50.3997,1750.7353,49.2866,1760.7941,49.9223,1770.8529,49.5735,1780.9118,49.6165,1790.9706,49.9318,1801.0294,49.3086,1811.0882,50.5536,1821.1471,49.3697,1831.2059,49.8022,1841.2647,50.4319,1851.3235,49.9142,1861.3824,50.0682,1871.4412,49.9681,1881.5,50,1881.5228,50.055,1881.8841,50.2201,1882.2818,50.4733,1882.6463,50.646,1883.0009,50.795,1883.2678,50.7322,1883.3462,50.7647,1883.557,51.1449,1883.7769,51.5289,1883.485,51.7009,1884.0625,52.233,1884,52.5,1883.9012,52.5,1884.1779,57.4281,1883.835,62.3563,1883.9772,67.2844,1884.2472,72.2125,1884,77.1406,1883.985,77.1344,1883.886,77.5076,1883.8114,77.8909,1883.6888,78.2544,1883.413,78.5543,1883.2678,78.9084,1883.3044,78.9968,1882.8412,78.8786,1882.5969,79.2889,1882.277,79.5166,1881.9103,79.6311,1881.5,79.6406,1881.5,80.2536,1871.4412,79.1575,1861.3824,78.9884,1851.3235,79.0192,1841.2647,79.5817,1831.2059,79.4441,1821.1471,80.322,1811.0882,79.4659,1801.0294,79.2976,1790.9706,79.8689,1780.9118,78.9738,1770.8529,79.1215,1760.7941,80.2896,1750.7353,80.0763,1740.6765,80.3751,1730.6176,79.3188,1720.5588,79.9598,1710.5,79.6406,1710.5753,79.8225,1710.0862,79.3487,1709.7807,79.3182,1709.4554,79.2401,1709.1689,79.2556,1708.7322,78.9084,1708.7309,78.9079,1708.7282,78.6138,1708.2688,78.1306,1708.0843,77.7613,1708.3015,77.5584,1708,77.1406,1707.761,77.1406,1708.1697,72.2125,1708.0689,67.2844,1707.9107,62.3563,1707.8821,57.4281,1708,52.5,1708.1413,52.5585,1708.0543,52.1083,1708.4752,51.8684,1708.2691,51.3688,1708.7759,51.1645,1708.7322,50.7322,1708.794,50.8814,1709.117,50.6612,1709.4454,50.4539,1709.8856,50.5167,1710.2247,50.3354,1710.5,50" style="stroke:#181818;stroke-width:0.5;"/><text fill="#000000" font-family="FG Virgil" font-size="14" lengthAdjust="spacing" textLength="162" x="1715" y="69.6738">CreateBoardPostItThread</text><polygon fill="#E3E3E3" points="1710.5,736.5391,1710.5,736.7492,1720.5588,736.1247,1730.6176,736.7323,1740.6765,736.9387,1750.7353,735.8257,1760.7941,736.4613,1770.8529,736.1126,1780.9118,736.1556,1790.9706,736.4709,1801.0294,735.8477,1811.0882,737.0927,1821.1471,735.9088,1831.2059,736.3413,1841.2647,736.971,1851.3235,736.4533,1861.3824,736.6073,1871.4412,736.5071,1881.5,736.5391,1881.5228,736.594,1881.8841,736.7592,1882.2818,737.0123,1882.6463,737.1851,1883.0009,737.334,1883.2678,737.2713,1883.3462,737.3038,1883.557,737.684,1883.7769,738.068,1883.485,738.24,1884.0625,738.7721,1884,739.0391,1883.9012,739.0391,1884.1779,743.9672,1883.835,748.8953,1883.9772,753.8234,1884.2472,758.7516,1884,763.6797,1883.985,763.6735,1883.886,764.0467,1883.8114,764.43,1883.6888,764.7934,1883.413,765.0934,1883.2678,765.4475,1883.3044,765.5359,1882.8412,765.4176,1882.5969,765.8279,1882.277,766.0556,1881.9103,766.1701,1881.5,766.1797,1881.5,766.7927,1871.4412,765.6966,1861.3824,765.5275,1851.3235,765.5583,1841.2647,766.1208,1831.2059,765.9832,1821.1471,766.8611,1811.0882,766.005,1801.0294,765.8366,1790.9706,766.408,1780.9118,765.5128,1770.8529,765.6606,1760.7941,766.8286,1750.7353,766.6154,1740.6765,766.9142,1730.6176,765.8579,1720.5588,766.4989,1710.5,766.1797,1710.5753,766.3615,1710.0862,765.8878,1709.7807,765.8573,1709.4554,765.7791,1709.1689,765.7946,1708.7322,765.4475,1708.7309,765.4469,1708.7282,765.1529,1708.2688,764.6697,1708.0843,764.3004,1708.3015,764.0975,1708,763.6797,1707.761,763.6797,1708.1697,758.7516,1708.0689,753.8234,1707.9107,748.8953,1707.8821,743.9672,1708,739.0391,1708.1413,739.0976,1708.0543,738.6473,1708.4752,738.4075,1708.2691,737.9079,1708.7759,737.7036,1708.7322,737.2713,1708.794,737.4204,1709.117,737.2003,1709.4454,736.9929,1709.8856,737.0557,1710.2247,736.8745,1710.5,736.5391" style="stroke:#181818;stroke-width:0.5;"/><text fill="#000000" font-family="FG Virgil" font-size="14" lengthAdjust="spacing" textLength="162" x="1715" y="756.2129">CreateBoardPostItThread</text><polygon fill="#E3E3E3" points="1896.5,50,1896.5,50.2102,1905.9,49.5857,1915.3,50.1933,1924.7,50.3997,1934.1,49.2866,1943.5,50,1943.4901,49.9761,1943.7991,50.0151,1944.1582,50.1748,1944.552,50.4184,1944.826,50.3729,1945.2678,50.7322,1945.4383,50.8029,1945.2201,51.0054,1945.4998,51.4141,1945.8401,51.848,1945.8271,52.1355,1946,52.5,1946.0227,52.5,1945.9894,57.4281,1946.0595,62.3563,1946.0797,67.2844,1946.1952,72.2125,1946,77.1406,1946.2067,77.2262,1946.0627,77.5808,1945.7855,77.8802,1945.7034,78.2604,1945.6305,78.6444,1945.2678,78.9084,1945.1758,78.6863,1945.0008,79.2638,1944.5228,79.11,1944.2752,79.5121,1943.7904,79.3417,1943.5,79.6406,1943.5,79.5721,1934.1,80.3822,1924.7,79.5919,1915.3,79.7459,1905.9,79.9793,1896.5,79.6406,1896.5531,79.7688,1896.1459,79.493,1895.8295,79.4362,1895.3663,79.025,1895.1221,79.1424,1894.7322,78.9084,1894.9011,78.9783,1894.7227,78.6115,1894.6281,78.2795,1894.1441,77.7861,1893.9456,77.411,1894,77.1406,1893.7929,77.1406,1893.9804,72.2125,1893.9345,67.2844,1894.2271,62.3563,1893.9418,57.4281,1894,52.5,1893.8944,52.4562,1894.2167,52.1756,1894.0875,51.7078,1894.2795,51.3731,1894.7856,51.1686,1894.7322,50.7322,1894.7878,50.8664,1895.1795,50.812,1895.3983,50.3402,1895.8336,50.3912,1896.2218,50.3283,1896.5,50" style="stroke:#181818;stroke-width:0.5;"/><text fill="#000000" font-family="FG Virgil" font-size="14" lengthAdjust="spacing" textLength="38" x="1901" y="69.6738">Board</text><polygon fill="#E3E3E3" points="1896.5,736.5391,1896.5,736.7492,1905.9,736.1247,1915.3,736.7323,1924.7,736.9387,1934.1,735.8257,1943.5,736.5391,1943.4901,736.5151,1943.7991,736.5542,1944.1582,736.7139,1944.552,736.9574,1944.826,736.9119,1945.2678,737.2713,1945.4383,737.3419,1945.2201,737.5444,1945.4998,737.9532,1945.8401,738.3871,1945.8271,738.6746,1946,739.0391,1946.0227,739.0391,1945.9894,743.9672,1946.0595,748.8953,1946.0797,753.8234,1946.1952,758.7516,1946,763.6797,1946.2067,763.7653,1946.0627,764.1199,1945.7855,764.4193,1945.7034,764.7995,1945.6305,765.1835,1945.2678,765.4475,1945.1758,765.2254,1945.0008,765.8029,1944.5228,765.649,1944.2752,766.0512,1943.7904,765.8808,1943.5,766.1797,1943.5,766.1112,1934.1,766.9213,1924.7,766.131,1915.3,766.285,1905.9,766.5183,1896.5,766.1797,1896.5531,766.3079,1896.1459,766.032,1895.8295,765.9752,1895.3663,765.5641,1895.1221,765.6815,1894.7322,765.4475,1894.9011,765.5174,1894.7227,765.1506,1894.6281,764.8185,1894.1441,764.3252,1893.9456,763.95,1894,763.6797,1893.7929,763.6797,1893.9804,758.7516,1893.9345,753.8234,1894.2271,748.8953,1893.9418,743.9672,1894,739.0391,1893.8944,738.9953,1894.2167,738.7146,1894.0875,738.2469,1894.2795,737.9122,1894.7856,737.7076,1894.7322,737.2713,1894.7878,737.4055,1895.1795,737.351,1895.3983,736.8793,1895.8336,736.9303,1896.2218,736.8673,1896.5,736.5391" style="stroke:#181818;stroke-width:0.5;"/><text fill="#000000" font-family="FG Virgil" font-size="14" lengthAdjust="spacing" textLength="38" x="1901" y="756.2129">Board</text><polygon fill="#FFFFFF" points="211.5,111.1641,211.5,111.2341,213.5,111.026,215.5,111.2285,217.5,111.2973,219.5,110.9263,221.5,111.1641,221.4223,111.1641,221.0735,121.1374,221.1165,131.1108,221.4318,141.0841,220.8086,151.0575,222.0536,161.0309,220.8697,171.0042,221.3022,180.9776,221.9319,190.9509,221.4142,200.9243,221.5682,210.8977,221.4681,220.871,221.6785,230.8444,221.7391,240.8178,222.0857,250.7911,222.1711,260.7645,222.1793,270.7378,221.7546,280.7112,221.9636,290.6846,222.2022,300.6579,220.7788,310.6313,222.1785,320.6046,221.2035,330.578,222.0338,340.5514,221.005,350.5247,221.4315,360.4981,222.2416,370.4714,221.4513,380.4448,221.6053,390.4182,221.8386,400.3915,221.9162,410.3649,221.4961,420.3382,221.7872,430.3116,220.9276,440.285,221.7844,450.2583,222.0482,460.2317,221.9445,470.205,222.113,480.1784,221.0169,490.1518,220.8478,500.1251,220.8786,510.0985,221.4411,520.0718,221.3035,530.0452,222.1814,540.0186,221.3253,549.9919,221.1569,559.9653,221.7283,569.9387,220.8332,579.912,220.9809,589.8854,222.149,599.8587,221.9357,609.8321,222.2345,619.8055,221.1782,629.7788,221.8192,639.7522,222.0904,649.7255,221.0276,659.6989,221.4041,669.6723,221.626,679.6456,222.1518,689.619,221.4958,699.5923,221.9626,709.5657,221.5,719.5391,221.5,719.3545,219.5,719.3133,217.5,719.7069,215.5,719.3001,213.5,719.7087,211.5,719.5391,211.7066,719.5391,211.2321,709.5657,211.1462,699.5923,211.9588,689.619,211.2007,679.6456,212.0919,669.6723,210.9473,659.6989,212.1174,649.7255,211.9843,639.7522,211.745,629.7788,211.5472,619.8055,212.2266,609.8321,212.1136,599.8587,211.6693,589.8854,211.7682,579.912,211.3697,569.9387,212.2165,559.9653,211.6549,549.9919,211.6726,540.0186,210.8916,530.0452,211.0948,520.0718,212.0307,510.0985,211.9298,500.1251,211.4571,490.1518,211.1778,480.1784,211.2811,470.205,210.8138,460.2317,211.9147,450.2583,212.2396,440.285,212.0264,430.3116,212.1949,420.3382,211.3633,410.3649,211.5872,400.3915,211.1124,390.4182,211.784,380.4448,211.7468,370.4714,212.0524,360.4981,211.2703,350.5247,211.3656,340.5514,211.9435,330.578,212.0673,320.6046,210.9875,310.6313,211.3061,300.6579,211.6493,290.6846,210.8892,280.7112,211.8534,270.7378,211.758,260.7645,211.3992,250.7911,211.6422,240.8178,212.2287,230.8444,211.1871,220.871,211.815,210.8977,211.7856,200.9243,211.6158,190.9509,211.6409,180.9776,211.6135,171.0042,210.8758,161.0309,211.0992,151.0575,211.0385,141.0841,211.5638,131.1108,211.5881,121.1374,211.5,111.1641" style="stroke:#181818;stroke-width:1.0;"/><polygon fill="#FFFFFF" points="404.5,139.6875,404.5,139.7576,406.5,139.5494,408.5,139.7519,410.5,139.8207,412.5,139.4497,414.5,139.6875,414.4741,139.6875,414.3578,145.6875,414.3722,151.6875,414.4773,157.6875,414.2695,163.6875,414.5,169.6875,414.5,169.872,412.5,169.4774,410.5,169.6216,408.5,169.8315,406.5,169.6589,404.5,169.6875,404.5227,169.6875,404.4894,163.6875,404.5595,157.6875,404.5797,151.6875,404.6952,145.6875,404.5,139.6875" style="stroke:#181818;stroke-width:1.0;"/><polygon fill="#FFFFFF" points="536.5,198.2109,536.5,198.281,538.5,198.0728,540.5,198.2754,542.5,198.3442,544.5,197.9731,546.5,198.2109,546.4741,198.2109,546.3578,204.2109,546.3722,210.2109,546.4773,216.2109,546.2695,222.2109,546.5,228.2109,546.5,228.3955,544.5,228.0008,542.5,228.145,540.5,228.3549,538.5,228.1823,536.5,228.2109,536.5227,228.2109,536.4894,222.2109,536.5595,216.2109,536.5797,210.2109,536.6952,204.2109,536.5,198.2109" style="stroke:#181818;stroke-width:1.0;"/><polygon fill="#FFFFFF" points="664.5,256.7344,664.5,256.8044,666.5,256.5963,668.5,256.7988,670.5,256.8676,672.5,256.4966,674.5,256.7344,674.4741,256.7344,674.3578,262.7344,674.3722,268.7344,674.4773,274.7344,674.2695,280.7344,674.5,286.7344,674.5,286.9189,672.5,286.5243,670.5,286.6685,668.5,286.8784,666.5,286.7058,664.5,286.7344,664.5227,286.7344,664.4894,280.7344,664.5595,274.7344,664.5797,268.7344,664.6952,262.7344,664.5,256.7344" style="stroke:#181818;stroke-width:1.0;"/><polygon fill="#FFFFFF" points="817,315.2578,817,315.3279,819,315.1197,821,315.3222,823,315.391,825,315.02,827,315.2578,826.9223,315.2578,826.5735,325.0117,826.6165,334.7656,826.9318,344.5195,826.3086,354.2734,827.5536,364.0273,827,373.7813,827,373.5712,825,373.7153,823,373.9252,821,373.7527,819,373.804,817,373.7813,816.9681,373.7813,817.1785,364.0273,817.2391,354.2734,817.5857,344.5195,817.6711,334.7656,817.6793,325.0117,817,315.2578" style="stroke:#181818;stroke-width:1.0;"/><polygon fill="#FFFFFF" points="817,402.3047,817,402.3747,819,402.1666,821,402.3691,823,402.4379,825,402.0669,827,402.3047,826.9223,402.3047,826.5735,411.9766,826.6165,421.6484,826.9318,431.3203,826.3086,440.9922,827.5536,450.6641,826.3697,460.3359,826.8022,470.0078,827.4319,479.6797,827,489.3516,827,489.323,825,489.3743,823,489.3409,821,489.4111,819,489.4313,817,489.3516,817.5857,489.3516,817.6711,479.6797,817.6793,470.0078,817.2546,460.3359,817.4636,450.6641,817.7022,440.9922,816.2788,431.3203,817.6785,421.6484,816.7035,411.9766,817,402.3047" style="stroke:#181818;stroke-width:1.0;"/><polygon fill="#FFFFFF" points="817,589.4453,817,589.5154,819,589.3072,821,589.5097,823,589.5785,825,589.2075,827,589.4453,826.9223,589.4453,826.5735,599.1172,826.6165,608.7891,826.9318,618.4609,826.3086,628.1328,827.5536,637.8047,826.3697,647.4766,826.8022,657.1484,827.4319,666.8203,827,676.4922,827,676.4636,825,676.5149,823,676.4815,821,676.5517,819,676.5719,817,676.4922,817.5857,676.4922,817.6711,666.8203,817.6793,657.1484,817.2546,647.4766,817.4636,637.8047,817.7022,628.1328,816.2788,618.4609,817.6785,608.7891,816.7035,599.1172,817,589.4453" style="stroke:#181818;stroke-width:1.0;"/><polygon fill="#FFFFFF" points="1104,343.7813,1104,343.8513,1106,343.6431,1108,343.8457,1110,343.9145,1112,343.5435,1114,343.7813,1113.9741,343.7813,1113.8578,349.7813,1113.8722,355.7813,1113.9773,361.7813,1113.7695,367.7813,1114,373.7813,1114,373.9658,1112,373.5712,1110,373.7153,1108,373.9252,1106,373.7527,1104,373.7813,1104.0227,373.7813,1103.9894,367.7813,1104.0595,361.7813,1104.0797,355.7813,1104.1952,349.7813,1104,343.7813" style="stroke:#181818;stroke-width:1.0;"/><polygon fill="#FFFFFF" points="1104,430.8281,1104,430.8982,1106,430.69,1108,430.8926,1110,430.9614,1112,430.5903,1114,430.8281,1113.9223,430.8281,1113.5735,440.582,1113.6165,450.3359,1113.9318,460.0898,1113.3086,469.8438,1114.5536,479.5977,1114,489.3516,1114,489.1415,1112,489.2856,1110,489.4955,1108,489.323,1106,489.3743,1104,489.3516,1103.9681,489.3516,1104.1785,479.5977,1104.2391,469.8438,1104.5857,460.0898,1104.6711,450.3359,1104.6793,440.582,1104,430.8281" style="stroke:#181818;stroke-width:1.0;"/><polygon fill="#FFFFFF" points="1104,617.9688,1104,618.0388,1106,617.8306,1108,618.0332,1110,618.102,1112,617.731,1114,617.9688,1113.9223,617.9688,1113.5735,627.7227,1113.6165,637.4766,1113.9318,647.2305,1113.3086,656.9844,1114.5536,666.7383,1114,676.4922,1114,676.2821,1112,676.4263,1110,676.6362,1108,676.4636,1106,676.5149,1104,676.4922,1103.9681,676.4922,1104.1785,666.7383,1104.2391,656.9844,1104.5857,647.2305,1104.6711,637.4766,1104.6793,627.7227,1104,617.9688" style="stroke:#181818;stroke-width:1.0;"/><polygon fill="#FFFFFF" points="1335,459.3516,1335,459.4216,1337,459.2135,1339,459.416,1341,459.4848,1343,459.1138,1345,459.3516,1344.9741,459.3516,1344.8578,465.3516,1344.8722,471.3516,1344.9773,477.3516,1344.7695,483.3516,1345,489.3516,1345,489.5361,1343,489.1415,1341,489.2856,1339,489.4955,1337,489.323,1335,489.3516,1335.0227,489.3516,1334.9894,483.3516,1335.0595,477.3516,1335.0797,471.3516,1335.1952,465.3516,1335,459.3516" style="stroke:#181818;stroke-width:1.0;"/><polygon fill="#FFFFFF" points="1531,646.4922,1531,646.5622,1533,646.3541,1535,646.5566,1537,646.6254,1539,646.2544,1541,646.4922,1540.9741,646.4922,1540.8578,652.4922,1540.8722,658.4922,1540.9773,664.4922,1540.7695,670.4922,1541,676.4922,1541,676.6767,1539,676.2821,1537,676.4263,1535,676.6362,1533,676.4636,1531,676.4922,1531.0227,676.4922,1530.9894,670.4922,1531.0595,664.4922,1531.0797,658.4922,1531.1952,652.4922,1531,646.4922" style="stroke:#181818;stroke-width:1.0;"/><polygon fill="#181818" points="199.5,107.1641,199.526,107.2291,201.4487,107.8358,203.5239,108.8239,205.5495,109.6878,207.4117,110.1433,209.5,111.1641,209.4904,111.14,207.4472,111.8321,205.4525,112.6454,203.4916,113.543,201.4144,114.1501,199.5,115.1641,199.6305,115.2946,200.1514,114.2155,201.0534,113.5174,202.0018,112.8659,202.6798,111.9438,203.5,111.1641,203.5161,111.1801,202.6925,110.3565,201.9421,109.6061,201.1564,108.8204,200.438,108.1021,199.5,107.1641" style="stroke:#181818;stroke-width:1.0;"/><path d="M0,111.1641 L0,111.4443 L9.7857,110.6116 L19.5714,111.4218 L29.3571,111.697 L39.1429,110.2129 L48.9286,111.0604 L58.7143,110.5954 L68.5,110.6527 L78.2857,111.0732 L88.0714,110.2422 L97.8571,111.9023 L107.6429,110.3237 L117.4286,110.9004 L127.2143,111.74 L137,111.0497 L146.7857,111.255 L156.5714,111.1215 L166.3571,111.4021 L176.1429,111.4829 L185.9286,111.945 L195.7143,112.0588 L205.5,111.1641 " fill="none" style="stroke:#181818;stroke-width:1.0;"/><text fill="#000000" font-family="FG Virgil" font-size="13" lengthAdjust="spacing" textLength="116" x="7" y="106.4092">Create Board post-it</text><polygon fill="#181818" points="392.5,135.6875,392.526,135.7525,394.4487,136.3593,396.5239,137.3473,398.5495,138.2112,400.4117,138.6667,402.5,139.6875,402.4904,139.6634,400.4472,140.3555,398.4525,141.1688,396.4916,142.0664,394.4144,142.6735,392.5,143.6875,392.6305,143.818,393.1514,142.7389,394.0534,142.0409,395.0018,141.3893,395.6798,140.4673,396.5,139.6875,396.5161,139.7036,395.6925,138.88,394.9421,138.1296,394.1564,137.3439,393.438,136.6255,392.5,135.6875" style="stroke:#181818;stroke-width:1.0;"/><path d="M221.5,139.6875 L221.5,139.9677 L231.3333,139.1351 L241.1667,139.9452 L251,140.2204 L260.8333,138.7363 L270.6667,139.5839 L280.5,139.1188 L290.3333,139.1762 L300.1667,139.5966 L310,138.7657 L319.8333,140.4257 L329.6667,138.8471 L339.5,139.4238 L349.3333,140.2634 L359.1667,139.5731 L369,139.7785 L378.8333,139.6449 L388.6667,139.9255 L398.5,139.6875 " fill="none" style="stroke:#181818;stroke-width:1.0;"/><text fill="#000000" font-family="FG Virgil" font-size="13" lengthAdjust="spacing" textLength="164" x="228.5" y="134.9326">authz=authorizationService()</text><polygon fill="#181818" points="524.5,194.2109,524.526,194.276,526.4487,194.8827,528.5239,195.8708,530.5495,196.7346,532.4117,197.1901,534.5,198.2109,534.4904,198.1869,532.4472,198.8789,530.4525,199.6922,528.4916,200.5898,526.4144,201.197,524.5,202.2109,524.6305,202.3414,525.1514,201.2624,526.0534,200.5643,527.0018,199.9127,527.6798,198.9907,528.5,198.2109,528.5161,198.227,527.6925,197.4034,526.9421,196.653,526.1564,195.8673,525.438,195.149,524.5,194.2109" style="stroke:#181818;stroke-width:1.0;"/><path d="M221.5,198.2109 L221.5,198.4912 L231.4677,197.6585 L241.4355,198.4687 L251.4032,198.7438 L261.371,197.2597 L271.3387,198.1073 L281.3065,197.6423 L291.2742,197.6996 L301.2419,198.1201 L311.2097,197.2891 L321.1774,198.9491 L331.1452,197.3706 L341.1129,197.9472 L351.0806,198.7869 L361.0484,198.0966 L371.0161,198.3019 L380.9839,198.1683 L390.9516,198.449 L400.9194,198.5298 L410.8871,198.9919 L420.8548,199.1057 L430.8226,199.1166 L440.7903,198.5504 L450.7581,198.8291 L460.7258,199.1472 L470.6935,197.2494 L480.6613,199.1156 L490.629,197.8156 L500.5968,198.9227 L510.5645,197.5509 L520.5323,198.1196 L530.5,198.2109 " fill="none" style="stroke:#181818;stroke-width:1.0;"/><text fill="#000000" font-family="FG Virgil" font-size="13" lengthAdjust="spacing" textLength="68" x="228.5" y="193.4561">s=session()</text><polygon fill="#181818" points="652.5,252.7344,652.526,252.7994,654.4487,253.4061,656.5239,254.3942,658.5495,255.2581,660.4117,255.7136,662.5,256.7344,662.4904,256.7103,660.4472,257.4024,658.4525,258.2157,656.4916,259.1133,654.4144,259.7204,652.5,260.7344,652.6305,260.8649,653.1514,259.7858,654.0534,259.0878,655.0018,258.4362,655.6798,257.5142,656.5,256.7344,656.5161,256.7505,655.6925,255.9268,654.9421,255.1765,654.1564,254.3907,653.438,253.6724,652.5,252.7344" style="stroke:#181818;stroke-width:1.0;"/><path d="M221.5,256.7344 L221.5,257.0146 L231.4318,256.1819 L241.3636,256.9921 L251.2955,257.2673 L261.2273,255.7832 L271.1591,256.6308 L281.0909,256.1657 L291.0227,256.223 L300.9545,256.6435 L310.8864,255.8125 L320.8182,257.4726 L330.75,255.894 L340.6818,256.4707 L350.6136,257.3103 L360.5455,256.62 L370.4773,256.8254 L380.4091,256.6918 L390.3409,256.9724 L400.2727,257.0532 L410.2045,257.5153 L420.1364,257.6291 L430.0682,257.6401 L440,257.0739 L449.9318,257.3525 L459.8636,257.6707 L469.7955,255.7728 L479.7273,257.6391 L489.6591,256.339 L499.5909,257.4461 L509.5227,256.0743 L519.4545,256.643 L529.3864,257.7232 L539.3182,256.6694 L549.25,256.8748 L559.1818,257.1859 L569.1136,257.2894 L579.0455,256.7292 L588.9773,257.1173 L598.9091,255.9712 L608.8409,257.1136 L618.7727,257.4653 L628.7045,257.3271 L638.6364,257.5517 L648.5682,256.0903 L658.5,256.7344 " fill="none" style="stroke:#181818;stroke-width:1.0;"/><text fill="#000000" font-family="FG Virgil" font-size="13" lengthAdjust="spacing" textLength="166" x="228.5" y="251.9795">myUser=authenticatedUser()</text><polygon fill="#181818" points="805,311.2578,805.026,311.3229,806.9487,311.9296,809.0239,312.9176,811.0495,313.7815,812.9117,314.237,815,315.2578,814.9904,315.2338,812.9472,315.9258,810.9525,316.7391,808.9916,317.6367,806.9144,318.2438,805,319.2578,805.1305,319.3883,805.6514,318.3093,806.5534,317.6112,807.5018,316.9596,808.1798,316.0376,809,315.2578,809.0161,315.2739,808.1925,314.4503,807.4421,313.6999,806.6564,312.9142,805.938,312.1959,805,311.2578" style="stroke:#181818;stroke-width:1.0;"/><path d="M221.5,315.2578 L221.5,315.5381 L231.4915,314.7054 L241.4831,315.5155 L251.4746,315.7907 L261.4661,314.3066 L271.4576,315.1542 L281.4492,314.6892 L291.4407,314.7465 L301.4322,315.1669 L311.4237,314.336 L321.4153,315.996 L331.4068,314.4174 L341.3983,314.9941 L351.3898,315.8337 L361.3814,315.1434 L371.3729,315.3488 L381.3644,315.2152 L391.3559,315.4958 L401.3475,315.5767 L411.339,316.0387 L421.3305,316.1526 L431.322,316.1635 L441.3136,315.5973 L451.3051,315.8759 L461.2966,316.1941 L471.2881,314.2962 L481.2797,316.1625 L491.2712,314.8625 L501.2627,315.9696 L511.2542,314.5978 L521.2458,315.1665 L531.2373,316.2466 L541.2288,315.1928 L551.2203,315.3982 L561.2119,315.7093 L571.2034,315.8128 L581.1949,315.2526 L591.1864,315.6408 L601.178,314.4946 L611.1695,315.637 L621.161,315.9887 L631.1525,315.8505 L641.1441,316.0752 L651.1356,314.6137 L661.1271,314.3882 L671.1186,314.4293 L681.1102,315.1793 L691.1017,314.9958 L701.0932,316.1664 L711.0847,315.0249 L721.0763,314.8004 L731.0678,315.5622 L741.0593,314.3687 L751.0508,314.5656 L761.0424,316.1231 L771.0339,315.8387 L781.0254,316.2371 L791.0169,314.8288 L801.0085,315.6834 L811,315.2578 " fill="none" style="stroke:#181818;stroke-width:1.0;"/><text fill="#000000" font-family="FG Virgil" font-size="13" lengthAdjust="spacing" textLength="179" x="228.5" y="310.5029">create(sharedBoardRepository)</text><polygon fill="#181818" points="1092,339.7813,1092.026,339.8463,1093.9487,340.453,1096.0239,341.4411,1098.0495,342.3049,1099.9117,342.7605,1102,343.7813,1101.9904,343.7572,1099.9472,344.4493,1097.9525,345.2626,1095.9916,346.1602,1093.9144,346.7673,1092,347.7813,1092.1305,347.9117,1092.6514,346.8327,1093.5534,346.1346,1094.5018,345.4831,1095.1798,344.561,1096,343.7813,1096.0161,343.7973,1095.1925,342.9737,1094.4421,342.2233,1093.6564,341.4376,1092.938,340.7193,1092,339.7813" style="stroke:#181818;stroke-width:1.0;"/><path d="M827,343.7813 L827,344.0615 L837.037,343.2288 L847.0741,344.039 L857.1111,344.3142 L867.1481,342.8301 L877.1852,343.6776 L887.2222,343.2126 L897.2593,343.2699 L907.2963,343.6904 L917.3333,342.8594 L927.3704,344.5194 L937.4074,342.9409 L947.4444,343.5176 L957.4815,344.3572 L967.5185,343.6669 L977.5556,343.8722 L987.5926,343.7387 L997.6296,344.0193 L1007.6667,344.1001 L1017.7037,344.5622 L1027.7407,344.676 L1037.7778,344.6869 L1047.8148,344.1208 L1057.8519,344.3994 L1067.8889,344.7176 L1077.9259,342.8197 L1087.963,344.6859 L1098,343.7813 " fill="none" style="stroke:#181818;stroke-width:1.0;"/><text fill="#000000" font-family="FG Virgil" font-size="13" lengthAdjust="spacing" textLength="179" x="834" y="339.0264">create(sharedBoardRepository)</text><polygon fill="#181818" points="805,398.3047,805.026,398.3697,806.9487,398.9765,809.0239,399.9645,811.0495,400.8284,812.9117,401.2839,815,402.3047,814.9904,402.2806,812.9472,402.9727,810.9525,403.786,808.9916,404.6836,806.9144,405.2907,805,406.3047,805.1305,406.4352,805.6514,405.3561,806.5534,404.6581,807.5018,404.0065,808.1798,403.0845,809,402.3047,809.0161,402.3208,808.1925,401.4972,807.4421,400.7468,806.6564,399.9611,805.938,399.2427,805,398.3047" style="stroke:#181818;stroke-width:1.0;"/><path d="M221.5,402.3047 L221.5,402.5849 L231.4915,401.7523 L241.4831,402.5624 L251.4746,402.8376 L261.4661,401.3535 L271.4576,402.2011 L281.4492,401.736 L291.4407,401.7934 L301.4322,402.2138 L311.4237,401.3829 L321.4153,403.0429 L331.4068,401.4643 L341.3983,402.041 L351.3898,402.8806 L361.3814,402.1903 L371.3729,402.3957 L381.3644,402.2621 L391.3559,402.5427 L401.3475,402.6235 L411.339,403.0856 L421.3305,403.1994 L431.322,403.2104 L441.3136,402.6442 L451.3051,402.9228 L461.2966,403.241 L471.2881,401.3431 L481.2797,403.2094 L491.2712,401.9093 L501.2627,403.0164 L511.2542,401.6447 L521.2458,402.2134 L531.2373,403.2935 L541.2288,402.2397 L551.2203,402.4451 L561.2119,402.7562 L571.2034,402.8597 L581.1949,402.2995 L591.1864,402.6876 L601.178,401.5415 L611.1695,402.6839 L621.161,403.0356 L631.1525,402.8974 L641.1441,403.1221 L651.1356,401.6606 L661.1271,401.4351 L671.1186,401.4762 L681.1102,402.2262 L691.1017,402.0426 L701.0932,403.2132 L711.0847,402.0718 L721.0763,401.8473 L731.0678,402.609 L741.0593,401.4156 L751.0508,401.6125 L761.0424,403.17 L771.0339,402.8856 L781.0254,403.284 L791.0169,401.8756 L801.0085,402.7303 L811,402.3047 " fill="none" style="stroke:#181818;stroke-width:1.0;"/><text fill="#000000" font-family="FG Virgil" font-size="13" lengthAdjust="spacing" textLength="202" x="228.5" y="397.5498">findBoardsBySystemUser(myUser)</text><polygon fill="#181818" points="1092,426.8281,1092.026,426.8932,1093.9487,427.4999,1096.0239,428.4879,1098.0495,429.3518,1099.9117,429.8073,1102,430.8281,1101.9904,430.8041,1099.9472,431.4961,1097.9525,432.3094,1095.9916,433.207,1093.9144,433.8142,1092,434.8281,1092.1305,434.9586,1092.6514,433.8796,1093.5534,433.1815,1094.5018,432.5299,1095.1798,431.6079,1096,430.8281,1096.0161,430.8442,1095.1925,430.0206,1094.4421,429.2702,1093.6564,428.4845,1092.938,427.7662,1092,426.8281" style="stroke:#181818;stroke-width:1.0;"/><path d="M827,430.8281 L827,431.1084 L837.037,430.2757 L847.0741,431.0858 L857.1111,431.361 L867.1481,429.8769 L877.1852,430.7245 L887.2222,430.2595 L897.2593,430.3168 L907.2963,430.7372 L917.3333,429.9063 L927.3704,431.5663 L937.4074,429.9878 L947.4444,430.5644 L957.4815,431.4041 L967.5185,430.7138 L977.5556,430.9191 L987.5926,430.7855 L997.6296,431.0662 L1007.6667,431.147 L1017.7037,431.609 L1027.7407,431.7229 L1037.7778,431.7338 L1047.8148,431.1676 L1057.8519,431.4462 L1067.8889,431.7644 L1077.9259,429.8665 L1087.963,431.7328 L1098,430.8281 " fill="none" style="stroke:#181818;stroke-width:1.0;"/><text fill="#000000" font-family="FG Virgil" font-size="13" lengthAdjust="spacing" textLength="202" x="834" y="426.0732">findBoardsBySystemUser(myUser)</text><polygon fill="#181818" points="1323,455.3516,1323.026,455.4166,1324.9487,456.0233,1327.0239,457.0114,1329.0495,457.8753,1330.9117,458.3308,1333,459.3516,1332.9904,459.3275,1330.9472,460.0196,1328.9525,460.8329,1326.9916,461.7305,1324.9144,462.3376,1323,463.3516,1323.1305,463.4821,1323.6514,462.403,1324.5534,461.7049,1325.5018,461.0534,1326.1798,460.1313,1327,459.3516,1327.0161,459.3676,1326.1925,458.544,1325.4421,457.7936,1324.6564,457.0079,1323.938,456.2896,1323,455.3516" style="stroke:#181818;stroke-width:1.0;"/><path d="M1114,459.3516 L1114,459.6318 L1123.7727,458.7991 L1133.5455,459.6093 L1143.3182,459.8845 L1153.0909,458.4004 L1162.8636,459.2479 L1172.6364,458.7829 L1182.4091,458.8402 L1192.1818,459.2607 L1201.9545,458.4297 L1211.7273,460.0898 L1221.5,458.5112 L1231.2727,459.0879 L1241.0455,459.9275 L1250.8182,459.2372 L1260.5909,459.4425 L1270.3636,459.309 L1280.1364,459.5896 L1289.9091,459.6704 L1299.6818,460.1325 L1309.4545,460.2463 L1319.2273,460.2572 L1329,459.3516 " fill="none" style="stroke:#181818;stroke-width:1.0;"/><text fill="#000000" font-family="FG Virgil" font-size="13" lengthAdjust="spacing" textLength="202" x="1121" y="454.5967">findBoardsBySystemUser(myUser)</text><polygon fill="#181818" points="56.5,528.3984,56.526,528.4635,54.4487,529.0702,52.5239,530.0583,50.5495,530.9221,48.4117,531.3776,46.5,532.3984,46.4904,532.3744,48.4472,533.0664,50.4525,533.8797,52.4916,534.7773,54.4144,535.3845,56.5,536.3984,56.6305,536.5289,55.5514,535.4499,54.8534,534.7518,54.2018,534.1002,53.2798,533.1782,52.5,532.3984,52.5161,532.4145,53.2925,531.5909,54.1421,530.8405,54.9564,530.0548,55.838,529.3365,56.5,528.3984" style="stroke:#181818;stroke-width:1.0;"/><path d="M50.5,532.3984 L50.5,532.6787 L60.5,531.846 L70.5,532.6562 L80.5,532.9313 L90.5,531.4472 L100.5,532.2948 L110.5,531.8298 L120.5,531.8871 L130.5,532.3076 L140.5,531.4766 L150.5,533.1366 L160.5,531.5581 L170.5,532.1347 L180.5,532.9744 L190.5,532.2841 L200.5,532.4894 L210.5,532.3984 " fill="none" style="stroke:#181818;stroke-width:1.0;stroke-dasharray:2.0,2.0;"/><text fill="#000000" font-family="FG Virgil" font-size="13" lengthAdjust="spacing" textLength="93" x="62.5" y="513.1201">ask user shared</text><text fill="#000000" font-family="FG Virgil" font-size="13" lengthAdjust="spacing" textLength="88" x="62.5" y="527.6436">board selection</text><polygon fill="#181818" points="199.5,556.9219,199.526,556.9869,201.4487,557.5936,203.5239,558.5817,205.5495,559.4456,207.4117,559.9011,209.5,560.9219,209.4904,560.8978,207.4472,561.5899,205.4525,562.4032,203.4916,563.3008,201.4144,563.9079,199.5,564.9219,199.6305,565.0524,200.1514,563.9733,201.0534,563.2753,202.0018,562.6237,202.6798,561.7017,203.5,560.9219,203.5161,560.938,202.6925,560.1143,201.9421,559.364,201.1564,558.5782,200.438,557.8599,199.5,556.9219" style="stroke:#181818;stroke-width:1.0;"/><path d="M45.5,560.9219 L45.5,561.2021 L55.5,560.3694 L65.5,561.1796 L75.5,561.4548 L85.5,559.9707 L95.5,560.8183 L105.5,560.3532 L115.5,560.4105 L125.5,560.831 L135.5,560 L145.5,561.6601 L155.5,560.0815 L165.5,560.6582 L175.5,561.4978 L185.5,560.8075 L195.5,561.0129 L205.5,560.9219 " fill="none" style="stroke:#181818;stroke-width:1.0;stroke-dasharray:2.0,2.0;"/><text fill="#000000" font-family="FG Virgil" font-size="13" lengthAdjust="spacing" textLength="114" x="52.5" y="556.167">select shared board</text><polygon fill="#181818" points="805,585.4453,805.026,585.5104,806.9487,586.1171,809.0239,587.1051,811.0495,587.969,812.9117,588.4245,815,589.4453,814.9904,589.4213,812.9472,590.1133,810.9525,590.9266,808.9916,591.8242,806.9144,592.4313,805,593.4453,805.1305,593.5758,805.6514,592.4968,806.5534,591.7987,807.5018,591.1471,808.1798,590.2251,809,589.4453,809.0161,589.4614,808.1925,588.6378,807.4421,587.8874,806.6564,587.1017,805.938,586.3834,805,585.4453" style="stroke:#181818;stroke-width:1.0;"/><path d="M221.5,589.4453 L221.5,589.7256 L231.4915,588.8929 L241.4831,589.703 L251.4746,589.9782 L261.4661,588.4941 L271.4576,589.3417 L281.4492,588.8767 L291.4407,588.934 L301.4322,589.3544 L311.4237,588.5235 L321.4153,590.1835 L331.4068,588.6049 L341.3983,589.1816 L351.3898,590.0212 L361.3814,589.3309 L371.3729,589.5363 L381.3644,589.4027 L391.3559,589.6833 L401.3475,589.7642 L411.339,590.2262 L421.3305,590.3401 L431.322,590.351 L441.3136,589.7848 L451.3051,590.0634 L461.2966,590.3816 L471.2881,588.4837 L481.2797,590.35 L491.2712,589.05 L501.2627,590.1571 L511.2542,588.7853 L521.2458,589.354 L531.2373,590.4341 L541.2288,589.3803 L551.2203,589.5857 L561.2119,589.8968 L571.2034,590.0003 L581.1949,589.4401 L591.1864,589.8283 L601.178,588.6821 L611.1695,589.8245 L621.161,590.1762 L631.1525,590.038 L641.1441,590.2627 L651.1356,588.8012 L661.1271,588.5757 L671.1186,588.6168 L681.1102,589.3668 L691.1017,589.1833 L701.0932,590.3539 L711.0847,589.2124 L721.0763,588.9879 L731.0678,589.7497 L741.0593,588.5562 L751.0508,588.7531 L761.0424,590.3106 L771.0339,590.0262 L781.0254,590.4246 L791.0169,589.0163 L801.0085,589.8709 L811,589.4453 " fill="none" style="stroke:#181818;stroke-width:1.0;"/><text fill="#000000" font-family="FG Virgil" font-size="13" lengthAdjust="spacing" textLength="278" x="228.5" y="584.6904">getBoardAccessType(theSharedBoard, myUser)</text><polygon fill="#181818" points="1092,613.9688,1092.026,614.0338,1093.9487,614.6405,1096.0239,615.6286,1098.0495,616.4924,1099.9117,616.948,1102,617.9688,1101.9904,617.9447,1099.9472,618.6368,1097.9525,619.4501,1095.9916,620.3477,1093.9144,620.9548,1092,621.9688,1092.1305,622.0992,1092.6514,621.0202,1093.5534,620.3221,1094.5018,619.6706,1095.1798,618.7485,1096,617.9688,1096.0161,617.9848,1095.1925,617.1612,1094.4421,616.4108,1093.6564,615.6251,1092.938,614.9068,1092,613.9688" style="stroke:#181818;stroke-width:1.0;"/><path d="M827,617.9688 L827,618.249 L837.037,617.4163 L847.0741,618.2265 L857.1111,618.5017 L867.1481,617.0176 L877.1852,617.8651 L887.2222,617.4001 L897.2593,617.4574 L907.2963,617.8779 L917.3333,617.0469 L927.3704,618.7069 L937.4074,617.1284 L947.4444,617.7051 L957.4815,618.5447 L967.5185,617.8544 L977.5556,618.0597 L987.5926,617.9262 L997.6296,618.2068 L1007.6667,618.2876 L1017.7037,618.7497 L1027.7407,618.8635 L1037.7778,618.8744 L1047.8148,618.3083 L1057.8519,618.5869 L1067.8889,618.9051 L1077.9259,617.0072 L1087.963,618.8734 L1098,617.9688 " fill="none" style="stroke:#181818;stroke-width:1.0;"/><text fill="#000000" font-family="FG Virgil" font-size="13" lengthAdjust="spacing" textLength="258" x="834" y="613.2139">getBoardAccessType(sharedBoard, myUser)</text><polygon fill="#181818" points="1519,642.4922,1519.026,642.5572,1520.9487,643.164,1523.0239,644.152,1525.0495,645.0159,1526.9117,645.4714,1529,646.4922,1528.9904,646.4681,1526.9472,647.1602,1524.9525,647.9735,1522.9916,648.8711,1520.9144,649.4782,1519,650.4922,1519.1305,650.6227,1519.6514,649.5436,1520.5534,648.8456,1521.5018,648.194,1522.1798,647.272,1523,646.4922,1523.0161,646.5083,1522.1925,645.6847,1521.4421,644.9343,1520.6564,644.1486,1519.938,643.4302,1519,642.4922" style="stroke:#181818;stroke-width:1.0;"/><path d="M1114,646.4922 L1114,646.7724 L1124.0244,645.9398 L1134.0488,646.7499 L1144.0732,647.0251 L1154.0976,645.541 L1164.122,646.3886 L1174.1463,645.9235 L1184.1707,645.9809 L1194.1951,646.4013 L1204.2195,645.5704 L1214.2439,647.2304 L1224.2683,645.6518 L1234.2927,646.2285 L1244.3171,647.0681 L1254.3415,646.3778 L1264.3659,646.5832 L1274.3902,646.4496 L1284.4146,646.7302 L1294.439,646.811 L1304.4634,647.2731 L1314.4878,647.3869 L1324.5122,647.3979 L1334.5366,646.8317 L1344.561,647.1103 L1354.5854,647.4285 L1364.6098,645.5306 L1374.6341,647.3969 L1384.6585,646.0968 L1394.6829,647.2039 L1404.7073,645.8322 L1414.7317,646.4009 L1424.7561,647.481 L1434.7805,646.4272 L1444.8049,646.6326 L1454.8293,646.9437 L1464.8537,647.0472 L1474.878,646.487 L1484.9024,646.8751 L1494.9268,645.729 L1504.9512,646.8714 L1514.9756,647.2231 L1525,646.4922 " fill="none" style="stroke:#181818;stroke-width:1.0;"/><text fill="#000000" font-family="FG Virgil" font-size="13" lengthAdjust="spacing" textLength="168" x="1121" y="641.7373">getAccessType(systemUser)</text><polygon fill="#181818" points="56.5,715.5391,56.526,715.6041,54.4487,716.2108,52.5239,717.1989,50.5495,718.0628,48.4117,718.5183,46.5,719.5391,46.4904,719.515,48.4472,720.2071,50.4525,721.0204,52.4916,721.918,54.4144,722.5251,56.5,723.5391,56.6305,723.6696,55.5514,722.5905,54.8534,721.8924,54.2018,721.2409,53.2798,720.3188,52.5,719.5391,52.5161,719.5551,53.2925,718.7315,54.1421,717.9811,54.9564,717.1954,55.838,716.4771,56.5,715.5391" style="stroke:#181818;stroke-width:1.0;"/><path d="M50.5,719.5391 L50.5,719.8193 L60.2059,718.9866 L69.9118,719.7968 L79.6176,720.072 L89.3235,718.5879 L99.0294,719.4354 L108.7353,718.9704 L118.4412,719.0277 L128.1471,719.4482 L137.8529,718.6172 L147.5588,720.2773 L157.2647,718.6987 L166.9706,719.2754 L176.6765,720.115 L186.3824,719.4247 L196.0882,719.63 L205.7941,719.4965 L215.5,719.5391 " fill="none" style="stroke:#181818;stroke-width:1.0;stroke-dasharray:2.0,2.0;"/><text fill="#000000" font-family="FG Virgil" font-size="13" lengthAdjust="spacing" textLength="138" x="62.5" y="700.2607">informs the user doesn't</text><text fill="#000000" font-family="FG Virgil" font-size="13" lengthAdjust="spacing" textLength="131" x="66.5" y="714.7842">have write permissions</text><!--MD5=[45d2d19ada6a8a13933f552a32e32375]
@startuml
'http://plantuml.com/skinparam.html
skinparam handwritten true
skinparam monochrome true
skinparam packageStyle rect
skinparam defaultFontName FG Virgil
skinparam shadowing false

actor SystemUser as Actor
participant CreateBoardPostItUI as UI
participant AuthzRegistry as AuthzRes
participant AuthorizationService as AuthzSvc
participant UserSession as UserS
participant CreateBoardPostItController as Controller
participant CreateBoardPostItService as Service
participant SharedBoardRepository as Repo
participant "theSharedBoard:SharedBoard" as SharedBoard
participant PostIt as PostIt
participant CreateBoardPostItThread as Thread
participant Board as Board

-> UI: Create Board post-it
activate UI
    UI -> AuthzRes : authz=authorizationService()
    activate AuthzRes
    deactivate AuthzRes
    UI -> AuthzSvc : s=session()
    activate AuthzSvc
    deactivate AuthzSvc
    UI -> UserS : myUser=authenticatedUser()
    activate UserS
    deactivate UserS

    UI -> Controller: create(sharedBoardRepository)
    activate Controller
        Controller -> Service : create(sharedBoardRepository)
        activate Service
        deactivate Service
    deactivate Controller
    UI -> Controller : findBoardsBySystemUser(myUser)
    activate Controller
        Controller -> Service : findBoardsBySystemUser(myUser)
        activate Service
            Service -> Repo : findBoardsBySystemUser(myUser)
            activate Repo
            deactivate Repo
        deactivate Service
    deactivate Controller
    UI - -> Actor : ask user shared \nboard selection
    Actor - -> UI : select shared board

    UI -> Controller : getBoardAccessType(theSharedBoard, myUser)
    activate Controller
        Controller -> Service : getBoardAccessType(sharedBoard, myUser)
        activate Service
            Service -> SharedBoard : getAccessType(systemUser)
            activate SharedBoard
            deactivate SharedBoard
        deactivate Service
    deactivate Controller

    UI - -> Actor : informs the user doesn't \n have write permissions

deactivate UI
@enduml

@startuml
skinparam handwritten true
skinparam monochrome true
skinparam packageStyle rect
skinparam defaultFontName FG Virgil
skinparam shadowing false

actor SystemUser as Actor
participant CreateBoardPostItUI as UI
participant AuthzRegistry as AuthzRes
participant AuthorizationService as AuthzSvc
participant UserSession as UserS
participant CreateBoardPostItController as Controller
participant CreateBoardPostItService as Service
participant SharedBoardRepository as Repo
participant "theSharedBoard:SharedBoard" as SharedBoard
participant PostIt as PostIt
participant CreateBoardPostItThread as Thread
participant Board as Board

-> UI: Create Board post-it
activate UI
    UI -> AuthzRes : authz=authorizationService()
    activate AuthzRes
    deactivate AuthzRes
    UI -> AuthzSvc : s=session()
    activate AuthzSvc
    deactivate AuthzSvc
    UI -> UserS : myUser=authenticatedUser()
    activate UserS
    deactivate UserS

    UI -> Controller: create(sharedBoardRepository)
    activate Controller
        Controller -> Service : create(sharedBoardRepository)
        activate Service
        deactivate Service
    deactivate Controller
    UI -> Controller : findBoardsBySystemUser(myUser)
    activate Controller
        Controller -> Service : findBoardsBySystemUser(myUser)
        activate Service
            Service -> Repo : findBoardsBySystemUser(myUser)
            activate Repo
            deactivate Repo
        deactivate Service
    deactivate Controller
    UI - -> Actor : ask user shared \nboard selection
    Actor - -> UI : select shared board

    UI -> Controller : getBoardAccessType(theSharedBoard, myUser)
    activate Controller
        Controller -> Service : getBoardAccessType(sharedBoard, myUser)
        activate Service
            Service -> SharedBoard : getAccessType(systemUser)
            activate SharedBoard
            deactivate SharedBoard
        deactivate Service
    deactivate Controller

    UI - -> Actor : informs the user doesn't \n have write permissions

deactivate UI
@enduml

PlantUML version 1.2022.7(Mon Aug 22 18:01:30 WEST 2022)
(GPL source distribution)
Java Runtime: OpenJDK Runtime Environment
JVM: OpenJDK 64-Bit Server VM
Default Encoding: Cp1252
Language: pt
Country: PT
--></g></svg>