<?xml version="1.0" encoding="UTF-8" standalone="no"?><svg xmlns="http://www.w3.org/2000/svg" xmlns:xlink="http://www.w3.org/1999/xlink" contentStyleType="text/css" height="724px" preserveAspectRatio="none" style="width:1135px;height:724px;background:#FFFFFF;" version="1.1" viewBox="0 0 1135 724" width="1135px" zoomAndPan="magnify"><defs/><g><polygon fill="#FFFFFF" points="143.5,111.1641,143.5,111.2341,145.5,111.026,147.5,111.2285,149.5,111.2973,151.5,110.9263,153.5,111.1641,153.4223,111.1641,153.0735,121.2601,153.1165,131.3562,153.4318,141.4522,152.8086,151.5483,154.0536,161.6443,152.8697,171.7403,153.3022,181.8364,153.9319,191.9324,153.4142,202.0285,153.5682,212.1245,153.4681,222.2206,153.6785,232.3166,153.7391,242.4127,154.0857,252.5087,154.1711,262.6048,154.1793,272.7008,153.7546,282.7969,153.9636,292.8929,154.2022,302.989,152.7788,313.085,154.1785,323.1811,153.2035,333.2771,154.0338,343.3732,153.005,353.4692,153.4315,363.5653,154.2416,373.6613,153.4513,383.7574,153.6053,393.8534,153.8386,403.9494,153.9162,414.0455,153.4961,424.1415,153.7872,434.2376,152.9276,444.3336,153.7844,454.4297,154.0482,464.5257,153.9445,474.6218,154.113,484.7178,153.0169,494.8139,152.8478,504.9099,152.8786,515.006,153.4411,525.102,153.3035,535.1981,154.1814,545.2941,153.3253,555.3902,153.1569,565.4862,153.7283,575.5823,152.8332,585.6783,152.9809,595.7744,154.149,605.8704,153.9357,615.9665,153.5,626.0625,153.5,626.3073,151.5,625.9552,149.5,626.1689,147.5,626.2593,145.5,625.905,143.5,626.0625,143.4041,626.0625,143.626,615.9665,144.1518,605.8704,143.4958,595.7744,143.9626,585.6783,142.9462,575.5823,142.8227,565.4862,144.0036,555.3902,142.7831,545.2941,144.009,535.1981,143.7066,525.102,143.2321,515.006,143.1462,504.9099,143.9588,494.8139,143.2007,484.7178,144.0919,474.6218,142.9473,464.5257,144.1174,454.4297,143.9843,444.3336,143.745,434.2376,143.5472,424.1415,144.2266,414.0455,144.1136,403.9494,143.6693,393.8534,143.7682,383.7574,143.3697,373.6613,144.2165,363.5653,143.6549,353.4692,143.6726,343.3732,142.8916,333.2771,143.0948,323.1811,144.0307,313.085,143.9298,302.989,143.4571,292.8929,143.1778,282.7969,143.2811,272.7008,142.8138,262.6048,143.9147,252.5087,144.2396,242.4127,144.0264,232.3166,144.1949,222.2206,143.3633,212.1245,143.5872,202.0285,143.1124,191.9324,143.784,181.8364,143.7468,171.7403,144.0524,161.6443,143.2703,151.5483,143.3656,141.4522,143.9435,131.3562,144.0673,121.2601,143.5,111.1641" style="stroke:#181818;stroke-width:1.0;"/><polygon fill="#FFFFFF" points="459.5,139.6875,459.5,139.7576,461.5,139.5494,463.5,139.7519,465.5,139.8207,467.5,139.4497,469.5,139.6875,469.4223,139.6875,469.0735,149.4414,469.1165,159.1953,469.4318,168.9492,468.8086,178.7031,470.0536,188.457,469.5,198.2109,469.5,198.0008,467.5,198.145,465.5,198.3549,463.5,198.1823,461.5,198.2337,459.5,198.2109,459.4681,198.2109,459.6785,188.457,459.7391,178.7031,460.0857,168.9492,460.1711,159.1953,460.1793,149.4414,459.5,139.6875" style="stroke:#181818;stroke-width:1.0;"/><polygon fill="#FFFFFF" points="459.5,226.7344,459.5,226.8044,461.5,226.5963,463.5,226.7988,465.5,226.8676,467.5,226.4966,469.5,226.7344,469.4223,226.7344,469.0735,236.9213,469.1165,247.1083,469.4318,257.2952,468.8086,267.4821,470.0536,277.6691,468.8697,287.856,469.3022,298.043,469.9319,308.2299,469.4142,318.4169,469.5682,328.6038,469.4681,338.7907,469.6785,348.9777,469.7391,359.1646,469.5,369.3516,469.5,369.5468,467.5,369.5752,465.5,369.578,463.5,369.4364,461.5,369.5061,459.5,369.3516,460.2022,369.3516,458.7788,359.1646,460.1785,348.9777,459.2035,338.7907,460.0338,328.6038,459.005,318.4169,459.4315,308.2299,460.2416,298.043,459.4513,287.856,459.6053,277.6691,459.8386,267.4821,459.9162,257.2952,459.4961,247.1083,459.7872,236.9213,459.5,226.7344" style="stroke:#181818;stroke-width:1.0;"/><polygon fill="#FFFFFF" points="459.5,454.9219,459.5,454.9919,461.5,454.7838,463.5,454.9863,465.5,455.0551,467.5,454.6841,469.5,454.9219,469.4223,454.9219,469.0735,465.1088,469.1165,475.2958,469.4318,485.4827,468.8086,495.6696,470.0536,505.8566,468.8697,516.0435,469.3022,526.2305,469.9319,536.4174,469.4142,546.6044,469.5682,556.7913,469.4681,566.9782,469.6785,577.1652,469.7391,587.3521,469.5,597.5391,469.5,597.7343,467.5,597.7627,465.5,597.7655,463.5,597.6239,461.5,597.6936,459.5,597.5391,460.2022,597.5391,458.7788,587.3521,460.1785,577.1652,459.2035,566.9782,460.0338,556.7913,459.005,546.6044,459.4315,536.4174,460.2416,526.2305,459.4513,516.0435,459.6053,505.8566,459.8386,495.6696,459.9162,485.4827,459.4961,475.2958,459.7872,465.1088,459.5,454.9219" style="stroke:#181818;stroke-width:1.0;"/><polygon fill="#FFFFFF" points="775.5,168.2109,775.5,168.281,777.5,168.0728,779.5,168.2754,781.5,168.3442,783.5,167.9731,785.5,168.2109,785.4741,168.2109,785.3578,174.2109,785.3722,180.2109,785.4773,186.2109,785.2695,192.2109,785.5,198.2109,785.5,198.3955,783.5,198.0008,781.5,198.145,779.5,198.3549,777.5,198.1823,775.5,198.2109,775.5227,198.2109,775.4894,192.2109,775.5595,186.2109,775.5797,180.2109,775.6952,174.2109,775.5,168.2109" style="stroke:#181818;stroke-width:1.0;"/><polygon fill="#FFFFFF" points="775.5,255.2578,775.5,255.3279,777.5,255.1197,779.5,255.3222,781.5,255.391,783.5,255.02,785.5,255.2578,785.4223,255.2578,785.0735,264.7656,785.1165,274.2734,785.4318,283.7813,784.8086,293.2891,786.0536,302.7969,784.8697,312.3047,785.3022,321.8125,785.9319,331.3203,785.5,340.8281,785.5,340.7995,783.5,340.8509,781.5,340.8175,779.5,340.8876,777.5,340.9078,775.5,340.8281,776.0857,340.8281,776.1711,331.3203,776.1793,321.8125,775.7546,312.3047,775.9636,302.7969,776.2022,293.2891,774.7788,283.7813,776.1785,274.2734,775.2035,264.7656,775.5,255.2578" style="stroke:#181818;stroke-width:1.0;"/><polygon fill="#FFFFFF" points="775.5,483.4453,775.5,483.5154,777.5,483.3072,779.5,483.5097,781.5,483.5785,783.5,483.2075,785.5,483.4453,785.4223,483.4453,785.0735,492.9531,785.1165,502.4609,785.4318,511.9688,784.8086,521.4766,786.0536,530.9844,784.8697,540.4922,785.3022,550,785.9319,559.5078,785.5,569.0156,785.5,568.987,783.5,569.0384,781.5,569.005,779.5,569.0751,777.5,569.0953,775.5,569.0156,776.0857,569.0156,776.1711,559.5078,776.1793,550,775.7546,540.4922,775.9636,530.9844,776.2022,521.4766,774.7788,511.9688,776.1785,502.4609,775.2035,492.9531,775.5,483.4453" style="stroke:#181818;stroke-width:1.0;"/><polygon fill="#FFFFFF" points="934.5,283.7813,934.5,283.8513,936.5,283.6431,938.5,283.8457,940.5,283.9145,942.5,283.5435,944.5,283.7813,944.4741,283.7813,944.3578,289.4859,944.3722,295.1906,944.4773,300.8953,944.2695,306.6,944.5,312.3047,944.5,312.4892,942.5,312.0946,940.5,312.2388,938.5,312.4487,936.5,312.2761,934.5,312.3047,934.5227,312.3047,934.4894,306.6,934.5595,300.8953,934.5797,295.1906,934.6952,289.4859,934.5,283.7813" style="stroke:#181818;stroke-width:1.0;"/><polygon fill="#FFFFFF" points="1066.5,511.9688,1066.5,512.0388,1068.5,511.8306,1070.5,512.0332,1072.5,512.102,1074.5,511.731,1076.5,511.9688,1076.4741,511.9688,1076.3578,517.6734,1076.3722,523.3781,1076.4773,529.0828,1076.2695,534.7875,1076.5,540.4922,1076.5,540.6767,1074.5,540.2821,1072.5,540.4263,1070.5,540.6362,1068.5,540.4636,1066.5,540.4922,1066.5227,540.4922,1066.4894,534.7875,1066.5595,529.0828,1066.5797,523.3781,1066.6952,517.6734,1066.5,511.9688" style="stroke:#181818;stroke-width:1.0;"/><path d="M34,80.6406 L34.2802,80.6406 L33.4476,90.7017 L34.2577,100.7628 L34.5329,110.8239 L33.0488,120.885 L33.8964,130.9461 L33.4313,141.0073 L33.4887,151.0684 L33.9091,161.1295 L33.0782,171.1906 L34.7382,181.2517 L33.1596,191.3128 L33.7363,201.3739 L34.5759,211.435 L33.8856,221.4961 L34.091,231.5572 L33.9574,241.6183 L34.238,251.6794 L34.3188,261.7405 L34.7809,271.8016 L34.8947,281.8627 L34.9057,291.9238 L34.3395,301.9849 L34.6181,312.046 L34.9363,322.1071 L33.0384,332.1682 L34.9047,342.2294 L33.6047,352.2905 L34.7117,362.3516 L33.34,372.4127 L33.9087,382.4738 L34.9888,392.5349 L33.935,402.596 L34.1404,412.6571 L34.4515,422.7182 L34.555,432.7793 L33.9948,442.8404 L34.383,452.9015 L33.2368,462.9626 L34.3792,473.0237 L34.7309,483.0848 L34.5927,493.1459 L34.8174,503.207 L33.3559,513.2681 L33.1304,523.3292 L33.1715,533.3903 L33.9215,543.4515 L33.738,553.5126 L34.9085,563.5737 L33.7671,573.6348 L33.5426,583.6959 L34.3044,593.757 L33.1109,603.8181 L33.3078,613.8792 L34.8653,623.9403 L34.5809,634.0014 L34,644.0625 " fill="none" style="stroke:#181818;stroke-width:0.5;stroke-dasharray:5.0,5.0;"/><path d="M148,80.6406 L148.2802,80.6406 L147.4476,90.7017 L148.2577,100.7628 L148.5329,110.8239 L147.0488,120.885 L147.8964,130.9461 L147.4313,141.0073 L147.4887,151.0684 L147.9091,161.1295 L147.0782,171.1906 L148.7382,181.2517 L147.1596,191.3128 L147.7363,201.3739 L148.5759,211.435 L147.8856,221.4961 L148.091,231.5572 L147.9574,241.6183 L148.238,251.6794 L148.3188,261.7405 L148.7809,271.8016 L148.8947,281.8627 L148.9057,291.9238 L148.3395,301.9849 L148.6181,312.046 L148.9363,322.1071 L147.0384,332.1682 L148.9047,342.2294 L147.6047,352.2905 L148.7117,362.3516 L147.34,372.4127 L147.9087,382.4738 L148.9888,392.5349 L147.935,402.596 L148.1404,412.6571 L148.4515,422.7182 L148.555,432.7793 L147.9948,442.8404 L148.383,452.9015 L147.2368,462.9626 L148.3792,473.0237 L148.7309,483.0848 L148.5927,493.1459 L148.8174,503.207 L147.3559,513.2681 L147.1304,523.3292 L147.1715,533.3903 L147.9215,543.4515 L147.738,553.5126 L148.9085,563.5737 L147.7671,573.6348 L147.5426,583.6959 L148.3044,593.757 L147.1109,603.8181 L147.3078,613.8792 L148.8653,623.9403 L148.5809,634.0014 L148,644.0625 " fill="none" style="stroke:#181818;stroke-width:0.5;stroke-dasharray:5.0,5.0;"/><path d="M464,80.6406 L464.2802,80.6406 L463.4476,90.7017 L464.2577,100.7628 L464.5329,110.8239 L463.0488,120.885 L463.8964,130.9461 L463.4313,141.0073 L463.4887,151.0684 L463.9091,161.1295 L463.0782,171.1906 L464.7382,181.2517 L463.1596,191.3128 L463.7363,201.3739 L464.5759,211.435 L463.8856,221.4961 L464.091,231.5572 L463.9574,241.6183 L464.238,251.6794 L464.3188,261.7405 L464.7809,271.8016 L464.8947,281.8627 L464.9057,291.9238 L464.3395,301.9849 L464.6181,312.046 L464.9363,322.1071 L463.0384,332.1682 L464.9047,342.2294 L463.6047,352.2905 L464.7117,362.3516 L463.34,372.4127 L463.9087,382.4738 L464.9888,392.5349 L463.935,402.596 L464.1404,412.6571 L464.4515,422.7182 L464.555,432.7793 L463.9948,442.8404 L464.383,452.9015 L463.2368,462.9626 L464.3792,473.0237 L464.7309,483.0848 L464.5927,493.1459 L464.8174,503.207 L463.3559,513.2681 L463.1304,523.3292 L463.1715,533.3903 L463.9215,543.4515 L463.738,553.5126 L464.9085,563.5737 L463.7671,573.6348 L463.5426,583.6959 L464.3044,593.757 L463.1109,603.8181 L463.3078,613.8792 L464.8653,623.9403 L464.5809,634.0014 L464,644.0625 " fill="none" style="stroke:#181818;stroke-width:0.5;stroke-dasharray:5.0,5.0;"/><path d="M780.5,80.6406 L780.7802,80.6406 L779.9476,90.7017 L780.7577,100.7628 L781.0329,110.8239 L779.5488,120.885 L780.3964,130.9461 L779.9313,141.0073 L779.9887,151.0684 L780.4091,161.1295 L779.5782,171.1906 L781.2382,181.2517 L779.6596,191.3128 L780.2363,201.3739 L781.0759,211.435 L780.3856,221.4961 L780.591,231.5572 L780.4574,241.6183 L780.738,251.6794 L780.8188,261.7405 L781.2809,271.8016 L781.3947,281.8627 L781.4057,291.9238 L780.8395,301.9849 L781.1181,312.046 L781.4363,322.1071 L779.5384,332.1682 L781.4047,342.2294 L780.1047,352.2905 L781.2117,362.3516 L779.84,372.4127 L780.4087,382.4738 L781.4888,392.5349 L780.435,402.596 L780.6404,412.6571 L780.9515,422.7182 L781.055,432.7793 L780.4948,442.8404 L780.883,452.9015 L779.7368,462.9626 L780.8792,473.0237 L781.2309,483.0848 L781.0927,493.1459 L781.3174,503.207 L779.8559,513.2681 L779.6304,523.3292 L779.6715,533.3903 L780.4215,543.4515 L780.238,553.5126 L781.4085,563.5737 L780.2671,573.6348 L780.0426,583.6959 L780.8044,593.757 L779.6109,603.8181 L779.8078,613.8792 L781.3653,623.9403 L781.0809,634.0014 L780.5,644.0625 " fill="none" style="stroke:#181818;stroke-width:0.5;stroke-dasharray:5.0,5.0;"/><path d="M939.5,80.6406 L939.7802,80.6406 L938.9476,90.7017 L939.7577,100.7628 L940.0329,110.8239 L938.5488,120.885 L939.3964,130.9461 L938.9313,141.0073 L938.9887,151.0684 L939.4091,161.1295 L938.5782,171.1906 L940.2382,181.2517 L938.6596,191.3128 L939.2363,201.3739 L940.0759,211.435 L939.3856,221.4961 L939.591,231.5572 L939.4574,241.6183 L939.738,251.6794 L939.8188,261.7405 L940.2809,271.8016 L940.3947,281.8627 L940.4057,291.9238 L939.8395,301.9849 L940.1181,312.046 L940.4363,322.1071 L938.5384,332.1682 L940.4047,342.2294 L939.1047,352.2905 L940.2117,362.3516 L938.84,372.4127 L939.4087,382.4738 L940.4888,392.5349 L939.435,402.596 L939.6404,412.6571 L939.9515,422.7182 L940.055,432.7793 L939.4948,442.8404 L939.883,452.9015 L938.7368,462.9626 L939.8792,473.0237 L940.2309,483.0848 L940.0927,493.1459 L940.3174,503.207 L938.8559,513.2681 L938.6304,523.3292 L938.6715,533.3903 L939.4215,543.4515 L939.238,553.5126 L940.4085,563.5737 L939.2671,573.6348 L939.0426,583.6959 L939.8044,593.757 L938.6109,603.8181 L938.8078,613.8792 L940.3653,623.9403 L940.0809,634.0014 L939.5,644.0625 " fill="none" style="stroke:#181818;stroke-width:0.5;stroke-dasharray:5.0,5.0;"/><path d="M1071.5,80.6406 L1071.7802,80.6406 L1070.9476,90.7017 L1071.7577,100.7628 L1072.0329,110.8239 L1070.5488,120.885 L1071.3964,130.9461 L1070.9313,141.0073 L1070.9887,151.0684 L1071.4091,161.1295 L1070.5782,171.1906 L1072.2382,181.2517 L1070.6596,191.3128 L1071.2363,201.3739 L1072.0759,211.435 L1071.3856,221.4961 L1071.591,231.5572 L1071.4574,241.6183 L1071.738,251.6794 L1071.8188,261.7405 L1072.2809,271.8016 L1072.3947,281.8627 L1072.4057,291.9238 L1071.8395,301.9849 L1072.1181,312.046 L1072.4363,322.1071 L1070.5384,332.1682 L1072.4047,342.2294 L1071.1047,352.2905 L1072.2117,362.3516 L1070.84,372.4127 L1071.4087,382.4738 L1072.4888,392.5349 L1071.435,402.596 L1071.6404,412.6571 L1071.9515,422.7182 L1072.055,432.7793 L1071.4948,442.8404 L1071.883,452.9015 L1070.7368,462.9626 L1071.8792,473.0237 L1072.2309,483.0848 L1072.0927,493.1459 L1072.3174,503.207 L1070.8559,513.2681 L1070.6304,523.3292 L1070.6715,533.3903 L1071.4215,543.4515 L1071.238,553.5126 L1072.4085,563.5737 L1071.2671,573.6348 L1071.0426,583.6959 L1071.8044,593.757 L1070.6109,603.8181 L1070.8078,613.8792 L1072.3653,623.9403 L1072.0809,634.0014 L1071.5,644.0625 " fill="none" style="stroke:#181818;stroke-width:0.5;stroke-dasharray:5.0,5.0;"/><text fill="#000000" font-family="FG Virgil" font-size="14" lengthAdjust="spacing" textLength="53" x="5" y="77.6738">Teacher</text><polygon fill="#E3E3E3" points="42.5442,15.4459,41.3715,17.0482,39.9845,19.3951,38.0008,20.9767,35.9163,21.8415,34.2542,21.9166,32.118,20.8349,30.1023,20.1283,28.5724,18.6936,27.7699,17.0511,27.2939,15.7433,26.8277,14.0351,26.0709,12.5651,26.6525,11.1298,27.162,9.5576,29.074,8.3142,30.4192,6.7008,32.0843,6.165,34.0637,5.7037,36.6021,5.9778,37.9924,6.6335,39.6089,6.9307,41.5743,8.9443,42.2595,11.0701,42.5571,12.5206,42.22,14.9108" style="stroke:#181818;stroke-width:0.5;"/><path d="M34.5,21.5 L34.6868,21.5 L34.1317,26.9 L34.6718,32.3 L34.8553,37.7 L33.8659,43.1 L34.5,48.5 M21.5,29.5 L21.5,29.4309 L26.7,29.1209 L31.9,29.1591 L37.1,29.4394 L42.3,28.8854 L47.5,29.5 M34.5,48.5 L34.8719,48.8223 L31.4766,51.1331 L29.1672,54.3849 L26.9901,57.7515 L24.0424,60.4501 L21.5,63.5 M34.5,48.5 L34.5458,48.5397 L37.0785,51.4814 L39.8199,54.6039 L42.4606,57.6392 L45.2934,60.841 L47.5,63.5 " fill="none" style="stroke:#181818;stroke-width:0.5;"/><text fill="#000000" font-family="FG Virgil" font-size="14" lengthAdjust="spacing" textLength="53" x="5" y="655.7363">Teacher</text><polygon fill="#E3E3E3" points="42.5442,669.149,41.3715,670.7513,39.9845,673.0982,38.0008,674.6798,35.9163,675.5447,34.2542,675.6197,32.118,674.5381,30.1023,673.8314,28.5724,672.3967,27.7699,670.7542,27.2939,669.4464,26.8277,667.7382,26.0709,666.2682,26.6525,664.8329,27.162,663.2607,29.074,662.0173,30.4192,660.4039,32.0843,659.8682,34.0637,659.4068,36.6021,659.6809,37.9924,660.3366,39.6089,660.6338,41.5743,662.6475,42.2595,664.7733,42.5571,666.2237,42.22,668.6139" style="stroke:#181818;stroke-width:0.5;"/><path d="M34.5,675.2031 L34.6868,675.2031 L34.1317,680.6031 L34.6718,686.0031 L34.8553,691.4031 L33.8659,696.8031 L34.5,702.2031 M21.5,683.2031 L21.5,683.134 L26.7,682.824 L31.9,682.8622 L37.1,683.1425 L42.3,682.5886 L47.5,683.2031 M34.5,702.2031 L34.8719,702.5254 L31.4766,704.8362 L29.1672,708.088 L26.9901,711.4546 L24.0424,714.1532 L21.5,717.2031 M34.5,702.2031 L34.5458,702.2429 L37.0785,705.1845 L39.8199,708.3071 L42.4606,711.3423 L45.2934,714.5441 L47.5,717.2031 " fill="none" style="stroke:#181818;stroke-width:0.5;"/><polygon fill="#E3E3E3" points="83.5,50,83.5,50.2102,93.5,49.5857,103.5,50.1933,113.5,50.3997,123.5,49.2866,133.5,49.9223,143.5,49.5735,153.5,49.6165,163.5,49.9318,173.5,49.3086,183.5,50.5536,193.5,49.3697,203.5,49.8022,213.5,50,213.5551,50.133,213.8426,50.12,214.2158,50.3139,214.5566,50.4295,214.937,50.6408,215.2678,50.7322,215.3414,50.7627,215.5946,51.1605,215.7673,51.5249,215.9163,51.8795,215.932,52.1789,216,52.5,216.1545,52.5,216.2341,57.4281,215.7596,62.3563,216.2262,67.2844,215.9012,72.2125,216,77.1406,216.1644,77.2087,215.7011,77.431,215.686,77.839,215.789,78.2959,215.3992,78.5486,215.2678,78.9084,215.2812,78.9408,214.9574,79.1591,214.6138,79.3295,214.2066,79.3465,213.8902,79.5826,213.5,79.6406,213.5,79.0682,203.5,79.925,193.5,80.1888,183.5,80.0852,173.5,80.2536,163.5,79.1575,153.5,78.9884,143.5,79.0192,133.5,79.5817,123.5,79.4441,113.5,80.322,103.5,79.4659,93.5,79.2976,83.5,79.6406,83.5291,79.7109,83.0614,79.2888,82.7267,79.1879,82.5221,79.4011,82.1414,79.189,81.7322,78.9084,81.9584,79.0021,81.4867,78.5138,81.5376,78.242,81.4747,77.923,81.001,77.4339,81,77.1406,80.968,77.1406,81.042,72.2125,81.2173,67.2844,80.9986,62.3563,81.1542,57.4281,81,52.5,80.8295,52.4294,80.9379,52.0601,81.448,51.8571,81.2186,51.3479,81.7425,51.1507,81.7322,50.7322,81.7586,50.7959,82.0516,50.5033,82.3942,50.3304,82.8514,50.4342,83.1083,50.0543,83.5,50" style="stroke:#181818;stroke-width:0.5;"/><text fill="#000000" font-family="FG Virgil" font-size="14" lengthAdjust="spacing" textLength="121" x="88" y="69.6738">ListCourseExamsUI</text><polygon fill="#E3E3E3" points="83.5,643.0625,83.5,643.2727,93.5,642.6482,103.5,643.2558,113.5,643.4622,123.5,642.3491,133.5,642.9848,143.5,642.636,153.5,642.679,163.5,642.9943,173.5,642.3711,183.5,643.6161,193.5,642.4322,203.5,642.8647,213.5,643.0625,213.5551,643.1955,213.8426,643.1825,214.2158,643.3764,214.5566,643.492,214.937,643.7033,215.2678,643.7947,215.3414,643.8252,215.5946,644.223,215.7673,644.5874,215.9163,644.942,215.932,645.2414,216,645.5625,216.1545,645.5625,216.2341,650.4906,215.7596,655.4188,216.2262,660.3469,215.9012,665.275,216,670.2031,216.1644,670.2712,215.7011,670.4935,215.686,670.9015,215.789,671.3584,215.3992,671.6111,215.2678,671.9709,215.2812,672.0033,214.9574,672.2216,214.6138,672.392,214.2066,672.409,213.8902,672.6451,213.5,672.7031,213.5,672.1307,203.5,672.9875,193.5,673.2513,183.5,673.1477,173.5,673.3161,163.5,672.22,153.5,672.0509,143.5,672.0817,133.5,672.6442,123.5,672.5066,113.5,673.3845,103.5,672.5284,93.5,672.3601,83.5,672.7031,83.5291,672.7734,83.0614,672.3513,82.7267,672.2504,82.5221,672.4636,82.1414,672.2515,81.7322,671.9709,81.9584,672.0646,81.4867,671.5763,81.5376,671.3045,81.4747,670.9855,81.001,670.4964,81,670.2031,80.968,670.2031,81.042,665.275,81.2173,660.3469,80.9986,655.4188,81.1542,650.4906,81,645.5625,80.8295,645.4919,80.9379,645.1226,81.448,644.9196,81.2186,644.4104,81.7425,644.2132,81.7322,643.7947,81.7586,643.8584,82.0516,643.5658,82.3942,643.3929,82.8514,643.4967,83.1083,643.1168,83.5,643.0625" style="stroke:#181818;stroke-width:0.5;"/><text fill="#000000" font-family="FG Virgil" font-size="14" lengthAdjust="spacing" textLength="121" x="88" y="662.7363">ListCourseExamsUI</text><polygon fill="#E3E3E3" points="374.5,50,374.5,50.2102,384.5,49.5857,394.5,50.1933,404.5,50.3997,414.5,49.2866,424.5,49.9223,434.5,49.5735,444.5,49.6165,454.5,49.9318,464.5,49.3086,474.5,50.5536,484.5,49.3697,494.5,49.8022,504.5,50.4319,514.5,49.9142,524.5,50.0682,534.5,49.9681,544.5,50.1785,554.5,50,554.5305,50.0736,554.9283,50.3268,555.2927,50.4996,555.6473,50.6485,555.9467,50.6642,556.2678,50.7322,556.4105,50.7914,556.6305,51.1754,556.3386,51.3473,556.9161,51.8794,556.7622,52.1086,557,52.5,557.1779,52.5,556.835,57.4281,556.9772,62.3563,557.2472,67.2844,556.9838,72.2125,557,77.1406,557.0324,77.1541,556.9578,77.5374,556.8353,77.9008,556.5595,78.2008,556.5027,78.5915,556.2678,78.9084,556.1947,78.7321,555.9505,79.1424,555.6306,79.3701,555.2638,79.4846,554.9318,79.683,554.5,79.6406,554.5,79.1575,544.5,78.9884,534.5,79.0192,524.5,79.5817,514.5,79.4441,504.5,80.322,494.5,79.4659,484.5,79.2976,474.5,79.8689,464.5,78.9738,454.5,79.1215,444.5,80.2896,434.5,80.0763,424.5,80.3751,414.5,79.3188,404.5,79.9598,394.5,80.231,384.5,79.1682,374.5,79.6406,374.4878,79.6111,374.1625,79.533,373.876,79.5484,373.4388,79.2,373.1448,79.1973,372.7322,78.9084,372.5617,78.8378,372.3772,78.4684,372.5944,78.2655,372.0721,77.7563,372.3032,77.5591,372,77.1406,372.0689,77.1406,371.9107,72.2125,371.8821,67.2844,372.1529,62.3563,371.9002,57.4281,372,52.5,372.1823,52.5755,371.9762,52.0759,372.483,51.8717,372.5885,51.5011,372.6612,51.117,372.7322,50.7322,372.7383,50.7468,373.1785,50.8096,373.5176,50.6283,373.8145,50.345,374.1807,50.229,374.5,50" style="stroke:#181818;stroke-width:0.5;"/><text fill="#000000" font-family="FG Virgil" font-size="14" lengthAdjust="spacing" textLength="171" x="379" y="69.6738">ListCourseExamsController</text><polygon fill="#E3E3E3" points="374.5,643.0625,374.5,643.2727,384.5,642.6482,394.5,643.2558,404.5,643.4622,414.5,642.3491,424.5,642.9848,434.5,642.636,444.5,642.679,454.5,642.9943,464.5,642.3711,474.5,643.6161,484.5,642.4322,494.5,642.8647,504.5,643.4944,514.5,642.9767,524.5,643.1307,534.5,643.0306,544.5,643.241,554.5,643.0625,554.5305,643.1361,554.9283,643.3893,555.2927,643.5621,555.6473,643.711,555.9467,643.7267,556.2678,643.7947,556.4105,643.8539,556.6305,644.2379,556.3386,644.4098,556.9161,644.9419,556.7622,645.1711,557,645.5625,557.1779,645.5625,556.835,650.4906,556.9772,655.4188,557.2472,660.3469,556.9838,665.275,557,670.2031,557.0324,670.2166,556.9578,670.5999,556.8353,670.9633,556.5595,671.2633,556.5027,671.654,556.2678,671.9709,556.1947,671.7946,555.9505,672.2049,555.6306,672.4326,555.2638,672.5471,554.9318,672.7455,554.5,672.7031,554.5,672.22,544.5,672.0509,534.5,672.0817,524.5,672.6442,514.5,672.5066,504.5,673.3845,494.5,672.5284,484.5,672.3601,474.5,672.9314,464.5,672.0363,454.5,672.184,444.5,673.3521,434.5,673.1388,424.5,673.4376,414.5,672.3813,404.5,673.0223,394.5,673.2935,384.5,672.2307,374.5,672.7031,374.4878,672.6736,374.1625,672.5955,373.876,672.6109,373.4388,672.2625,373.1448,672.2598,372.7322,671.9709,372.5617,671.9003,372.3772,671.5309,372.5944,671.328,372.0721,670.8188,372.3032,670.6216,372,670.2031,372.0689,670.2031,371.9107,665.275,371.8821,660.3469,372.1529,655.4188,371.9002,650.4906,372,645.5625,372.1823,645.638,371.9762,645.1384,372.483,644.9342,372.5885,644.5636,372.6612,644.1795,372.7322,643.7947,372.7383,643.8093,373.1785,643.8721,373.5176,643.6908,373.8145,643.4075,374.1807,643.2915,374.5,643.0625" style="stroke:#181818;stroke-width:0.5;"/><text fill="#000000" font-family="FG Virgil" font-size="14" lengthAdjust="spacing" textLength="171" x="379" y="662.7363">ListCourseExamsController</text><polygon fill="#E3E3E3" points="698,50,698,50.2102,707.7059,49.5857,717.4118,50.1933,727.1176,50.3997,736.8235,49.2866,746.5294,49.9223,756.2353,49.5735,765.9412,49.6165,775.6471,49.9318,785.3529,49.3086,795.0588,50.5536,804.7647,49.3697,814.4706,49.8022,824.1765,50.4319,833.8824,49.9142,843.5882,50.0682,853.2941,49.9681,863,50,863.0228,50.055,863.3841,50.2201,863.7818,50.4733,864.1463,50.646,864.5009,50.795,864.7678,50.7322,864.8462,50.7647,865.057,51.1449,865.2769,51.5289,864.985,51.7009,865.5625,52.233,865.5,52.5,865.4012,52.5,865.6779,57.4281,865.335,62.3563,865.4772,67.2844,865.7472,72.2125,865.5,77.1406,865.485,77.1344,865.386,77.5076,865.3114,77.8909,865.1888,78.2544,864.913,78.5543,864.7678,78.9084,864.8044,78.9968,864.3412,78.8786,864.0969,79.2889,863.777,79.5166,863.4103,79.6311,863,79.6406,863,80.2536,853.2941,79.1575,843.5882,78.9884,833.8824,79.0192,824.1765,79.5817,814.4706,79.4441,804.7647,80.322,795.0588,79.4659,785.3529,79.2976,775.6471,79.8689,765.9412,78.9738,756.2353,79.1215,746.5294,80.2896,736.8235,80.0763,727.1176,80.3751,717.4118,79.3188,707.7059,79.9598,698,79.6406,698.0753,79.8225,697.5862,79.3487,697.2807,79.3182,696.9554,79.2401,696.6689,79.2556,696.2322,78.9084,696.2309,78.9079,696.2282,78.6138,695.7688,78.1306,695.5843,77.7613,695.8015,77.5584,695.5,77.1406,695.261,77.1406,695.6697,72.2125,695.5689,67.2844,695.4107,62.3563,695.3821,57.4281,695.5,52.5,695.6413,52.5585,695.5543,52.1083,695.9752,51.8684,695.7691,51.3688,696.2759,51.1645,696.2322,50.7322,696.294,50.8814,696.617,50.6612,696.9454,50.4539,697.3856,50.5167,697.7247,50.3354,698,50" style="stroke:#181818;stroke-width:0.5;"/><text fill="#000000" font-family="FG Virgil" font-size="14" lengthAdjust="spacing" textLength="156" x="702.5" y="69.6738">ListCourseExamsService</text><polygon fill="#E3E3E3" points="698,643.0625,698,643.2727,707.7059,642.6482,717.4118,643.2558,727.1176,643.4622,736.8235,642.3491,746.5294,642.9848,756.2353,642.636,765.9412,642.679,775.6471,642.9943,785.3529,642.3711,795.0588,643.6161,804.7647,642.4322,814.4706,642.8647,824.1765,643.4944,833.8824,642.9767,843.5882,643.1307,853.2941,643.0306,863,643.0625,863.0228,643.1175,863.3841,643.2826,863.7818,643.5358,864.1463,643.7085,864.5009,643.8575,864.7678,643.7947,864.8462,643.8272,865.057,644.2074,865.2769,644.5914,864.985,644.7634,865.5625,645.2955,865.5,645.5625,865.4012,645.5625,865.6779,650.4906,865.335,655.4188,865.4772,660.3469,865.7472,665.275,865.5,670.2031,865.485,670.1969,865.386,670.5701,865.3114,670.9534,865.1888,671.3169,864.913,671.6168,864.7678,671.9709,864.8044,672.0593,864.3412,671.9411,864.0969,672.3514,863.777,672.5791,863.4103,672.6936,863,672.7031,863,673.3161,853.2941,672.22,843.5882,672.0509,833.8824,672.0817,824.1765,672.6442,814.4706,672.5066,804.7647,673.3845,795.0588,672.5284,785.3529,672.3601,775.6471,672.9314,765.9412,672.0363,756.2353,672.184,746.5294,673.3521,736.8235,673.1388,727.1176,673.4376,717.4118,672.3813,707.7059,673.0223,698,672.7031,698.0753,672.885,697.5862,672.4112,697.2807,672.3807,696.9554,672.3026,696.6689,672.3181,696.2322,671.9709,696.2309,671.9704,696.2282,671.6763,695.7688,671.1931,695.5843,670.8238,695.8015,670.6209,695.5,670.2031,695.261,670.2031,695.6697,665.275,695.5689,660.3469,695.4107,655.4188,695.3821,650.4906,695.5,645.5625,695.6413,645.621,695.5543,645.1708,695.9752,644.9309,695.7691,644.4313,696.2759,644.227,696.2322,643.7947,696.294,643.9439,696.617,643.7237,696.9454,643.5164,697.3856,643.5792,697.7247,643.3979,698,643.0625" style="stroke:#181818;stroke-width:0.5;"/><text fill="#000000" font-family="FG Virgil" font-size="14" lengthAdjust="spacing" textLength="156" x="702.5" y="662.7363">ListCourseExamsService</text><polygon fill="#E3E3E3" points="878,50,878,50.2102,888.25,49.5857,898.5,50.1933,908.75,50.3997,919,49.2866,929.25,49.9223,939.5,49.5735,949.75,49.6165,960,49.9318,970.25,49.3086,980.5,50.5536,990.75,49.3697,1001,50,1000.9748,49.9391,1001.4087,50.2795,1001.6962,50.2665,1002.0694,50.4604,1002.4101,50.5759,1002.7678,50.7322,1002.8227,50.755,1002.9879,51.1163,1003.241,51.5141,1003.4138,51.8785,1003.5627,52.2331,1003.5,52.5,1003.5849,52.5,1003.6545,57.4281,1003.7341,62.3563,1003.2596,67.2844,1003.7262,72.2125,1003.5,77.1406,1003.4087,77.1028,1003.5179,77.5623,1003.0547,77.7846,1003.0396,78.1925,1003.1426,78.6494,1002.7678,78.9084,1002.7616,78.8934,1002.4276,79.0873,1002.1039,79.3056,1001.7602,79.4759,1001.3531,79.493,1001,79.6406,1001,79.9278,990.75,79.0682,980.5,79.925,970.25,80.1888,960,80.0852,949.75,80.2536,939.5,79.1575,929.25,78.9884,919,79.0192,908.75,79.5817,898.5,79.4441,888.25,80.322,878,79.6406,877.9777,79.5868,877.6027,79.3885,877.322,79.418,876.8543,78.9959,876.5196,78.895,876.2322,78.9084,876.4321,78.9912,876.22,78.6104,876.1655,78.295,875.6938,77.8067,875.7447,77.5349,875.5,77.1406,875.6968,77.1406,875.3425,72.2125,875.468,67.2844,875.542,62.3563,875.7173,57.4281,875.5,52.5,875.4987,52.4995,875.7889,52.2055,875.6223,51.7223,875.7308,51.3529,876.2409,51.15,876.2322,50.7322,876.1408,50.5114,876.6507,50.7425,876.9657,50.503,877.2587,50.2104,877.6013,50.0375,878,50" style="stroke:#181818;stroke-width:0.5;"/><text fill="#000000" font-family="FG Virgil" font-size="14" lengthAdjust="spacing" textLength="114" x="882.5" y="69.6738">CourseRepository</text><polygon fill="#E3E3E3" points="878,643.0625,878,643.2727,888.25,642.6482,898.5,643.2558,908.75,643.4622,919,642.3491,929.25,642.9848,939.5,642.636,949.75,642.679,960,642.9943,970.25,642.3711,980.5,643.6161,990.75,642.4322,1001,643.0625,1000.9748,643.0016,1001.4087,643.342,1001.6962,643.329,1002.0694,643.5229,1002.4101,643.6384,1002.7678,643.7947,1002.8227,643.8175,1002.9879,644.1788,1003.241,644.5766,1003.4138,644.941,1003.5627,645.2956,1003.5,645.5625,1003.5849,645.5625,1003.6545,650.4906,1003.7341,655.4188,1003.2596,660.3469,1003.7262,665.275,1003.5,670.2031,1003.4087,670.1653,1003.5179,670.6248,1003.0547,670.8471,1003.0396,671.255,1003.1426,671.7119,1002.7678,671.9709,1002.7616,671.9559,1002.4276,672.1498,1002.1039,672.3681,1001.7602,672.5384,1001.3531,672.5555,1001,672.7031,1001,672.9903,990.75,672.1307,980.5,672.9875,970.25,673.2513,960,673.1477,949.75,673.3161,939.5,672.22,929.25,672.0509,919,672.0817,908.75,672.6442,898.5,672.5066,888.25,673.3845,878,672.7031,877.9777,672.6493,877.6027,672.451,877.322,672.4805,876.8543,672.0584,876.5196,671.9575,876.2322,671.9709,876.4321,672.0537,876.22,671.6729,876.1655,671.3575,875.6938,670.8692,875.7447,670.5974,875.5,670.2031,875.6968,670.2031,875.3425,665.275,875.468,660.3469,875.542,655.4188,875.7173,650.4906,875.5,645.5625,875.4987,645.562,875.7889,645.268,875.6223,644.7848,875.7308,644.4154,876.2409,644.2125,876.2322,643.7947,876.1408,643.5739,876.6507,643.805,876.9657,643.5655,877.2587,643.2729,877.6013,643.1,878,643.0625" style="stroke:#181818;stroke-width:0.5;"/><text fill="#000000" font-family="FG Virgil" font-size="14" lengthAdjust="spacing" textLength="114" x="882.5" y="662.7363">CourseRepository</text><polygon fill="#E3E3E3" points="1016,50,1016,50.2102,1026.0909,49.5857,1036.1818,50.1933,1046.2727,50.3997,1056.3636,49.2866,1066.4545,49.9223,1076.5455,49.5735,1086.6364,49.6165,1096.7273,49.9318,1106.8182,49.3086,1116.9091,50.5536,1127,50,1126.9196,49.8059,1127.3283,50.0855,1127.7622,50.4259,1128.0497,50.4129,1128.4229,50.6068,1128.7678,50.7322,1128.7579,50.7282,1128.9692,51.1086,1129.1343,51.4698,1129.3875,51.8676,1129.5602,52.232,1129.5,52.5,1129.7264,52.5,1129.5849,57.4281,1129.6545,62.3563,1129.7341,67.2844,1129.2596,72.2125,1129.5,77.1406,1129.709,77.2272,1129.2622,77.4564,1129.3715,77.9158,1128.9082,78.1381,1128.8931,78.5461,1128.7678,78.9084,1128.8624,79.1368,1128.408,79.0398,1128.0741,79.2337,1127.7503,79.452,1127.4066,79.6224,1127,79.6406,1127,79.6367,1116.9091,79.9278,1106.8182,79.0682,1096.7273,79.925,1086.6364,80.1888,1076.5455,80.0852,1066.4545,80.2536,1056.3636,79.1575,1046.2727,78.9884,1036.1818,79.0192,1026.0909,79.5817,1016,79.6406,1015.9749,79.5801,1015.7334,79.704,1015.2706,79.2939,1014.8956,79.0956,1014.6149,79.1251,1014.2322,78.9084,1014.0269,78.8233,1013.9259,78.4886,1014.1392,78.2841,1013.9271,77.9033,1013.8726,77.5879,1013.5,77.1406,1013.3927,77.1406,1013.6064,72.2125,1013.6968,67.2844,1013.3425,62.3563,1013.468,57.4281,1013.5,52.5,1013.5388,52.5161,1013.8472,52.2296,1013.7916,51.7924,1014.0818,51.4983,1013.9152,51.0151,1014.2322,50.7322,1014.1458,50.5237,1014.65,50.7409,1014.8479,50.2186,1015.3578,50.4496,1015.6728,50.2101,1016,50" style="stroke:#181818;stroke-width:0.5;"/><text fill="#000000" font-family="FG Virgil" font-size="14" lengthAdjust="spacing" textLength="102" x="1020.5" y="69.6738">ExamRepository</text><polygon fill="#E3E3E3" points="1016,643.0625,1016,643.2727,1026.0909,642.6482,1036.1818,643.2558,1046.2727,643.4622,1056.3636,642.3491,1066.4545,642.9848,1076.5455,642.636,1086.6364,642.679,1096.7273,642.9943,1106.8182,642.3711,1116.9091,643.6161,1127,643.0625,1126.9196,642.8684,1127.3283,643.148,1127.7622,643.4884,1128.0497,643.4754,1128.4229,643.6693,1128.7678,643.7947,1128.7579,643.7907,1128.9692,644.1711,1129.1343,644.5323,1129.3875,644.9301,1129.5602,645.2945,1129.5,645.5625,1129.7264,645.5625,1129.5849,650.4906,1129.6545,655.4188,1129.7341,660.3469,1129.2596,665.275,1129.5,670.2031,1129.709,670.2897,1129.2622,670.5189,1129.3715,670.9783,1128.9082,671.2006,1128.8931,671.6086,1128.7678,671.9709,1128.8624,672.1993,1128.408,672.1023,1128.0741,672.2962,1127.7503,672.5145,1127.4066,672.6849,1127,672.7031,1127,672.6992,1116.9091,672.9903,1106.8182,672.1307,1096.7273,672.9875,1086.6364,673.2513,1076.5455,673.1477,1066.4545,673.3161,1056.3636,672.22,1046.2727,672.0509,1036.1818,672.0817,1026.0909,672.6442,1016,672.7031,1015.9749,672.6426,1015.7334,672.7665,1015.2706,672.3564,1014.8956,672.1581,1014.6149,672.1876,1014.2322,671.9709,1014.0269,671.8858,1013.9259,671.5511,1014.1392,671.3466,1013.9271,670.9658,1013.8726,670.6504,1013.5,670.2031,1013.3927,670.2031,1013.6064,665.275,1013.6968,660.3469,1013.3425,655.4188,1013.468,650.4906,1013.5,645.5625,1013.5388,645.5786,1013.8472,645.2921,1013.7916,644.8549,1014.0818,644.5608,1013.9152,644.0776,1014.2322,643.7947,1014.1458,643.5862,1014.65,643.8034,1014.8479,643.2811,1015.3578,643.5121,1015.6728,643.2726,1016,643.0625" style="stroke:#181818;stroke-width:0.5;"/><text fill="#000000" font-family="FG Virgil" font-size="14" lengthAdjust="spacing" textLength="102" x="1020.5" y="662.7363">ExamRepository</text><polygon fill="#FFFFFF" points="143.5,111.1641,143.5,111.2341,145.5,111.026,147.5,111.2285,149.5,111.2973,151.5,110.9263,153.5,111.1641,153.4223,111.1641,153.0735,121.2601,153.1165,131.3562,153.4318,141.4522,152.8086,151.5483,154.0536,161.6443,152.8697,171.7403,153.3022,181.8364,153.9319,191.9324,153.4142,202.0285,153.5682,212.1245,153.4681,222.2206,153.6785,232.3166,153.7391,242.4127,154.0857,252.5087,154.1711,262.6048,154.1793,272.7008,153.7546,282.7969,153.9636,292.8929,154.2022,302.989,152.7788,313.085,154.1785,323.1811,153.2035,333.2771,154.0338,343.3732,153.005,353.4692,153.4315,363.5653,154.2416,373.6613,153.4513,383.7574,153.6053,393.8534,153.8386,403.9494,153.9162,414.0455,153.4961,424.1415,153.7872,434.2376,152.9276,444.3336,153.7844,454.4297,154.0482,464.5257,153.9445,474.6218,154.113,484.7178,153.0169,494.8139,152.8478,504.9099,152.8786,515.006,153.4411,525.102,153.3035,535.1981,154.1814,545.2941,153.3253,555.3902,153.1569,565.4862,153.7283,575.5823,152.8332,585.6783,152.9809,595.7744,154.149,605.8704,153.9357,615.9665,153.5,626.0625,153.5,626.3073,151.5,625.9552,149.5,626.1689,147.5,626.2593,145.5,625.905,143.5,626.0625,143.4041,626.0625,143.626,615.9665,144.1518,605.8704,143.4958,595.7744,143.9626,585.6783,142.9462,575.5823,142.8227,565.4862,144.0036,555.3902,142.7831,545.2941,144.009,535.1981,143.7066,525.102,143.2321,515.006,143.1462,504.9099,143.9588,494.8139,143.2007,484.7178,144.0919,474.6218,142.9473,464.5257,144.1174,454.4297,143.9843,444.3336,143.745,434.2376,143.5472,424.1415,144.2266,414.0455,144.1136,403.9494,143.6693,393.8534,143.7682,383.7574,143.3697,373.6613,144.2165,363.5653,143.6549,353.4692,143.6726,343.3732,142.8916,333.2771,143.0948,323.1811,144.0307,313.085,143.9298,302.989,143.4571,292.8929,143.1778,282.7969,143.2811,272.7008,142.8138,262.6048,143.9147,252.5087,144.2396,242.4127,144.0264,232.3166,144.1949,222.2206,143.3633,212.1245,143.5872,202.0285,143.1124,191.9324,143.784,181.8364,143.7468,171.7403,144.0524,161.6443,143.2703,151.5483,143.3656,141.4522,143.9435,131.3562,144.0673,121.2601,143.5,111.1641" style="stroke:#181818;stroke-width:1.0;"/><polygon fill="#FFFFFF" points="459.5,139.6875,459.5,139.7576,461.5,139.5494,463.5,139.7519,465.5,139.8207,467.5,139.4497,469.5,139.6875,469.4223,139.6875,469.0735,149.4414,469.1165,159.1953,469.4318,168.9492,468.8086,178.7031,470.0536,188.457,469.5,198.2109,469.5,198.0008,467.5,198.145,465.5,198.3549,463.5,198.1823,461.5,198.2337,459.5,198.2109,459.4681,198.2109,459.6785,188.457,459.7391,178.7031,460.0857,168.9492,460.1711,159.1953,460.1793,149.4414,459.5,139.6875" style="stroke:#181818;stroke-width:1.0;"/><polygon fill="#FFFFFF" points="459.5,226.7344,459.5,226.8044,461.5,226.5963,463.5,226.7988,465.5,226.8676,467.5,226.4966,469.5,226.7344,469.4223,226.7344,469.0735,236.9213,469.1165,247.1083,469.4318,257.2952,468.8086,267.4821,470.0536,277.6691,468.8697,287.856,469.3022,298.043,469.9319,308.2299,469.4142,318.4169,469.5682,328.6038,469.4681,338.7907,469.6785,348.9777,469.7391,359.1646,469.5,369.3516,469.5,369.5468,467.5,369.5752,465.5,369.578,463.5,369.4364,461.5,369.5061,459.5,369.3516,460.2022,369.3516,458.7788,359.1646,460.1785,348.9777,459.2035,338.7907,460.0338,328.6038,459.005,318.4169,459.4315,308.2299,460.2416,298.043,459.4513,287.856,459.6053,277.6691,459.8386,267.4821,459.9162,257.2952,459.4961,247.1083,459.7872,236.9213,459.5,226.7344" style="stroke:#181818;stroke-width:1.0;"/><polygon fill="#FFFFFF" points="459.5,454.9219,459.5,454.9919,461.5,454.7838,463.5,454.9863,465.5,455.0551,467.5,454.6841,469.5,454.9219,469.4223,454.9219,469.0735,465.1088,469.1165,475.2958,469.4318,485.4827,468.8086,495.6696,470.0536,505.8566,468.8697,516.0435,469.3022,526.2305,469.9319,536.4174,469.4142,546.6044,469.5682,556.7913,469.4681,566.9782,469.6785,577.1652,469.7391,587.3521,469.5,597.5391,469.5,597.7343,467.5,597.7627,465.5,597.7655,463.5,597.6239,461.5,597.6936,459.5,597.5391,460.2022,597.5391,458.7788,587.3521,460.1785,577.1652,459.2035,566.9782,460.0338,556.7913,459.005,546.6044,459.4315,536.4174,460.2416,526.2305,459.4513,516.0435,459.6053,505.8566,459.8386,495.6696,459.9162,485.4827,459.4961,475.2958,459.7872,465.1088,459.5,454.9219" style="stroke:#181818;stroke-width:1.0;"/><polygon fill="#FFFFFF" points="775.5,168.2109,775.5,168.281,777.5,168.0728,779.5,168.2754,781.5,168.3442,783.5,167.9731,785.5,168.2109,785.4741,168.2109,785.3578,174.2109,785.3722,180.2109,785.4773,186.2109,785.2695,192.2109,785.5,198.2109,785.5,198.3955,783.5,198.0008,781.5,198.145,779.5,198.3549,777.5,198.1823,775.5,198.2109,775.5227,198.2109,775.4894,192.2109,775.5595,186.2109,775.5797,180.2109,775.6952,174.2109,775.5,168.2109" style="stroke:#181818;stroke-width:1.0;"/><polygon fill="#FFFFFF" points="775.5,255.2578,775.5,255.3279,777.5,255.1197,779.5,255.3222,781.5,255.391,783.5,255.02,785.5,255.2578,785.4223,255.2578,785.0735,264.7656,785.1165,274.2734,785.4318,283.7813,784.8086,293.2891,786.0536,302.7969,784.8697,312.3047,785.3022,321.8125,785.9319,331.3203,785.5,340.8281,785.5,340.7995,783.5,340.8509,781.5,340.8175,779.5,340.8876,777.5,340.9078,775.5,340.8281,776.0857,340.8281,776.1711,331.3203,776.1793,321.8125,775.7546,312.3047,775.9636,302.7969,776.2022,293.2891,774.7788,283.7813,776.1785,274.2734,775.2035,264.7656,775.5,255.2578" style="stroke:#181818;stroke-width:1.0;"/><polygon fill="#FFFFFF" points="775.5,483.4453,775.5,483.5154,777.5,483.3072,779.5,483.5097,781.5,483.5785,783.5,483.2075,785.5,483.4453,785.4223,483.4453,785.0735,492.9531,785.1165,502.4609,785.4318,511.9688,784.8086,521.4766,786.0536,530.9844,784.8697,540.4922,785.3022,550,785.9319,559.5078,785.5,569.0156,785.5,568.987,783.5,569.0384,781.5,569.005,779.5,569.0751,777.5,569.0953,775.5,569.0156,776.0857,569.0156,776.1711,559.5078,776.1793,550,775.7546,540.4922,775.9636,530.9844,776.2022,521.4766,774.7788,511.9688,776.1785,502.4609,775.2035,492.9531,775.5,483.4453" style="stroke:#181818;stroke-width:1.0;"/><polygon fill="#FFFFFF" points="934.5,283.7813,934.5,283.8513,936.5,283.6431,938.5,283.8457,940.5,283.9145,942.5,283.5435,944.5,283.7813,944.4741,283.7813,944.3578,289.4859,944.3722,295.1906,944.4773,300.8953,944.2695,306.6,944.5,312.3047,944.5,312.4892,942.5,312.0946,940.5,312.2388,938.5,312.4487,936.5,312.2761,934.5,312.3047,934.5227,312.3047,934.4894,306.6,934.5595,300.8953,934.5797,295.1906,934.6952,289.4859,934.5,283.7813" style="stroke:#181818;stroke-width:1.0;"/><polygon fill="#FFFFFF" points="1066.5,511.9688,1066.5,512.0388,1068.5,511.8306,1070.5,512.0332,1072.5,512.102,1074.5,511.731,1076.5,511.9688,1076.4741,511.9688,1076.3578,517.6734,1076.3722,523.3781,1076.4773,529.0828,1076.2695,534.7875,1076.5,540.4922,1076.5,540.6767,1074.5,540.2821,1072.5,540.4263,1070.5,540.6362,1068.5,540.4636,1066.5,540.4922,1066.5227,540.4922,1066.4894,534.7875,1066.5595,529.0828,1066.5797,523.3781,1066.6952,517.6734,1066.5,511.9688" style="stroke:#181818;stroke-width:1.0;"/><polygon fill="#181818" points="131.5,107.1641,131.526,107.2291,133.4487,107.8358,135.5239,108.8239,137.5495,109.6878,139.4117,110.1433,141.5,111.1641,141.4904,111.14,139.4472,111.8321,137.4525,112.6454,135.4916,113.543,133.4144,114.1501,131.5,115.1641,131.6305,115.2946,132.1514,114.2155,133.0534,113.5174,134.0018,112.8659,134.6798,111.9438,135.5,111.1641,135.5161,111.1801,134.6925,110.3565,133.9421,109.6061,133.1564,108.8204,132.438,108.1021,131.5,107.1641" style="stroke:#181818;stroke-width:1.0;"/><path d="M0,111.1641 L0,111.4443 L9.8214,110.6116 L19.6429,111.4218 L29.4643,111.697 L39.2857,110.2129 L49.1071,111.0604 L58.9286,110.5954 L68.75,110.6527 L78.5714,111.0732 L88.3929,110.2422 L98.2143,111.9023 L108.0357,110.3237 L117.8571,110.9004 L127.6786,111.74 L137.5,111.1641 " fill="none" style="stroke:#181818;stroke-width:1.0;"/><text fill="#000000" font-family="FG Virgil" font-size="13" lengthAdjust="spacing" textLength="118" x="7" y="106.4092">Show course exams</text><polygon fill="#181818" points="447.5,135.6875,447.526,135.7525,449.4487,136.3593,451.5239,137.3473,453.5495,138.2112,455.4117,138.6667,457.5,139.6875,457.4904,139.6634,455.4472,140.3555,453.4525,141.1688,451.4916,142.0664,449.4144,142.6735,447.5,143.6875,447.6305,143.818,448.1514,142.7389,449.0534,142.0409,450.0018,141.3893,450.6798,140.4673,451.5,139.6875,451.5161,139.7036,450.6925,138.88,449.9421,138.1296,449.1564,137.3439,448.438,136.6255,447.5,135.6875" style="stroke:#181818;stroke-width:1.0;"/><path d="M153.5,139.6875 L153.5,139.9677 L163.5,139.1351 L173.5,139.9452 L183.5,140.2204 L193.5,138.7363 L203.5,139.5839 L213.5,139.1188 L223.5,139.1762 L233.5,139.5966 L243.5,138.7657 L253.5,140.4257 L263.5,138.8471 L273.5,139.4238 L283.5,140.2634 L293.5,139.5731 L303.5,139.7785 L313.5,139.6449 L323.5,139.9255 L333.5,140.0063 L343.5,140.4684 L353.5,140.5822 L363.5,140.5932 L373.5,140.027 L383.5,140.3056 L393.5,140.6238 L403.5,138.7259 L413.5,140.5922 L423.5,139.2922 L433.5,140.3992 L443.5,139.0275 L453.5,139.6875 " fill="none" style="stroke:#181818;stroke-width:1.0;"/><text fill="#000000" font-family="FG Virgil" font-size="13" lengthAdjust="spacing" textLength="287" x="160.5" y="134.9326">create(authz, examRepository, courseRepository)</text><polygon fill="#181818" points="763.5,164.2109,763.526,164.276,765.4487,164.8827,767.5239,165.8708,769.5495,166.7346,771.4117,167.1901,773.5,168.2109,773.4904,168.1869,771.4472,168.8789,769.4525,169.6922,767.4916,170.5898,765.4144,171.197,763.5,172.2109,763.6305,172.3414,764.1514,171.2624,765.0534,170.5643,766.0018,169.9127,766.6798,168.9907,767.5,168.2109,767.5161,168.227,766.6925,167.4034,765.9421,166.653,765.1564,165.8673,764.438,165.149,763.5,164.2109" style="stroke:#181818;stroke-width:1.0;"/><path d="M469.5,168.2109 L469.5,168.4912 L479.5,167.6585 L489.5,168.4687 L499.5,168.7438 L509.5,167.2597 L519.5,168.1073 L529.5,167.6423 L539.5,167.6996 L549.5,168.1201 L559.5,167.2891 L569.5,168.9491 L579.5,167.3706 L589.5,167.9472 L599.5,168.7869 L609.5,168.0966 L619.5,168.3019 L629.5,168.1683 L639.5,168.449 L649.5,168.5298 L659.5,168.9919 L669.5,169.1057 L679.5,169.1166 L689.5,168.5504 L699.5,168.8291 L709.5,169.1472 L719.5,167.2494 L729.5,169.1156 L739.5,167.8156 L749.5,168.9227 L759.5,167.5509 L769.5,168.2109 " fill="none" style="stroke:#181818;stroke-width:1.0;"/><text fill="#000000" font-family="FG Virgil" font-size="13" lengthAdjust="spacing" textLength="287" x="476.5" y="163.4561">create(authz, examRepository, courseRepository)</text><polygon fill="#181818" points="447.5,222.7344,447.526,222.7994,449.4487,223.4061,451.5239,224.3942,453.5495,225.2581,455.4117,225.7136,457.5,226.7344,457.4904,226.7103,455.4472,227.4024,453.4525,228.2157,451.4916,229.1133,449.4144,229.7204,447.5,230.7344,447.6305,230.8649,448.1514,229.7858,449.0534,229.0878,450.0018,228.4362,450.6798,227.5142,451.5,226.7344,451.5161,226.7505,450.6925,225.9268,449.9421,225.1765,449.1564,224.3907,448.438,223.6724,447.5,222.7344" style="stroke:#181818;stroke-width:1.0;"/><path d="M153.5,226.7344 L153.5,227.0146 L163.5,226.1819 L173.5,226.9921 L183.5,227.2673 L193.5,225.7832 L203.5,226.6308 L213.5,226.1657 L223.5,226.223 L233.5,226.6435 L243.5,225.8125 L253.5,227.4726 L263.5,225.894 L273.5,226.4707 L283.5,227.3103 L293.5,226.62 L303.5,226.8254 L313.5,226.6918 L323.5,226.9724 L333.5,227.0532 L343.5,227.5153 L353.5,227.6291 L363.5,227.6401 L373.5,227.0739 L383.5,227.3525 L393.5,227.6707 L403.5,225.7728 L413.5,227.6391 L423.5,226.339 L433.5,227.4461 L443.5,226.0743 L453.5,226.7344 " fill="none" style="stroke:#181818;stroke-width:1.0;"/><text fill="#000000" font-family="FG Virgil" font-size="13" lengthAdjust="spacing" textLength="73" x="160.5" y="221.9795">listCourses()</text><polygon fill="#181818" points="763.5,251.2578,763.526,251.3229,765.4487,251.9296,767.5239,252.9176,769.5495,253.7815,771.4117,254.237,773.5,255.2578,773.4904,255.2338,771.4472,255.9258,769.4525,256.7391,767.4916,257.6367,765.4144,258.2438,763.5,259.2578,763.6305,259.3883,764.1514,258.3093,765.0534,257.6112,766.0018,256.9596,766.6798,256.0376,767.5,255.2578,767.5161,255.2739,766.6925,254.4503,765.9421,253.6999,765.1564,252.9142,764.438,252.1959,763.5,251.2578" style="stroke:#181818;stroke-width:1.0;"/><path d="M469.5,255.2578 L469.5,255.5381 L479.5,254.7054 L489.5,255.5155 L499.5,255.7907 L509.5,254.3066 L519.5,255.1542 L529.5,254.6892 L539.5,254.7465 L549.5,255.1669 L559.5,254.336 L569.5,255.996 L579.5,254.4174 L589.5,254.9941 L599.5,255.8337 L609.5,255.1434 L619.5,255.3488 L629.5,255.2152 L639.5,255.4958 L649.5,255.5767 L659.5,256.0387 L669.5,256.1526 L679.5,256.1635 L689.5,255.5973 L699.5,255.8759 L709.5,256.1941 L719.5,254.2962 L729.5,256.1625 L739.5,254.8625 L749.5,255.9696 L759.5,254.5978 L769.5,255.2578 " fill="none" style="stroke:#181818;stroke-width:1.0;"/><text fill="#000000" font-family="FG Virgil" font-size="13" lengthAdjust="spacing" textLength="54" x="476.5" y="250.5029">courses()</text><polygon fill="#181818" points="922.5,279.7813,922.526,279.8463,924.4487,280.453,926.5239,281.4411,928.5495,282.3049,930.4117,282.7605,932.5,283.7813,932.4904,283.7572,930.4472,284.4493,928.4525,285.2626,926.4916,286.1602,924.4144,286.7673,922.5,287.7813,922.6305,287.9117,923.1514,286.8327,924.0534,286.1346,925.0018,285.4831,925.6798,284.561,926.5,283.7813,926.5161,283.7973,925.6925,282.9737,924.9421,282.2233,924.1564,281.4376,923.438,280.7193,922.5,279.7813" style="stroke:#181818;stroke-width:1.0;"/><path d="M785.5,283.7813 L785.5,284.0615 L795.7143,283.2288 L805.9286,284.039 L816.1429,284.3142 L826.3571,282.8301 L836.5714,283.6776 L846.7857,283.2126 L857,283.2699 L867.2143,283.6904 L877.4286,282.8594 L887.6429,284.5194 L897.8571,282.9409 L908.0714,283.5176 L918.2857,284.3572 L928.5,283.7813 " fill="none" style="stroke:#181818;stroke-width:1.0;"/><text fill="#000000" font-family="FG Virgil" font-size="13" lengthAdjust="spacing" textLength="43" x="792.5" y="279.0264">findAll()</text><polygon fill="#181818" points="796.5,308.3047,796.526,308.3697,794.4487,308.9765,792.5239,309.9645,790.5495,310.8284,788.4117,311.2839,786.5,312.3047,786.4904,312.2806,788.4472,312.9727,790.4525,313.786,792.4916,314.6836,794.4144,315.2907,796.5,316.3047,796.6305,316.4352,795.5514,315.3561,794.8534,314.6581,794.2018,314.0065,793.2798,313.0845,792.5,312.3047,792.5161,312.3208,793.2925,311.4972,794.1421,310.7468,794.9564,309.9611,795.838,309.2427,796.5,308.3047" style="stroke:#181818;stroke-width:1.0;"/><path d="M790.5,312.3047 L790.5,312.5849 L800.3667,311.7523 L810.2333,312.5624 L820.1,312.8376 L829.9667,311.3535 L839.8333,312.2011 L849.7,311.736 L859.5667,311.7934 L869.4333,312.2138 L879.3,311.3829 L889.1667,313.0429 L899.0333,311.4643 L908.9,312.041 L918.7667,312.8806 L928.6333,312.1903 L938.5,312.3047 " fill="none" style="stroke:#181818;stroke-width:1.0;stroke-dasharray:2.0,2.0;"/><text fill="#000000" font-family="FG Virgil" font-size="13" lengthAdjust="spacing" textLength="46" x="802.5" y="307.5498">courses</text><polygon fill="#181818" points="480.5,336.8281,480.526,336.8932,478.4487,337.4999,476.5239,338.4879,474.5495,339.3518,472.4117,339.8073,470.5,340.8281,470.4904,340.8041,472.4472,341.4961,474.4525,342.3094,476.4916,343.207,478.4144,343.8142,480.5,344.8281,480.6305,344.9586,479.5514,343.8796,478.8534,343.1815,478.2018,342.5299,477.2798,341.6079,476.5,340.8281,476.5161,340.8442,477.2925,340.0206,478.1421,339.2702,478.9564,338.4845,479.838,337.7662,480.5,336.8281" style="stroke:#181818;stroke-width:1.0;"/><path d="M474.5,340.8281 L474.5,341.1084 L484.3387,340.2757 L494.1774,341.0858 L504.0161,341.361 L513.8548,339.8769 L523.6935,340.7245 L533.5323,340.2595 L543.371,340.3168 L553.2097,340.7372 L563.0484,339.9063 L572.8871,341.5663 L582.7258,339.9878 L592.5645,340.5644 L602.4032,341.4041 L612.2419,340.7138 L622.0806,340.9191 L631.9194,340.7855 L641.7581,341.0662 L651.5968,341.147 L661.4355,341.609 L671.2742,341.7229 L681.1129,341.7338 L690.9516,341.1676 L700.7903,341.4462 L710.629,341.7644 L720.4677,339.8665 L730.3065,341.7328 L740.1452,340.4328 L749.9839,341.5399 L759.8226,340.1681 L769.6613,340.7368 L779.5,340.8281 " fill="none" style="stroke:#181818;stroke-width:1.0;stroke-dasharray:2.0,2.0;"/><text fill="#000000" font-family="FG Virgil" font-size="13" lengthAdjust="spacing" textLength="46" x="486.5" y="336.0732">courses</text><polygon fill="#181818" points="164.5,365.3516,164.526,365.4166,162.4487,366.0233,160.5239,367.0114,158.5495,367.8753,156.4117,368.3308,154.5,369.3516,154.4904,369.3275,156.4472,370.0196,158.4525,370.8329,160.4916,371.7305,162.4144,372.3376,164.5,373.3516,164.6305,373.4821,163.5514,372.403,162.8534,371.7049,162.2018,371.0534,161.2798,370.1313,160.5,369.3516,160.5161,369.3676,161.2925,368.544,162.1421,367.7936,162.9564,367.0079,163.838,366.2896,164.5,365.3516" style="stroke:#181818;stroke-width:1.0;"/><path d="M158.5,369.3516 L158.5,369.6318 L168.3387,368.7991 L178.1774,369.6093 L188.0161,369.8845 L197.8548,368.4004 L207.6935,369.2479 L217.5323,368.7829 L227.371,368.8402 L237.2097,369.2607 L247.0484,368.4297 L256.8871,370.0898 L266.7258,368.5112 L276.5645,369.0879 L286.4032,369.9275 L296.2419,369.2372 L306.0806,369.4425 L315.9194,369.309 L325.7581,369.5896 L335.5968,369.6704 L345.4355,370.1325 L355.2742,370.2463 L365.1129,370.2572 L374.9516,369.6911 L384.7903,369.9697 L394.629,370.2879 L404.4677,368.39 L414.3065,370.2562 L424.1452,368.9562 L433.9839,370.0633 L443.8226,368.6915 L453.6613,369.2602 L463.5,369.3516 " fill="none" style="stroke:#181818;stroke-width:1.0;stroke-dasharray:2.0,2.0;"/><text fill="#000000" font-family="FG Virgil" font-size="13" lengthAdjust="spacing" textLength="46" x="170.5" y="364.5967">courses</text><polygon fill="#181818" points="45.5,393.875,45.526,393.94,43.4487,394.5468,41.5239,395.5348,39.5495,396.3987,37.4117,396.8542,35.5,397.875,35.4904,397.8509,37.4472,398.543,39.4525,399.3563,41.4916,400.2539,43.4144,400.861,45.5,401.875,45.6305,402.0055,44.5514,400.9264,43.8534,400.2284,43.2018,399.5768,42.2798,398.6548,41.5,397.875,41.5161,397.8911,42.2925,397.0675,43.1421,396.3171,43.9564,395.5314,44.838,394.813,45.5,393.875" style="stroke:#181818;stroke-width:1.0;"/><path d="M39.5,397.875 L39.5,398.1552 L49.8,397.3226 L60.1,398.1327 L70.4,398.4079 L80.7,396.9238 L91,397.7714 L101.3,397.3063 L111.6,397.3637 L121.9,397.7841 L132.2,396.9532 L142.5,397.875 " fill="none" style="stroke:#181818;stroke-width:1.0;stroke-dasharray:2.0,2.0;"/><text fill="#000000" font-family="FG Virgil" font-size="13" lengthAdjust="spacing" textLength="80" x="51.5" y="393.1201">show courses</text><polygon fill="#181818" points="131.5,422.3984,131.526,422.4635,133.4487,423.0702,135.5239,424.0583,137.5495,424.9221,139.4117,425.3776,141.5,426.3984,141.4904,426.3744,139.4472,427.0664,137.4525,427.8797,135.4916,428.7773,133.4144,429.3845,131.5,430.3984,131.6305,430.5289,132.1514,429.4499,133.0534,428.7518,134.0018,428.1002,134.6798,427.1782,135.5,426.3984,135.5161,426.4145,134.6925,425.5909,133.9421,424.8405,133.1564,424.0548,132.438,423.3365,131.5,422.3984" style="stroke:#181818;stroke-width:1.0;"/><path d="M34.5,426.3984 L34.5,426.6787 L44.8,425.846 L55.1,426.6562 L65.4,426.9313 L75.7,425.4472 L86,426.2948 L96.3,425.8298 L106.6,425.8871 L116.9,426.3076 L127.2,425.4766 L137.5,426.3984 " fill="none" style="stroke:#181818;stroke-width:1.0;"/><text fill="#000000" font-family="FG Virgil" font-size="13" lengthAdjust="spacing" textLength="85" x="41.5" y="421.6436">selects course</text><polygon fill="#181818" points="447.5,450.9219,447.526,450.9869,449.4487,451.5936,451.5239,452.5817,453.5495,453.4456,455.4117,453.9011,457.5,454.9219,457.4904,454.8978,455.4472,455.5899,453.4525,456.4032,451.4916,457.3008,449.4144,457.9079,447.5,458.9219,447.6305,459.0524,448.1514,457.9733,449.0534,457.2753,450.0018,456.6237,450.6798,455.7017,451.5,454.9219,451.5161,454.938,450.6925,454.1143,449.9421,453.364,449.1564,452.5782,448.438,451.8599,447.5,450.9219" style="stroke:#181818;stroke-width:1.0;"/><path d="M153.5,454.9219 L153.5,455.2021 L163.5,454.3694 L173.5,455.1796 L183.5,455.4548 L193.5,453.9707 L203.5,454.8183 L213.5,454.3532 L223.5,454.4105 L233.5,454.831 L243.5,454 L253.5,455.6601 L263.5,454.0815 L273.5,454.6582 L283.5,455.4978 L293.5,454.8075 L303.5,455.0129 L313.5,454.8793 L323.5,455.1599 L333.5,455.2407 L343.5,455.7028 L353.5,455.8166 L363.5,455.8276 L373.5,455.2614 L383.5,455.54 L393.5,455.8582 L403.5,453.9603 L413.5,455.8266 L423.5,454.5265 L433.5,455.6336 L443.5,454.2618 L453.5,454.9219 " fill="none" style="stroke:#181818;stroke-width:1.0;"/><text fill="#000000" font-family="FG Virgil" font-size="13" lengthAdjust="spacing" textLength="146" x="160.5" y="450.167">listCourseExams(course)</text><polygon fill="#181818" points="763.5,479.4453,763.526,479.5104,765.4487,480.1171,767.5239,481.1051,769.5495,481.969,771.4117,482.4245,773.5,483.4453,773.4904,483.4213,771.4472,484.1133,769.4525,484.9266,767.4916,485.8242,765.4144,486.4313,763.5,487.4453,763.6305,487.5758,764.1514,486.4968,765.0534,485.7987,766.0018,485.1471,766.6798,484.2251,767.5,483.4453,767.5161,483.4614,766.6925,482.6378,765.9421,481.8874,765.1564,481.1017,764.438,480.3834,763.5,479.4453" style="stroke:#181818;stroke-width:1.0;"/><path d="M469.5,483.4453 L469.5,483.7256 L479.5,482.8929 L489.5,483.703 L499.5,483.9782 L509.5,482.4941 L519.5,483.3417 L529.5,482.8767 L539.5,482.934 L549.5,483.3544 L559.5,482.5235 L569.5,484.1835 L579.5,482.6049 L589.5,483.1816 L599.5,484.0212 L609.5,483.3309 L619.5,483.5363 L629.5,483.4027 L639.5,483.6833 L649.5,483.7642 L659.5,484.2262 L669.5,484.3401 L679.5,484.351 L689.5,483.7848 L699.5,484.0634 L709.5,484.3816 L719.5,482.4837 L729.5,484.35 L739.5,483.05 L749.5,484.1571 L759.5,482.7853 L769.5,483.4453 " fill="none" style="stroke:#181818;stroke-width:1.0;"/><text fill="#000000" font-family="FG Virgil" font-size="13" lengthAdjust="spacing" textLength="127" x="476.5" y="478.6904">courseExams(course)</text><polygon fill="#181818" points="1054.5,507.9688,1054.526,508.0338,1056.4487,508.6405,1058.5239,509.6286,1060.5495,510.4924,1062.4117,510.948,1064.5,511.9688,1064.4904,511.9447,1062.4472,512.6368,1060.4525,513.4501,1058.4916,514.3477,1056.4144,514.9548,1054.5,515.9688,1054.6305,516.0992,1055.1514,515.0202,1056.0534,514.3221,1057.0018,513.6706,1057.6798,512.7485,1058.5,511.9688,1058.5161,511.9848,1057.6925,511.1612,1056.9421,510.4108,1056.1564,509.6251,1055.438,508.9068,1054.5,507.9688" style="stroke:#181818;stroke-width:1.0;"/><path d="M785.5,511.9688 L785.5,512.249 L795.3214,511.4163 L805.1429,512.2265 L814.9643,512.5017 L824.7857,511.0176 L834.6071,511.8651 L844.4286,511.4001 L854.25,511.4574 L864.0714,511.8779 L873.8929,511.0469 L883.7143,512.7069 L893.5357,511.1284 L903.3571,511.7051 L913.1786,512.5447 L923,511.8544 L932.8214,512.0597 L942.6429,511.9262 L952.4643,512.2068 L962.2857,512.2876 L972.1071,512.7497 L981.9286,512.8635 L991.75,512.8744 L1001.5714,512.3083 L1011.3929,512.5869 L1021.2143,512.9051 L1031.0357,511.0072 L1040.8571,512.8734 L1050.6786,511.5734 L1060.5,511.9688 " fill="none" style="stroke:#181818;stroke-width:1.0;"/><text fill="#000000" font-family="FG Virgil" font-size="13" lengthAdjust="spacing" textLength="124" x="792.5" y="507.2139">findByCourse(course)</text><polygon fill="#181818" points="796.5,536.4922,796.526,536.5572,794.4487,537.164,792.5239,538.152,790.5495,539.0159,788.4117,539.4714,786.5,540.4922,786.4904,540.4681,788.4472,541.1602,790.4525,541.9735,792.4916,542.8711,794.4144,543.4782,796.5,544.4922,796.6305,544.6227,795.5514,543.5436,794.8534,542.8456,794.2018,542.194,793.2798,541.272,792.5,540.4922,792.5161,540.5083,793.2925,539.6847,794.1421,538.9343,794.9564,538.1486,795.838,537.4302,796.5,536.4922" style="stroke:#181818;stroke-width:1.0;"/><path d="M790.5,540.4922 L790.5,540.7724 L800.5,539.9398 L810.5,540.7499 L820.5,541.0251 L830.5,539.541 L840.5,540.3886 L850.5,539.9235 L860.5,539.9809 L870.5,540.4013 L880.5,539.5704 L890.5,541.2304 L900.5,539.6518 L910.5,540.2285 L920.5,541.0681 L930.5,540.3778 L940.5,540.5832 L950.5,540.4496 L960.5,540.7302 L970.5,540.811 L980.5,541.2731 L990.5,541.3869 L1000.5,541.3979 L1010.5,540.8317 L1020.5,541.1103 L1030.5,541.4285 L1040.5,539.5306 L1050.5,541.3969 L1060.5,540.0968 L1070.5,540.4922 " fill="none" style="stroke:#181818;stroke-width:1.0;stroke-dasharray:2.0,2.0;"/><text fill="#000000" font-family="FG Virgil" font-size="13" lengthAdjust="spacing" textLength="39" x="802.5" y="535.7373">exams</text><polygon fill="#181818" points="480.5,565.0156,480.526,565.0807,478.4487,565.6874,476.5239,566.6754,474.5495,567.5393,472.4117,567.9948,470.5,569.0156,470.4904,568.9916,472.4472,569.6836,474.4525,570.4969,476.4916,571.3945,478.4144,572.0017,480.5,573.0156,480.6305,573.1461,479.5514,572.0671,478.8534,571.369,478.2018,570.7174,477.2798,569.7954,476.5,569.0156,476.5161,569.0317,477.2925,568.2081,478.1421,567.4577,478.9564,566.672,479.838,565.9537,480.5,565.0156" style="stroke:#181818;stroke-width:1.0;"/><path d="M474.5,569.0156 L474.5,569.2959 L484.3387,568.4632 L494.1774,569.2733 L504.0161,569.5485 L513.8548,568.0644 L523.6935,568.912 L533.5323,568.447 L543.371,568.5043 L553.2097,568.9247 L563.0484,568.0938 L572.8871,569.7538 L582.7258,568.1753 L592.5645,568.7519 L602.4032,569.5916 L612.2419,568.9013 L622.0806,569.1066 L631.9194,568.973 L641.7581,569.2537 L651.5968,569.3345 L661.4355,569.7965 L671.2742,569.9104 L681.1129,569.9213 L690.9516,569.3551 L700.7903,569.6337 L710.629,569.9519 L720.4677,568.054 L730.3065,569.9203 L740.1452,568.6203 L749.9839,569.7274 L759.8226,568.3556 L769.6613,568.9243 L779.5,569.0156 " fill="none" style="stroke:#181818;stroke-width:1.0;stroke-dasharray:2.0,2.0;"/><text fill="#000000" font-family="FG Virgil" font-size="13" lengthAdjust="spacing" textLength="39" x="486.5" y="564.2607">exams</text><polygon fill="#181818" points="164.5,593.5391,164.526,593.6041,162.4487,594.2108,160.5239,595.1989,158.5495,596.0628,156.4117,596.5183,154.5,597.5391,154.4904,597.515,156.4472,598.2071,158.4525,599.0204,160.4916,599.918,162.4144,600.5251,164.5,601.5391,164.6305,601.6696,163.5514,600.5905,162.8534,599.8924,162.2018,599.2409,161.2798,598.3188,160.5,597.5391,160.5161,597.5551,161.2925,596.7315,162.1421,595.9811,162.9564,595.1954,163.838,594.4771,164.5,593.5391" style="stroke:#181818;stroke-width:1.0;"/><path d="M158.5,597.5391 L158.5,597.8193 L168.3387,596.9866 L178.1774,597.7968 L188.0161,598.072 L197.8548,596.5879 L207.6935,597.4354 L217.5323,596.9704 L227.371,597.0277 L237.2097,597.4482 L247.0484,596.6172 L256.8871,598.2773 L266.7258,596.6987 L276.5645,597.2754 L286.4032,598.115 L296.2419,597.4247 L306.0806,597.63 L315.9194,597.4965 L325.7581,597.7771 L335.5968,597.8579 L345.4355,598.32 L355.2742,598.4338 L365.1129,598.4447 L374.9516,597.8786 L384.7903,598.1572 L394.629,598.4754 L404.4677,596.5775 L414.3065,598.4437 L424.1452,597.1437 L433.9839,598.2508 L443.8226,596.879 L453.6613,597.4477 L463.5,597.5391 " fill="none" style="stroke:#181818;stroke-width:1.0;stroke-dasharray:2.0,2.0;"/><text fill="#000000" font-family="FG Virgil" font-size="13" lengthAdjust="spacing" textLength="39" x="170.5" y="592.7842">exams</text><polygon fill="#181818" points="45.5,622.0625,45.526,622.1275,43.4487,622.7343,41.5239,623.7223,39.5495,624.5862,37.4117,625.0417,35.5,626.0625,35.4904,626.0384,37.4472,626.7305,39.4525,627.5438,41.4916,628.4414,43.4144,629.0485,45.5,630.0625,45.6305,630.193,44.5514,629.1139,43.8534,628.4159,43.2018,627.7643,42.2798,626.8423,41.5,626.0625,41.5161,626.0786,42.2925,625.255,43.1421,624.5046,43.9564,623.7189,44.838,623.0005,45.5,622.0625" style="stroke:#181818;stroke-width:1.0;"/><path d="M39.5,626.0625 L39.5,626.3427 L49.3182,625.5101 L59.1364,626.3202 L68.9545,626.5954 L78.7727,625.1113 L88.5909,625.9589 L98.4091,625.4938 L108.2273,625.5512 L118.0455,625.9716 L127.8636,625.1407 L137.6818,626.8007 L147.5,626.0625 " fill="none" style="stroke:#181818;stroke-width:1.0;stroke-dasharray:2.0,2.0;"/><text fill="#000000" font-family="FG Virgil" font-size="13" lengthAdjust="spacing" textLength="67" x="51.5" y="621.3076">lists exams</text><!--MD5=[fafbbba6e5139855d257744c35602dad]
@startuml
'http://plantuml.com/skinparam.html
skinparam handwritten true
skinparam monochrome true
skinparam packageStyle rect
skinparam defaultFontName FG Virgil
skinparam shadowing false

actor Teacher as Actor
participant ListCourseExamsUI as UI
participant ListCourseExamsController as Controller
participant ListCourseExamsService as Service
participant CourseRepository as CourseRepo
participant ExamRepository as Repo

-> UI: Show course exams
activate UI
    UI -> Controller: create(authz, examRepository, courseRepository)
    activate Controller
        Controller -> Service : create(authz, examRepository, courseRepository)
        activate Service
        deactivate Service
    deactivate Controller
    UI -> Controller : listCourses()
    activate Controller
        Controller -> Service : courses()
        activate Service
            Service -> CourseRepo : findAll()
            activate CourseRepo
            CourseRepo - -> Service : courses
            deactivate CourseRepo
            Service - -> Controller : courses
        deactivate Service
        Controller - -> UI : courses
    deactivate Controller

    UI - -> Actor : show courses

    Actor -> UI : selects course

    UI -> Controller : listCourseExams(course)
    activate Controller
        Controller -> Service : courseExams(course)
        activate Service
            Service -> Repo : findByCourse(course)
            activate Repo
                Repo - -> Service : exams
            deactivate Repo
            Service - -> Controller : exams
        deactivate Service
        Controller - -> UI : exams
    deactivate Controller

    UI- ->Actor: lists exams
deactivate UI
@enduml

@startuml
skinparam handwritten true
skinparam monochrome true
skinparam packageStyle rect
skinparam defaultFontName FG Virgil
skinparam shadowing false

actor Teacher as Actor
participant ListCourseExamsUI as UI
participant ListCourseExamsController as Controller
participant ListCourseExamsService as Service
participant CourseRepository as CourseRepo
participant ExamRepository as Repo

-> UI: Show course exams
activate UI
    UI -> Controller: create(authz, examRepository, courseRepository)
    activate Controller
        Controller -> Service : create(authz, examRepository, courseRepository)
        activate Service
        deactivate Service
    deactivate Controller
    UI -> Controller : listCourses()
    activate Controller
        Controller -> Service : courses()
        activate Service
            Service -> CourseRepo : findAll()
            activate CourseRepo
            CourseRepo - -> Service : courses
            deactivate CourseRepo
            Service - -> Controller : courses
        deactivate Service
        Controller - -> UI : courses
    deactivate Controller

    UI - -> Actor : show courses

    Actor -> UI : selects course

    UI -> Controller : listCourseExams(course)
    activate Controller
        Controller -> Service : courseExams(course)
        activate Service
            Service -> Repo : findByCourse(course)
            activate Repo
                Repo - -> Service : exams
            deactivate Repo
            Service - -> Controller : exams
        deactivate Service
        Controller - -> UI : exams
    deactivate Controller

    UI- ->Actor: lists exams
deactivate UI
@enduml

PlantUML version 1.2022.7(Mon Aug 22 18:01:30 WEST 2022)
(GPL source distribution)
Java Runtime: OpenJDK Runtime Environment
JVM: OpenJDK 64-Bit Server VM
Default Encoding: Cp1252
Language: pt
Country: PT
--></g></svg>