<?xml version="1.0" encoding="UTF-8" standalone="no"?><svg xmlns="http://www.w3.org/2000/svg" xmlns:xlink="http://www.w3.org/1999/xlink" contentStyleType="text/css" height="803px" preserveAspectRatio="none" style="width:1493px;height:803px;background:#FFFFFF;" version="1.1" viewBox="0 0 1493 803" width="1493px" zoomAndPan="magnify"><defs/><g><polygon fill="#FFFFFF" points="209,111.1641,209,111.2341,211,111.026,213,111.2285,215,111.2973,217,110.9263,219,111.1641,218.9223,111.1641,218.5735,121.1107,218.6165,131.0573,218.9318,141.004,218.3086,150.9506,219.5536,160.8972,218.3697,170.8439,218.8022,180.7905,219.4319,190.7372,218.9142,200.6838,219.0682,210.6304,218.9681,220.5771,219.1785,230.5237,219.2391,240.4703,219.5857,250.417,219.6711,260.3636,219.6793,270.3102,219.2546,280.2569,219.4636,290.2035,219.7022,300.1502,218.2788,310.0968,219.6785,320.0434,218.7035,329.9901,219.5338,339.9367,218.505,349.8833,218.9315,359.83,219.7416,369.7766,218.9513,379.7233,219.1053,389.6699,219.3386,399.6165,219.4162,409.5632,218.9961,419.5098,219.2872,429.4564,218.4276,439.4031,219.2844,449.3497,219.5482,459.2963,219.4445,469.243,219.613,479.1896,218.5169,489.1363,218.3478,499.0829,218.3786,509.0295,218.9411,518.9762,218.8035,528.9228,219.6814,538.8694,218.8253,548.8161,218.6569,558.7627,219.2283,568.7093,218.3332,578.656,218.4809,588.6026,219.649,598.5493,219.4357,608.4959,219.7345,618.4425,218.6782,628.3892,219.3192,638.3358,219.5904,648.2824,218.5276,658.2291,218.9041,668.1757,219.126,678.1224,219.6518,688.069,219,698.0156,219,698.0142,217,698.1698,215,697.831,213,697.7899,211,698.1835,209,698.0156,208.2831,698.0156,209.509,688.069,209.2066,678.1224,208.7321,668.1757,208.6462,658.2291,209.4588,648.2824,208.7007,638.3358,209.5919,628.3892,208.4473,618.4425,209.6174,608.4959,209.4843,598.5493,209.245,588.6026,209.0472,578.656,209.7266,568.7093,209.6136,558.7627,209.1693,548.8161,209.2682,538.8694,208.8697,528.9228,209.7165,518.9762,209.1549,509.0295,209.1726,499.0829,208.3916,489.1363,208.5948,479.1896,209.5307,469.243,209.4298,459.2963,208.9571,449.3497,208.6778,439.4031,208.7811,429.4564,208.3138,419.5098,209.4147,409.5632,209.7396,399.6165,209.5264,389.6699,209.6949,379.7233,208.8633,369.7766,209.0872,359.83,208.6124,349.8833,209.284,339.9367,209.2468,329.9901,209.5524,320.0434,208.7703,310.0968,208.8656,300.1502,209.4435,290.2035,209.5673,280.2569,208.4875,270.3102,208.8061,260.3636,209.1493,250.417,208.3892,240.4703,209.3534,230.5237,209.258,220.5771,208.8992,210.6304,209.1422,200.6838,209.7287,190.7372,208.6871,180.7905,209.315,170.8439,209.2856,160.8972,209.1158,150.9506,209.1409,141.004,209.1135,131.0573,208.3758,121.1107,209,111.1641" style="stroke:#181818;stroke-width:1.0;"/><polygon fill="#FFFFFF" points="402,139.6875,402,139.7576,404,139.5494,406,139.7519,408,139.8207,410,139.4497,412,139.6875,411.9741,139.6875,411.8578,145.6875,411.8722,151.6875,411.9773,157.6875,411.7695,163.6875,412,169.6875,412,169.872,410,169.4774,408,169.6216,406,169.8315,404,169.6589,402,169.6875,402.0227,169.6875,401.9894,163.6875,402.0595,157.6875,402.0797,151.6875,402.1952,145.6875,402,139.6875" style="stroke:#181818;stroke-width:1.0;"/><polygon fill="#FFFFFF" points="534,198.2109,534,198.281,536,198.0728,538,198.2754,540,198.3442,542,197.9731,544,198.2109,543.9741,198.2109,543.8578,204.2109,543.8722,210.2109,543.9773,216.2109,543.7695,222.2109,544,228.2109,544,228.3955,542,228.0008,540,228.145,538,228.3549,536,228.1823,534,228.2109,534.0227,228.2109,533.9894,222.2109,534.0595,216.2109,534.0797,210.2109,534.1952,204.2109,534,198.2109" style="stroke:#181818;stroke-width:1.0;"/><polygon fill="#FFFFFF" points="662,256.7344,662,256.8044,664,256.5963,666,256.7988,668,256.8676,670,256.4966,672,256.7344,671.9741,256.7344,671.8578,262.7344,671.8722,268.7344,671.9773,274.7344,671.7695,280.7344,672,286.7344,672,286.9189,670,286.5243,668,286.6685,666,286.8784,664,286.7058,662,286.7344,662.0227,286.7344,661.9894,280.7344,662.0595,274.7344,662.0797,268.7344,662.1952,262.7344,662,256.7344" style="stroke:#181818;stroke-width:1.0;"/><polygon fill="#FFFFFF" points="820.5,315.2578,820.5,315.3279,822.5,315.1197,824.5,315.3222,826.5,315.391,828.5,315.02,830.5,315.2578,830.4741,315.2578,830.3578,321.2578,830.3722,327.2578,830.4773,333.2578,830.2695,339.2578,830.5,345.2578,830.5,345.4424,828.5,345.0477,826.5,345.1919,824.5,345.4018,822.5,345.2292,820.5,345.2578,820.5227,345.2578,820.4894,339.2578,820.5595,333.2578,820.5797,327.2578,820.6952,321.2578,820.5,315.2578" style="stroke:#181818;stroke-width:1.0;"/><polygon fill="#FFFFFF" points="820.5,397.3047,820.5,397.3747,822.5,397.1666,824.5,397.3691,826.5,397.4379,828.5,397.0669,830.5,397.3047,830.4223,397.3047,830.0735,407.2094,830.1165,417.1141,830.4318,427.0188,829.8086,436.9234,831.0536,446.8281,829.8697,456.7328,830.3022,466.6375,830.9319,476.5422,830.4142,486.4469,830.5,496.3516,830.5,496.3743,828.5,496.3409,826.5,496.4111,824.5,496.4313,822.5,496.5468,820.5,496.3516,821.1711,496.3516,821.1793,486.4469,820.7546,476.5422,820.9636,466.6375,821.2022,456.7328,819.7788,446.8281,821.1785,436.9234,820.2035,427.0188,821.0338,417.1141,820.005,407.2094,820.5,397.3047" style="stroke:#181818;stroke-width:1.0;"/><polygon fill="#FFFFFF" points="820.5,610.9688,820.5,611.0388,822.5,610.8306,824.5,611.0332,826.5,611.102,828.5,610.731,830.5,610.9688,830.4223,610.9688,830.0735,620.6406,830.1165,630.3125,830.4318,639.9844,829.8086,649.6563,831.0536,659.3281,829.8697,669,830.3022,678.6719,830.9319,688.3438,830.5,698.0156,830.5,697.987,828.5,698.0384,826.5,698.005,824.5,698.0751,822.5,698.0953,820.5,698.0156,821.0857,698.0156,821.1711,688.3438,821.1793,678.6719,820.7546,669,820.9636,659.3281,821.2022,649.6563,819.7788,639.9844,821.1785,630.3125,820.2035,620.6406,820.5,610.9688" style="stroke:#181818;stroke-width:1.0;"/><polygon fill="#FFFFFF" points="1027,425.8281,1027,425.8982,1029,425.69,1031,425.8926,1033,425.9614,1035,425.5903,1037,425.8281,1036.9223,425.8281,1036.5735,435.2487,1036.6165,444.6693,1036.9318,454.0898,1036.3086,463.5104,1037.5536,472.931,1037,482.3516,1037,482.1415,1035,482.2856,1033,482.4955,1031,482.323,1029,482.3743,1027,482.3516,1026.9681,482.3516,1027.1785,472.931,1027.2391,463.5104,1027.5857,454.0898,1027.6711,444.6693,1027.6793,435.2487,1027,425.8281" style="stroke:#181818;stroke-width:1.0;"/><polygon fill="#FFFFFF" points="1027,639.4922,1027,639.5622,1029,639.3541,1031,639.5566,1033,639.6254,1035,639.2544,1037,639.4922,1036.9223,639.4922,1036.5735,649.2461,1036.6165,659,1036.9318,668.7539,1036.3086,678.5078,1037.5536,688.2617,1037,698.0156,1037,697.8055,1035,697.9497,1033,698.1596,1031,697.987,1029,698.0384,1027,698.0156,1026.9681,698.0156,1027.1785,688.2617,1027.2391,678.5078,1027.5857,668.7539,1027.6711,659,1027.6793,649.2461,1027,639.4922" style="stroke:#181818;stroke-width:1.0;"/><polygon fill="#FFFFFF" points="1301,454.3516,1301,454.4216,1303,454.2135,1305,454.416,1307,454.4848,1309,454.1138,1311,454.3516,1310.9741,454.3516,1310.8578,457.1516,1310.8722,459.9516,1310.9773,462.7516,1310.7695,465.5516,1311,468.3516,1311,468.5361,1309,468.1415,1307,468.2856,1305,468.4955,1303,468.323,1301,468.3516,1301.0227,468.3516,1300.9894,465.5516,1301.0595,462.7516,1301.0797,459.9516,1301.1952,457.1516,1301,454.3516" style="stroke:#181818;stroke-width:1.0;"/><polygon fill="#FFFFFF" points="1420.5,668.0156,1420.5,668.0857,1422.5,667.8775,1424.5,668.0801,1426.5,668.1489,1428.5,667.7778,1430.5,668.0156,1430.4741,668.0156,1430.3578,674.0156,1430.3722,680.0156,1430.4773,686.0156,1430.2695,692.0156,1430.5,698.0156,1430.5,698.2002,1428.5,697.8055,1426.5,697.9497,1424.5,698.1596,1422.5,697.987,1420.5,698.0156,1420.5227,698.0156,1420.4894,692.0156,1420.5595,686.0156,1420.5797,680.0156,1420.6952,674.0156,1420.5,668.0156" style="stroke:#181818;stroke-width:1.0;"/><polygon fill="none" points="10,360.2578,10,360.468,19.9831,359.8435,29.9662,360.4511,39.9493,360.6575,49.9324,359.5444,59.9155,360.1801,69.8986,359.8313,79.8818,359.8743,89.8649,360.1897,99.848,359.5664,109.8311,360.8115,119.8142,359.6275,129.7973,360.06,139.7804,360.6898,149.7635,360.172,159.7466,360.3261,169.7297,360.2259,179.7128,360.4363,189.6959,360.4969,199.6791,360.8435,209.6622,360.9289,219.6453,360.9371,229.6284,360.5124,239.6115,360.7214,249.5946,360.96,259.5777,359.5366,269.5608,360.9363,279.5439,359.9613,289.527,360.7916,299.5101,359.7628,309.4932,360.1893,319.4764,360.9994,329.4595,360.2091,339.4426,360.3631,349.4257,360.5964,359.4088,360.674,369.3919,360.2539,379.375,360.545,389.3581,359.6854,399.3412,360.5422,409.3243,360.806,419.3074,360.7023,429.2905,360.8708,439.2736,359.7747,449.2568,359.6056,459.2399,359.6364,469.223,360.1989,479.2061,360.0613,489.1892,360.9392,499.1723,360.0831,509.1554,359.9148,519.1385,360.4861,529.1216,359.591,539.1047,359.7387,549.0878,360.9068,559.0709,360.6935,569.0541,360.9923,579.0372,359.936,589.0203,360.577,599.0034,360.8482,608.9865,359.7854,618.9696,360.162,628.9527,360.3838,638.9358,360.9096,648.9189,360.2536,658.902,360.7204,668.8851,359.704,678.8682,359.5806,688.8514,360.7614,698.8345,359.5409,708.8176,360.7668,718.8007,360.4644,728.7838,359.9899,738.7669,359.904,748.75,360.7166,758.7331,359.9585,768.7162,360.8497,778.6993,359.7051,788.6824,360.8752,798.6655,360.7421,808.6486,360.5028,818.6318,360.305,828.6149,360.9844,838.598,360.8714,848.5811,360.4271,858.5642,360.526,868.5473,360.1275,878.5304,360.9743,888.5135,360.4127,898.4966,360.4304,908.4797,359.6495,918.4628,359.8526,928.4459,360.7886,938.4291,360.6876,948.4122,360.2149,958.3953,359.9356,968.3784,360.0389,978.3615,359.5716,988.3446,360.6725,998.3277,360.9974,1008.3108,360.7842,1018.2939,360.9527,1028.277,360.1211,1038.2601,360.345,1048.2432,359.8702,1058.2264,360.5419,1068.2095,360.5046,1078.1926,360.8102,1088.1757,360.0282,1098.1588,360.1234,1108.1419,360.7013,1118.125,360.8251,1128.1081,359.7453,1138.0912,360.0639,1148.0743,360.4071,1158.0574,359.647,1168.0405,360.6112,1178.0236,360.5158,1188.0068,360.1571,1197.9899,360.4001,1207.973,360.9865,1217.9561,359.9449,1227.9392,360.5728,1237.9223,360.5435,1247.9054,360.3736,1257.8885,360.3987,1267.8716,360.3713,1277.8547,359.6337,1287.8378,359.857,1297.8209,359.7963,1307.8041,360.3216,1317.7872,360.3459,1327.7703,360.4196,1337.7534,359.9668,1347.7365,360.1903,1357.7196,360.1376,1367.7027,360.8347,1377.6858,360.6844,1387.6689,359.7723,1397.652,360.1849,1407.6351,359.6806,1417.6182,360.5462,1427.6014,360.8663,1437.5845,360.8024,1447.5676,359.8223,1457.5507,360.7218,1467.5338,359.515,1477.5169,360.458,1487.5,360.2578,1487.2007,360.2578,1487.5967,370.1366,1487.7403,380.0154,1487.9721,389.8942,1486.7801,399.773,1487.9755,409.6518,1487.6782,419.5306,1487.8553,429.4094,1488.2478,439.2882,1487.5055,449.167,1487.6753,459.0458,1487.7134,468.9246,1487.6972,478.8033,1487.4992,488.6821,1488.2107,498.5609,1486.8903,508.4397,1488.0653,518.3185,1486.876,528.1973,1486.9597,538.0761,1487.54,547.9549,1487.5283,557.8337,1487.0072,567.7125,1487.9137,577.5913,1487.6089,587.4701,1488.2267,597.3489,1488.1671,607.2277,1487.0517,617.1065,1487.1021,626.9853,1487.3708,636.8641,1487.8555,646.7429,1487.903,656.6217,1487.8012,666.5004,1487.158,676.3792,1488.1364,686.258,1488.1338,696.1368,1487.5,706.0156,1487.5,705.9683,1477.5169,705.7766,1467.5338,705.6142,1457.5507,705.801,1447.5676,706.153,1437.5845,705.9472,1427.6014,705.5978,1417.6182,706.503,1407.6351,705.5567,1397.652,706.518,1387.6689,706.4429,1377.6858,706.3875,1367.7027,706.7081,1357.7196,705.7697,1347.7365,705.715,1337.7534,706.5345,1327.7703,705.4187,1317.7872,705.7816,1307.8041,706.1311,1297.8209,706.0843,1287.8378,705.6572,1277.8547,705.9726,1267.8716,706.7602,1257.8885,706.6641,1247.9054,705.4193,1237.9223,706.0941,1227.9392,705.5017,1217.9561,705.9893,1207.973,706.3086,1197.9899,706.4355,1188.0068,705.3509,1178.0236,706.4162,1168.0405,706.024,1158.0574,705.4603,1148.0743,705.5446,1138.0912,706.3422,1128.1081,706.2655,1118.125,705.9992,1108.1419,705.3435,1098.1588,706.6738,1088.1757,705.7038,1078.1926,705.4876,1068.2095,705.9483,1058.2264,706.6053,1048.2432,706.631,1038.2601,706.0508,1028.277,705.8645,1018.2939,706.1854,1008.3108,706.2018,998.3277,705.5078,988.3446,706.4296,978.3615,706.5744,968.3784,705.7999,958.3953,705.5864,948.4122,706.6903,938.4291,706.0366,928.4459,706.0155,918.4628,706.3147,908.4797,705.3699,898.4966,706.5456,888.5135,706.0002,878.5304,706.6844,868.5473,705.7998,858.5642,706.4246,848.5811,705.5716,838.598,706.2606,828.6149,706.3949,818.6318,705.6883,808.6486,706.3786,798.6655,705.4442,788.6824,705.5451,778.6993,706.6985,768.7162,706.7,758.7331,706.5841,748.75,705.6553,738.7669,706.3999,728.7838,705.5436,718.8007,706.0738,708.8176,706.0144,698.8345,705.7532,688.8514,706.6315,678.8682,706.4589,668.8851,705.6949,658.902,706.5423,648.9189,706.1075,638.9358,705.432,628.9527,705.7823,618.9696,705.4904,608.9865,705.8765,599.0034,705.3867,589.0203,705.4155,579.0372,706.0859,569.0541,705.8952,559.0709,705.9571,549.0878,705.8724,539.1047,706.1829,529.1216,705.4605,519.1385,706.1757,509.1554,705.2725,499.1723,706.3116,489.1892,706.6084,479.2061,706.5377,469.223,706.3769,459.2399,706.2078,449.2568,706.1213,439.2736,705.3756,429.2905,706.4622,419.3074,706.3453,409.3243,705.8623,399.3412,706.0098,389.3581,705.807,379.375,706.2333,369.3919,706.6962,359.4088,705.6617,349.4257,706.4845,339.4426,705.9264,329.4595,705.6364,319.4764,705.5837,309.4932,705.3709,299.5101,705.5748,289.527,706.0519,279.5439,706.2886,269.5608,706.5918,259.5777,706.4357,249.5946,705.3043,239.6115,706.6347,229.6284,706.5018,219.6453,706.5563,209.6622,706.5375,199.6791,705.3565,189.6959,705.7579,179.7128,706.3316,169.7297,705.5341,159.7466,705.9128,149.7635,706.0826,139.7804,706.3417,129.7973,706.0614,119.8142,706.7604,109.8311,706.427,99.848,706.2717,89.8649,705.4757,79.8818,706.3544,69.8986,705.4411,59.9155,706.3213,49.9324,706.0234,39.9493,706.3151,29.9662,705.9282,19.9831,705.8195,10,706.0156,9.2591,706.0156,9.7856,696.1368,9.2951,686.258,9.7539,676.3792,10.4379,666.5004,10.1607,656.6217,9.5485,646.7429,10.2458,636.8641,10.0656,626.9853,10.5433,617.1065,10.5649,607.2277,10.0937,597.3489,9.821,587.4701,9.7855,577.5913,9.9936,567.7125,10.6691,557.8337,9.3263,547.9549,9.8361,538.0761,10.2668,528.1973,10.7317,518.3185,10.2119,508.4397,9.8018,498.5609,9.2621,488.6821,9.5762,478.8033,9.7781,468.9246,10.3398,459.0458,10.3695,449.167,10.0518,439.2882,9.867,429.4094,9.2804,419.5306,10.129,409.6518,10.4354,399.773,10.6829,389.8942,10.0983,380.0154,10.0799,370.1366,10,360.2578" style="stroke:#000000;stroke-width:1.5;"/><path d="M60,80.6406 L60.2802,80.6406 L59.4476,90.6777 L60.2577,100.7148 L60.5329,110.752 L59.0488,120.7891 L59.8964,130.8262 L59.4313,140.8633 L59.4887,150.9004 L59.9091,160.9375 L59.0782,170.9746 L60.7382,181.0117 L59.1596,191.0488 L59.7363,201.0859 L60.5759,211.123 L59.8856,221.1602 L60.091,231.1973 L59.9574,241.2344 L60.238,251.2715 L60.3188,261.3086 L60.7809,271.3457 L60.8947,281.3828 L60.9057,291.4199 L60.3395,301.457 L60.6181,311.4941 L60.9363,321.5313 L59.0384,331.5684 L60.9047,341.6055 L59.6047,351.6426 L60.7117,361.6797 L59.34,371.7168 L59.9087,381.7539 L60.9888,391.791 L59.935,401.8281 L60.1404,411.8652 L60.4515,421.9023 L60.555,431.9395 L59.9948,441.9766 L60.383,452.0137 L59.2368,462.0508 L60.3792,472.0879 L60.7309,482.125 L60.5927,492.1621 L60.8174,502.1992 L59.3559,512.2363 L59.1304,522.2734 L59.1715,532.3105 L59.9215,542.3477 L59.738,552.3848 L60.9085,562.4219 L59.7671,572.459 L59.5426,582.4961 L60.3044,592.5332 L59.1109,602.5703 L59.3078,612.6074 L60.8653,622.6445 L60.5809,632.6816 L60.9793,642.7188 L59.5709,652.7559 L60.4256,662.793 L60.7872,672.8301 L59.3701,682.8672 L59.8722,692.9043 L60.168,702.9414 L60.869,712.9785 L60,723.0156 " fill="none" style="stroke:#181818;stroke-width:0.5;stroke-dasharray:5.0,5.0;"/><path d="M214,80.6406 L214.2802,80.6406 L213.4476,90.6777 L214.2577,100.7148 L214.5329,110.752 L213.0488,120.7891 L213.8964,130.8262 L213.4313,140.8633 L213.4887,150.9004 L213.9091,160.9375 L213.0782,170.9746 L214.7382,181.0117 L213.1596,191.0488 L213.7363,201.0859 L214.5759,211.123 L213.8856,221.1602 L214.091,231.1973 L213.9574,241.2344 L214.238,251.2715 L214.3188,261.3086 L214.7809,271.3457 L214.8947,281.3828 L214.9057,291.4199 L214.3395,301.457 L214.6181,311.4941 L214.9363,321.5313 L213.0384,331.5684 L214.9047,341.6055 L213.6047,351.6426 L214.7117,361.6797 L213.34,371.7168 L213.9087,381.7539 L214.9888,391.791 L213.935,401.8281 L214.1404,411.8652 L214.4515,421.9023 L214.555,431.9395 L213.9948,441.9766 L214.383,452.0137 L213.2368,462.0508 L214.3792,472.0879 L214.7309,482.125 L214.5927,492.1621 L214.8174,502.1992 L213.3559,512.2363 L213.1304,522.2734 L213.1715,532.3105 L213.9215,542.3477 L213.738,552.3848 L214.9085,562.4219 L213.7671,572.459 L213.5426,582.4961 L214.3044,592.5332 L213.1109,602.5703 L213.3078,612.6074 L214.8653,622.6445 L214.5809,632.6816 L214.9793,642.7188 L213.5709,652.7559 L214.4256,662.793 L214.7872,672.8301 L213.3701,682.8672 L213.8722,692.9043 L214.168,702.9414 L214.869,712.9785 L214,723.0156 " fill="none" style="stroke:#181818;stroke-width:0.5;stroke-dasharray:5.0,5.0;"/><path d="M406.5,80.6406 L406.7802,80.6406 L405.9476,90.6777 L406.7577,100.7148 L407.0329,110.752 L405.5488,120.7891 L406.3964,130.8262 L405.9313,140.8633 L405.9887,150.9004 L406.4091,160.9375 L405.5782,170.9746 L407.2382,181.0117 L405.6596,191.0488 L406.2363,201.0859 L407.0759,211.123 L406.3856,221.1602 L406.591,231.1973 L406.4574,241.2344 L406.738,251.2715 L406.8188,261.3086 L407.2809,271.3457 L407.3947,281.3828 L407.4057,291.4199 L406.8395,301.457 L407.1181,311.4941 L407.4363,321.5313 L405.5384,331.5684 L407.4047,341.6055 L406.1047,351.6426 L407.2117,361.6797 L405.84,371.7168 L406.4087,381.7539 L407.4888,391.791 L406.435,401.8281 L406.6404,411.8652 L406.9515,421.9023 L407.055,431.9395 L406.4948,441.9766 L406.883,452.0137 L405.7368,462.0508 L406.8792,472.0879 L407.2309,482.125 L407.0927,492.1621 L407.3174,502.1992 L405.8559,512.2363 L405.6304,522.2734 L405.6715,532.3105 L406.4215,542.3477 L406.238,552.3848 L407.4085,562.4219 L406.2671,572.459 L406.0426,582.4961 L406.8044,592.5332 L405.6109,602.5703 L405.8078,612.6074 L407.3653,622.6445 L407.0809,632.6816 L407.4793,642.7188 L406.0709,652.7559 L406.9256,662.793 L407.2872,672.8301 L405.8701,682.8672 L406.3722,692.9043 L406.668,702.9414 L407.369,712.9785 L406.5,723.0156 " fill="none" style="stroke:#181818;stroke-width:0.5;stroke-dasharray:5.0,5.0;"/><path d="M538.5,80.6406 L538.7802,80.6406 L537.9476,90.6777 L538.7577,100.7148 L539.0329,110.752 L537.5488,120.7891 L538.3964,130.8262 L537.9313,140.8633 L537.9887,150.9004 L538.4091,160.9375 L537.5782,170.9746 L539.2382,181.0117 L537.6596,191.0488 L538.2363,201.0859 L539.0759,211.123 L538.3856,221.1602 L538.591,231.1973 L538.4574,241.2344 L538.738,251.2715 L538.8188,261.3086 L539.2809,271.3457 L539.3947,281.3828 L539.4057,291.4199 L538.8395,301.457 L539.1181,311.4941 L539.4363,321.5313 L537.5384,331.5684 L539.4047,341.6055 L538.1047,351.6426 L539.2117,361.6797 L537.84,371.7168 L538.4087,381.7539 L539.4888,391.791 L538.435,401.8281 L538.6404,411.8652 L538.9515,421.9023 L539.055,431.9395 L538.4948,441.9766 L538.883,452.0137 L537.7368,462.0508 L538.8792,472.0879 L539.2309,482.125 L539.0927,492.1621 L539.3174,502.1992 L537.8559,512.2363 L537.6304,522.2734 L537.6715,532.3105 L538.4215,542.3477 L538.238,552.3848 L539.4085,562.4219 L538.2671,572.459 L538.0426,582.4961 L538.8044,592.5332 L537.6109,602.5703 L537.8078,612.6074 L539.3653,622.6445 L539.0809,632.6816 L539.4793,642.7188 L538.0709,652.7559 L538.9256,662.793 L539.2872,672.8301 L537.8701,682.8672 L538.3722,692.9043 L538.668,702.9414 L539.369,712.9785 L538.5,723.0156 " fill="none" style="stroke:#181818;stroke-width:0.5;stroke-dasharray:5.0,5.0;"/><path d="M666.5,80.6406 L666.7802,80.6406 L665.9476,90.6777 L666.7577,100.7148 L667.0329,110.752 L665.5488,120.7891 L666.3964,130.8262 L665.9313,140.8633 L665.9887,150.9004 L666.4091,160.9375 L665.5782,170.9746 L667.2382,181.0117 L665.6596,191.0488 L666.2363,201.0859 L667.0759,211.123 L666.3856,221.1602 L666.591,231.1973 L666.4574,241.2344 L666.738,251.2715 L666.8188,261.3086 L667.2809,271.3457 L667.3947,281.3828 L667.4057,291.4199 L666.8395,301.457 L667.1181,311.4941 L667.4363,321.5313 L665.5384,331.5684 L667.4047,341.6055 L666.1047,351.6426 L667.2117,361.6797 L665.84,371.7168 L666.4087,381.7539 L667.4888,391.791 L666.435,401.8281 L666.6404,411.8652 L666.9515,421.9023 L667.055,431.9395 L666.4948,441.9766 L666.883,452.0137 L665.7368,462.0508 L666.8792,472.0879 L667.2309,482.125 L667.0927,492.1621 L667.3174,502.1992 L665.8559,512.2363 L665.6304,522.2734 L665.6715,532.3105 L666.4215,542.3477 L666.238,552.3848 L667.4085,562.4219 L666.2671,572.459 L666.0426,582.4961 L666.8044,592.5332 L665.6109,602.5703 L665.8078,612.6074 L667.3653,622.6445 L667.0809,632.6816 L667.4793,642.7188 L666.0709,652.7559 L666.9256,662.793 L667.2872,672.8301 L665.8701,682.8672 L666.3722,692.9043 L666.668,702.9414 L667.369,712.9785 L666.5,723.0156 " fill="none" style="stroke:#181818;stroke-width:0.5;stroke-dasharray:5.0,5.0;"/><path d="M825.5,80.6406 L825.7802,80.6406 L824.9476,90.6777 L825.7577,100.7148 L826.0329,110.752 L824.5488,120.7891 L825.3964,130.8262 L824.9313,140.8633 L824.9887,150.9004 L825.4091,160.9375 L824.5782,170.9746 L826.2382,181.0117 L824.6596,191.0488 L825.2363,201.0859 L826.0759,211.123 L825.3856,221.1602 L825.591,231.1973 L825.4574,241.2344 L825.738,251.2715 L825.8188,261.3086 L826.2809,271.3457 L826.3947,281.3828 L826.4057,291.4199 L825.8395,301.457 L826.1181,311.4941 L826.4363,321.5313 L824.5384,331.5684 L826.4047,341.6055 L825.1047,351.6426 L826.2117,361.6797 L824.84,371.7168 L825.4087,381.7539 L826.4888,391.791 L825.435,401.8281 L825.6404,411.8652 L825.9515,421.9023 L826.055,431.9395 L825.4948,441.9766 L825.883,452.0137 L824.7368,462.0508 L825.8792,472.0879 L826.2309,482.125 L826.0927,492.1621 L826.3174,502.1992 L824.8559,512.2363 L824.6304,522.2734 L824.6715,532.3105 L825.4215,542.3477 L825.238,552.3848 L826.4085,562.4219 L825.2671,572.459 L825.0426,582.4961 L825.8044,592.5332 L824.6109,602.5703 L824.8078,612.6074 L826.3653,622.6445 L826.0809,632.6816 L826.4793,642.7188 L825.0709,652.7559 L825.9256,662.793 L826.2872,672.8301 L824.8701,682.8672 L825.3722,692.9043 L825.668,702.9414 L826.369,712.9785 L825.5,723.0156 " fill="none" style="stroke:#181818;stroke-width:0.5;stroke-dasharray:5.0,5.0;"/><path d="M1031.5,80.6406 L1031.7802,80.6406 L1030.9476,90.6777 L1031.7577,100.7148 L1032.0329,110.752 L1030.5488,120.7891 L1031.3964,130.8262 L1030.9313,140.8633 L1030.9887,150.9004 L1031.4091,160.9375 L1030.5782,170.9746 L1032.2382,181.0117 L1030.6596,191.0488 L1031.2363,201.0859 L1032.0759,211.123 L1031.3856,221.1602 L1031.591,231.1973 L1031.4574,241.2344 L1031.738,251.2715 L1031.8188,261.3086 L1032.2809,271.3457 L1032.3947,281.3828 L1032.4057,291.4199 L1031.8395,301.457 L1032.1181,311.4941 L1032.4363,321.5313 L1030.5384,331.5684 L1032.4047,341.6055 L1031.1047,351.6426 L1032.2117,361.6797 L1030.84,371.7168 L1031.4087,381.7539 L1032.4888,391.791 L1031.435,401.8281 L1031.6404,411.8652 L1031.9515,421.9023 L1032.055,431.9395 L1031.4948,441.9766 L1031.883,452.0137 L1030.7368,462.0508 L1031.8792,472.0879 L1032.2309,482.125 L1032.0927,492.1621 L1032.3174,502.1992 L1030.8559,512.2363 L1030.6304,522.2734 L1030.6715,532.3105 L1031.4215,542.3477 L1031.238,552.3848 L1032.4085,562.4219 L1031.2671,572.459 L1031.0426,582.4961 L1031.8044,592.5332 L1030.6109,602.5703 L1030.8078,612.6074 L1032.3653,622.6445 L1032.0809,632.6816 L1032.4793,642.7188 L1031.0709,652.7559 L1031.9256,662.793 L1032.2872,672.8301 L1030.8701,682.8672 L1031.3722,692.9043 L1031.668,702.9414 L1032.369,712.9785 L1031.5,723.0156 " fill="none" style="stroke:#181818;stroke-width:0.5;stroke-dasharray:5.0,5.0;"/><path d="M1305.5,80.6406 L1305.7802,80.6406 L1304.9476,90.6777 L1305.7577,100.7148 L1306.0329,110.752 L1304.5488,120.7891 L1305.3964,130.8262 L1304.9313,140.8633 L1304.9887,150.9004 L1305.4091,160.9375 L1304.5782,170.9746 L1306.2382,181.0117 L1304.6596,191.0488 L1305.2363,201.0859 L1306.0759,211.123 L1305.3856,221.1602 L1305.591,231.1973 L1305.4574,241.2344 L1305.738,251.2715 L1305.8188,261.3086 L1306.2809,271.3457 L1306.3947,281.3828 L1306.4057,291.4199 L1305.8395,301.457 L1306.1181,311.4941 L1306.4363,321.5313 L1304.5384,331.5684 L1306.4047,341.6055 L1305.1047,351.6426 L1306.2117,361.6797 L1304.84,371.7168 L1305.4087,381.7539 L1306.4888,391.791 L1305.435,401.8281 L1305.6404,411.8652 L1305.9515,421.9023 L1306.055,431.9395 L1305.4948,441.9766 L1305.883,452.0137 L1304.7368,462.0508 L1305.8792,472.0879 L1306.2309,482.125 L1306.0927,492.1621 L1306.3174,502.1992 L1304.8559,512.2363 L1304.6304,522.2734 L1304.6715,532.3105 L1305.4215,542.3477 L1305.238,552.3848 L1306.4085,562.4219 L1305.2671,572.459 L1305.0426,582.4961 L1305.8044,592.5332 L1304.6109,602.5703 L1304.8078,612.6074 L1306.3653,622.6445 L1306.0809,632.6816 L1306.4793,642.7188 L1305.0709,652.7559 L1305.9256,662.793 L1306.2872,672.8301 L1304.8701,682.8672 L1305.3722,692.9043 L1305.668,702.9414 L1306.369,712.9785 L1305.5,723.0156 " fill="none" style="stroke:#181818;stroke-width:0.5;stroke-dasharray:5.0,5.0;"/><path d="M1425.5,80.6406 L1425.7802,80.6406 L1424.9476,90.6777 L1425.7577,100.7148 L1426.0329,110.752 L1424.5488,120.7891 L1425.3964,130.8262 L1424.9313,140.8633 L1424.9887,150.9004 L1425.4091,160.9375 L1424.5782,170.9746 L1426.2382,181.0117 L1424.6596,191.0488 L1425.2363,201.0859 L1426.0759,211.123 L1425.3856,221.1602 L1425.591,231.1973 L1425.4574,241.2344 L1425.738,251.2715 L1425.8188,261.3086 L1426.2809,271.3457 L1426.3947,281.3828 L1426.4057,291.4199 L1425.8395,301.457 L1426.1181,311.4941 L1426.4363,321.5313 L1424.5384,331.5684 L1426.4047,341.6055 L1425.1047,351.6426 L1426.2117,361.6797 L1424.84,371.7168 L1425.4087,381.7539 L1426.4888,391.791 L1425.435,401.8281 L1425.6404,411.8652 L1425.9515,421.9023 L1426.055,431.9395 L1425.4948,441.9766 L1425.883,452.0137 L1424.7368,462.0508 L1425.8792,472.0879 L1426.2309,482.125 L1426.0927,492.1621 L1426.3174,502.1992 L1424.8559,512.2363 L1424.6304,522.2734 L1424.6715,532.3105 L1425.4215,542.3477 L1425.238,552.3848 L1426.4085,562.4219 L1425.2671,572.459 L1425.0426,582.4961 L1425.8044,592.5332 L1424.6109,602.5703 L1424.8078,612.6074 L1426.3653,622.6445 L1426.0809,632.6816 L1426.4793,642.7188 L1425.0709,652.7559 L1425.9256,662.793 L1426.2872,672.8301 L1424.8701,682.8672 L1425.3722,692.9043 L1425.668,702.9414 L1426.369,712.9785 L1425.5,723.0156 " fill="none" style="stroke:#181818;stroke-width:0.5;stroke-dasharray:5.0,5.0;"/><text fill="#000000" font-family="FG Virgil" font-size="14" lengthAdjust="spacing" textLength="75" x="20" y="77.6738">SystemUser</text><polygon fill="#E3E3E3" points="68.5442,15.4459,67.3715,17.0482,65.9845,19.3951,64.0008,20.9767,61.9163,21.8415,60.2542,21.9166,58.118,20.8349,56.1023,20.1283,54.5724,18.6936,53.7699,17.0511,53.2939,15.7433,52.8277,14.0351,52.0709,12.5651,52.6525,11.1298,53.162,9.5576,55.074,8.3142,56.4192,6.7008,58.0843,6.165,60.0637,5.7037,62.6021,5.9778,63.9924,6.6335,65.6089,6.9307,67.5743,8.9443,68.2595,11.0701,68.5571,12.5206,68.22,14.9108" style="stroke:#181818;stroke-width:0.5;"/><path d="M60.5,21.5 L60.6868,21.5 L60.1317,26.9 L60.6718,32.3 L60.8553,37.7 L59.8659,43.1 L60.5,48.5 M47.5,29.5 L47.5,29.4309 L52.7,29.1209 L57.9,29.1591 L63.1,29.4394 L68.3,28.8854 L73.5,29.5 M60.5,48.5 L60.8719,48.8223 L57.4766,51.1331 L55.1672,54.3849 L52.9901,57.7515 L50.0424,60.4501 L47.5,63.5 M60.5,48.5 L60.5458,48.5397 L63.0785,51.4814 L65.8199,54.6039 L68.4606,57.6392 L71.2934,60.841 L73.5,63.5 " fill="none" style="stroke:#181818;stroke-width:0.5;"/><text fill="#000000" font-family="FG Virgil" font-size="14" lengthAdjust="spacing" textLength="75" x="20" y="734.6895">SystemUser</text><polygon fill="#E3E3E3" points="68.5442,748.1022,67.3715,749.7045,65.9845,752.0513,64.0008,753.6329,61.9163,754.4978,60.2542,754.5728,58.118,753.4912,56.1023,752.7846,54.5724,751.3498,53.7699,749.7074,53.2939,748.3995,52.8277,746.6913,52.0709,745.2213,52.6525,743.7861,53.162,742.2139,55.074,740.9704,56.4192,739.357,58.0843,738.8213,60.0637,738.3599,62.6021,738.634,63.9924,739.2897,65.6089,739.5869,67.5743,741.6006,68.2595,743.7264,68.5571,745.1769,68.22,747.5671" style="stroke:#181818;stroke-width:0.5;"/><path d="M60.5,754.1563 L60.6868,754.1563 L60.1317,759.5563 L60.6718,764.9563 L60.8553,770.3563 L59.8659,775.7563 L60.5,781.1563 M47.5,762.1563 L47.5,762.0872 L52.7,761.7771 L57.9,761.8154 L63.1,762.0957 L68.3,761.5417 L73.5,762.1563 M60.5,781.1563 L60.8719,781.4786 L57.4766,783.7893 L55.1672,787.0411 L52.9901,790.4077 L50.0424,793.1063 L47.5,796.1563 M60.5,781.1563 L60.5458,781.196 L63.0785,784.1377 L65.8199,787.2602 L68.4606,790.2955 L71.2934,793.4972 L73.5,796.1563 " fill="none" style="stroke:#181818;stroke-width:0.5;"/><polygon fill="#E3E3E3" points="139.5,50,139.5,50.2102,149.4333,49.5857,159.3667,50.1933,169.3,50.3997,179.2333,49.2866,189.1667,49.9223,199.1,49.5735,209.0333,49.6165,218.9667,49.9318,228.9,49.3086,238.8333,50.5536,248.7667,49.3697,258.7,49.8022,268.6333,50.4319,278.5667,49.9142,288.5,50,288.5087,50.021,288.8495,50.1366,289.2299,50.3479,289.5912,50.513,289.9889,50.7662,290.2678,50.7322,290.4744,50.8178,290.6234,51.1724,290.6391,51.4718,290.8499,51.852,291.0698,52.236,291,52.5,290.7596,52.5,291.2262,57.4281,290.9012,62.3563,291.1779,67.2844,290.835,72.2125,291,77.1406,290.9789,77.1319,291.0819,77.5888,290.6921,77.8415,290.5931,78.2147,290.5185,78.598,290.2678,78.9084,290.3209,79.0366,289.9137,79.0536,289.5973,79.2897,289.1341,79.1715,288.8898,79.5818,288.5,79.6406,288.5,80.1888,278.5667,80.0852,268.6333,80.2536,258.7,79.1575,248.7667,78.9884,238.8333,79.0192,228.9,79.5817,218.9667,79.4441,209.0333,80.322,199.1,79.4659,189.1667,79.2976,179.2333,79.8689,169.3,78.9738,159.3667,79.1215,149.4333,80.2896,139.5,79.6406,139.5556,79.7748,139.2401,79.7204,138.7518,79.2486,138.4801,79.2996,138.1611,79.2367,137.7322,78.9084,137.5868,78.8481,137.5563,78.5426,137.4781,78.2174,137.4936,77.9309,137.1452,77.4936,137,77.1406,137.1542,77.1406,136.8154,72.2125,136.7742,67.2844,137.1679,62.3563,136.761,57.4281,137,52.5,137.1567,52.5649,137.2101,52.1728,137.2104,51.7587,137.3304,51.3942,137.7271,51.1443,137.7322,50.7322,137.694,50.6401,138.1613,50.7681,138.3688,50.2691,138.8717,50.483,139.2082,50.2956,139.5,50" style="stroke:#181818;stroke-width:0.5;"/><text fill="#000000" font-family="FG Virgil" font-size="14" lengthAdjust="spacing" textLength="140" x="144" y="69.6738">AcceptRefuseInvitesUI</text><polygon fill="#E3E3E3" points="139.5,722.0156,139.5,722.2258,149.4333,721.6013,159.3667,722.2089,169.3,722.4153,179.2333,721.3022,189.1667,721.9379,199.1,721.5891,209.0333,721.6321,218.9667,721.9475,228.9,721.3243,238.8333,722.5693,248.7667,721.3853,258.7,721.8179,268.6333,722.4476,278.5667,721.9298,288.5,722.0156,288.5087,722.0366,288.8495,722.1522,289.2299,722.3635,289.5912,722.5286,289.9889,722.7818,290.2678,722.7479,290.4744,722.8335,290.6234,723.1881,290.6391,723.4874,290.8499,723.8677,291.0698,724.2516,291,724.5156,290.7596,724.5156,291.2262,729.4438,290.9012,734.3719,291.1779,739.3,290.835,744.2281,291,749.1563,290.9789,749.1475,291.0819,749.6044,290.6921,749.8571,290.5931,750.2303,290.5185,750.6137,290.2678,750.924,290.3209,751.0522,289.9137,751.0693,289.5973,751.3054,289.1341,751.1871,288.8898,751.5974,288.5,751.6563,288.5,752.2044,278.5667,752.1008,268.6333,752.2693,258.7,751.1732,248.7667,751.0041,238.8333,751.0348,228.9,751.5974,218.9667,751.4597,209.0333,752.3377,199.1,751.4816,189.1667,751.3132,179.2333,751.8845,169.3,750.9894,159.3667,751.1371,149.4333,752.3052,139.5,751.6563,139.5556,751.7904,139.2401,751.736,138.7518,751.2643,138.4801,751.3152,138.1611,751.2523,137.7322,750.924,137.5868,750.8638,137.5563,750.5582,137.4781,750.233,137.4936,749.9465,137.1452,749.5093,137,749.1563,137.1542,749.1563,136.8154,744.2281,136.7742,739.3,137.1679,734.3719,136.761,729.4438,137,724.5156,137.1567,724.5805,137.2101,724.1884,137.2104,723.7743,137.3304,723.4098,137.7271,723.1599,137.7322,722.7479,137.694,722.6557,138.1613,722.7837,138.3688,722.2847,138.8717,722.4987,139.2082,722.3112,139.5,722.0156" style="stroke:#181818;stroke-width:0.5;"/><text fill="#000000" font-family="FG Virgil" font-size="14" lengthAdjust="spacing" textLength="140" x="144" y="741.6895">AcceptRefuseInvitesUI</text><polygon fill="#E3E3E3" points="359,50,359,50.2102,368.6,49.5857,378.2,50.1933,387.8,50.3997,397.4,49.2866,407,49.9223,416.6,49.5735,426.2,49.6165,435.8,49.9318,445.4,49.3086,455,50,455.0706,50.1705,455.2732,49.9523,455.6819,50.232,456.1158,50.5724,456.4033,50.5594,456.7678,50.7322,456.7888,50.7409,456.9044,51.0817,457.1156,51.4621,457.2808,51.8234,457.5339,52.2212,457.5,52.5,457.7237,52.5,457.7264,57.4281,457.5849,62.3563,457.6545,67.2844,457.7341,72.2125,457.5,77.1406,457.2779,77.0486,457.5625,77.5807,457.1158,77.8099,457.2251,78.2694,456.7618,78.4917,456.7678,78.9084,456.759,78.8873,456.5088,79.2832,456.0544,79.1863,455.7205,79.3802,455.3967,79.5985,455,79.6406,455,80.0569,445.4,79.6367,435.8,79.9278,426.2,79.0682,416.6,79.925,407,80.1888,397.4,80.0852,387.8,80.2536,378.2,79.1575,368.6,78.9884,359,79.6406,358.9207,79.4493,358.6389,79.476,358.2678,79.2872,358.0263,79.4111,357.5635,79.001,357.2322,78.9084,357.1266,78.8646,357.1561,78.584,356.734,78.1162,356.633,77.7815,356.8463,77.577,356.5,77.1406,356.6452,77.1406,356.7448,72.2125,356.3927,67.2844,356.6064,62.3563,356.6968,57.4281,356.5,52.5,356.3545,52.4397,356.6169,52.1342,356.8317,51.809,357.1401,51.5225,357.0845,51.0853,357.2322,50.7322,357.2912,50.8747,357.5151,50.4152,357.8529,50.2308,358.3571,50.448,358.555,49.9257,359,50" style="stroke:#181818;stroke-width:0.5;"/><text fill="#000000" font-family="FG Virgil" font-size="14" lengthAdjust="spacing" textLength="87" x="363.5" y="69.6738">AuthzRegistry</text><polygon fill="#E3E3E3" points="359,722.0156,359,722.2258,368.6,721.6013,378.2,722.2089,387.8,722.4153,397.4,721.3022,407,721.9379,416.6,721.5891,426.2,721.6321,435.8,721.9475,445.4,721.3243,455,722.0156,455.0706,722.1861,455.2732,721.968,455.6819,722.2476,456.1158,722.588,456.4033,722.575,456.7678,722.7479,456.7888,722.7566,456.9044,723.0973,457.1156,723.4777,457.2808,723.839,457.5339,724.2368,457.5,724.5156,457.7237,724.5156,457.7264,729.4438,457.5849,734.3719,457.6545,739.3,457.7341,744.2281,457.5,749.1563,457.2779,749.0643,457.5625,749.5964,457.1158,749.8255,457.2251,750.285,456.7618,750.5073,456.7678,750.924,456.759,750.9029,456.5088,751.2988,456.0544,751.2019,455.7205,751.3958,455.3967,751.6141,455,751.6563,455,752.0725,445.4,751.6523,435.8,751.9435,426.2,751.0838,416.6,751.9406,407,752.2044,397.4,752.1008,387.8,752.2693,378.2,751.1732,368.6,751.0041,359,751.6563,358.9207,751.4649,358.6389,751.4917,358.2678,751.3028,358.0263,751.4268,357.5635,751.0167,357.2322,750.924,357.1266,750.8803,357.1561,750.5996,356.734,750.1318,356.633,749.7971,356.8463,749.5926,356.5,749.1563,356.6452,749.1563,356.7448,744.2281,356.3927,739.3,356.6064,734.3719,356.6968,729.4438,356.5,724.5156,356.3545,724.4554,356.6169,724.1498,356.8317,723.8246,357.1401,723.5381,357.0845,723.1009,357.2322,722.7479,357.2912,722.8903,357.5151,722.4309,357.8529,722.2464,358.3571,722.4636,358.555,721.9413,359,722.0156" style="stroke:#181818;stroke-width:0.5;"/><text fill="#000000" font-family="FG Virgil" font-size="14" lengthAdjust="spacing" textLength="87" x="363.5" y="741.6895">AuthzRegistry</text><polygon fill="#E3E3E3" points="470,50,470,50.2102,479.8571,49.5857,489.7143,50.1933,499.5714,50.3997,509.4286,49.2866,519.2857,49.9223,529.1429,49.5735,539,49.6165,548.8571,49.9318,558.7143,49.3086,568.5714,50.5536,578.4286,49.3697,588.2857,49.8022,598.1429,50.4319,608,50,607.9891,49.9736,608.3623,50.1675,608.703,50.2831,609.0834,50.4943,609.4447,50.6594,609.7678,50.7322,609.9481,50.8069,610.1209,51.1714,610.2698,51.526,610.2855,51.8254,610.4963,52.2056,610.5,52.5,610.7341,52.5,610.2596,57.4281,610.7262,62.3563,610.4012,67.2844,610.6779,72.2125,610.5,77.1406,610.3476,77.0775,610.3325,77.4854,610.4355,77.9423,610.0457,78.1951,609.9466,78.5683,609.7678,78.9084,609.811,79.0127,609.4673,79.183,609.0602,79.2001,608.7437,79.4362,608.2805,79.3179,608,79.6406,608,79.925,598.1429,80.1888,588.2857,80.0852,578.4286,80.2536,568.5714,79.1575,558.7143,78.9884,548.8571,79.0192,539,79.5817,529.1429,79.4441,519.2857,80.322,509.4286,79.4659,499.5714,79.2976,489.7143,79.8689,479.8571,78.9738,470,79.6406,469.9338,79.4808,469.7292,79.694,469.3485,79.4819,469.033,79.4275,468.5447,78.9557,468.2322,78.9084,468.3305,78.9491,468.2676,78.6302,467.7939,78.141,467.7634,77.8355,467.6852,77.5102,467.5,77.1406,467.7173,77.1406,467.4986,72.2125,467.6542,67.2844,467.3154,62.3563,467.2742,57.4281,467.5,52.5,467.6551,52.5642,467.4257,52.055,467.9496,51.8578,468.003,51.4657,468.0033,51.0516,468.2322,50.7322,468.1871,50.6233,468.6443,50.7271,468.9012,50.3472,469.3684,50.4752,469.5759,49.9762,470,50" style="stroke:#181818;stroke-width:0.5;"/><text fill="#000000" font-family="FG Virgil" font-size="14" lengthAdjust="spacing" textLength="129" x="474.5" y="69.6738">AuthorizationService</text><polygon fill="#E3E3E3" points="470,722.0156,470,722.2258,479.8571,721.6013,489.7143,722.2089,499.5714,722.4153,509.4286,721.3022,519.2857,721.9379,529.1429,721.5891,539,721.6321,548.8571,721.9475,558.7143,721.3243,568.5714,722.5693,578.4286,721.3853,588.2857,721.8179,598.1429,722.4476,608,722.0156,607.9891,721.9892,608.3623,722.1831,608.703,722.2987,609.0834,722.5099,609.4447,722.6751,609.7678,722.7479,609.9481,722.8226,610.1209,723.187,610.2698,723.5416,610.2855,723.841,610.4963,724.2212,610.5,724.5156,610.7341,724.5156,610.2596,729.4438,610.7262,734.3719,610.4012,739.3,610.6779,744.2281,610.5,749.1563,610.3476,749.0931,610.3325,749.5011,610.4355,749.958,610.0457,750.2107,609.9466,750.5839,609.7678,750.924,609.811,751.0283,609.4673,751.1986,609.0602,751.2157,608.7437,751.4518,608.2805,751.3335,608,751.6563,608,751.9406,598.1429,752.2044,588.2857,752.1008,578.4286,752.2693,568.5714,751.1732,558.7143,751.0041,548.8571,751.0348,539,751.5974,529.1429,751.4597,519.2857,752.3377,509.4286,751.4816,499.5714,751.3132,489.7143,751.8845,479.8571,750.9894,470,751.6563,469.9338,751.4964,469.7292,751.7097,469.3485,751.4975,469.033,751.4431,468.5447,750.9714,468.2322,750.924,468.3305,750.9647,468.2676,750.6458,467.7939,750.1566,467.7634,749.8511,467.6852,749.5259,467.5,749.1563,467.7173,749.1563,467.4986,744.2281,467.6542,739.3,467.3154,734.3719,467.2742,729.4438,467.5,724.5156,467.6551,724.5799,467.4257,724.0706,467.9496,723.8734,468.003,723.4813,468.0033,723.0672,468.2322,722.7479,468.1871,722.6389,468.6443,722.7427,468.9012,722.3628,469.3684,722.4908,469.5759,721.9918,470,722.0156" style="stroke:#181818;stroke-width:0.5;"/><text fill="#000000" font-family="FG Virgil" font-size="14" lengthAdjust="spacing" textLength="129" x="474.5" y="741.6895">AuthorizationService</text><polygon fill="#E3E3E3" points="623,50,623,50.2102,632.7778,49.5857,642.5556,50.1933,652.3333,50.3997,662.1111,49.2866,671.8889,49.9223,681.6667,49.5735,691.4444,49.6165,701.2222,49.9318,711,50,710.9118,49.7871,711.4242,50.3169,711.6267,50.0988,712.0354,50.3784,712.4693,50.7188,712.7678,50.7322,712.7414,50.7213,712.9352,51.0945,713.0508,51.4353,713.2621,51.8157,713.4272,52.177,713.5,52.5,713.6952,52.5,713.7237,57.4281,713.7264,62.3563,713.5849,67.2844,713.6545,72.2125,713.5,77.1406,713.7163,77.2302,713.1315,77.4022,713.4161,77.9343,712.9693,78.1635,713.0786,78.6229,712.7678,78.9084,712.7046,78.7559,712.4055,79.0337,712.1553,79.4297,711.7009,79.3327,711.367,79.5266,711,79.6406,711,79.9793,701.2222,80.0569,691.4444,79.6367,681.6667,79.9278,671.8889,79.0682,662.1111,79.925,652.3333,80.1888,642.5556,80.0852,632.7778,80.2536,623,79.6406,622.9384,79.4919,622.5633,79.2933,622.2136,79.1564,621.9318,79.1832,621.5607,78.9943,621.2322,78.9084,621.4421,78.9953,621.032,78.5326,620.8337,78.1575,620.8632,77.8768,620.4411,77.4091,620.5,77.1406,620.327,77.1406,620.7163,72.2125,620.6452,67.2844,620.7448,62.3563,620.3927,57.4281,620.5,52.5,620.5983,52.5407,620.8283,52.2218,620.6474,51.7326,620.9098,51.4271,621.1246,51.1019,621.2322,50.7322,621.3154,50.9329,621.5853,50.5845,621.9983,50.5818,622.2223,50.1223,622.5601,49.9379,623,50" style="stroke:#181818;stroke-width:0.5;"/><text fill="#000000" font-family="FG Virgil" font-size="14" lengthAdjust="spacing" textLength="79" x="627.5" y="69.6738">UserSession</text><polygon fill="#E3E3E3" points="623,722.0156,623,722.2258,632.7778,721.6013,642.5556,722.2089,652.3333,722.4153,662.1111,721.3022,671.8889,721.9379,681.6667,721.5891,691.4444,721.6321,701.2222,721.9475,711,722.0156,710.9118,721.8027,711.4242,722.3326,711.6267,722.1144,712.0354,722.3941,712.4693,722.7344,712.7678,722.7479,712.7414,722.7369,712.9352,723.1101,713.0508,723.4509,713.2621,723.8313,713.4272,724.1926,713.5,724.5156,713.6952,724.5156,713.7237,729.4438,713.7264,734.3719,713.5849,739.3,713.6545,744.2281,713.5,749.1563,713.7163,749.2458,713.1315,749.4178,713.4161,749.9499,712.9693,750.1791,713.0786,750.6386,712.7678,750.924,712.7046,750.7716,712.4055,751.0494,712.1553,751.4453,711.7009,751.3483,711.367,751.5422,711,751.6563,711,751.9949,701.2222,752.0725,691.4444,751.6523,681.6667,751.9435,671.8889,751.0838,662.1111,751.9406,652.3333,752.2044,642.5556,752.1008,632.7778,752.2693,623,751.6563,622.9384,751.5075,622.5633,751.309,622.2136,751.172,621.9318,751.1988,621.5607,751.0099,621.2322,750.924,621.4421,751.0109,621.032,750.5482,620.8337,750.1731,620.8632,749.8925,620.4411,749.4247,620.5,749.1563,620.327,749.1563,620.7163,744.2281,620.6452,739.3,620.7448,734.3719,620.3927,729.4438,620.5,724.5156,620.5983,724.5563,620.8283,724.2374,620.6474,723.7483,620.9098,723.4427,621.1246,723.1175,621.2322,722.7479,621.3154,722.9486,621.5853,722.6001,621.9983,722.5974,622.2223,722.138,622.5601,721.9535,623,722.0156" style="stroke:#181818;stroke-width:0.5;"/><text fill="#000000" font-family="FG Virgil" font-size="14" lengthAdjust="spacing" textLength="79" x="627.5" y="741.6895">UserSession</text><polygon fill="#E3E3E3" points="726,50,726,50.2102,735.95,49.5857,745.9,50.1933,755.85,50.3997,765.8,49.2866,775.75,49.9223,785.7,49.5735,795.65,49.6165,805.6,49.9318,815.55,49.3086,825.5,50.5536,835.45,49.3697,845.4,49.8022,855.35,50.4319,865.3,49.9142,875.25,50.0682,885.2,49.9681,895.15,50.1785,905.1,50.2391,915.05,50.5857,925,50,925.0856,50.2067,925.4402,50.3556,925.7396,50.3713,926.1198,50.5821,926.5038,50.802,926.7678,50.7322,926.5457,50.6402,927.1232,51.1723,926.9693,51.4015,927.3715,51.861,927.2011,52.0833,927.5,52.5,927.4772,52.5,927.7472,57.4281,927.4838,62.3563,927.5351,67.2844,927.6129,72.2125,927.5,77.1406,927.6282,77.1937,927.3524,77.4937,927.2956,77.8844,926.8844,78.1283,927.0018,78.5911,926.7678,78.9084,926.8377,79.0772,926.4709,79.1917,926.1389,79.3901,925.6455,79.199,925.2704,79.2933,925,79.6406,925,79.0192,915.05,79.5817,905.1,79.4441,895.15,80.322,885.2,79.4659,875.25,79.2976,865.3,79.8689,855.35,78.9738,845.4,79.1215,835.45,80.2896,825.5,80.0763,815.55,80.3751,805.6,79.3188,795.65,79.9598,785.7,80.231,775.75,79.1682,765.8,79.5448,755.85,79.7666,745.9,80.2924,735.95,79.6364,726,79.6406,726.059,79.7831,725.5758,79.3236,725.2065,79.1392,725.0036,79.3564,724.4943,78.834,724.2322,78.9084,724.389,78.9733,724.1494,78.5812,723.8568,78.1671,723.6839,77.8026,723.7877,77.5527,723.5,77.1406,723.4002,77.1406,723.6973,72.2125,723.3158,67.2844,723.7058,62.3563,723.6614,57.4281,723.5,52.5,723.5754,52.5312,723.661,52.1525,724.0167,51.8856,724.1283,51.5176,724.1379,51.1074,724.2322,50.7322,724.2664,50.8148,724.5692,50.5457,725.0307,50.66,725.3126,50.3406,725.6685,50.1996,726,50" style="stroke:#181818;stroke-width:0.5;"/><text fill="#000000" font-family="FG Virgil" font-size="14" lengthAdjust="spacing" textLength="190" x="730.5" y="69.6738">AcceptRefuseInvitesController</text><polygon fill="#E3E3E3" points="726,722.0156,726,722.2258,735.95,721.6013,745.9,722.2089,755.85,722.4153,765.8,721.3022,775.75,721.9379,785.7,721.5891,795.65,721.6321,805.6,721.9475,815.55,721.3243,825.5,722.5693,835.45,721.3853,845.4,721.8179,855.35,722.4476,865.3,721.9298,875.25,722.0839,885.2,721.9837,895.15,722.1942,905.1,722.2548,915.05,722.6013,925,722.0156,925.0856,722.2223,925.4402,722.3713,925.7396,722.3869,926.1198,722.5977,926.5038,722.8177,926.7678,722.7479,926.5457,722.6559,927.1232,723.188,926.9693,723.4171,927.3715,723.8766,927.2011,724.0989,927.5,724.5156,927.4772,724.5156,927.7472,729.4438,927.4838,734.3719,927.5351,739.3,927.6129,744.2281,927.5,749.1563,927.6282,749.2093,927.3524,749.5093,927.2956,749.9,926.8844,750.1439,927.0018,750.6067,926.7678,750.924,926.8377,751.0928,926.4709,751.2074,926.1389,751.4057,925.6455,751.2146,925.2704,751.309,925,751.6563,925,751.0348,915.05,751.5974,905.1,751.4597,895.15,752.3377,885.2,751.4816,875.25,751.3132,865.3,751.8845,855.35,750.9894,845.4,751.1371,835.45,752.3052,825.5,752.0919,815.55,752.3907,805.6,751.3345,795.65,751.9754,785.7,752.2467,775.75,751.1838,765.8,751.5604,755.85,751.7822,745.9,752.308,735.95,751.6521,726,751.6563,726.059,751.7987,725.5758,751.3393,725.2065,751.1548,725.0036,751.372,724.4943,750.8497,724.2322,750.924,724.389,750.9889,724.1494,750.5968,723.8568,750.1827,723.6839,749.8182,723.7877,749.5683,723.5,749.1563,723.4002,749.1563,723.6973,744.2281,723.3158,739.3,723.7058,734.3719,723.6614,729.4438,723.5,724.5156,723.5754,724.5469,723.661,724.1681,724.0167,723.9012,724.1283,723.5332,724.1379,723.123,724.2322,722.7479,724.2664,722.8304,724.5692,722.5613,725.0307,722.6756,725.3126,722.3562,725.6685,722.2152,726,722.0156" style="stroke:#181818;stroke-width:0.5;"/><text fill="#000000" font-family="FG Virgil" font-size="14" lengthAdjust="spacing" textLength="190" x="730.5" y="741.6895">AcceptRefuseInvitesController</text><polygon fill="#E3E3E3" points="940,50,940,50.2102,950.2222,49.5857,960.4444,50.1933,970.6667,50.3997,980.8889,49.2866,991.1111,49.9223,1001.3333,49.5735,1011.5556,49.6165,1021.7778,49.9318,1032,49.3086,1042.2222,50.5536,1052.4444,49.3697,1062.6667,49.8022,1072.8889,50.4319,1083.1111,49.9142,1093.3333,50.0682,1103.5556,49.9681,1113.7778,50.1785,1124,50,1124.0305,50.0736,1124.4283,50.3268,1124.7927,50.4996,1125.1473,50.6485,1125.4467,50.6642,1125.7678,50.7322,1125.9105,50.7914,1126.1305,51.1754,1125.8386,51.3473,1126.4161,51.8794,1126.2622,52.1086,1126.5,52.5,1126.6779,52.5,1126.335,57.4281,1126.4772,62.3563,1126.7472,67.2844,1126.4838,72.2125,1126.5,77.1406,1126.5324,77.1541,1126.4578,77.5374,1126.3353,77.9008,1126.0595,78.2008,1126.0027,78.5915,1125.7678,78.9084,1125.6947,78.7321,1125.4505,79.1424,1125.1306,79.3701,1124.7638,79.4846,1124.4318,79.683,1124,79.6406,1124,79.1575,1113.7778,78.9884,1103.5556,79.0192,1093.3333,79.5817,1083.1111,79.4441,1072.8889,80.322,1062.6667,79.4659,1052.4444,79.2976,1042.2222,79.8689,1032,78.9738,1021.7778,79.1215,1011.5556,80.2896,1001.3333,80.0763,991.1111,80.3751,980.8889,79.3188,970.6667,79.9598,960.4444,80.231,950.2222,79.1682,940,79.6406,939.9878,79.6111,939.6625,79.533,939.376,79.5484,938.9388,79.2,938.6448,79.1973,938.2322,78.9084,938.0617,78.8378,937.8772,78.4684,938.0944,78.2655,937.5721,77.7563,937.8032,77.5591,937.5,77.1406,937.5689,77.1406,937.4107,72.2125,937.3821,67.2844,937.6529,62.3563,937.4002,57.4281,937.5,52.5,937.6823,52.5755,937.4762,52.0759,937.983,51.8717,938.0885,51.5011,938.1612,51.117,938.2322,50.7322,938.2383,50.7468,938.6785,50.8096,939.0176,50.6283,939.3145,50.345,939.6807,50.229,940,50" style="stroke:#181818;stroke-width:0.5;"/><text fill="#000000" font-family="FG Virgil" font-size="14" lengthAdjust="spacing" textLength="175" x="944.5" y="69.6738">AcceptRefuseInvitesService</text><polygon fill="#E3E3E3" points="940,722.0156,940,722.2258,950.2222,721.6013,960.4444,722.2089,970.6667,722.4153,980.8889,721.3022,991.1111,721.9379,1001.3333,721.5891,1011.5556,721.6321,1021.7778,721.9475,1032,721.3243,1042.2222,722.5693,1052.4444,721.3853,1062.6667,721.8179,1072.8889,722.4476,1083.1111,721.9298,1093.3333,722.0839,1103.5556,721.9837,1113.7778,722.1942,1124,722.0156,1124.0305,722.0893,1124.4283,722.3424,1124.7927,722.5152,1125.1473,722.6641,1125.4467,722.6798,1125.7678,722.7479,1125.9105,722.807,1126.1305,723.191,1125.8386,723.363,1126.4161,723.8951,1126.2622,724.1242,1126.5,724.5156,1126.6779,724.5156,1126.335,729.4438,1126.4772,734.3719,1126.7472,739.3,1126.4838,744.2281,1126.5,749.1563,1126.5324,749.1697,1126.4578,749.553,1126.3353,749.9165,1126.0595,750.2164,1126.0027,750.6071,1125.7678,750.924,1125.6947,750.7477,1125.4505,751.158,1125.1306,751.3857,1124.7638,751.5003,1124.4318,751.6986,1124,751.6563,1124,751.1732,1113.7778,751.0041,1103.5556,751.0348,1093.3333,751.5974,1083.1111,751.4597,1072.8889,752.3377,1062.6667,751.4816,1052.4444,751.3132,1042.2222,751.8845,1032,750.9894,1021.7778,751.1371,1011.5556,752.3052,1001.3333,752.0919,991.1111,752.3907,980.8889,751.3345,970.6667,751.9754,960.4444,752.2467,950.2222,751.1838,940,751.6563,939.9878,751.6267,939.6625,751.5486,939.376,751.5641,938.9388,751.2156,938.6448,751.2129,938.2322,750.924,938.0617,750.8534,937.8772,750.4841,938.0944,750.2812,937.5721,749.7719,937.8032,749.5747,937.5,749.1563,937.5689,749.1563,937.4107,744.2281,937.3821,739.3,937.6529,734.3719,937.4002,729.4438,937.5,724.5156,937.6823,724.5911,937.4762,724.0916,937.983,723.8873,938.0885,723.5167,938.1612,723.1327,938.2322,722.7479,938.2383,722.7624,938.6785,722.8252,939.0176,722.6439,939.3145,722.3606,939.6807,722.2447,940,722.0156" style="stroke:#181818;stroke-width:0.5;"/><text fill="#000000" font-family="FG Virgil" font-size="14" lengthAdjust="spacing" textLength="175" x="944.5" y="741.6895">AcceptRefuseInvitesService</text><polygon fill="#E3E3E3" points="1251,50,1251,50.2102,1261,49.5857,1271,50.1933,1281,50.3997,1291,49.2866,1301,49.9223,1311,49.5735,1321,49.6165,1331,49.9318,1341,49.3086,1351,50.5536,1361,50,1360.9196,49.8059,1361.3283,50.0855,1361.7622,50.4259,1362.0497,50.4129,1362.4229,50.6068,1362.7678,50.7322,1362.7579,50.7282,1362.9692,51.1086,1363.1343,51.4698,1363.3875,51.8676,1363.5602,52.232,1363.5,52.5,1363.7264,52.5,1363.5849,57.4281,1363.6545,62.3563,1363.7341,67.2844,1363.2596,72.2125,1363.5,77.1406,1363.709,77.2272,1363.2622,77.4564,1363.3715,77.9158,1362.9082,78.1381,1362.8931,78.5461,1362.7678,78.9084,1362.8624,79.1368,1362.408,79.0398,1362.0741,79.2337,1361.7503,79.452,1361.4066,79.6224,1361,79.6406,1361,79.6367,1351,79.9278,1341,79.0682,1331,79.925,1321,80.1888,1311,80.0852,1301,80.2536,1291,79.1575,1281,78.9884,1271,79.0192,1261,79.5817,1251,79.6406,1250.9749,79.5801,1250.7334,79.704,1250.2706,79.2939,1249.8956,79.0956,1249.6149,79.1251,1249.2322,78.9084,1249.0269,78.8233,1248.9259,78.4886,1249.1392,78.2841,1248.9271,77.9033,1248.8726,77.5879,1248.5,77.1406,1248.3927,77.1406,1248.6064,72.2125,1248.6968,67.2844,1248.3425,62.3563,1248.468,57.4281,1248.5,52.5,1248.5388,52.5161,1248.8472,52.2296,1248.7916,51.7924,1249.0818,51.4983,1248.9152,51.0151,1249.2322,50.7322,1249.1458,50.5237,1249.65,50.7409,1249.8479,50.2186,1250.3578,50.4496,1250.6728,50.2101,1251,50" style="stroke:#181818;stroke-width:0.5;"/><text fill="#000000" font-family="FG Virgil" font-size="14" lengthAdjust="spacing" textLength="101" x="1255.5" y="69.6738">InviteRepository</text><polygon fill="#E3E3E3" points="1251,722.0156,1251,722.2258,1261,721.6013,1271,722.2089,1281,722.4153,1291,721.3022,1301,721.9379,1311,721.5891,1321,721.6321,1331,721.9475,1341,721.3243,1351,722.5693,1361,722.0156,1360.9196,721.8215,1361.3283,722.1012,1361.7622,722.4415,1362.0497,722.4285,1362.4229,722.6224,1362.7678,722.7479,1362.7579,722.7438,1362.9692,723.1242,1363.1343,723.4855,1363.3875,723.8832,1363.5602,724.2477,1363.5,724.5156,1363.7264,724.5156,1363.5849,729.4438,1363.6545,734.3719,1363.7341,739.3,1363.2596,744.2281,1363.5,749.1563,1363.709,749.2428,1363.2622,749.472,1363.3715,749.9315,1362.9082,750.1538,1362.8931,750.5617,1362.7678,750.924,1362.8624,751.1524,1362.408,751.0555,1362.0741,751.2493,1361.7503,751.4676,1361.4066,751.638,1361,751.6563,1361,751.6523,1351,751.9435,1341,751.0838,1331,751.9406,1321,752.2044,1311,752.1008,1301,752.2693,1291,751.1732,1281,751.0041,1271,751.0348,1261,751.5974,1251,751.6563,1250.9749,751.5957,1250.7334,751.7197,1250.2706,751.3096,1249.8956,751.1113,1249.6149,751.1408,1249.2322,750.924,1249.0269,750.839,1248.9259,750.5042,1249.1392,750.2997,1248.9271,749.9189,1248.8726,749.6035,1248.5,749.1563,1248.3927,749.1563,1248.6064,744.2281,1248.6968,739.3,1248.3425,734.3719,1248.468,729.4438,1248.5,724.5156,1248.5388,724.5317,1248.8472,724.2452,1248.7916,723.808,1249.0818,723.514,1248.9152,723.0308,1249.2322,722.7479,1249.1458,722.5393,1249.65,722.7565,1249.8479,722.2342,1250.3578,722.4653,1250.6728,722.2257,1251,722.0156" style="stroke:#181818;stroke-width:0.5;"/><text fill="#000000" font-family="FG Virgil" font-size="14" lengthAdjust="spacing" textLength="101" x="1255.5" y="741.6895">InviteRepository</text><polygon fill="#E3E3E3" points="1376,50,1376,50.2102,1385.9,49.5857,1395.8,50.1933,1405.7,50.3997,1415.6,49.2866,1425.5,49.9223,1435.4,49.5735,1445.3,49.6165,1455.2,49.9318,1465.1,49.3086,1475,50,1475.0706,50.1705,1475.2732,49.9523,1475.6819,50.232,1476.1158,50.5724,1476.4033,50.5594,1476.7678,50.7322,1476.7888,50.7409,1476.9044,51.0817,1477.1156,51.4621,1477.2808,51.8234,1477.5339,52.2212,1477.5,52.5,1477.7237,52.5,1477.7264,57.4281,1477.5849,62.3563,1477.6545,67.2844,1477.7341,72.2125,1477.5,77.1406,1477.2779,77.0486,1477.5625,77.5807,1477.1158,77.8099,1477.2251,78.2694,1476.7618,78.4917,1476.7678,78.9084,1476.759,78.8873,1476.5088,79.2832,1476.0544,79.1863,1475.7205,79.3802,1475.3967,79.5985,1475,79.6406,1475,80.0569,1465.1,79.6367,1455.2,79.9278,1445.3,79.0682,1435.4,79.925,1425.5,80.1888,1415.6,80.0852,1405.7,80.2536,1395.8,79.1575,1385.9,78.9884,1376,79.6406,1375.9207,79.4493,1375.6389,79.476,1375.2678,79.2872,1375.0263,79.4111,1374.5635,79.001,1374.2322,78.9084,1374.1266,78.8646,1374.1561,78.584,1373.734,78.1162,1373.633,77.7815,1373.8463,77.577,1373.5,77.1406,1373.6452,77.1406,1373.7448,72.2125,1373.3927,67.2844,1373.6064,62.3563,1373.6968,57.4281,1373.5,52.5,1373.3545,52.4397,1373.6169,52.1342,1373.8317,51.809,1374.1401,51.5225,1374.0845,51.0853,1374.2322,50.7322,1374.2912,50.8747,1374.5151,50.4152,1374.8529,50.2308,1375.3571,50.448,1375.555,49.9257,1376,50" style="stroke:#181818;stroke-width:0.5;"/><text fill="#000000" font-family="FG Virgil" font-size="14" lengthAdjust="spacing" textLength="90" x="1380.5" y="69.6738">theInvite:Invite</text><polygon fill="#E3E3E3" points="1376,722.0156,1376,722.2258,1385.9,721.6013,1395.8,722.2089,1405.7,722.4153,1415.6,721.3022,1425.5,721.9379,1435.4,721.5891,1445.3,721.6321,1455.2,721.9475,1465.1,721.3243,1475,722.0156,1475.0706,722.1861,1475.2732,721.968,1475.6819,722.2476,1476.1158,722.588,1476.4033,722.575,1476.7678,722.7479,1476.7888,722.7566,1476.9044,723.0973,1477.1156,723.4777,1477.2808,723.839,1477.5339,724.2368,1477.5,724.5156,1477.7237,724.5156,1477.7264,729.4438,1477.5849,734.3719,1477.6545,739.3,1477.7341,744.2281,1477.5,749.1563,1477.2779,749.0643,1477.5625,749.5964,1477.1158,749.8255,1477.2251,750.285,1476.7618,750.5073,1476.7678,750.924,1476.759,750.9029,1476.5088,751.2988,1476.0544,751.2019,1475.7205,751.3958,1475.3967,751.6141,1475,751.6563,1475,752.0725,1465.1,751.6523,1455.2,751.9435,1445.3,751.0838,1435.4,751.9406,1425.5,752.2044,1415.6,752.1008,1405.7,752.2693,1395.8,751.1732,1385.9,751.0041,1376,751.6563,1375.9207,751.4649,1375.6389,751.4917,1375.2678,751.3028,1375.0263,751.4268,1374.5635,751.0167,1374.2322,750.924,1374.1266,750.8803,1374.1561,750.5996,1373.734,750.1318,1373.633,749.7971,1373.8463,749.5926,1373.5,749.1563,1373.6452,749.1563,1373.7448,744.2281,1373.3927,739.3,1373.6064,734.3719,1373.6968,729.4438,1373.5,724.5156,1373.3545,724.4554,1373.6169,724.1498,1373.8317,723.8246,1374.1401,723.5381,1374.0845,723.1009,1374.2322,722.7479,1374.2912,722.8903,1374.5151,722.4309,1374.8529,722.2464,1375.3571,722.4636,1375.555,721.9413,1376,722.0156" style="stroke:#181818;stroke-width:0.5;"/><text fill="#000000" font-family="FG Virgil" font-size="14" lengthAdjust="spacing" textLength="90" x="1380.5" y="741.6895">theInvite:Invite</text><polygon fill="#FFFFFF" points="209,111.1641,209,111.2341,211,111.026,213,111.2285,215,111.2973,217,110.9263,219,111.1641,218.9223,111.1641,218.5735,121.1107,218.6165,131.0573,218.9318,141.004,218.3086,150.9506,219.5536,160.8972,218.3697,170.8439,218.8022,180.7905,219.4319,190.7372,218.9142,200.6838,219.0682,210.6304,218.9681,220.5771,219.1785,230.5237,219.2391,240.4703,219.5857,250.417,219.6711,260.3636,219.6793,270.3102,219.2546,280.2569,219.4636,290.2035,219.7022,300.1502,218.2788,310.0968,219.6785,320.0434,218.7035,329.9901,219.5338,339.9367,218.505,349.8833,218.9315,359.83,219.7416,369.7766,218.9513,379.7233,219.1053,389.6699,219.3386,399.6165,219.4162,409.5632,218.9961,419.5098,219.2872,429.4564,218.4276,439.4031,219.2844,449.3497,219.5482,459.2963,219.4445,469.243,219.613,479.1896,218.5169,489.1363,218.3478,499.0829,218.3786,509.0295,218.9411,518.9762,218.8035,528.9228,219.6814,538.8694,218.8253,548.8161,218.6569,558.7627,219.2283,568.7093,218.3332,578.656,218.4809,588.6026,219.649,598.5493,219.4357,608.4959,219.7345,618.4425,218.6782,628.3892,219.3192,638.3358,219.5904,648.2824,218.5276,658.2291,218.9041,668.1757,219.126,678.1224,219.6518,688.069,219,698.0156,219,698.0142,217,698.1698,215,697.831,213,697.7899,211,698.1835,209,698.0156,208.2831,698.0156,209.509,688.069,209.2066,678.1224,208.7321,668.1757,208.6462,658.2291,209.4588,648.2824,208.7007,638.3358,209.5919,628.3892,208.4473,618.4425,209.6174,608.4959,209.4843,598.5493,209.245,588.6026,209.0472,578.656,209.7266,568.7093,209.6136,558.7627,209.1693,548.8161,209.2682,538.8694,208.8697,528.9228,209.7165,518.9762,209.1549,509.0295,209.1726,499.0829,208.3916,489.1363,208.5948,479.1896,209.5307,469.243,209.4298,459.2963,208.9571,449.3497,208.6778,439.4031,208.7811,429.4564,208.3138,419.5098,209.4147,409.5632,209.7396,399.6165,209.5264,389.6699,209.6949,379.7233,208.8633,369.7766,209.0872,359.83,208.6124,349.8833,209.284,339.9367,209.2468,329.9901,209.5524,320.0434,208.7703,310.0968,208.8656,300.1502,209.4435,290.2035,209.5673,280.2569,208.4875,270.3102,208.8061,260.3636,209.1493,250.417,208.3892,240.4703,209.3534,230.5237,209.258,220.5771,208.8992,210.6304,209.1422,200.6838,209.7287,190.7372,208.6871,180.7905,209.315,170.8439,209.2856,160.8972,209.1158,150.9506,209.1409,141.004,209.1135,131.0573,208.3758,121.1107,209,111.1641" style="stroke:#181818;stroke-width:1.0;"/><polygon fill="#FFFFFF" points="402,139.6875,402,139.7576,404,139.5494,406,139.7519,408,139.8207,410,139.4497,412,139.6875,411.9741,139.6875,411.8578,145.6875,411.8722,151.6875,411.9773,157.6875,411.7695,163.6875,412,169.6875,412,169.872,410,169.4774,408,169.6216,406,169.8315,404,169.6589,402,169.6875,402.0227,169.6875,401.9894,163.6875,402.0595,157.6875,402.0797,151.6875,402.1952,145.6875,402,139.6875" style="stroke:#181818;stroke-width:1.0;"/><polygon fill="#FFFFFF" points="534,198.2109,534,198.281,536,198.0728,538,198.2754,540,198.3442,542,197.9731,544,198.2109,543.9741,198.2109,543.8578,204.2109,543.8722,210.2109,543.9773,216.2109,543.7695,222.2109,544,228.2109,544,228.3955,542,228.0008,540,228.145,538,228.3549,536,228.1823,534,228.2109,534.0227,228.2109,533.9894,222.2109,534.0595,216.2109,534.0797,210.2109,534.1952,204.2109,534,198.2109" style="stroke:#181818;stroke-width:1.0;"/><polygon fill="#FFFFFF" points="662,256.7344,662,256.8044,664,256.5963,666,256.7988,668,256.8676,670,256.4966,672,256.7344,671.9741,256.7344,671.8578,262.7344,671.8722,268.7344,671.9773,274.7344,671.7695,280.7344,672,286.7344,672,286.9189,670,286.5243,668,286.6685,666,286.8784,664,286.7058,662,286.7344,662.0227,286.7344,661.9894,280.7344,662.0595,274.7344,662.0797,268.7344,662.1952,262.7344,662,256.7344" style="stroke:#181818;stroke-width:1.0;"/><polygon fill="#FFFFFF" points="820.5,315.2578,820.5,315.3279,822.5,315.1197,824.5,315.3222,826.5,315.391,828.5,315.02,830.5,315.2578,830.4741,315.2578,830.3578,321.2578,830.3722,327.2578,830.4773,333.2578,830.2695,339.2578,830.5,345.2578,830.5,345.4424,828.5,345.0477,826.5,345.1919,824.5,345.4018,822.5,345.2292,820.5,345.2578,820.5227,345.2578,820.4894,339.2578,820.5595,333.2578,820.5797,327.2578,820.6952,321.2578,820.5,315.2578" style="stroke:#181818;stroke-width:1.0;"/><polygon fill="#FFFFFF" points="820.5,397.3047,820.5,397.3747,822.5,397.1666,824.5,397.3691,826.5,397.4379,828.5,397.0669,830.5,397.3047,830.4223,397.3047,830.0735,407.2094,830.1165,417.1141,830.4318,427.0188,829.8086,436.9234,831.0536,446.8281,829.8697,456.7328,830.3022,466.6375,830.9319,476.5422,830.4142,486.4469,830.5,496.3516,830.5,496.3743,828.5,496.3409,826.5,496.4111,824.5,496.4313,822.5,496.5468,820.5,496.3516,821.1711,496.3516,821.1793,486.4469,820.7546,476.5422,820.9636,466.6375,821.2022,456.7328,819.7788,446.8281,821.1785,436.9234,820.2035,427.0188,821.0338,417.1141,820.005,407.2094,820.5,397.3047" style="stroke:#181818;stroke-width:1.0;"/><polygon fill="#FFFFFF" points="820.5,610.9688,820.5,611.0388,822.5,610.8306,824.5,611.0332,826.5,611.102,828.5,610.731,830.5,610.9688,830.4223,610.9688,830.0735,620.6406,830.1165,630.3125,830.4318,639.9844,829.8086,649.6563,831.0536,659.3281,829.8697,669,830.3022,678.6719,830.9319,688.3438,830.5,698.0156,830.5,697.987,828.5,698.0384,826.5,698.005,824.5,698.0751,822.5,698.0953,820.5,698.0156,821.0857,698.0156,821.1711,688.3438,821.1793,678.6719,820.7546,669,820.9636,659.3281,821.2022,649.6563,819.7788,639.9844,821.1785,630.3125,820.2035,620.6406,820.5,610.9688" style="stroke:#181818;stroke-width:1.0;"/><polygon fill="#FFFFFF" points="1027,425.8281,1027,425.8982,1029,425.69,1031,425.8926,1033,425.9614,1035,425.5903,1037,425.8281,1036.9223,425.8281,1036.5735,435.2487,1036.6165,444.6693,1036.9318,454.0898,1036.3086,463.5104,1037.5536,472.931,1037,482.3516,1037,482.1415,1035,482.2856,1033,482.4955,1031,482.323,1029,482.3743,1027,482.3516,1026.9681,482.3516,1027.1785,472.931,1027.2391,463.5104,1027.5857,454.0898,1027.6711,444.6693,1027.6793,435.2487,1027,425.8281" style="stroke:#181818;stroke-width:1.0;"/><polygon fill="#FFFFFF" points="1027,639.4922,1027,639.5622,1029,639.3541,1031,639.5566,1033,639.6254,1035,639.2544,1037,639.4922,1036.9223,639.4922,1036.5735,649.2461,1036.6165,659,1036.9318,668.7539,1036.3086,678.5078,1037.5536,688.2617,1037,698.0156,1037,697.8055,1035,697.9497,1033,698.1596,1031,697.987,1029,698.0384,1027,698.0156,1026.9681,698.0156,1027.1785,688.2617,1027.2391,678.5078,1027.5857,668.7539,1027.6711,659,1027.6793,649.2461,1027,639.4922" style="stroke:#181818;stroke-width:1.0;"/><polygon fill="#FFFFFF" points="1301,454.3516,1301,454.4216,1303,454.2135,1305,454.416,1307,454.4848,1309,454.1138,1311,454.3516,1310.9741,454.3516,1310.8578,457.1516,1310.8722,459.9516,1310.9773,462.7516,1310.7695,465.5516,1311,468.3516,1311,468.5361,1309,468.1415,1307,468.2856,1305,468.4955,1303,468.323,1301,468.3516,1301.0227,468.3516,1300.9894,465.5516,1301.0595,462.7516,1301.0797,459.9516,1301.1952,457.1516,1301,454.3516" style="stroke:#181818;stroke-width:1.0;"/><polygon fill="#FFFFFF" points="1420.5,668.0156,1420.5,668.0857,1422.5,667.8775,1424.5,668.0801,1426.5,668.1489,1428.5,667.7778,1430.5,668.0156,1430.4741,668.0156,1430.3578,674.0156,1430.3722,680.0156,1430.4773,686.0156,1430.2695,692.0156,1430.5,698.0156,1430.5,698.2002,1428.5,697.8055,1426.5,697.9497,1424.5,698.1596,1422.5,697.987,1420.5,698.0156,1420.5227,698.0156,1420.4894,692.0156,1420.5595,686.0156,1420.5797,680.0156,1420.6952,674.0156,1420.5,668.0156" style="stroke:#181818;stroke-width:1.0;"/><polygon fill="#181818" points="197,107.1641,197.026,107.2291,198.9487,107.8358,201.0239,108.8239,203.0495,109.6878,204.9117,110.1433,207,111.1641,206.9904,111.14,204.9472,111.8321,202.9525,112.6454,200.9916,113.543,198.9144,114.1501,197,115.1641,197.1305,115.2946,197.6514,114.2155,198.5534,113.5174,199.5018,112.8659,200.1798,111.9438,201,111.1641,201.0161,111.1801,200.1925,110.3565,199.4421,109.6061,198.6564,108.8204,197.938,108.1021,197,107.1641" style="stroke:#181818;stroke-width:1.0;"/><path d="M0,111.1641 L0,111.4443 L10.15,110.6116 L20.3,111.4218 L30.45,111.697 L40.6,110.2129 L50.75,111.0604 L60.9,110.5954 L71.05,110.6527 L81.2,111.0732 L91.35,110.2422 L101.5,111.9023 L111.65,110.3237 L121.8,110.9004 L131.95,111.74 L142.1,111.0497 L152.25,111.255 L162.4,111.1215 L172.55,111.4021 L182.7,111.4829 L192.85,111.945 L203,111.1641 " fill="none" style="stroke:#181818;stroke-width:1.0;"/><text fill="#000000" font-family="FG Virgil" font-size="13" lengthAdjust="spacing" textLength="175" x="7" y="106.4092">Accept/Refuse meeting invites</text><polygon fill="#181818" points="390,135.6875,390.026,135.7525,391.9487,136.3593,394.0239,137.3473,396.0495,138.2112,397.9117,138.6667,400,139.6875,399.9904,139.6634,397.9472,140.3555,395.9525,141.1688,393.9916,142.0664,391.9144,142.6735,390,143.6875,390.1305,143.818,390.6514,142.7389,391.5534,142.0409,392.5018,141.3893,393.1798,140.4673,394,139.6875,394.0161,139.7036,393.1925,138.88,392.4421,138.1296,391.6564,137.3439,390.938,136.6255,390,135.6875" style="stroke:#181818;stroke-width:1.0;"/><path d="M219,139.6875 L219,139.9677 L228.8333,139.1351 L238.6667,139.9452 L248.5,140.2204 L258.3333,138.7363 L268.1667,139.5839 L278,139.1188 L287.8333,139.1762 L297.6667,139.5966 L307.5,138.7657 L317.3333,140.4257 L327.1667,138.8471 L337,139.4238 L346.8333,140.2634 L356.6667,139.5731 L366.5,139.7785 L376.3333,139.6449 L386.1667,139.9255 L396,139.6875 " fill="none" style="stroke:#181818;stroke-width:1.0;"/><text fill="#000000" font-family="FG Virgil" font-size="13" lengthAdjust="spacing" textLength="164" x="226" y="134.9326">authz=authorizationService()</text><polygon fill="#181818" points="522,194.2109,522.026,194.276,523.9487,194.8827,526.0239,195.8708,528.0495,196.7346,529.9117,197.1901,532,198.2109,531.9904,198.1869,529.9472,198.8789,527.9525,199.6922,525.9916,200.5898,523.9144,201.197,522,202.2109,522.1305,202.3414,522.6514,201.2624,523.5534,200.5643,524.5018,199.9127,525.1798,198.9907,526,198.2109,526.0161,198.227,525.1925,197.4034,524.4421,196.653,523.6564,195.8673,522.938,195.149,522,194.2109" style="stroke:#181818;stroke-width:1.0;"/><path d="M219,198.2109 L219,198.4912 L228.9677,197.6585 L238.9355,198.4687 L248.9032,198.7438 L258.871,197.2597 L268.8387,198.1073 L278.8065,197.6423 L288.7742,197.6996 L298.7419,198.1201 L308.7097,197.2891 L318.6774,198.9491 L328.6452,197.3706 L338.6129,197.9472 L348.5806,198.7869 L358.5484,198.0966 L368.5161,198.3019 L378.4839,198.1683 L388.4516,198.449 L398.4194,198.5298 L408.3871,198.9919 L418.3548,199.1057 L428.3226,199.1166 L438.2903,198.5504 L448.2581,198.8291 L458.2258,199.1472 L468.1935,197.2494 L478.1613,199.1156 L488.129,197.8156 L498.0968,198.9227 L508.0645,197.5509 L518.0323,198.1196 L528,198.2109 " fill="none" style="stroke:#181818;stroke-width:1.0;"/><text fill="#000000" font-family="FG Virgil" font-size="13" lengthAdjust="spacing" textLength="68" x="226" y="193.4561">s=session()</text><polygon fill="#181818" points="650,252.7344,650.026,252.7994,651.9487,253.4061,654.0239,254.3942,656.0495,255.2581,657.9117,255.7136,660,256.7344,659.9904,256.7103,657.9472,257.4024,655.9525,258.2157,653.9916,259.1133,651.9144,259.7204,650,260.7344,650.1305,260.8649,650.6514,259.7858,651.5534,259.0878,652.5018,258.4362,653.1798,257.5142,654,256.7344,654.0161,256.7505,653.1925,255.9268,652.4421,255.1765,651.6564,254.3907,650.938,253.6724,650,252.7344" style="stroke:#181818;stroke-width:1.0;"/><path d="M219,256.7344 L219,257.0146 L228.9318,256.1819 L238.8636,256.9921 L248.7955,257.2673 L258.7273,255.7832 L268.6591,256.6308 L278.5909,256.1657 L288.5227,256.223 L298.4545,256.6435 L308.3864,255.8125 L318.3182,257.4726 L328.25,255.894 L338.1818,256.4707 L348.1136,257.3103 L358.0455,256.62 L367.9773,256.8254 L377.9091,256.6918 L387.8409,256.9724 L397.7727,257.0532 L407.7045,257.5153 L417.6364,257.6291 L427.5682,257.6401 L437.5,257.0739 L447.4318,257.3525 L457.3636,257.6707 L467.2955,255.7728 L477.2273,257.6391 L487.1591,256.339 L497.0909,257.4461 L507.0227,256.0743 L516.9545,256.643 L526.8864,257.7232 L536.8182,256.6694 L546.75,256.8748 L556.6818,257.1859 L566.6136,257.2894 L576.5455,256.7292 L586.4773,257.1173 L596.4091,255.9712 L606.3409,257.1136 L616.2727,257.4653 L626.2045,257.3271 L636.1364,257.5517 L646.0682,256.0903 L656,256.7344 " fill="none" style="stroke:#181818;stroke-width:1.0;"/><text fill="#000000" font-family="FG Virgil" font-size="13" lengthAdjust="spacing" textLength="166" x="226" y="251.9795">myUser=authenticatedUser()</text><polygon fill="#181818" points="808.5,311.2578,808.526,311.3229,810.4487,311.9296,812.5239,312.9176,814.5495,313.7815,816.4117,314.237,818.5,315.2578,818.4904,315.2338,816.4472,315.9258,814.4525,316.7391,812.4916,317.6367,810.4144,318.2438,808.5,319.2578,808.6305,319.3883,809.1514,318.3093,810.0534,317.6112,811.0018,316.9596,811.6798,316.0376,812.5,315.2578,812.5161,315.2739,811.6925,314.4503,810.9421,313.6999,810.1564,312.9142,809.438,312.1959,808.5,311.2578" style="stroke:#181818;stroke-width:1.0;"/><path d="M219,315.2578 L219,315.5381 L228.925,314.7054 L238.85,315.5155 L248.775,315.7907 L258.7,314.3066 L268.625,315.1542 L278.55,314.6892 L288.475,314.7465 L298.4,315.1669 L308.325,314.336 L318.25,315.996 L328.175,314.4174 L338.1,314.9941 L348.025,315.8337 L357.95,315.1434 L367.875,315.3488 L377.8,315.2152 L387.725,315.4958 L397.65,315.5767 L407.575,316.0387 L417.5,316.1526 L427.425,316.1635 L437.35,315.5973 L447.275,315.8759 L457.2,316.1941 L467.125,314.2962 L477.05,316.1625 L486.975,314.8625 L496.9,315.9696 L506.825,314.5978 L516.75,315.1665 L526.675,316.2466 L536.6,315.1928 L546.525,315.3982 L556.45,315.7093 L566.375,315.8128 L576.3,315.2526 L586.225,315.6408 L596.15,314.4946 L606.075,315.637 L616,315.9887 L625.925,315.8505 L635.85,316.0752 L645.775,314.6137 L655.7,314.3882 L665.625,314.4293 L675.55,315.1793 L685.475,314.9958 L695.4,316.1664 L705.325,315.0249 L715.25,314.8004 L725.175,315.5622 L735.1,314.3687 L745.025,314.5656 L754.95,316.1231 L764.875,315.8387 L774.8,316.2371 L784.725,314.8288 L794.65,315.6834 L804.575,316.045 L814.5,315.2578 " fill="none" style="stroke:#181818;stroke-width:1.0;"/><text fill="#000000" font-family="FG Virgil" font-size="13" lengthAdjust="spacing" textLength="135" x="226" y="310.5029">create(InviteRepository)</text><path d="M10,360.2578 L10,360.8183 L20.4286,359.153 L30.8571,360.7732 L41.2857,361.3236 L51.7143,358.3554 L62.1429,360.0506 L72.5714,359.1205 L83,360.2578 L82.6591,360.2578 L82.9394,361.5625 L82.3854,362.8672 L83.4921,364.1719 L82.4398,365.4766 L83,366.7813 L82.8757,366.6569 L81.2715,369.0527 L78.9461,370.7273 L77.0429,372.8241 L74.9799,374.7612 L73,376.7813 L73,377.2573 L62.5,377.4189 L52,378.3431 L41.5,378.5707 L31,378.5926 L20.5,377.4603 L10,376.7813 L10.4121,376.7813 L10.6242,373.4766 L9.3589,370.1719 L10.6031,366.8672 L9.7364,363.5625 L10,360.2578 " fill="#EEEEEE" style="stroke:#000000;stroke-width:1.5;"/><polygon fill="none" points="10,360.2578,10,360.468,19.9831,359.8435,29.9662,360.4511,39.9493,360.6575,49.9324,359.5444,59.9155,360.1801,69.8986,359.8313,79.8818,359.8743,89.8649,360.1897,99.848,359.5664,109.8311,360.8115,119.8142,359.6275,129.7973,360.06,139.7804,360.6898,149.7635,360.172,159.7466,360.3261,169.7297,360.2259,179.7128,360.4363,189.6959,360.4969,199.6791,360.8435,209.6622,360.9289,219.6453,360.9371,229.6284,360.5124,239.6115,360.7214,249.5946,360.96,259.5777,359.5366,269.5608,360.9363,279.5439,359.9613,289.527,360.7916,299.5101,359.7628,309.4932,360.1893,319.4764,360.9994,329.4595,360.2091,339.4426,360.3631,349.4257,360.5964,359.4088,360.674,369.3919,360.2539,379.375,360.545,389.3581,359.6854,399.3412,360.5422,409.3243,360.806,419.3074,360.7023,429.2905,360.8708,439.2736,359.7747,449.2568,359.6056,459.2399,359.6364,469.223,360.1989,479.2061,360.0613,489.1892,360.9392,499.1723,360.0831,509.1554,359.9148,519.1385,360.4861,529.1216,359.591,539.1047,359.7387,549.0878,360.9068,559.0709,360.6935,569.0541,360.9923,579.0372,359.936,589.0203,360.577,599.0034,360.8482,608.9865,359.7854,618.9696,360.162,628.9527,360.3838,638.9358,360.9096,648.9189,360.2536,658.902,360.7204,668.8851,359.704,678.8682,359.5806,688.8514,360.7614,698.8345,359.5409,708.8176,360.7668,718.8007,360.4644,728.7838,359.9899,738.7669,359.904,748.75,360.7166,758.7331,359.9585,768.7162,360.8497,778.6993,359.7051,788.6824,360.8752,798.6655,360.7421,808.6486,360.5028,818.6318,360.305,828.6149,360.9844,838.598,360.8714,848.5811,360.4271,858.5642,360.526,868.5473,360.1275,878.5304,360.9743,888.5135,360.4127,898.4966,360.4304,908.4797,359.6495,918.4628,359.8526,928.4459,360.7886,938.4291,360.6876,948.4122,360.2149,958.3953,359.9356,968.3784,360.0389,978.3615,359.5716,988.3446,360.6725,998.3277,360.9974,1008.3108,360.7842,1018.2939,360.9527,1028.277,360.1211,1038.2601,360.345,1048.2432,359.8702,1058.2264,360.5419,1068.2095,360.5046,1078.1926,360.8102,1088.1757,360.0282,1098.1588,360.1234,1108.1419,360.7013,1118.125,360.8251,1128.1081,359.7453,1138.0912,360.0639,1148.0743,360.4071,1158.0574,359.647,1168.0405,360.6112,1178.0236,360.5158,1188.0068,360.1571,1197.9899,360.4001,1207.973,360.9865,1217.9561,359.9449,1227.9392,360.5728,1237.9223,360.5435,1247.9054,360.3736,1257.8885,360.3987,1267.8716,360.3713,1277.8547,359.6337,1287.8378,359.857,1297.8209,359.7963,1307.8041,360.3216,1317.7872,360.3459,1327.7703,360.4196,1337.7534,359.9668,1347.7365,360.1903,1357.7196,360.1376,1367.7027,360.8347,1377.6858,360.6844,1387.6689,359.7723,1397.652,360.1849,1407.6351,359.6806,1417.6182,360.5462,1427.6014,360.8663,1437.5845,360.8024,1447.5676,359.8223,1457.5507,360.7218,1467.5338,359.515,1477.5169,360.458,1487.5,360.2578,1487.2007,360.2578,1487.5967,370.1366,1487.7403,380.0154,1487.9721,389.8942,1486.7801,399.773,1487.9755,409.6518,1487.6782,419.5306,1487.8553,429.4094,1488.2478,439.2882,1487.5055,449.167,1487.6753,459.0458,1487.7134,468.9246,1487.6972,478.8033,1487.4992,488.6821,1488.2107,498.5609,1486.8903,508.4397,1488.0653,518.3185,1486.876,528.1973,1486.9597,538.0761,1487.54,547.9549,1487.5283,557.8337,1487.0072,567.7125,1487.9137,577.5913,1487.6089,587.4701,1488.2267,597.3489,1488.1671,607.2277,1487.0517,617.1065,1487.1021,626.9853,1487.3708,636.8641,1487.8555,646.7429,1487.903,656.6217,1487.8012,666.5004,1487.158,676.3792,1488.1364,686.258,1488.1338,696.1368,1487.5,706.0156,1487.5,705.9683,1477.5169,705.7766,1467.5338,705.6142,1457.5507,705.801,1447.5676,706.153,1437.5845,705.9472,1427.6014,705.5978,1417.6182,706.503,1407.6351,705.5567,1397.652,706.518,1387.6689,706.4429,1377.6858,706.3875,1367.7027,706.7081,1357.7196,705.7697,1347.7365,705.715,1337.7534,706.5345,1327.7703,705.4187,1317.7872,705.7816,1307.8041,706.1311,1297.8209,706.0843,1287.8378,705.6572,1277.8547,705.9726,1267.8716,706.7602,1257.8885,706.6641,1247.9054,705.4193,1237.9223,706.0941,1227.9392,705.5017,1217.9561,705.9893,1207.973,706.3086,1197.9899,706.4355,1188.0068,705.3509,1178.0236,706.4162,1168.0405,706.024,1158.0574,705.4603,1148.0743,705.5446,1138.0912,706.3422,1128.1081,706.2655,1118.125,705.9992,1108.1419,705.3435,1098.1588,706.6738,1088.1757,705.7038,1078.1926,705.4876,1068.2095,705.9483,1058.2264,706.6053,1048.2432,706.631,1038.2601,706.0508,1028.277,705.8645,1018.2939,706.1854,1008.3108,706.2018,998.3277,705.5078,988.3446,706.4296,978.3615,706.5744,968.3784,705.7999,958.3953,705.5864,948.4122,706.6903,938.4291,706.0366,928.4459,706.0155,918.4628,706.3147,908.4797,705.3699,898.4966,706.5456,888.5135,706.0002,878.5304,706.6844,868.5473,705.7998,858.5642,706.4246,848.5811,705.5716,838.598,706.2606,828.6149,706.3949,818.6318,705.6883,808.6486,706.3786,798.6655,705.4442,788.6824,705.5451,778.6993,706.6985,768.7162,706.7,758.7331,706.5841,748.75,705.6553,738.7669,706.3999,728.7838,705.5436,718.8007,706.0738,708.8176,706.0144,698.8345,705.7532,688.8514,706.6315,678.8682,706.4589,668.8851,705.6949,658.902,706.5423,648.9189,706.1075,638.9358,705.432,628.9527,705.7823,618.9696,705.4904,608.9865,705.8765,599.0034,705.3867,589.0203,705.4155,579.0372,706.0859,569.0541,705.8952,559.0709,705.9571,549.0878,705.8724,539.1047,706.1829,529.1216,705.4605,519.1385,706.1757,509.1554,705.2725,499.1723,706.3116,489.1892,706.6084,479.2061,706.5377,469.223,706.3769,459.2399,706.2078,449.2568,706.1213,439.2736,705.3756,429.2905,706.4622,419.3074,706.3453,409.3243,705.8623,399.3412,706.0098,389.3581,705.807,379.375,706.2333,369.3919,706.6962,359.4088,705.6617,349.4257,706.4845,339.4426,705.9264,329.4595,705.6364,319.4764,705.5837,309.4932,705.3709,299.5101,705.5748,289.527,706.0519,279.5439,706.2886,269.5608,706.5918,259.5777,706.4357,249.5946,705.3043,239.6115,706.6347,229.6284,706.5018,219.6453,706.5563,209.6622,706.5375,199.6791,705.3565,189.6959,705.7579,179.7128,706.3316,169.7297,705.5341,159.7466,705.9128,149.7635,706.0826,139.7804,706.3417,129.7973,706.0614,119.8142,706.7604,109.8311,706.427,99.848,706.2717,89.8649,705.4757,79.8818,706.3544,69.8986,705.4411,59.9155,706.3213,49.9324,706.0234,39.9493,706.3151,29.9662,705.9282,19.9831,705.8195,10,706.0156,9.2591,706.0156,9.7856,696.1368,9.2951,686.258,9.7539,676.3792,10.4379,666.5004,10.1607,656.6217,9.5485,646.7429,10.2458,636.8641,10.0656,626.9853,10.5433,617.1065,10.5649,607.2277,10.0937,597.3489,9.821,587.4701,9.7855,577.5913,9.9936,567.7125,10.6691,557.8337,9.3263,547.9549,9.8361,538.0761,10.2668,528.1973,10.7317,518.3185,10.2119,508.4397,9.8018,498.5609,9.2621,488.6821,9.5762,478.8033,9.7781,468.9246,10.3398,459.0458,10.3695,449.167,10.0518,439.2882,9.867,429.4094,9.2804,419.5306,10.129,409.6518,10.4354,399.773,10.6829,389.8942,10.0983,380.0154,10.0799,370.1366,10,360.2578" style="stroke:#000000;stroke-width:1.5;"/><text fill="#000000" font-family="FG Virgil" font-size="13" font-weight="bold" lengthAdjust="spacing" textLength="28" x="25" y="373.0264">loop</text><text fill="#000000" font-family="FG Virgil" font-size="11" font-weight="bold" lengthAdjust="spacing" textLength="137" x="98" y="372.2158">[for each selected invite]</text><polygon fill="#181818" points="808.5,393.3047,808.526,393.3697,810.4487,393.9765,812.5239,394.9645,814.5495,395.8284,816.4117,396.2839,818.5,397.3047,818.4904,397.2806,816.4472,397.9727,814.4525,398.786,812.4916,399.6836,810.4144,400.2907,808.5,401.3047,808.6305,401.4352,809.1514,400.3561,810.0534,399.6581,811.0018,399.0065,811.6798,398.0845,812.5,397.3047,812.5161,397.3208,811.6925,396.4972,810.9421,395.7468,810.1564,394.9611,809.438,394.2427,808.5,393.3047" style="stroke:#181818;stroke-width:1.0;"/><path d="M219,397.3047 L219,397.5849 L228.925,396.7523 L238.85,397.5624 L248.775,397.8376 L258.7,396.3535 L268.625,397.2011 L278.55,396.736 L288.475,396.7934 L298.4,397.2138 L308.325,396.3829 L318.25,398.0429 L328.175,396.4643 L338.1,397.041 L348.025,397.8806 L357.95,397.1903 L367.875,397.3957 L377.8,397.2621 L387.725,397.5427 L397.65,397.6235 L407.575,398.0856 L417.5,398.1994 L427.425,398.2104 L437.35,397.6442 L447.275,397.9228 L457.2,398.241 L467.125,396.3431 L477.05,398.2094 L486.975,396.9093 L496.9,398.0164 L506.825,396.6447 L516.75,397.2134 L526.675,398.2935 L536.6,397.2397 L546.525,397.4451 L556.45,397.7562 L566.375,397.8597 L576.3,397.2995 L586.225,397.6876 L596.15,396.5415 L606.075,397.6839 L616,398.0356 L625.925,397.8974 L635.85,398.1221 L645.775,396.6606 L655.7,396.4351 L665.625,396.4762 L675.55,397.2262 L685.475,397.0426 L695.4,398.2132 L705.325,397.0718 L715.25,396.8473 L725.175,397.609 L735.1,396.4156 L745.025,396.6125 L754.95,398.17 L764.875,397.8856 L774.8,398.284 L784.725,396.8756 L794.65,397.7303 L804.575,398.0919 L814.5,397.3047 " fill="none" style="stroke:#181818;stroke-width:1.0;"/><text fill="#000000" font-family="FG Virgil" font-size="13" lengthAdjust="spacing" textLength="210" x="226" y="392.5498">invitesReceived(myUser.username())</text><polygon fill="#181818" points="1015,421.8281,1015.026,421.8932,1016.9487,422.4999,1019.0239,423.4879,1021.0495,424.3518,1022.9117,424.8073,1025,425.8281,1024.9904,425.8041,1022.9472,426.4961,1020.9525,427.3094,1018.9916,428.207,1016.9144,428.8142,1015,429.8281,1015.1305,429.9586,1015.6514,428.8796,1016.5534,428.1815,1017.5018,427.5299,1018.1798,426.6079,1019,425.8281,1019.0161,425.8442,1018.1925,425.0206,1017.4421,424.2702,1016.6564,423.4845,1015.938,422.7662,1015,421.8281" style="stroke:#181818;stroke-width:1.0;"/><path d="M830.5,425.8281 L830.5,426.1084 L840.5263,425.2757 L850.5526,426.0858 L860.5789,426.361 L870.6053,424.8769 L880.6316,425.7245 L890.6579,425.2595 L900.6842,425.3168 L910.7105,425.7372 L920.7368,424.9063 L930.7632,426.5663 L940.7895,424.9878 L950.8158,425.5644 L960.8421,426.4041 L970.8684,425.7138 L980.8947,425.9191 L990.9211,425.7855 L1000.9474,426.0662 L1010.9737,426.147 L1021,425.8281 " fill="none" style="stroke:#181818;stroke-width:1.0;"/><text fill="#000000" font-family="FG Virgil" font-size="13" lengthAdjust="spacing" textLength="153" x="837.5" y="421.0732">invitesReceived(username)</text><polygon fill="#181818" points="1289,450.3516,1289.026,450.4166,1290.9487,451.0233,1293.0239,452.0114,1295.0495,452.8753,1296.9117,453.3308,1299,454.3516,1298.9904,454.3275,1296.9472,455.0196,1294.9525,455.8329,1292.9916,456.7305,1290.9144,457.3376,1289,458.3516,1289.1305,458.4821,1289.6514,457.403,1290.5534,456.7049,1291.5018,456.0534,1292.1798,455.1313,1293,454.3516,1293.0161,454.3676,1292.1925,453.544,1291.4421,452.7936,1290.6564,452.0079,1289.938,451.2896,1289,450.3516" style="stroke:#181818;stroke-width:1.0;"/><path d="M1037,454.3516 L1037,454.6318 L1046.9231,453.7991 L1056.8462,454.6093 L1066.7692,454.8845 L1076.6923,453.4004 L1086.6154,454.2479 L1096.5385,453.7829 L1106.4615,453.8402 L1116.3846,454.2607 L1126.3077,453.4297 L1136.2308,455.0898 L1146.1538,453.5112 L1156.0769,454.0879 L1166,454.9275 L1175.9231,454.2372 L1185.8462,454.4425 L1195.7692,454.309 L1205.6923,454.5896 L1215.6154,454.6704 L1225.5385,455.1325 L1235.4615,455.2463 L1245.3846,455.2572 L1255.3077,454.6911 L1265.2308,454.9697 L1275.1538,455.2879 L1285.0769,453.39 L1295,454.3516 " fill="none" style="stroke:#181818;stroke-width:1.0;"/><text fill="#000000" font-family="FG Virgil" font-size="13" lengthAdjust="spacing" textLength="245" x="1044" y="449.5967">findInvitesByReceiverUsername(username)</text><polygon fill="#181818" points="1048,464.3516,1048.026,464.4166,1045.9487,465.0233,1044.0239,466.0114,1042.0495,466.8753,1039.9117,467.3308,1038,468.3516,1037.9904,468.3275,1039.9472,469.0196,1041.9525,469.8329,1043.9916,470.7305,1045.9144,471.3376,1048,472.3516,1048.1305,472.4821,1047.0514,471.403,1046.3534,470.7049,1045.7018,470.0534,1044.7798,469.1313,1044,468.3516,1044.0161,468.3676,1044.7925,467.544,1045.6421,466.7936,1046.4564,466.0079,1047.338,465.2896,1048,464.3516" style="stroke:#181818;stroke-width:1.0;"/><path d="M1042,468.3516 L1042,468.6318 L1052.1154,467.7991 L1062.2308,468.6093 L1072.3462,468.8845 L1082.4615,467.4004 L1092.5769,468.2479 L1102.6923,467.7829 L1112.8077,467.8402 L1122.9231,468.2607 L1133.0385,467.4297 L1143.1538,469.0898 L1153.2692,467.5112 L1163.3846,468.0879 L1173.5,468.9275 L1183.6154,468.2372 L1193.7308,468.4425 L1203.8462,468.309 L1213.9615,468.5896 L1224.0769,468.6704 L1234.1923,469.1325 L1244.3077,469.2463 L1254.4231,469.2572 L1264.5385,468.6911 L1274.6538,468.9697 L1284.7692,469.2879 L1294.8846,467.39 L1305,468.3516 " fill="none" style="stroke:#181818;stroke-width:1.0;stroke-dasharray:2.0,2.0;"/><polygon fill="#181818" points="841.5,478.3516,841.526,478.4166,839.4487,479.0233,837.5239,480.0114,835.5495,480.8753,833.4117,481.3308,831.5,482.3516,831.4904,482.3275,833.4472,483.0196,835.4525,483.8329,837.4916,484.7305,839.4144,485.3376,841.5,486.3516,841.6305,486.4821,840.5514,485.403,839.8534,484.7049,839.2018,484.0534,838.2798,483.1313,837.5,482.3516,837.5161,482.3676,838.2925,481.544,839.1421,480.7936,839.9564,480.0079,840.838,479.2896,841.5,478.3516" style="stroke:#181818;stroke-width:1.0;"/><path d="M835.5,482.3516 L835.5,482.6318 L845.275,481.7991 L855.05,482.6093 L864.825,482.8845 L874.6,481.4004 L884.375,482.2479 L894.15,481.7829 L903.925,481.8402 L913.7,482.2607 L923.475,481.4297 L933.25,483.0898 L943.025,481.5112 L952.8,482.0879 L962.575,482.9275 L972.35,482.2372 L982.125,482.4425 L991.9,482.309 L1001.675,482.5896 L1011.45,482.6704 L1021.225,483.1325 L1031,482.3516 " fill="none" style="stroke:#181818;stroke-width:1.0;stroke-dasharray:2.0,2.0;"/><polygon fill="#181818" points="230,492.3516,230.026,492.4166,227.9487,493.0233,226.0239,494.0114,224.0495,494.8753,221.9117,495.3308,220,496.3516,219.9904,496.3275,221.9472,497.0196,223.9525,497.8329,225.9916,498.7305,227.9144,499.3376,230,500.3516,230.1305,500.4821,229.0514,499.403,228.3534,498.7049,227.7018,498.0534,226.7798,497.1313,226,496.3516,226.0161,496.3676,226.7925,495.544,227.6421,494.7936,228.4564,494.0079,229.338,493.2896,230,492.3516" style="stroke:#181818;stroke-width:1.0;"/><path d="M224,496.3516 L224,496.6318 L234.0083,495.7991 L244.0167,496.6093 L254.025,496.8845 L264.0333,495.4004 L274.0417,496.2479 L284.05,495.7829 L294.0583,495.8402 L304.0667,496.2607 L314.075,495.4297 L324.0833,497.0898 L334.0917,495.5112 L344.1,496.0879 L354.1083,496.9275 L364.1167,496.2372 L374.125,496.4425 L384.1333,496.309 L394.1417,496.5896 L404.15,496.6704 L414.1583,497.1325 L424.1667,497.2463 L434.175,497.2572 L444.1833,496.6911 L454.1917,496.9697 L464.2,497.2879 L474.2083,495.39 L484.2167,497.2562 L494.225,495.9562 L504.2333,497.0633 L514.2417,495.6915 L524.25,496.2602 L534.2583,497.3404 L544.2667,496.2866 L554.275,496.492 L564.2833,496.8031 L574.2917,496.9065 L584.3,496.3464 L594.3083,496.7345 L604.3167,495.5883 L614.325,496.7307 L624.3333,497.0825 L634.3417,496.9443 L644.35,497.1689 L654.3583,495.7075 L664.3667,495.482 L674.375,495.523 L684.3833,496.2731 L694.3917,496.0895 L704.4,497.2601 L714.4083,496.1187 L724.4167,495.8942 L734.425,496.6559 L744.4333,495.4624 L754.4417,495.6594 L764.45,497.2168 L774.4583,496.9325 L784.4667,497.3309 L794.475,495.9225 L804.4833,496.7772 L814.4917,497.1388 L824.5,496.3516 " fill="none" style="stroke:#181818;stroke-width:1.0;stroke-dasharray:2.0,2.0;"/><polygon fill="#181818" points="71.5,535.3984,71.526,535.4635,69.4487,536.0702,67.5239,537.0583,65.5495,537.9221,63.4117,538.3776,61.5,539.3984,61.4904,539.3744,63.4472,540.0664,65.4525,540.8797,67.4916,541.7773,69.4144,542.3845,71.5,543.3984,71.6305,543.5289,70.5514,542.4499,69.8534,541.7518,69.2018,541.1002,68.2798,540.1782,67.5,539.3984,67.5161,539.4145,68.2925,538.5909,69.1421,537.8405,69.9564,537.0548,70.838,536.3365,71.5,535.3984" style="stroke:#181818;stroke-width:1.0;"/><path d="M65.5,539.3984 L65.5,539.6787 L75.6786,538.846 L85.8571,539.6562 L96.0357,539.9313 L106.2143,538.4472 L116.3929,539.2948 L126.5714,538.8298 L136.75,538.8871 L146.9286,539.3076 L157.1071,538.4766 L167.2857,540.1366 L177.4643,538.5581 L187.6429,539.1347 L197.8214,539.9744 L208,539.3984 " fill="none" style="stroke:#181818;stroke-width:1.0;stroke-dasharray:2.0,2.0;"/><text fill="#000000" font-family="FG Virgil" font-size="13" lengthAdjust="spacing" textLength="83" x="77.5" y="520.1201">ask user invite</text><text fill="#000000" font-family="FG Virgil" font-size="13" lengthAdjust="spacing" textLength="52" x="77.5" y="534.6436">selection</text><polygon fill="#181818" points="197,578.4453,197.026,578.5104,198.9487,579.1171,201.0239,580.1051,203.0495,580.969,204.9117,581.4245,207,582.4453,206.9904,582.4213,204.9472,583.1133,202.9525,583.9266,200.9916,584.8242,198.9144,585.4313,197,586.4453,197.1305,586.5758,197.6514,585.4968,198.5534,584.7987,199.5018,584.1471,200.1798,583.2251,201,582.4453,201.0161,582.4614,200.1925,581.6378,199.4421,580.8874,198.6564,580.1017,197.938,579.3834,197,578.4453" style="stroke:#181818;stroke-width:1.0;"/><path d="M60.5,582.4453 L60.5,582.7256 L70.6786,581.8929 L80.8571,582.703 L91.0357,582.9782 L101.2143,581.4941 L111.3929,582.3417 L121.5714,581.8767 L131.75,581.934 L141.9286,582.3544 L152.1071,581.5235 L162.2857,583.1835 L172.4643,581.6049 L182.6429,582.1816 L192.8214,583.0212 L203,582.4453 " fill="none" style="stroke:#181818;stroke-width:1.0;"/><text fill="#000000" font-family="FG Virgil" font-size="13" lengthAdjust="spacing" textLength="60" x="67.5" y="563.167">select and</text><text fill="#000000" font-family="FG Virgil" font-size="13" lengthAdjust="spacing" textLength="65" x="67.5" y="577.6904">reject invite</text><polygon fill="#181818" points="808.5,606.9688,808.526,607.0338,810.4487,607.6405,812.5239,608.6286,814.5495,609.4924,816.4117,609.948,818.5,610.9688,818.4904,610.9447,816.4472,611.6368,814.4525,612.4501,812.4916,613.3477,810.4144,613.9548,808.5,614.9688,808.6305,615.0992,809.1514,614.0202,810.0534,613.3221,811.0018,612.6706,811.6798,611.7485,812.5,610.9688,812.5161,610.9848,811.6925,610.1612,810.9421,609.4108,810.1564,608.6251,809.438,607.9068,808.5,606.9688" style="stroke:#181818;stroke-width:1.0;"/><path d="M219,610.9688 L219,611.249 L228.925,610.4163 L238.85,611.2265 L248.775,611.5017 L258.7,610.0176 L268.625,610.8651 L278.55,610.4001 L288.475,610.4574 L298.4,610.8779 L308.325,610.0469 L318.25,611.7069 L328.175,610.1284 L338.1,610.7051 L348.025,611.5447 L357.95,610.8544 L367.875,611.0597 L377.8,610.9262 L387.725,611.2068 L397.65,611.2876 L407.575,611.7497 L417.5,611.8635 L427.425,611.8744 L437.35,611.3083 L447.275,611.5869 L457.2,611.9051 L467.125,610.0072 L477.05,611.8734 L486.975,610.5734 L496.9,611.6805 L506.825,610.3087 L516.75,610.8774 L526.675,611.9576 L536.6,610.9038 L546.525,611.1092 L556.45,611.4203 L566.375,611.5237 L576.3,610.9635 L586.225,611.3517 L596.15,610.2055 L606.075,611.3479 L616,611.6997 L625.925,611.5615 L635.85,611.7861 L645.775,610.3246 L655.7,610.0992 L665.625,610.1402 L675.55,610.8902 L685.475,610.7067 L695.4,611.8773 L705.325,610.7358 L715.25,610.5113 L725.175,611.2731 L735.1,610.0796 L745.025,610.2766 L754.95,611.834 L764.875,611.5496 L774.8,611.9481 L784.725,610.5397 L794.65,611.3943 L804.575,611.756 L814.5,610.9688 " fill="none" style="stroke:#181818;stroke-width:1.0;"/><text fill="#000000" font-family="FG Virgil" font-size="13" lengthAdjust="spacing" textLength="119" x="226" y="606.2139">refuseInvite(theInvite)</text><polygon fill="#181818" points="1015,635.4922,1015.026,635.5572,1016.9487,636.164,1019.0239,637.152,1021.0495,638.0159,1022.9117,638.4714,1025,639.4922,1024.9904,639.4681,1022.9472,640.1602,1020.9525,640.9735,1018.9916,641.8711,1016.9144,642.4782,1015,643.4922,1015.1305,643.6227,1015.6514,642.5436,1016.5534,641.8456,1017.5018,641.194,1018.1798,640.272,1019,639.4922,1019.0161,639.5083,1018.1925,638.6847,1017.4421,637.9343,1016.6564,637.1486,1015.938,636.4302,1015,635.4922" style="stroke:#181818;stroke-width:1.0;"/><path d="M830.5,639.4922 L830.5,639.7724 L840.5263,638.9398 L850.5526,639.7499 L860.5789,640.0251 L870.6053,638.541 L880.6316,639.3886 L890.6579,638.9235 L900.6842,638.9809 L910.7105,639.4013 L920.7368,638.5704 L930.7632,640.2304 L940.7895,638.6518 L950.8158,639.2285 L960.8421,640.0681 L970.8684,639.3778 L980.8947,639.5832 L990.9211,639.4496 L1000.9474,639.7302 L1010.9737,639.811 L1021,639.4922 " fill="none" style="stroke:#181818;stroke-width:1.0;"/><text fill="#000000" font-family="FG Virgil" font-size="13" lengthAdjust="spacing" textLength="119" x="837.5" y="634.7373">refuseInvite(theInvite)</text><polygon fill="#181818" points="1408.5,664.0156,1408.526,664.0807,1410.4487,664.6874,1412.5239,665.6754,1414.5495,666.5393,1416.4117,666.9948,1418.5,668.0156,1418.4904,667.9916,1416.4472,668.6836,1414.4525,669.4969,1412.4916,670.3945,1410.4144,671.0017,1408.5,672.0156,1408.6305,672.1461,1409.1514,671.0671,1410.0534,670.369,1411.0018,669.7174,1411.6798,668.7954,1412.5,668.0156,1412.5161,668.0317,1411.6925,667.2081,1410.9421,666.4577,1410.1564,665.672,1409.438,664.9537,1408.5,664.0156" style="stroke:#181818;stroke-width:1.0;"/><path d="M1037,668.0156 L1037,668.2959 L1046.9342,667.4632 L1056.8684,668.2733 L1066.8026,668.5485 L1076.7368,667.0644 L1086.6711,667.912 L1096.6053,667.447 L1106.5395,667.5043 L1116.4737,667.9247 L1126.4079,667.0938 L1136.3421,668.7538 L1146.2763,667.1753 L1156.2105,667.7519 L1166.1447,668.5916 L1176.0789,667.9013 L1186.0132,668.1066 L1195.9474,667.973 L1205.8816,668.2537 L1215.8158,668.3345 L1225.75,668.7965 L1235.6842,668.9104 L1245.6184,668.9213 L1255.5526,668.3551 L1265.4868,668.6337 L1275.4211,668.9519 L1285.3553,667.054 L1295.2895,668.9203 L1305.2237,667.6203 L1315.1579,668.7274 L1325.0921,667.3556 L1335.0263,667.9243 L1344.9605,669.0044 L1354.8947,667.9506 L1364.8289,668.156 L1374.7632,668.4671 L1384.6974,668.5706 L1394.6316,668.0104 L1404.5658,668.3986 L1414.5,668.0156 " fill="none" style="stroke:#181818;stroke-width:1.0;"/><text fill="#000000" font-family="FG Virgil" font-size="13" lengthAdjust="spacing" textLength="188" x="1044" y="663.2607">setState(InviteState.REJECTED)</text><!--MD5=[373f0f6fa4782255571432e2fa337eed]
@startuml
'http://plantuml.com/skinparam.html
skinparam handwritten true
skinparam monochrome true
skinparam packageStyle rect
skinparam defaultFontName FG Virgil
skinparam shadowing false

actor SystemUser as Actor
participant AcceptRefuseInvitesUI as UI
participant AuthzRegistry as AuthzRes
participant AuthorizationService as AuthzSvc
participant UserSession as UserS
participant AcceptRefuseInvitesController as InvitesController
participant AcceptRefuseInvitesService as Invitesvc
participant InviteRepository as Repo
participant "theInvite:Invite" as Invite


-> UI: Accept/Refuse meeting invites
activate UI
    UI -> AuthzRes : authz=authorizationService()
    activate AuthzRes
    deactivate AuthzRes
    UI -> AuthzSvc : s=session()
    activate AuthzSvc
    deactivate AuthzSvc
    UI -> UserS : myUser=authenticatedUser()
    activate UserS
    deactivate UserS

    UI -> InvitesController: create(InviteRepository)
    activate InvitesController
    deactivate InvitesController

    loop for each selected invite
    UI -> InvitesController: invitesReceived(myUser.username())
    activate InvitesController
    InvitesController -> Invitesvc : invitesReceived(username)
    activate Invitesvc
    Invitesvc -> Repo : findInvitesByReceiverUsername(username)
    activate Repo
    Repo - -> Invitesvc
    deactivate Repo
    Invitesvc - -> InvitesController
    deactivate Invitesvc
    InvitesController - -> UI
    deactivate InvitesController
    UI - -> Actor : ask user invite \nselection
    Actor -> UI : select and \nreject invite

    UI -> InvitesController : refuseInvite(theInvite)
    activate InvitesController
        InvitesController -> Invitesvc : refuseInvite(theInvite)
        activate Invitesvc
            Invitesvc -> Invite : setState(InviteState.REJECTED)
            activate Invite
            deactivate Invite
        deactivate Invitesvc
    deactivate InvitesController

deactivate UI
end
@enduml

@startuml
skinparam handwritten true
skinparam monochrome true
skinparam packageStyle rect
skinparam defaultFontName FG Virgil
skinparam shadowing false

actor SystemUser as Actor
participant AcceptRefuseInvitesUI as UI
participant AuthzRegistry as AuthzRes
participant AuthorizationService as AuthzSvc
participant UserSession as UserS
participant AcceptRefuseInvitesController as InvitesController
participant AcceptRefuseInvitesService as Invitesvc
participant InviteRepository as Repo
participant "theInvite:Invite" as Invite


-> UI: Accept/Refuse meeting invites
activate UI
    UI -> AuthzRes : authz=authorizationService()
    activate AuthzRes
    deactivate AuthzRes
    UI -> AuthzSvc : s=session()
    activate AuthzSvc
    deactivate AuthzSvc
    UI -> UserS : myUser=authenticatedUser()
    activate UserS
    deactivate UserS

    UI -> InvitesController: create(InviteRepository)
    activate InvitesController
    deactivate InvitesController

    loop for each selected invite
    UI -> InvitesController: invitesReceived(myUser.username())
    activate InvitesController
    InvitesController -> Invitesvc : invitesReceived(username)
    activate Invitesvc
    Invitesvc -> Repo : findInvitesByReceiverUsername(username)
    activate Repo
    Repo - -> Invitesvc
    deactivate Repo
    Invitesvc - -> InvitesController
    deactivate Invitesvc
    InvitesController - -> UI
    deactivate InvitesController
    UI - -> Actor : ask user invite \nselection
    Actor -> UI : select and \nreject invite

    UI -> InvitesController : refuseInvite(theInvite)
    activate InvitesController
        InvitesController -> Invitesvc : refuseInvite(theInvite)
        activate Invitesvc
            Invitesvc -> Invite : setState(InviteState.REJECTED)
            activate Invite
            deactivate Invite
        deactivate Invitesvc
    deactivate InvitesController

deactivate UI
end
@enduml

PlantUML version 1.2022.7(Mon Aug 22 18:01:30 WEST 2022)
(GPL source distribution)
Java Runtime: OpenJDK Runtime Environment
JVM: OpenJDK 64-Bit Server VM
Default Encoding: Cp1252
Language: pt
Country: PT
--></g></svg>