<?xml version="1.0" encoding="UTF-8" standalone="no"?><svg xmlns="http://www.w3.org/2000/svg" xmlns:xlink="http://www.w3.org/1999/xlink" contentStyleType="text/css" height="744px" preserveAspectRatio="none" style="width:1318px;height:744px;background:#FFFFFF;" version="1.1" viewBox="0 0 1318 744" width="1318px" zoomAndPan="magnify"><defs/><g><polygon fill="#FFFFFF" points="130.5,111.1641,130.5,111.2341,132.5,111.026,134.5,111.2285,136.5,111.2973,138.5,110.9263,140.5,111.1641,140.4223,111.1641,140.0735,121.0775,140.1165,130.991,140.4318,140.9045,139.8086,150.818,141.0536,160.7315,139.8697,170.645,140.3022,180.5584,140.9319,190.4719,140.4142,200.3854,140.5682,210.2989,140.4681,220.2124,140.6785,230.1259,140.7391,240.0394,141.0857,249.9528,141.1711,259.8663,141.1793,269.7798,140.7546,279.6933,140.9636,289.6068,141.2022,299.5203,139.7788,309.4337,141.1785,319.3472,140.2035,329.2607,141.0338,339.1742,140.005,349.0877,140.4315,359.0012,141.2416,368.9146,140.4513,378.8281,140.6053,388.7416,140.8386,398.6551,140.9162,408.5686,140.4961,418.4821,140.7872,428.3955,139.9276,438.309,140.7844,448.2225,141.0482,458.136,140.9445,468.0495,141.113,477.963,140.0169,487.8764,139.8478,497.7899,139.8786,507.7034,140.4411,517.6169,140.3035,527.5304,141.1814,537.4439,140.3253,547.3573,140.1569,557.2708,140.7283,567.1843,139.8332,577.0978,139.9809,587.0113,141.149,596.9248,140.9357,606.8383,141.2345,616.7517,140.1782,626.6652,140.8192,636.5787,140.5,646.4922,140.5,646.689,138.5,646.3347,136.5,646.4602,134.5,646.5342,132.5,646.7094,130.5,646.4922,130.4958,646.4922,130.9626,636.5787,129.9462,626.6652,129.8227,616.7517,131.0036,606.8383,129.7831,596.9248,131.009,587.0113,130.7066,577.0978,130.2321,567.1843,130.1462,557.2708,130.9588,547.3573,130.2007,537.4439,131.0919,527.5304,129.9473,517.6169,131.1174,507.7034,130.9843,497.7899,130.745,487.8764,130.5472,477.963,131.2266,468.0495,131.1136,458.136,130.6693,448.2225,130.7682,438.309,130.3697,428.3955,131.2165,418.4821,130.6549,408.5686,130.6726,398.6551,129.8916,388.7416,130.0948,378.8281,131.0307,368.9146,130.9298,359.0012,130.4571,349.0877,130.1778,339.1742,130.2811,329.2607,129.8138,319.3472,130.9147,309.4337,131.2396,299.5203,131.0264,289.6068,131.1949,279.6933,130.3633,269.7798,130.5872,259.8663,130.1124,249.9528,130.784,240.0394,130.7468,230.1259,131.0524,220.2124,130.2703,210.2989,130.3656,200.3854,130.9435,190.4719,131.0673,180.5584,129.9875,170.645,130.3061,160.7315,130.6493,150.818,129.8892,140.9045,130.8534,130.991,130.758,121.0775,130.5,111.1641" style="stroke:#181818;stroke-width:1.0;"/><polygon fill="#FFFFFF" points="395.5,315.2578,395.5,315.3279,397.5,315.1197,399.5,315.3222,401.5,315.391,403.5,315.02,405.5,315.2578,405.4223,315.2578,405.0735,325.0117,405.1165,334.7656,405.4318,344.5195,404.8086,354.2734,406.0536,364.0273,405.5,373.7813,405.5,373.5712,403.5,373.7153,401.5,373.9252,399.5,373.7527,397.5,373.804,395.5,373.7813,395.4681,373.7813,395.6785,364.0273,395.7391,354.2734,396.0857,344.5195,396.1711,334.7656,396.1793,325.0117,395.5,315.2578" style="stroke:#181818;stroke-width:1.0;"/><polygon fill="#FFFFFF" points="395.5,460.8281,395.5,460.8982,397.5,460.69,399.5,460.8926,401.5,460.9614,403.5,460.5903,405.5,460.8281,405.4223,460.8281,405.0735,470.6494,405.1165,480.4707,405.4318,490.292,404.8086,500.1133,406.0536,509.9346,404.8697,519.7559,405.3022,529.5771,405.9319,539.3984,405.4142,549.2197,405.5682,559.041,405.4681,568.8623,405.6785,578.6836,405.7391,588.5049,406.0857,598.3262,406.1711,608.1475,405.5,617.9688,405.5,618.1952,403.5,618.0536,401.5,618.1233,399.5,618.2028,397.5,617.7284,395.5,617.9688,396.1785,617.9688,395.2035,608.1475,396.0338,598.3262,395.005,588.5049,395.4315,578.6836,396.2416,568.8623,395.4513,559.041,395.6053,549.2197,395.8386,539.3984,395.9162,529.5771,395.4961,519.7559,395.7872,509.9346,394.9276,500.1133,395.7844,490.292,396.0482,480.4707,395.9445,470.6494,395.5,460.8281" style="stroke:#181818;stroke-width:1.0;"/><polygon fill="#FFFFFF" points="546.5,139.6875,546.5,139.7576,548.5,139.5494,550.5,139.7519,552.5,139.8207,554.5,139.4497,556.5,139.6875,556.4741,139.6875,556.3578,145.6875,556.3722,151.6875,556.4773,157.6875,556.2695,163.6875,556.5,169.6875,556.5,169.872,554.5,169.4774,552.5,169.6216,550.5,169.8315,548.5,169.6589,546.5,169.6875,546.5227,169.6875,546.4894,163.6875,546.5595,157.6875,546.5797,151.6875,546.6952,145.6875,546.5,139.6875" style="stroke:#181818;stroke-width:1.0;"/><polygon fill="#FFFFFF" points="678.5,198.2109,678.5,198.281,680.5,198.0728,682.5,198.2754,684.5,198.3442,686.5,197.9731,688.5,198.2109,688.4741,198.2109,688.3578,204.2109,688.3722,210.2109,688.4773,216.2109,688.2695,222.2109,688.5,228.2109,688.5,228.3955,686.5,228.0008,684.5,228.145,682.5,228.3549,680.5,228.1823,678.5,228.2109,678.5227,228.2109,678.4894,222.2109,678.5595,216.2109,678.5797,210.2109,678.6952,204.2109,678.5,198.2109" style="stroke:#181818;stroke-width:1.0;"/><polygon fill="#FFFFFF" points="806.5,256.7344,806.5,256.8044,808.5,256.5963,810.5,256.7988,812.5,256.8676,814.5,256.4966,816.5,256.7344,816.4741,256.7344,816.3578,262.7344,816.3722,268.7344,816.4773,274.7344,816.2695,280.7344,816.5,286.7344,816.5,286.9189,814.5,286.5243,812.5,286.6685,810.5,286.8784,808.5,286.7058,806.5,286.7344,806.5227,286.7344,806.4894,280.7344,806.5595,274.7344,806.5797,268.7344,806.6952,262.7344,806.5,256.7344" style="stroke:#181818;stroke-width:1.0;"/><polygon fill="#FFFFFF" points="946,343.7813,946,343.8513,948,343.6431,950,343.8457,952,343.9145,954,343.5435,956,343.7813,955.9741,343.7813,955.8578,349.7813,955.8722,355.7813,955.9773,361.7813,955.7695,367.7813,956,373.7813,956,373.9658,954,373.5712,952,373.7153,950,373.9252,948,373.7527,946,373.7813,946.0227,373.7813,945.9894,367.7813,946.0595,361.7813,946.0797,355.7813,946.1952,349.7813,946,343.7813" style="stroke:#181818;stroke-width:1.0;"/><polygon fill="#FFFFFF" points="946,489.3516,946,489.4216,948,489.2135,950,489.416,952,489.4848,954,489.1138,956,489.3516,955.9223,489.3516,955.5735,499.3609,955.6165,509.3703,955.9318,519.3797,955.3086,529.3891,956.5536,539.3984,955.3697,549.4078,955.8022,559.4172,956.4319,569.4266,955.9142,579.4359,956,589.4453,956,589.4681,954,589.4347,952,589.5048,950,589.525,948,589.6405,946,589.4453,946.6711,589.4453,946.6793,579.4359,946.2546,569.4266,946.4636,559.4172,946.7022,549.4078,945.2788,539.3984,946.6785,529.3891,945.7035,519.3797,946.5338,509.3703,945.505,499.3609,946,489.3516" style="stroke:#181818;stroke-width:1.0;"/><polygon fill="#FFFFFF" points="1070.5,402.3047,1070.5,402.3747,1072.5,402.1666,1074.5,402.3691,1076.5,402.4379,1078.5,402.0669,1080.5,402.3047,1080.4741,402.3047,1080.3578,408.3047,1080.3722,414.3047,1080.4773,420.3047,1080.2695,426.3047,1080.5,432.3047,1080.5,432.4892,1078.5,432.0946,1076.5,432.2388,1074.5,432.4487,1072.5,432.2761,1070.5,432.3047,1070.5227,432.3047,1070.4894,426.3047,1070.5595,420.3047,1070.5797,414.3047,1070.6952,408.3047,1070.5,402.3047" style="stroke:#181818;stroke-width:1.0;"/><polygon fill="#FFFFFF" points="1249,532.3984,1249,532.4685,1251,532.2603,1253,532.4629,1255,532.5317,1257,532.1606,1259,532.3984,1258.9741,532.3984,1258.8578,538.1031,1258.8722,543.8078,1258.9773,549.5125,1258.7695,555.2172,1259,560.9219,1259,561.1064,1257,560.7118,1255,560.856,1253,561.0659,1251,560.8933,1249,560.9219,1249.0227,560.9219,1248.9894,555.2172,1249.0595,549.5125,1249.0797,543.8078,1249.1952,538.1031,1249,532.3984" style="stroke:#181818;stroke-width:1.0;"/><path d="M32,80.6406 L32.2802,80.6406 L31.4476,90.707 L32.2577,100.7734 L32.5329,110.8398 L31.0488,120.9063 L31.8964,130.9727 L31.4313,141.0391 L31.4887,151.1055 L31.9091,161.1719 L31.0782,171.2383 L32.7382,181.3047 L31.1596,191.3711 L31.7363,201.4375 L32.5759,211.5039 L31.8856,221.5703 L32.091,231.6367 L31.9574,241.7031 L32.238,251.7695 L32.3188,261.8359 L32.7809,271.9023 L32.8947,281.9688 L32.9057,292.0352 L32.3395,302.1016 L32.6181,312.168 L32.9363,322.2344 L31.0384,332.3008 L32.9047,342.3672 L31.6047,352.4336 L32.7117,362.5 L31.34,372.5664 L31.9087,382.6328 L32.9888,392.6992 L31.935,402.7656 L32.1404,412.832 L32.4515,422.8984 L32.555,432.9648 L31.9948,443.0313 L32.383,453.0977 L31.2368,463.1641 L32.3792,473.2305 L32.7309,483.2969 L32.5927,493.3633 L32.8174,503.4297 L31.3559,513.4961 L31.1304,523.5625 L31.1715,533.6289 L31.9215,543.6953 L31.738,553.7617 L32.9085,563.8281 L31.7671,573.8945 L31.5426,583.9609 L32.3044,594.0273 L31.1109,604.0938 L31.3078,614.1602 L32.8653,624.2266 L32.5809,634.293 L32.9793,644.3594 L31.5709,654.4258 L32,664.4922 " fill="none" style="stroke:#181818;stroke-width:0.5;stroke-dasharray:5.0,5.0;"/><path d="M135,80.6406 L135.2802,80.6406 L134.4476,90.707 L135.2577,100.7734 L135.5329,110.8398 L134.0488,120.9063 L134.8964,130.9727 L134.4313,141.0391 L134.4887,151.1055 L134.9091,161.1719 L134.0782,171.2383 L135.7382,181.3047 L134.1596,191.3711 L134.7363,201.4375 L135.5759,211.5039 L134.8856,221.5703 L135.091,231.6367 L134.9574,241.7031 L135.238,251.7695 L135.3188,261.8359 L135.7809,271.9023 L135.8947,281.9688 L135.9057,292.0352 L135.3395,302.1016 L135.6181,312.168 L135.9363,322.2344 L134.0384,332.3008 L135.9047,342.3672 L134.6047,352.4336 L135.7117,362.5 L134.34,372.5664 L134.9087,382.6328 L135.9888,392.6992 L134.935,402.7656 L135.1404,412.832 L135.4515,422.8984 L135.555,432.9648 L134.9948,443.0313 L135.383,453.0977 L134.2368,463.1641 L135.3792,473.2305 L135.7309,483.2969 L135.5927,493.3633 L135.8174,503.4297 L134.3559,513.4961 L134.1304,523.5625 L134.1715,533.6289 L134.9215,543.6953 L134.738,553.7617 L135.9085,563.8281 L134.7671,573.8945 L134.5426,583.9609 L135.3044,594.0273 L134.1109,604.0938 L134.3078,614.1602 L135.8653,624.2266 L135.5809,634.293 L135.9793,644.3594 L134.5709,654.4258 L135,664.4922 " fill="none" style="stroke:#181818;stroke-width:0.5;stroke-dasharray:5.0,5.0;"/><path d="M400,80.6406 L400.2802,80.6406 L399.4476,90.707 L400.2577,100.7734 L400.5329,110.8398 L399.0488,120.9063 L399.8964,130.9727 L399.4313,141.0391 L399.4887,151.1055 L399.9091,161.1719 L399.0782,171.2383 L400.7382,181.3047 L399.1596,191.3711 L399.7363,201.4375 L400.5759,211.5039 L399.8856,221.5703 L400.091,231.6367 L399.9574,241.7031 L400.238,251.7695 L400.3188,261.8359 L400.7809,271.9023 L400.8947,281.9688 L400.9057,292.0352 L400.3395,302.1016 L400.6181,312.168 L400.9363,322.2344 L399.0384,332.3008 L400.9047,342.3672 L399.6047,352.4336 L400.7117,362.5 L399.34,372.5664 L399.9087,382.6328 L400.9888,392.6992 L399.935,402.7656 L400.1404,412.832 L400.4515,422.8984 L400.555,432.9648 L399.9948,443.0313 L400.383,453.0977 L399.2368,463.1641 L400.3792,473.2305 L400.7309,483.2969 L400.5927,493.3633 L400.8174,503.4297 L399.3559,513.4961 L399.1304,523.5625 L399.1715,533.6289 L399.9215,543.6953 L399.738,553.7617 L400.9085,563.8281 L399.7671,573.8945 L399.5426,583.9609 L400.3044,594.0273 L399.1109,604.0938 L399.3078,614.1602 L400.8653,624.2266 L400.5809,634.293 L400.9793,644.3594 L399.5709,654.4258 L400,664.4922 " fill="none" style="stroke:#181818;stroke-width:0.5;stroke-dasharray:5.0,5.0;"/><path d="M551,80.6406 L551.2802,80.6406 L550.4476,90.707 L551.2577,100.7734 L551.5329,110.8398 L550.0488,120.9063 L550.8964,130.9727 L550.4313,141.0391 L550.4887,151.1055 L550.9091,161.1719 L550.0782,171.2383 L551.7382,181.3047 L550.1596,191.3711 L550.7363,201.4375 L551.5759,211.5039 L550.8856,221.5703 L551.091,231.6367 L550.9574,241.7031 L551.238,251.7695 L551.3188,261.8359 L551.7809,271.9023 L551.8947,281.9688 L551.9057,292.0352 L551.3395,302.1016 L551.6181,312.168 L551.9363,322.2344 L550.0384,332.3008 L551.9047,342.3672 L550.6047,352.4336 L551.7117,362.5 L550.34,372.5664 L550.9087,382.6328 L551.9888,392.6992 L550.935,402.7656 L551.1404,412.832 L551.4515,422.8984 L551.555,432.9648 L550.9948,443.0313 L551.383,453.0977 L550.2368,463.1641 L551.3792,473.2305 L551.7309,483.2969 L551.5927,493.3633 L551.8174,503.4297 L550.3559,513.4961 L550.1304,523.5625 L550.1715,533.6289 L550.9215,543.6953 L550.738,553.7617 L551.9085,563.8281 L550.7671,573.8945 L550.5426,583.9609 L551.3044,594.0273 L550.1109,604.0938 L550.3078,614.1602 L551.8653,624.2266 L551.5809,634.293 L551.9793,644.3594 L550.5709,654.4258 L551,664.4922 " fill="none" style="stroke:#181818;stroke-width:0.5;stroke-dasharray:5.0,5.0;"/><path d="M683,80.6406 L683.2802,80.6406 L682.4476,90.707 L683.2577,100.7734 L683.5329,110.8398 L682.0488,120.9063 L682.8964,130.9727 L682.4313,141.0391 L682.4887,151.1055 L682.9091,161.1719 L682.0782,171.2383 L683.7382,181.3047 L682.1596,191.3711 L682.7363,201.4375 L683.5759,211.5039 L682.8856,221.5703 L683.091,231.6367 L682.9574,241.7031 L683.238,251.7695 L683.3188,261.8359 L683.7809,271.9023 L683.8947,281.9688 L683.9057,292.0352 L683.3395,302.1016 L683.6181,312.168 L683.9363,322.2344 L682.0384,332.3008 L683.9047,342.3672 L682.6047,352.4336 L683.7117,362.5 L682.34,372.5664 L682.9087,382.6328 L683.9888,392.6992 L682.935,402.7656 L683.1404,412.832 L683.4515,422.8984 L683.555,432.9648 L682.9948,443.0313 L683.383,453.0977 L682.2368,463.1641 L683.3792,473.2305 L683.7309,483.2969 L683.5927,493.3633 L683.8174,503.4297 L682.3559,513.4961 L682.1304,523.5625 L682.1715,533.6289 L682.9215,543.6953 L682.738,553.7617 L683.9085,563.8281 L682.7671,573.8945 L682.5426,583.9609 L683.3044,594.0273 L682.1109,604.0938 L682.3078,614.1602 L683.8653,624.2266 L683.5809,634.293 L683.9793,644.3594 L682.5709,654.4258 L683,664.4922 " fill="none" style="stroke:#181818;stroke-width:0.5;stroke-dasharray:5.0,5.0;"/><path d="M811,80.6406 L811.2802,80.6406 L810.4476,90.707 L811.2577,100.7734 L811.5329,110.8398 L810.0488,120.9063 L810.8964,130.9727 L810.4313,141.0391 L810.4887,151.1055 L810.9091,161.1719 L810.0782,171.2383 L811.7382,181.3047 L810.1596,191.3711 L810.7363,201.4375 L811.5759,211.5039 L810.8856,221.5703 L811.091,231.6367 L810.9574,241.7031 L811.238,251.7695 L811.3188,261.8359 L811.7809,271.9023 L811.8947,281.9688 L811.9057,292.0352 L811.3395,302.1016 L811.6181,312.168 L811.9363,322.2344 L810.0384,332.3008 L811.9047,342.3672 L810.6047,352.4336 L811.7117,362.5 L810.34,372.5664 L810.9087,382.6328 L811.9888,392.6992 L810.935,402.7656 L811.1404,412.832 L811.4515,422.8984 L811.555,432.9648 L810.9948,443.0313 L811.383,453.0977 L810.2368,463.1641 L811.3792,473.2305 L811.7309,483.2969 L811.5927,493.3633 L811.8174,503.4297 L810.3559,513.4961 L810.1304,523.5625 L810.1715,533.6289 L810.9215,543.6953 L810.738,553.7617 L811.9085,563.8281 L810.7671,573.8945 L810.5426,583.9609 L811.3044,594.0273 L810.1109,604.0938 L810.3078,614.1602 L811.8653,624.2266 L811.5809,634.293 L811.9793,644.3594 L810.5709,654.4258 L811,664.4922 " fill="none" style="stroke:#181818;stroke-width:0.5;stroke-dasharray:5.0,5.0;"/><path d="M951,80.6406 L951.2802,80.6406 L950.4476,90.707 L951.2577,100.7734 L951.5329,110.8398 L950.0488,120.9063 L950.8964,130.9727 L950.4313,141.0391 L950.4887,151.1055 L950.9091,161.1719 L950.0782,171.2383 L951.7382,181.3047 L950.1596,191.3711 L950.7363,201.4375 L951.5759,211.5039 L950.8856,221.5703 L951.091,231.6367 L950.9574,241.7031 L951.238,251.7695 L951.3188,261.8359 L951.7809,271.9023 L951.8947,281.9688 L951.9057,292.0352 L951.3395,302.1016 L951.6181,312.168 L951.9363,322.2344 L950.0384,332.3008 L951.9047,342.3672 L950.6047,352.4336 L951.7117,362.5 L950.34,372.5664 L950.9087,382.6328 L951.9888,392.6992 L950.935,402.7656 L951.1404,412.832 L951.4515,422.8984 L951.555,432.9648 L950.9948,443.0313 L951.383,453.0977 L950.2368,463.1641 L951.3792,473.2305 L951.7309,483.2969 L951.5927,493.3633 L951.8174,503.4297 L950.3559,513.4961 L950.1304,523.5625 L950.1715,533.6289 L950.9215,543.6953 L950.738,553.7617 L951.9085,563.8281 L950.7671,573.8945 L950.5426,583.9609 L951.3044,594.0273 L950.1109,604.0938 L950.3078,614.1602 L951.8653,624.2266 L951.5809,634.293 L951.9793,644.3594 L950.5709,654.4258 L951,664.4922 " fill="none" style="stroke:#181818;stroke-width:0.5;stroke-dasharray:5.0,5.0;"/><path d="M1075,80.6406 L1075.2802,80.6406 L1074.4476,90.707 L1075.2577,100.7734 L1075.5329,110.8398 L1074.0488,120.9063 L1074.8964,130.9727 L1074.4313,141.0391 L1074.4887,151.1055 L1074.9091,161.1719 L1074.0782,171.2383 L1075.7382,181.3047 L1074.1596,191.3711 L1074.7363,201.4375 L1075.5759,211.5039 L1074.8856,221.5703 L1075.091,231.6367 L1074.9574,241.7031 L1075.238,251.7695 L1075.3188,261.8359 L1075.7809,271.9023 L1075.8947,281.9688 L1075.9057,292.0352 L1075.3395,302.1016 L1075.6181,312.168 L1075.9363,322.2344 L1074.0384,332.3008 L1075.9047,342.3672 L1074.6047,352.4336 L1075.7117,362.5 L1074.34,372.5664 L1074.9087,382.6328 L1075.9888,392.6992 L1074.935,402.7656 L1075.1404,412.832 L1075.4515,422.8984 L1075.555,432.9648 L1074.9948,443.0313 L1075.383,453.0977 L1074.2368,463.1641 L1075.3792,473.2305 L1075.7309,483.2969 L1075.5927,493.3633 L1075.8174,503.4297 L1074.3559,513.4961 L1074.1304,523.5625 L1074.1715,533.6289 L1074.9215,543.6953 L1074.738,553.7617 L1075.9085,563.8281 L1074.7671,573.8945 L1074.5426,583.9609 L1075.3044,594.0273 L1074.1109,604.0938 L1074.3078,614.1602 L1075.8653,624.2266 L1075.5809,634.293 L1075.9793,644.3594 L1074.5709,654.4258 L1075,664.4922 " fill="none" style="stroke:#181818;stroke-width:0.5;stroke-dasharray:5.0,5.0;"/><path d="M1254,80.6406 L1254.2802,80.6406 L1253.4476,90.707 L1254.2577,100.7734 L1254.5329,110.8398 L1253.0488,120.9063 L1253.8964,130.9727 L1253.4313,141.0391 L1253.4887,151.1055 L1253.9091,161.1719 L1253.0782,171.2383 L1254.7382,181.3047 L1253.1596,191.3711 L1253.7363,201.4375 L1254.5759,211.5039 L1253.8856,221.5703 L1254.091,231.6367 L1253.9574,241.7031 L1254.238,251.7695 L1254.3188,261.8359 L1254.7809,271.9023 L1254.8947,281.9688 L1254.9057,292.0352 L1254.3395,302.1016 L1254.6181,312.168 L1254.9363,322.2344 L1253.0384,332.3008 L1254.9047,342.3672 L1253.6047,352.4336 L1254.7117,362.5 L1253.34,372.5664 L1253.9087,382.6328 L1254.9888,392.6992 L1253.935,402.7656 L1254.1404,412.832 L1254.4515,422.8984 L1254.555,432.9648 L1253.9948,443.0313 L1254.383,453.0977 L1253.2368,463.1641 L1254.3792,473.2305 L1254.7309,483.2969 L1254.5927,493.3633 L1254.8174,503.4297 L1253.3559,513.4961 L1253.1304,523.5625 L1253.1715,533.6289 L1253.9215,543.6953 L1253.738,553.7617 L1254.9085,563.8281 L1253.7671,573.8945 L1253.5426,583.9609 L1254.3044,594.0273 L1253.1109,604.0938 L1253.3078,614.1602 L1254.8653,624.2266 L1254.5809,634.293 L1254.9793,644.3594 L1253.5709,654.4258 L1254,664.4922 " fill="none" style="stroke:#181818;stroke-width:0.5;stroke-dasharray:5.0,5.0;"/><text fill="#000000" font-family="FG Virgil" font-size="14" lengthAdjust="spacing" textLength="49" x="5" y="77.6738">Student</text><polygon fill="#E3E3E3" points="40.5442,15.4459,39.3715,17.0482,37.9845,19.3951,36.0008,20.9767,33.9163,21.8415,32.2542,21.9166,30.118,20.8349,28.1023,20.1283,26.5724,18.6936,25.7699,17.0511,25.2939,15.7433,24.8277,14.0351,24.0709,12.5651,24.6525,11.1298,25.162,9.5576,27.074,8.3142,28.4192,6.7008,30.0843,6.165,32.0637,5.7037,34.6021,5.9778,35.9924,6.6335,37.6089,6.9307,39.5743,8.9443,40.2595,11.0701,40.5571,12.5206,40.22,14.9108" style="stroke:#181818;stroke-width:0.5;"/><path d="M32.5,21.5 L32.6868,21.5 L32.1317,26.9 L32.6718,32.3 L32.8553,37.7 L31.8659,43.1 L32.5,48.5 M19.5,29.5 L19.5,29.4309 L24.7,29.1209 L29.9,29.1591 L35.1,29.4394 L40.3,28.8854 L45.5,29.5 M32.5,48.5 L32.8719,48.8223 L29.4766,51.1331 L27.1672,54.3849 L24.9901,57.7515 L22.0424,60.4501 L19.5,63.5 M32.5,48.5 L32.5458,48.5397 L35.0785,51.4814 L37.8199,54.6039 L40.4606,57.6392 L43.2934,60.841 L45.5,63.5 " fill="none" style="stroke:#181818;stroke-width:0.5;"/><text fill="#000000" font-family="FG Virgil" font-size="14" lengthAdjust="spacing" textLength="49" x="5" y="676.166">Student</text><polygon fill="#E3E3E3" points="40.5442,689.5787,39.3715,691.181,37.9845,693.5279,36.0008,695.1095,33.9163,695.9743,32.2542,696.0494,30.118,694.9678,28.1023,694.2611,26.5724,692.8264,25.7699,691.1839,25.2939,689.8761,24.8277,688.1679,24.0709,686.6979,24.6525,685.2626,25.162,683.6904,27.074,682.447,28.4192,680.8336,30.0843,680.2979,32.0637,679.8365,34.6021,680.1106,35.9924,680.7663,37.6089,681.0635,39.5743,683.0772,40.2595,685.203,40.5571,686.6534,40.22,689.0436" style="stroke:#181818;stroke-width:0.5;"/><path d="M32.5,695.6328 L32.6868,695.6328 L32.1317,701.0328 L32.6718,706.4328 L32.8553,711.8328 L31.8659,717.2328 L32.5,722.6328 M19.5,703.6328 L19.5,703.5637 L24.7,703.2537 L29.9,703.2919 L35.1,703.5722 L40.3,703.0183 L45.5,703.6328 M32.5,722.6328 L32.8719,722.9551 L29.4766,725.2659 L27.1672,728.5177 L24.9901,731.8843 L22.0424,734.5829 L19.5,737.6328 M32.5,722.6328 L32.5458,722.6725 L35.0785,725.6142 L37.8199,728.7367 L40.4606,731.772 L43.2934,734.9738 L45.5,737.6328 " fill="none" style="stroke:#181818;stroke-width:0.5;"/><polygon fill="#E3E3E3" points="72.5,50,72.5,50.2102,82.1923,49.5857,91.8846,50.1933,101.5769,50.3997,111.2692,49.2866,120.9615,49.9223,130.6538,49.5735,140.3462,49.6165,150.0385,49.9318,159.7308,49.3086,169.4231,50.5536,179.1154,49.3697,188.8077,49.8022,198.5,50,198.5551,50.133,198.8426,50.12,199.2158,50.3139,199.5566,50.4295,199.937,50.6408,200.2678,50.7322,200.3414,50.7627,200.5946,51.1605,200.7673,51.5249,200.9163,51.8795,200.932,52.1789,201,52.5,201.1545,52.5,201.2341,57.4281,200.7596,62.3563,201.2262,67.2844,200.9012,72.2125,201,77.1406,201.1644,77.2087,200.7011,77.431,200.686,77.839,200.789,78.2959,200.3992,78.5486,200.2678,78.9084,200.2812,78.9408,199.9574,79.1591,199.6138,79.3295,199.2066,79.3465,198.8902,79.5826,198.5,79.6406,198.5,79.0682,188.8077,79.925,179.1154,80.1888,169.4231,80.0852,159.7308,80.2536,150.0385,79.1575,140.3462,78.9884,130.6538,79.0192,120.9615,79.5817,111.2692,79.4441,101.5769,80.322,91.8846,79.4659,82.1923,79.2976,72.5,79.6406,72.5291,79.7109,72.0614,79.2888,71.7267,79.1879,71.5221,79.4011,71.1414,79.189,70.7322,78.9084,70.9584,79.0021,70.4867,78.5138,70.5376,78.242,70.4747,77.923,70.001,77.4339,70,77.1406,69.968,77.1406,70.042,72.2125,70.2173,67.2844,69.9986,62.3563,70.1542,57.4281,70,52.5,69.8295,52.4294,69.9379,52.0601,70.448,51.8571,70.2186,51.3479,70.7425,51.1507,70.7322,50.7322,70.7586,50.7959,71.0516,50.5033,71.3942,50.3304,71.8514,50.4342,72.1083,50.0543,72.5,50" style="stroke:#181818;stroke-width:0.5;"/><text fill="#000000" font-family="FG Virgil" font-size="14" lengthAdjust="spacing" textLength="117" x="77" y="69.6738">ListFutureExamsUI</text><polygon fill="#E3E3E3" points="72.5,663.4922,72.5,663.7024,82.1923,663.0779,91.8846,663.6855,101.5769,663.8919,111.2692,662.7788,120.9615,663.4145,130.6538,663.0657,140.3462,663.1087,150.0385,663.424,159.7308,662.8008,169.4231,664.0458,179.1154,662.8619,188.8077,663.2944,198.5,663.4922,198.5551,663.6252,198.8426,663.6122,199.2158,663.8061,199.5566,663.9217,199.937,664.133,200.2678,664.2244,200.3414,664.2549,200.5946,664.6527,200.7673,665.0171,200.9163,665.3717,200.932,665.6711,201,665.9922,201.1545,665.9922,201.2341,670.9203,200.7596,675.8484,201.2262,680.7766,200.9012,685.7047,201,690.6328,201.1644,690.7009,200.7011,690.9232,200.686,691.3312,200.789,691.7881,200.3992,692.0408,200.2678,692.4006,200.2812,692.433,199.9574,692.6513,199.6138,692.8217,199.2066,692.8387,198.8902,693.0748,198.5,693.1328,198.5,692.5604,188.8077,693.4172,179.1154,693.681,169.4231,693.5773,159.7308,693.7458,150.0385,692.6497,140.3462,692.4806,130.6538,692.5114,120.9615,693.0739,111.2692,692.9363,101.5769,693.8142,91.8846,692.9581,82.1923,692.7898,72.5,693.1328,72.5291,693.2031,72.0614,692.781,71.7267,692.68,71.5221,692.8933,71.1414,692.6812,70.7322,692.4006,70.9584,692.4943,70.4867,692.006,70.5376,691.7342,70.4747,691.4152,70.001,690.9261,70,690.6328,69.968,690.6328,70.042,685.7047,70.2173,680.7766,69.9986,675.8484,70.1542,670.9203,70,665.9922,69.8295,665.9215,69.9379,665.5522,70.448,665.3493,70.2186,664.8401,70.7425,664.6429,70.7322,664.2244,70.7586,664.2881,71.0516,663.9955,71.3942,663.8226,71.8514,663.9264,72.1083,663.5465,72.5,663.4922" style="stroke:#181818;stroke-width:0.5;"/><text fill="#000000" font-family="FG Virgil" font-size="14" lengthAdjust="spacing" textLength="117" x="77" y="683.166">ListFutureExamsUI</text><polygon fill="#E3E3E3" points="312.5,50,312.5,50.2102,322.2778,49.5857,332.0556,50.1933,341.8333,50.3997,351.6111,49.2866,361.3889,49.9223,371.1667,49.5735,380.9444,49.6165,390.7222,49.9318,400.5,49.3086,410.2778,50.5536,420.0556,49.3697,429.8333,49.8022,439.6111,50.4319,449.3889,49.9142,459.1667,50.0682,468.9444,49.9681,478.7222,50.1785,488.5,50,488.5305,50.0736,488.9283,50.3268,489.2927,50.4996,489.6473,50.6485,489.9467,50.6642,490.2678,50.7322,490.4105,50.7914,490.6305,51.1754,490.3386,51.3473,490.9161,51.8794,490.7622,52.1086,491,52.5,491.1779,52.5,490.835,57.4281,490.9772,62.3563,491.2472,67.2844,490.9838,72.2125,491,77.1406,491.0324,77.1541,490.9578,77.5374,490.8353,77.9008,490.5595,78.2008,490.5027,78.5915,490.2678,78.9084,490.1947,78.7321,489.9505,79.1424,489.6306,79.3701,489.2638,79.4846,488.9318,79.683,488.5,79.6406,488.5,79.1575,478.7222,78.9884,468.9444,79.0192,459.1667,79.5817,449.3889,79.4441,439.6111,80.322,429.8333,79.4659,420.0556,79.2976,410.2778,79.8689,400.5,78.9738,390.7222,79.1215,380.9444,80.2896,371.1667,80.0763,361.3889,80.3751,351.6111,79.3188,341.8333,79.9598,332.0556,80.231,322.2778,79.1682,312.5,79.6406,312.4878,79.6111,312.1625,79.533,311.876,79.5484,311.4388,79.2,311.1448,79.1973,310.7322,78.9084,310.5617,78.8378,310.3772,78.4684,310.5944,78.2655,310.0721,77.7563,310.3032,77.5591,310,77.1406,310.0689,77.1406,309.9107,72.2125,309.8821,67.2844,310.1529,62.3563,309.9002,57.4281,310,52.5,310.1823,52.5755,309.9762,52.0759,310.483,51.8717,310.5885,51.5011,310.6612,51.117,310.7322,50.7322,310.7383,50.7468,311.1785,50.8096,311.5176,50.6283,311.8145,50.345,312.1807,50.229,312.5,50" style="stroke:#181818;stroke-width:0.5;"/><text fill="#000000" font-family="FG Virgil" font-size="14" lengthAdjust="spacing" textLength="167" x="317" y="69.6738">ListFutureExamsController</text><polygon fill="#E3E3E3" points="312.5,663.4922,312.5,663.7024,322.2778,663.0779,332.0556,663.6855,341.8333,663.8919,351.6111,662.7788,361.3889,663.4145,371.1667,663.0657,380.9444,663.1087,390.7222,663.424,400.5,662.8008,410.2778,664.0458,420.0556,662.8619,429.8333,663.2944,439.6111,663.9241,449.3889,663.4064,459.1667,663.5604,468.9444,663.4602,478.7222,663.6707,488.5,663.4922,488.5305,663.5658,488.9283,663.819,489.2927,663.9917,489.6473,664.1407,489.9467,664.1564,490.2678,664.2244,490.4105,664.2836,490.6305,664.6676,490.3386,664.8395,490.9161,665.3716,490.7622,665.6008,491,665.9922,491.1779,665.9922,490.835,670.9203,490.9772,675.8484,491.2472,680.7766,490.9838,685.7047,491,690.6328,491.0324,690.6462,490.9578,691.0296,490.8353,691.393,490.5595,691.693,490.5027,692.0837,490.2678,692.4006,490.1947,692.2243,489.9505,692.6346,489.6306,692.8623,489.2638,692.9768,488.9318,693.1752,488.5,693.1328,488.5,692.6497,478.7222,692.4806,468.9444,692.5114,459.1667,693.0739,449.3889,692.9363,439.6111,693.8142,429.8333,692.9581,420.0556,692.7898,410.2778,693.3611,400.5,692.466,390.7222,692.6137,380.9444,693.7818,371.1667,693.5685,361.3889,693.8673,351.6111,692.811,341.8333,693.452,332.0556,693.7232,322.2778,692.6604,312.5,693.1328,312.4878,693.1033,312.1625,693.0252,311.876,693.0406,311.4388,692.6922,311.1448,692.6895,310.7322,692.4006,310.5617,692.3299,310.3772,691.9606,310.5944,691.7577,310.0721,691.2485,310.3032,691.0513,310,690.6328,310.0689,690.6328,309.9107,685.7047,309.8821,680.7766,310.1529,675.8484,309.9002,670.9203,310,665.9922,310.1823,666.0677,309.9762,665.5681,310.483,665.3638,310.5885,664.9933,310.6612,664.6092,310.7322,664.2244,310.7383,664.239,311.1785,664.3017,311.5176,664.1205,311.8145,663.8372,312.1807,663.7212,312.5,663.4922" style="stroke:#181818;stroke-width:0.5;"/><text fill="#000000" font-family="FG Virgil" font-size="14" lengthAdjust="spacing" textLength="167" x="317" y="683.166">ListFutureExamsController</text><polygon fill="#E3E3E3" points="503.5,50,503.5,50.2102,513.1,49.5857,522.7,50.1933,532.3,50.3997,541.9,49.2866,551.5,49.9223,561.1,49.5735,570.7,49.6165,580.3,49.9318,589.9,49.3086,599.5,50,599.5706,50.1705,599.7732,49.9523,600.1819,50.232,600.6158,50.5724,600.9033,50.5594,601.2678,50.7322,601.2888,50.7409,601.4044,51.0817,601.6156,51.4621,601.7808,51.8234,602.0339,52.2212,602,52.5,602.2237,52.5,602.2264,57.4281,602.0849,62.3563,602.1545,67.2844,602.2341,72.2125,602,77.1406,601.7779,77.0486,602.0625,77.5807,601.6158,77.8099,601.7251,78.2694,601.2618,78.4917,601.2678,78.9084,601.259,78.8873,601.0088,79.2832,600.5544,79.1863,600.2205,79.3802,599.8967,79.5985,599.5,79.6406,599.5,80.0569,589.9,79.6367,580.3,79.9278,570.7,79.0682,561.1,79.925,551.5,80.1888,541.9,80.0852,532.3,80.2536,522.7,79.1575,513.1,78.9884,503.5,79.6406,503.4207,79.4493,503.1389,79.476,502.7678,79.2872,502.5263,79.4111,502.0635,79.001,501.7322,78.9084,501.6266,78.8646,501.6561,78.584,501.234,78.1162,501.133,77.7815,501.3463,77.577,501,77.1406,501.1452,77.1406,501.2448,72.2125,500.8927,67.2844,501.1064,62.3563,501.1968,57.4281,501,52.5,500.8545,52.4397,501.1169,52.1342,501.3317,51.809,501.6401,51.5225,501.5845,51.0853,501.7322,50.7322,501.7912,50.8747,502.0151,50.4152,502.3529,50.2308,502.8571,50.448,503.055,49.9257,503.5,50" style="stroke:#181818;stroke-width:0.5;"/><text fill="#000000" font-family="FG Virgil" font-size="14" lengthAdjust="spacing" textLength="87" x="508" y="69.6738">AuthzRegistry</text><polygon fill="#E3E3E3" points="503.5,663.4922,503.5,663.7024,513.1,663.0779,522.7,663.6855,532.3,663.8919,541.9,662.7788,551.5,663.4145,561.1,663.0657,570.7,663.1087,580.3,663.424,589.9,662.8008,599.5,663.4922,599.5706,663.6627,599.7732,663.4445,600.1819,663.7242,600.6158,664.0645,600.9033,664.0516,601.2678,664.2244,601.2888,664.2331,601.4044,664.5739,601.6156,664.9543,601.7808,665.3156,602.0339,665.7133,602,665.9922,602.2237,665.9922,602.2264,670.9203,602.0849,675.8484,602.1545,680.7766,602.2341,685.7047,602,690.6328,601.7779,690.5408,602.0625,691.0729,601.6158,691.3021,601.7251,691.7616,601.2618,691.9839,601.2678,692.4006,601.259,692.3795,601.0088,692.7754,600.5544,692.6785,600.2205,692.8723,599.8967,693.0906,599.5,693.1328,599.5,693.549,589.9,693.1289,580.3,693.42,570.7,692.5604,561.1,693.4172,551.5,693.681,541.9,693.5773,532.3,693.7458,522.7,692.6497,513.1,692.4806,503.5,693.1328,503.4207,692.9414,503.1389,692.9682,502.7678,692.7794,502.5263,692.9033,502.0635,692.4932,501.7322,692.4006,501.6266,692.3568,501.6561,692.0761,501.234,691.6084,501.133,691.2737,501.3463,691.0691,501,690.6328,501.1452,690.6328,501.2448,685.7047,500.8927,680.7766,501.1064,675.8484,501.1968,670.9203,501,665.9922,500.8545,665.9319,501.1169,665.6264,501.3317,665.3012,501.6401,665.0147,501.5845,664.5774,501.7322,664.2244,501.7912,664.3669,502.0151,663.9074,502.3529,663.723,502.8571,663.9402,503.055,663.4178,503.5,663.4922" style="stroke:#181818;stroke-width:0.5;"/><text fill="#000000" font-family="FG Virgil" font-size="14" lengthAdjust="spacing" textLength="87" x="508" y="683.166">AuthzRegistry</text><polygon fill="#E3E3E3" points="614.5,50,614.5,50.2102,624.3571,49.5857,634.2143,50.1933,644.0714,50.3997,653.9286,49.2866,663.7857,49.9223,673.6429,49.5735,683.5,49.6165,693.3571,49.9318,703.2143,49.3086,713.0714,50.5536,722.9286,49.3697,732.7857,49.8022,742.6429,50.4319,752.5,50,752.4891,49.9736,752.8623,50.1675,753.203,50.2831,753.5834,50.4943,753.9447,50.6594,754.2678,50.7322,754.4481,50.8069,754.6209,51.1714,754.7698,51.526,754.7855,51.8254,754.9963,52.2056,755,52.5,755.2341,52.5,754.7596,57.4281,755.2262,62.3563,754.9012,67.2844,755.1779,72.2125,755,77.1406,754.8476,77.0775,754.8325,77.4854,754.9355,77.9423,754.5457,78.1951,754.4466,78.5683,754.2678,78.9084,754.311,79.0127,753.9673,79.183,753.5602,79.2001,753.2437,79.4362,752.7805,79.3179,752.5,79.6406,752.5,79.925,742.6429,80.1888,732.7857,80.0852,722.9286,80.2536,713.0714,79.1575,703.2143,78.9884,693.3571,79.0192,683.5,79.5817,673.6429,79.4441,663.7857,80.322,653.9286,79.4659,644.0714,79.2976,634.2143,79.8689,624.3571,78.9738,614.5,79.6406,614.4338,79.4808,614.2292,79.694,613.8485,79.4819,613.533,79.4275,613.0447,78.9557,612.7322,78.9084,612.8305,78.9491,612.7676,78.6302,612.2939,78.141,612.2634,77.8355,612.1852,77.5102,612,77.1406,612.2173,77.1406,611.9986,72.2125,612.1542,67.2844,611.8154,62.3563,611.7742,57.4281,612,52.5,612.1551,52.5642,611.9257,52.055,612.4496,51.8578,612.503,51.4657,612.5033,51.0516,612.7322,50.7322,612.6871,50.6233,613.1443,50.7271,613.4012,50.3472,613.8684,50.4752,614.0759,49.9762,614.5,50" style="stroke:#181818;stroke-width:0.5;"/><text fill="#000000" font-family="FG Virgil" font-size="14" lengthAdjust="spacing" textLength="129" x="619" y="69.6738">AuthorizationService</text><polygon fill="#E3E3E3" points="614.5,663.4922,614.5,663.7024,624.3571,663.0779,634.2143,663.6855,644.0714,663.8919,653.9286,662.7788,663.7857,663.4145,673.6429,663.0657,683.5,663.1087,693.3571,663.424,703.2143,662.8008,713.0714,664.0458,722.9286,662.8619,732.7857,663.2944,742.6429,663.9241,752.5,663.4922,752.4891,663.4658,752.8623,663.6596,753.203,663.7752,753.5834,663.9865,753.9447,664.1516,754.2678,664.2244,754.4481,664.2991,754.6209,664.6636,754.7698,665.0182,754.7855,665.3176,754.9963,665.6978,755,665.9922,755.2341,665.9922,754.7596,670.9203,755.2262,675.8484,754.9012,680.7766,755.1779,685.7047,755,690.6328,754.8476,690.5697,754.8325,690.9776,754.9355,691.4345,754.5457,691.6873,754.4466,692.0605,754.2678,692.4006,754.311,692.5049,753.9673,692.6752,753.5602,692.6923,753.2437,692.9284,752.7805,692.8101,752.5,693.1328,752.5,693.4172,742.6429,693.681,732.7857,693.5773,722.9286,693.7458,713.0714,692.6497,703.2143,692.4806,693.3571,692.5114,683.5,693.0739,673.6429,692.9363,663.7857,693.8142,653.9286,692.9581,644.0714,692.7898,634.2143,693.3611,624.3571,692.466,614.5,693.1328,614.4338,692.9729,614.2292,693.1862,613.8485,692.9741,613.533,692.9197,613.0447,692.4479,612.7322,692.4006,612.8305,692.4413,612.7676,692.1223,612.2939,691.6332,612.2634,691.3277,612.1852,691.0024,612,690.6328,612.2173,690.6328,611.9986,685.7047,612.1542,680.7766,611.8154,675.8484,611.7742,670.9203,612,665.9922,612.1551,666.0564,611.9257,665.5472,612.4496,665.35,612.503,664.9579,612.5033,664.5438,612.7322,664.2244,612.6871,664.1155,613.1443,664.2193,613.4012,663.8393,613.8684,663.9674,614.0759,663.4684,614.5,663.4922" style="stroke:#181818;stroke-width:0.5;"/><text fill="#000000" font-family="FG Virgil" font-size="14" lengthAdjust="spacing" textLength="129" x="619" y="683.166">AuthorizationService</text><polygon fill="#E3E3E3" points="767.5,50,767.5,50.2102,777.2778,49.5857,787.0556,50.1933,796.8333,50.3997,806.6111,49.2866,816.3889,49.9223,826.1667,49.5735,835.9444,49.6165,845.7222,49.9318,855.5,50,855.4118,49.7871,855.9242,50.3169,856.1267,50.0988,856.5354,50.3784,856.9693,50.7188,857.2678,50.7322,857.2414,50.7213,857.4352,51.0945,857.5508,51.4353,857.7621,51.8157,857.9272,52.177,858,52.5,858.1952,52.5,858.2237,57.4281,858.2264,62.3563,858.0849,67.2844,858.1545,72.2125,858,77.1406,858.2163,77.2302,857.6315,77.4022,857.9161,77.9343,857.4693,78.1635,857.5786,78.6229,857.2678,78.9084,857.2046,78.7559,856.9055,79.0337,856.6553,79.4297,856.2009,79.3327,855.867,79.5266,855.5,79.6406,855.5,79.9793,845.7222,80.0569,835.9444,79.6367,826.1667,79.9278,816.3889,79.0682,806.6111,79.925,796.8333,80.1888,787.0556,80.0852,777.2778,80.2536,767.5,79.6406,767.4384,79.4919,767.0633,79.2933,766.7136,79.1564,766.4318,79.1832,766.0607,78.9943,765.7322,78.9084,765.9421,78.9953,765.532,78.5326,765.3337,78.1575,765.3632,77.8768,764.9411,77.4091,765,77.1406,764.827,77.1406,765.2163,72.2125,765.1452,67.2844,765.2448,62.3563,764.8927,57.4281,765,52.5,765.0983,52.5407,765.3283,52.2218,765.1474,51.7326,765.4098,51.4271,765.6246,51.1019,765.7322,50.7322,765.8154,50.9329,766.0853,50.5845,766.4983,50.5818,766.7223,50.1223,767.0601,49.9379,767.5,50" style="stroke:#181818;stroke-width:0.5;"/><text fill="#000000" font-family="FG Virgil" font-size="14" lengthAdjust="spacing" textLength="79" x="772" y="69.6738">UserSession</text><polygon fill="#E3E3E3" points="767.5,663.4922,767.5,663.7024,777.2778,663.0779,787.0556,663.6855,796.8333,663.8919,806.6111,662.7788,816.3889,663.4145,826.1667,663.0657,835.9444,663.1087,845.7222,663.424,855.5,663.4922,855.4118,663.2793,855.9242,663.8091,856.1267,663.591,856.5354,663.8706,856.9693,664.211,857.2678,664.2244,857.2414,664.2135,857.4352,664.5867,857.5508,664.9275,857.7621,665.3079,857.9272,665.6691,858,665.9922,858.1952,665.9922,858.2237,670.9203,858.2264,675.8484,858.0849,680.7766,858.1545,685.7047,858,690.6328,858.2163,690.7224,857.6315,690.8944,857.9161,691.4265,857.4693,691.6557,857.5786,692.1151,857.2678,692.4006,857.2046,692.2481,856.9055,692.5259,856.6553,692.9219,856.2009,692.8249,855.867,693.0188,855.5,693.1328,855.5,693.4714,845.7222,693.549,835.9444,693.1289,826.1667,693.42,816.3889,692.5604,806.6111,693.4172,796.8333,693.681,787.0556,693.5773,777.2778,693.7458,767.5,693.1328,767.4384,692.984,767.0633,692.7855,766.7136,692.6486,766.4318,692.6753,766.0607,692.4865,765.7322,692.4006,765.9421,692.4875,765.532,692.0247,765.3337,691.6497,765.3632,691.369,764.9411,690.9013,765,690.6328,764.827,690.6328,765.2163,685.7047,765.1452,680.7766,765.2448,675.8484,764.8927,670.9203,765,665.9922,765.0983,666.0329,765.3283,665.7139,765.1474,665.2248,765.4098,664.9193,765.6246,664.594,765.7322,664.2244,765.8154,664.4251,766.0853,664.0767,766.4983,664.074,766.7223,663.6145,767.0601,663.4301,767.5,663.4922" style="stroke:#181818;stroke-width:0.5;"/><text fill="#000000" font-family="FG Virgil" font-size="14" lengthAdjust="spacing" textLength="79" x="772" y="683.166">UserSession</text><polygon fill="#E3E3E3" points="870.5,50,870.5,50.2102,880.5625,49.5857,890.625,50.1933,900.6875,50.3997,910.75,49.2866,920.8125,49.9223,930.875,49.5735,940.9375,49.6165,951,49.9318,961.0625,49.3086,971.125,50.5536,981.1875,49.3697,991.25,49.8022,1001.3125,50.4319,1011.375,49.9142,1021.4375,50.0682,1031.5,50,1031.4959,49.9902,1031.8763,50.2014,1032.2376,50.3665,1032.6354,50.6197,1032.9998,50.7924,1033.2678,50.7322,1033.477,50.8189,1033.4926,51.1183,1033.7034,51.4985,1033.9234,51.8825,1033.6315,52.0545,1034,52.5,1034.2262,52.5,1033.9012,57.4281,1034.1779,62.3563,1033.835,67.2844,1033.9772,72.2125,1034,77.1406,1034.2284,77.2352,1033.8385,77.488,1033.7395,77.8612,1033.6649,78.2445,1033.5424,78.6079,1033.2678,78.9084,1033.2673,78.9072,1032.9509,79.1433,1032.4876,79.025,1032.2434,79.4353,1031.9235,79.663,1031.5,79.6406,1031.5,80.0852,1021.4375,80.2536,1011.375,79.1575,1001.3125,78.9884,991.25,79.0192,981.1875,79.5817,971.125,79.4441,961.0625,80.322,951,79.4659,940.9375,79.2976,930.875,79.8689,920.8125,78.9738,910.75,79.1215,900.6875,80.2896,890.625,80.0763,880.5625,80.3751,870.5,79.6406,870.459,79.5415,870.1872,79.5925,869.8682,79.5296,869.3791,79.0558,869.0736,79.0253,868.7322,78.9084,868.771,78.9245,868.7865,78.638,868.438,78.2008,868.4353,77.9067,867.9759,77.4235,868,77.1406,867.7742,77.1406,868.1679,72.2125,867.761,67.2844,868.1697,62.3563,868.0689,57.4281,868,52.5,867.9175,52.4658,868.0375,52.1013,868.4342,51.8514,868.3472,51.4012,868.7681,51.1613,868.7322,50.7322,868.6617,50.562,869.1645,50.7759,869.5011,50.5885,869.8241,50.3683,870.1525,50.161,870.5,50" style="stroke:#181818;stroke-width:0.5;"/><text fill="#000000" font-family="FG Virgil" font-size="14" lengthAdjust="spacing" textLength="152" x="875" y="69.6738">ListFutureExamsService</text><polygon fill="#E3E3E3" points="870.5,663.4922,870.5,663.7024,880.5625,663.0779,890.625,663.6855,900.6875,663.8919,910.75,662.7788,920.8125,663.4145,930.875,663.0657,940.9375,663.1087,951,663.424,961.0625,662.8008,971.125,664.0458,981.1875,662.8619,991.25,663.2944,1001.3125,663.9241,1011.375,663.4064,1021.4375,663.5604,1031.5,663.4922,1031.4959,663.4823,1031.8763,663.6936,1032.2376,663.8587,1032.6354,664.1119,1032.9998,664.2846,1033.2678,664.2244,1033.477,664.3111,1033.4926,664.6105,1033.7034,664.9907,1033.9234,665.3747,1033.6315,665.5466,1034,665.9922,1034.2262,665.9922,1033.9012,670.9203,1034.1779,675.8484,1033.835,680.7766,1033.9772,685.7047,1034,690.6328,1034.2284,690.7274,1033.8385,690.9801,1033.7395,691.3534,1033.6649,691.7367,1033.5424,692.1001,1033.2678,692.4006,1033.2673,692.3994,1032.9509,692.6355,1032.4876,692.5172,1032.2434,692.9275,1031.9235,693.1552,1031.5,693.1328,1031.5,693.5773,1021.4375,693.7458,1011.375,692.6497,1001.3125,692.4806,991.25,692.5114,981.1875,693.0739,971.125,692.9363,961.0625,693.8142,951,692.9581,940.9375,692.7898,930.875,693.3611,920.8125,692.466,910.75,692.6137,900.6875,693.7818,890.625,693.5685,880.5625,693.8673,870.5,693.1328,870.459,693.0337,870.1872,693.0847,869.8682,693.0217,869.3791,692.548,869.0736,692.5175,868.7322,692.4006,868.771,692.4167,868.7865,692.1302,868.438,691.6929,868.4353,691.3989,867.9759,690.9157,868,690.6328,867.7742,690.6328,868.1679,685.7047,867.761,680.7766,868.1697,675.8484,868.0689,670.9203,868,665.9922,867.9175,665.958,868.0375,665.5935,868.4342,665.3436,868.3472,664.8933,868.7681,664.6535,868.7322,664.2244,868.6617,664.0542,869.1645,664.2681,869.5011,664.0807,869.8241,663.8605,870.1525,663.6532,870.5,663.4922" style="stroke:#181818;stroke-width:0.5;"/><text fill="#000000" font-family="FG Virgil" font-size="14" lengthAdjust="spacing" textLength="152" x="875" y="683.166">ListFutureExamsService</text><polygon fill="#E3E3E3" points="1046.5,50,1046.5,50.2102,1056.1667,49.5857,1065.8333,50.1933,1075.5,50.3997,1085.1667,49.2866,1094.8333,49.9223,1104.5,50,1104.4456,49.8687,1104.8046,50.0283,1105.1984,50.2719,1105.4725,50.2264,1105.9848,50.7563,1106.2678,50.7322,1106.0737,50.6518,1106.3533,51.0606,1106.6937,51.4944,1106.6807,51.782,1106.8746,52.1552,1107,52.5,1106.9894,52.5,1107.0595,57.4281,1107.0797,62.3563,1107.1952,67.2844,1107.2237,72.2125,1107,77.1406,1107.2092,77.2273,1106.932,77.5267,1106.8499,77.9069,1106.7769,78.2909,1106.1921,78.4628,1106.2678,78.9084,1106.3543,79.1173,1105.8764,78.9635,1105.6288,79.3657,1105.144,79.1953,1104.8448,79.4731,1104.5,79.6406,1104.5,80.3822,1094.8333,79.5919,1085.1667,79.7459,1075.5,79.9793,1065.8333,80.0569,1056.1667,79.6367,1046.5,79.6406,1046.5366,79.7291,1046.0734,79.3179,1045.8292,79.4353,1045.5093,79.3701,1045.1425,79.1917,1044.7322,78.9084,1044.921,78.9866,1044.437,78.4932,1044.2385,78.1181,1044.1015,77.7685,1044.1283,77.4867,1044,77.1406,1043.9345,77.1406,1044.2271,72.2125,1043.9418,67.2844,1043.8856,62.3563,1044.0761,57.4281,1044,52.5,1043.7946,52.4149,1043.9866,52.0802,1044.4927,51.8757,1044.5735,51.4949,1044.812,51.1795,1044.7322,50.7322,1044.6912,50.6331,1045.1265,50.6841,1045.5147,50.6212,1045.7326,50.1474,1046.1342,50.1169,1046.5,50" style="stroke:#181818;stroke-width:0.5;"/><text fill="#000000" font-family="FG Virgil" font-size="14" lengthAdjust="spacing" textLength="49" x="1051" y="69.6738">Student</text><polygon fill="#E3E3E3" points="1046.5,663.4922,1046.5,663.7024,1056.1667,663.0779,1065.8333,663.6855,1075.5,663.8919,1085.1667,662.7788,1094.8333,663.4145,1104.5,663.4922,1104.4456,663.3608,1104.8046,663.5205,1105.1984,663.7641,1105.4725,663.7186,1105.9848,664.2485,1106.2678,664.2244,1106.0737,664.144,1106.3533,664.5527,1106.6937,664.9866,1106.6807,665.2741,1106.8746,665.6473,1107,665.9922,1106.9894,665.9922,1107.0595,670.9203,1107.0797,675.8484,1107.1952,680.7766,1107.2237,685.7047,1107,690.6328,1107.2092,690.7195,1106.932,691.0188,1106.8499,691.3991,1106.7769,691.7831,1106.1921,691.955,1106.2678,692.4006,1106.3543,692.6095,1105.8764,692.4557,1105.6288,692.8579,1105.144,692.6875,1104.8448,692.9653,1104.5,693.1328,1104.5,693.8744,1094.8333,693.0841,1085.1667,693.2381,1075.5,693.4714,1065.8333,693.549,1056.1667,693.1289,1046.5,693.1328,1046.5366,693.2213,1046.0734,692.8101,1045.8292,692.9275,1045.5093,692.8623,1045.1425,692.6839,1044.7322,692.4006,1044.921,692.4788,1044.437,691.9854,1044.2385,691.6103,1044.1015,691.2607,1044.1283,690.9789,1044,690.6328,1043.9345,690.6328,1044.2271,685.7047,1043.9418,680.7766,1043.8856,675.8484,1044.0761,670.9203,1044,665.9922,1043.7946,665.9071,1043.9866,665.5724,1044.4927,665.3679,1044.5735,664.9871,1044.812,664.6717,1044.7322,664.2244,1044.6912,664.1253,1045.1265,664.1763,1045.5147,664.1134,1045.7326,663.6396,1046.1342,663.6091,1046.5,663.4922" style="stroke:#181818;stroke-width:0.5;"/><text fill="#000000" font-family="FG Virgil" font-size="14" lengthAdjust="spacing" textLength="49" x="1051" y="683.166">Student</text><polygon fill="#E3E3E3" points="1198.5,50,1198.5,50.2102,1208.5909,49.5857,1218.6818,50.1933,1228.7727,50.3997,1238.8636,49.2866,1248.9545,49.9223,1259.0455,49.5735,1269.1364,49.6165,1279.2273,49.9318,1289.3182,49.3086,1299.4091,50.5536,1309.5,50,1309.4196,49.8059,1309.8283,50.0855,1310.2622,50.4259,1310.5497,50.4129,1310.9229,50.6068,1311.2678,50.7322,1311.2579,50.7282,1311.4692,51.1086,1311.6343,51.4698,1311.8875,51.8676,1312.0602,52.232,1312,52.5,1312.2264,52.5,1312.0849,57.4281,1312.1545,62.3563,1312.2341,67.2844,1311.7596,72.2125,1312,77.1406,1312.209,77.2272,1311.7622,77.4564,1311.8715,77.9158,1311.4082,78.1381,1311.3931,78.5461,1311.2678,78.9084,1311.3624,79.1368,1310.908,79.0398,1310.5741,79.2337,1310.2503,79.452,1309.9066,79.6224,1309.5,79.6406,1309.5,79.6367,1299.4091,79.9278,1289.3182,79.0682,1279.2273,79.925,1269.1364,80.1888,1259.0455,80.0852,1248.9545,80.2536,1238.8636,79.1575,1228.7727,78.9884,1218.6818,79.0192,1208.5909,79.5817,1198.5,79.6406,1198.4749,79.5801,1198.2334,79.704,1197.7706,79.2939,1197.3956,79.0956,1197.1149,79.1251,1196.7322,78.9084,1196.5269,78.8233,1196.4259,78.4886,1196.6392,78.2841,1196.4271,77.9033,1196.3726,77.5879,1196,77.1406,1195.8927,77.1406,1196.1064,72.2125,1196.1968,67.2844,1195.8425,62.3563,1195.968,57.4281,1196,52.5,1196.0388,52.5161,1196.3472,52.2296,1196.2916,51.7924,1196.5818,51.4983,1196.4152,51.0151,1196.7322,50.7322,1196.6458,50.5237,1197.15,50.7409,1197.3479,50.2186,1197.8578,50.4496,1198.1728,50.2101,1198.5,50" style="stroke:#181818;stroke-width:0.5;"/><text fill="#000000" font-family="FG Virgil" font-size="14" lengthAdjust="spacing" textLength="102" x="1203" y="69.6738">ExamRepository</text><polygon fill="#E3E3E3" points="1198.5,663.4922,1198.5,663.7024,1208.5909,663.0779,1218.6818,663.6855,1228.7727,663.8919,1238.8636,662.7788,1248.9545,663.4145,1259.0455,663.0657,1269.1364,663.1087,1279.2273,663.424,1289.3182,662.8008,1299.4091,664.0458,1309.5,663.4922,1309.4196,663.2981,1309.8283,663.5777,1310.2622,663.9181,1310.5497,663.9051,1310.9229,664.099,1311.2678,664.2244,1311.2579,664.2203,1311.4692,664.6007,1311.6343,664.962,1311.8875,665.3598,1312.0602,665.7242,1312,665.9922,1312.2264,665.9922,1312.0849,670.9203,1312.1545,675.8484,1312.2341,680.7766,1311.7596,685.7047,1312,690.6328,1312.209,690.7194,1311.7622,690.9485,1311.8715,691.408,1311.4082,691.6303,1311.3931,692.0383,1311.2678,692.4006,1311.3624,692.629,1310.908,692.532,1310.5741,692.7259,1310.2503,692.9442,1309.9066,693.1145,1309.5,693.1328,1309.5,693.1289,1299.4091,693.42,1289.3182,692.5604,1279.2273,693.4172,1269.1364,693.681,1259.0455,693.5773,1248.9545,693.7458,1238.8636,692.6497,1228.7727,692.4806,1218.6818,692.5114,1208.5909,693.0739,1198.5,693.1328,1198.4749,693.0723,1198.2334,693.1962,1197.7706,692.7861,1197.3956,692.5878,1197.1149,692.6173,1196.7322,692.4006,1196.5269,692.3155,1196.4259,691.9808,1196.6392,691.7763,1196.4271,691.3955,1196.3726,691.0801,1196,690.6328,1195.8927,690.6328,1196.1064,685.7047,1196.1968,680.7766,1195.8425,675.8484,1195.968,670.9203,1196,665.9922,1196.0388,666.0083,1196.3472,665.7218,1196.2916,665.2845,1196.5818,664.9905,1196.4152,664.5073,1196.7322,664.2244,1196.6458,664.0159,1197.15,664.2331,1197.3479,663.7107,1197.8578,663.9418,1198.1728,663.7023,1198.5,663.4922" style="stroke:#181818;stroke-width:0.5;"/><text fill="#000000" font-family="FG Virgil" font-size="14" lengthAdjust="spacing" textLength="102" x="1203" y="683.166">ExamRepository</text><polygon fill="#FFFFFF" points="130.5,111.1641,130.5,111.2341,132.5,111.026,134.5,111.2285,136.5,111.2973,138.5,110.9263,140.5,111.1641,140.4223,111.1641,140.0735,121.0775,140.1165,130.991,140.4318,140.9045,139.8086,150.818,141.0536,160.7315,139.8697,170.645,140.3022,180.5584,140.9319,190.4719,140.4142,200.3854,140.5682,210.2989,140.4681,220.2124,140.6785,230.1259,140.7391,240.0394,141.0857,249.9528,141.1711,259.8663,141.1793,269.7798,140.7546,279.6933,140.9636,289.6068,141.2022,299.5203,139.7788,309.4337,141.1785,319.3472,140.2035,329.2607,141.0338,339.1742,140.005,349.0877,140.4315,359.0012,141.2416,368.9146,140.4513,378.8281,140.6053,388.7416,140.8386,398.6551,140.9162,408.5686,140.4961,418.4821,140.7872,428.3955,139.9276,438.309,140.7844,448.2225,141.0482,458.136,140.9445,468.0495,141.113,477.963,140.0169,487.8764,139.8478,497.7899,139.8786,507.7034,140.4411,517.6169,140.3035,527.5304,141.1814,537.4439,140.3253,547.3573,140.1569,557.2708,140.7283,567.1843,139.8332,577.0978,139.9809,587.0113,141.149,596.9248,140.9357,606.8383,141.2345,616.7517,140.1782,626.6652,140.8192,636.5787,140.5,646.4922,140.5,646.689,138.5,646.3347,136.5,646.4602,134.5,646.5342,132.5,646.7094,130.5,646.4922,130.4958,646.4922,130.9626,636.5787,129.9462,626.6652,129.8227,616.7517,131.0036,606.8383,129.7831,596.9248,131.009,587.0113,130.7066,577.0978,130.2321,567.1843,130.1462,557.2708,130.9588,547.3573,130.2007,537.4439,131.0919,527.5304,129.9473,517.6169,131.1174,507.7034,130.9843,497.7899,130.745,487.8764,130.5472,477.963,131.2266,468.0495,131.1136,458.136,130.6693,448.2225,130.7682,438.309,130.3697,428.3955,131.2165,418.4821,130.6549,408.5686,130.6726,398.6551,129.8916,388.7416,130.0948,378.8281,131.0307,368.9146,130.9298,359.0012,130.4571,349.0877,130.1778,339.1742,130.2811,329.2607,129.8138,319.3472,130.9147,309.4337,131.2396,299.5203,131.0264,289.6068,131.1949,279.6933,130.3633,269.7798,130.5872,259.8663,130.1124,249.9528,130.784,240.0394,130.7468,230.1259,131.0524,220.2124,130.2703,210.2989,130.3656,200.3854,130.9435,190.4719,131.0673,180.5584,129.9875,170.645,130.3061,160.7315,130.6493,150.818,129.8892,140.9045,130.8534,130.991,130.758,121.0775,130.5,111.1641" style="stroke:#181818;stroke-width:1.0;"/><polygon fill="#FFFFFF" points="395.5,315.2578,395.5,315.3279,397.5,315.1197,399.5,315.3222,401.5,315.391,403.5,315.02,405.5,315.2578,405.4223,315.2578,405.0735,325.0117,405.1165,334.7656,405.4318,344.5195,404.8086,354.2734,406.0536,364.0273,405.5,373.7813,405.5,373.5712,403.5,373.7153,401.5,373.9252,399.5,373.7527,397.5,373.804,395.5,373.7813,395.4681,373.7813,395.6785,364.0273,395.7391,354.2734,396.0857,344.5195,396.1711,334.7656,396.1793,325.0117,395.5,315.2578" style="stroke:#181818;stroke-width:1.0;"/><polygon fill="#FFFFFF" points="395.5,460.8281,395.5,460.8982,397.5,460.69,399.5,460.8926,401.5,460.9614,403.5,460.5903,405.5,460.8281,405.4223,460.8281,405.0735,470.6494,405.1165,480.4707,405.4318,490.292,404.8086,500.1133,406.0536,509.9346,404.8697,519.7559,405.3022,529.5771,405.9319,539.3984,405.4142,549.2197,405.5682,559.041,405.4681,568.8623,405.6785,578.6836,405.7391,588.5049,406.0857,598.3262,406.1711,608.1475,405.5,617.9688,405.5,618.1952,403.5,618.0536,401.5,618.1233,399.5,618.2028,397.5,617.7284,395.5,617.9688,396.1785,617.9688,395.2035,608.1475,396.0338,598.3262,395.005,588.5049,395.4315,578.6836,396.2416,568.8623,395.4513,559.041,395.6053,549.2197,395.8386,539.3984,395.9162,529.5771,395.4961,519.7559,395.7872,509.9346,394.9276,500.1133,395.7844,490.292,396.0482,480.4707,395.9445,470.6494,395.5,460.8281" style="stroke:#181818;stroke-width:1.0;"/><polygon fill="#FFFFFF" points="546.5,139.6875,546.5,139.7576,548.5,139.5494,550.5,139.7519,552.5,139.8207,554.5,139.4497,556.5,139.6875,556.4741,139.6875,556.3578,145.6875,556.3722,151.6875,556.4773,157.6875,556.2695,163.6875,556.5,169.6875,556.5,169.872,554.5,169.4774,552.5,169.6216,550.5,169.8315,548.5,169.6589,546.5,169.6875,546.5227,169.6875,546.4894,163.6875,546.5595,157.6875,546.5797,151.6875,546.6952,145.6875,546.5,139.6875" style="stroke:#181818;stroke-width:1.0;"/><polygon fill="#FFFFFF" points="678.5,198.2109,678.5,198.281,680.5,198.0728,682.5,198.2754,684.5,198.3442,686.5,197.9731,688.5,198.2109,688.4741,198.2109,688.3578,204.2109,688.3722,210.2109,688.4773,216.2109,688.2695,222.2109,688.5,228.2109,688.5,228.3955,686.5,228.0008,684.5,228.145,682.5,228.3549,680.5,228.1823,678.5,228.2109,678.5227,228.2109,678.4894,222.2109,678.5595,216.2109,678.5797,210.2109,678.6952,204.2109,678.5,198.2109" style="stroke:#181818;stroke-width:1.0;"/><polygon fill="#FFFFFF" points="806.5,256.7344,806.5,256.8044,808.5,256.5963,810.5,256.7988,812.5,256.8676,814.5,256.4966,816.5,256.7344,816.4741,256.7344,816.3578,262.7344,816.3722,268.7344,816.4773,274.7344,816.2695,280.7344,816.5,286.7344,816.5,286.9189,814.5,286.5243,812.5,286.6685,810.5,286.8784,808.5,286.7058,806.5,286.7344,806.5227,286.7344,806.4894,280.7344,806.5595,274.7344,806.5797,268.7344,806.6952,262.7344,806.5,256.7344" style="stroke:#181818;stroke-width:1.0;"/><polygon fill="#FFFFFF" points="946,343.7813,946,343.8513,948,343.6431,950,343.8457,952,343.9145,954,343.5435,956,343.7813,955.9741,343.7813,955.8578,349.7813,955.8722,355.7813,955.9773,361.7813,955.7695,367.7813,956,373.7813,956,373.9658,954,373.5712,952,373.7153,950,373.9252,948,373.7527,946,373.7813,946.0227,373.7813,945.9894,367.7813,946.0595,361.7813,946.0797,355.7813,946.1952,349.7813,946,343.7813" style="stroke:#181818;stroke-width:1.0;"/><polygon fill="#FFFFFF" points="946,489.3516,946,489.4216,948,489.2135,950,489.416,952,489.4848,954,489.1138,956,489.3516,955.9223,489.3516,955.5735,499.3609,955.6165,509.3703,955.9318,519.3797,955.3086,529.3891,956.5536,539.3984,955.3697,549.4078,955.8022,559.4172,956.4319,569.4266,955.9142,579.4359,956,589.4453,956,589.4681,954,589.4347,952,589.5048,950,589.525,948,589.6405,946,589.4453,946.6711,589.4453,946.6793,579.4359,946.2546,569.4266,946.4636,559.4172,946.7022,549.4078,945.2788,539.3984,946.6785,529.3891,945.7035,519.3797,946.5338,509.3703,945.505,499.3609,946,489.3516" style="stroke:#181818;stroke-width:1.0;"/><polygon fill="#FFFFFF" points="1070.5,402.3047,1070.5,402.3747,1072.5,402.1666,1074.5,402.3691,1076.5,402.4379,1078.5,402.0669,1080.5,402.3047,1080.4741,402.3047,1080.3578,408.3047,1080.3722,414.3047,1080.4773,420.3047,1080.2695,426.3047,1080.5,432.3047,1080.5,432.4892,1078.5,432.0946,1076.5,432.2388,1074.5,432.4487,1072.5,432.2761,1070.5,432.3047,1070.5227,432.3047,1070.4894,426.3047,1070.5595,420.3047,1070.5797,414.3047,1070.6952,408.3047,1070.5,402.3047" style="stroke:#181818;stroke-width:1.0;"/><polygon fill="#FFFFFF" points="1249,532.3984,1249,532.4685,1251,532.2603,1253,532.4629,1255,532.5317,1257,532.1606,1259,532.3984,1258.9741,532.3984,1258.8578,538.1031,1258.8722,543.8078,1258.9773,549.5125,1258.7695,555.2172,1259,560.9219,1259,561.1064,1257,560.7118,1255,560.856,1253,561.0659,1251,560.8933,1249,560.9219,1249.0227,560.9219,1248.9894,555.2172,1249.0595,549.5125,1249.0797,543.8078,1249.1952,538.1031,1249,532.3984" style="stroke:#181818;stroke-width:1.0;"/><polygon fill="#181818" points="118.5,107.1641,118.526,107.2291,120.4487,107.8358,122.5239,108.8239,124.5495,109.6878,126.4117,110.1433,128.5,111.1641,128.4904,111.14,126.4472,111.8321,124.4525,112.6454,122.4916,113.543,120.4144,114.1501,118.5,115.1641,118.6305,115.2946,119.1514,114.2155,120.0534,113.5174,121.0018,112.8659,121.6798,111.9438,122.5,111.1641,122.5161,111.1801,121.6925,110.3565,120.9421,109.6061,120.1564,108.8204,119.438,108.1021,118.5,107.1641" style="stroke:#181818;stroke-width:1.0;"/><path d="M0,111.1641 L0,111.4443 L10.375,110.6116 L20.75,111.4218 L31.125,111.697 L41.5,110.2129 L51.875,111.0604 L62.25,110.5954 L72.625,110.6527 L83,111.0732 L93.375,110.2422 L103.75,111.9023 L114.125,110.3237 L124.5,111.1641 " fill="none" style="stroke:#181818;stroke-width:1.0;"/><text fill="#000000" font-family="FG Virgil" font-size="13" lengthAdjust="spacing" textLength="111" x="7" y="106.4092">Show future exams</text><polygon fill="#181818" points="534.5,135.6875,534.526,135.7525,536.4487,136.3593,538.5239,137.3473,540.5495,138.2112,542.4117,138.6667,544.5,139.6875,544.4904,139.6634,542.4472,140.3555,540.4525,141.1688,538.4916,142.0664,536.4144,142.6735,534.5,143.6875,534.6305,143.818,535.1514,142.7389,536.0534,142.0409,537.0018,141.3893,537.6798,140.4673,538.5,139.6875,538.5161,139.7036,537.6925,138.88,536.9421,138.1296,536.1564,137.3439,535.438,136.6255,534.5,135.6875" style="stroke:#181818;stroke-width:1.0;"/><path d="M140.5,139.6875 L140.5,139.9677 L150.5,139.1351 L160.5,139.9452 L170.5,140.2204 L180.5,138.7363 L190.5,139.5839 L200.5,139.1188 L210.5,139.1762 L220.5,139.5966 L230.5,138.7657 L240.5,140.4257 L250.5,138.8471 L260.5,139.4238 L270.5,140.2634 L280.5,139.5731 L290.5,139.7785 L300.5,139.6449 L310.5,139.9255 L320.5,140.0063 L330.5,140.4684 L340.5,140.5822 L350.5,140.5932 L360.5,140.027 L370.5,140.3056 L380.5,140.6238 L390.5,138.7259 L400.5,140.5922 L410.5,139.2922 L420.5,140.3992 L430.5,139.0275 L440.5,139.5962 L450.5,140.6763 L460.5,139.6225 L470.5,139.8279 L480.5,140.139 L490.5,140.2425 L500.5,139.6823 L510.5,140.0705 L520.5,138.9243 L530.5,140.0667 L540.5,139.6875 " fill="none" style="stroke:#181818;stroke-width:1.0;"/><text fill="#000000" font-family="FG Virgil" font-size="13" lengthAdjust="spacing" textLength="164" x="147.5" y="134.9326">authz=authorizationService()</text><polygon fill="#181818" points="666.5,194.2109,666.526,194.276,668.4487,194.8827,670.5239,195.8708,672.5495,196.7346,674.4117,197.1901,676.5,198.2109,676.4904,198.1869,674.4472,198.8789,672.4525,199.6922,670.4916,200.5898,668.4144,201.197,666.5,202.2109,666.6305,202.3414,667.1514,201.2624,668.0534,200.5643,669.0018,199.9127,669.6798,198.9907,670.5,198.2109,670.5161,198.227,669.6925,197.4034,668.9421,196.653,668.1564,195.8673,667.438,195.149,666.5,194.2109" style="stroke:#181818;stroke-width:1.0;"/><path d="M140.5,198.2109 L140.5,198.4912 L150.5377,197.6585 L160.5755,198.4687 L170.6132,198.7438 L180.6509,197.2597 L190.6887,198.1073 L200.7264,197.6423 L210.7642,197.6996 L220.8019,198.1201 L230.8396,197.2891 L240.8774,198.9491 L250.9151,197.3706 L260.9528,197.9472 L270.9906,198.7869 L281.0283,198.0966 L291.066,198.3019 L301.1038,198.1683 L311.1415,198.449 L321.1792,198.5298 L331.217,198.9919 L341.2547,199.1057 L351.2925,199.1166 L361.3302,198.5504 L371.3679,198.8291 L381.4057,199.1472 L391.4434,197.2494 L401.4811,199.1156 L411.5189,197.8156 L421.5566,198.9227 L431.5943,197.5509 L441.6321,198.1196 L451.6698,199.1997 L461.7075,198.146 L471.7453,198.3513 L481.783,198.6624 L491.8208,198.7659 L501.8585,198.2057 L511.8962,198.5939 L521.934,197.4477 L531.9717,198.5901 L542.0094,198.9419 L552.0472,198.8036 L562.0849,199.0283 L572.1226,197.5668 L582.1604,197.3414 L592.1981,197.3824 L602.2358,198.1324 L612.2736,197.9489 L622.3113,199.1195 L632.3491,197.978 L642.3868,197.7535 L652.4245,198.5153 L662.4623,197.3218 L672.5,198.2109 " fill="none" style="stroke:#181818;stroke-width:1.0;"/><text fill="#000000" font-family="FG Virgil" font-size="13" lengthAdjust="spacing" textLength="68" x="147.5" y="193.4561">s=session()</text><polygon fill="#181818" points="794.5,252.7344,794.526,252.7994,796.4487,253.4061,798.5239,254.3942,800.5495,255.2581,802.4117,255.7136,804.5,256.7344,804.4904,256.7103,802.4472,257.4024,800.4525,258.2157,798.4916,259.1133,796.4144,259.7204,794.5,260.7344,794.6305,260.8649,795.1514,259.7858,796.0534,259.0878,797.0018,258.4362,797.6798,257.5142,798.5,256.7344,798.5161,256.7505,797.6925,255.9268,796.9421,255.1765,796.1564,254.3907,795.438,253.6724,794.5,252.7344" style="stroke:#181818;stroke-width:1.0;"/><path d="M140.5,256.7344 L140.5,257.0146 L150.5,256.1819 L160.5,256.9921 L170.5,257.2673 L180.5,255.7832 L190.5,256.6308 L200.5,256.1657 L210.5,256.223 L220.5,256.6435 L230.5,255.8125 L240.5,257.4726 L250.5,255.894 L260.5,256.4707 L270.5,257.3103 L280.5,256.62 L290.5,256.8254 L300.5,256.6918 L310.5,256.9724 L320.5,257.0532 L330.5,257.5153 L340.5,257.6291 L350.5,257.6401 L360.5,257.0739 L370.5,257.3525 L380.5,257.6707 L390.5,255.7728 L400.5,257.6391 L410.5,256.339 L420.5,257.4461 L430.5,256.0743 L440.5,256.643 L450.5,257.7232 L460.5,256.6694 L470.5,256.8748 L480.5,257.1859 L490.5,257.2894 L500.5,256.7292 L510.5,257.1173 L520.5,255.9712 L530.5,257.1136 L540.5,257.4653 L550.5,257.3271 L560.5,257.5517 L570.5,256.0903 L580.5,255.8648 L590.5,255.9058 L600.5,256.6559 L610.5,256.4723 L620.5,257.6429 L630.5,256.5015 L640.5,256.277 L650.5,257.0387 L660.5,255.8453 L670.5,256.0422 L680.5,257.5996 L690.5,257.3153 L700.5,257.7137 L710.5,256.3053 L720.5,257.16 L730.5,257.5216 L740.5,256.1045 L750.5,256.6066 L760.5,256.9024 L770.5,257.6034 L780.5,256.7288 L790.5,257.3511 L800.5,256.7344 " fill="none" style="stroke:#181818;stroke-width:1.0;"/><text fill="#000000" font-family="FG Virgil" font-size="13" lengthAdjust="spacing" textLength="166" x="147.5" y="251.9795">myUser=authenticatedUser()</text><polygon fill="#181818" points="383.5,311.2578,383.526,311.3229,385.4487,311.9296,387.5239,312.9176,389.5495,313.7815,391.4117,314.237,393.5,315.2578,393.4904,315.2338,391.4472,315.9258,389.4525,316.7391,387.4916,317.6367,385.4144,318.2438,383.5,319.2578,383.6305,319.3883,384.1514,318.3093,385.0534,317.6112,386.0018,316.9596,386.6798,316.0376,387.5,315.2578,387.5161,315.2739,386.6925,314.4503,385.9421,313.6999,385.1564,312.9142,384.438,312.1959,383.5,311.2578" style="stroke:#181818;stroke-width:1.0;"/><path d="M140.5,315.2578 L140.5,315.5381 L150.46,314.7054 L160.42,315.5155 L170.38,315.7907 L180.34,314.3066 L190.3,315.1542 L200.26,314.6892 L210.22,314.7465 L220.18,315.1669 L230.14,314.336 L240.1,315.996 L250.06,314.4174 L260.02,314.9941 L269.98,315.8337 L279.94,315.1434 L289.9,315.3488 L299.86,315.2152 L309.82,315.4958 L319.78,315.5767 L329.74,316.0387 L339.7,316.1526 L349.66,316.1635 L359.62,315.5973 L369.58,315.8759 L379.54,316.1941 L389.5,315.2578 " fill="none" style="stroke:#181818;stroke-width:1.0;"/><text fill="#000000" font-family="FG Virgil" font-size="13" lengthAdjust="spacing" textLength="178" x="147.5" y="310.5029">create(authz, examRepository)</text><polygon fill="#181818" points="934,339.7813,934.026,339.8463,935.9487,340.453,938.0239,341.4411,940.0495,342.3049,941.9117,342.7605,944,343.7813,943.9904,343.7572,941.9472,344.4493,939.9525,345.2626,937.9916,346.1602,935.9144,346.7673,934,347.7813,934.1305,347.9117,934.6514,346.8327,935.5534,346.1346,936.5018,345.4831,937.1798,344.561,938,343.7813,938.0161,343.7973,937.1925,342.9737,936.4421,342.2233,935.6564,341.4376,934.938,340.7193,934,339.7813" style="stroke:#181818;stroke-width:1.0;"/><path d="M405.5,343.7813 L405.5,344.0615 L415.5849,343.2288 L425.6698,344.039 L435.7547,344.3142 L445.8396,342.8301 L455.9245,343.6776 L466.0094,343.2126 L476.0943,343.2699 L486.1792,343.6904 L496.2642,342.8594 L506.3491,344.5194 L516.434,342.9409 L526.5189,343.5176 L536.6038,344.3572 L546.6887,343.6669 L556.7736,343.8722 L566.8585,343.7387 L576.9434,344.0193 L587.0283,344.1001 L597.1132,344.5622 L607.1981,344.676 L617.283,344.6869 L627.3679,344.1208 L637.4528,344.3994 L647.5377,344.7176 L657.6226,342.8197 L667.7075,344.6859 L677.7925,343.3859 L687.8774,344.493 L697.9623,343.1212 L708.0472,343.6899 L718.1321,344.7701 L728.217,343.7163 L738.3019,343.9217 L748.3868,344.2328 L758.4717,344.3362 L768.5566,343.776 L778.6415,344.1642 L788.7264,343.018 L798.8113,344.1604 L808.8962,344.5122 L818.9811,344.374 L829.066,344.5986 L839.1509,343.1371 L849.2358,342.9117 L859.3208,342.9527 L869.4057,343.7027 L879.4906,343.5192 L889.5755,344.6898 L899.6604,343.5483 L909.7453,343.3238 L919.8302,344.0856 L929.9151,342.8921 L940,343.7813 " fill="none" style="stroke:#181818;stroke-width:1.0;"/><text fill="#000000" font-family="FG Virgil" font-size="13" lengthAdjust="spacing" textLength="178" x="412.5" y="339.0264">create(authz, examRepository)</text><polygon fill="#181818" points="1058.5,398.3047,1058.526,398.3697,1060.4487,398.9765,1062.5239,399.9645,1064.5495,400.8284,1066.4117,401.2839,1068.5,402.3047,1068.4904,402.2806,1066.4472,402.9727,1064.4525,403.786,1062.4916,404.6836,1060.4144,405.2907,1058.5,406.3047,1058.6305,406.4352,1059.1514,405.3561,1060.0534,404.6581,1061.0018,404.0065,1061.6798,403.0845,1062.5,402.3047,1062.5161,402.3208,1061.6925,401.4972,1060.9421,400.7468,1060.1564,399.9611,1059.438,399.2427,1058.5,398.3047" style="stroke:#181818;stroke-width:1.0;"/><path d="M140.5,402.3047 L140.5,402.5849 L150.5435,401.7523 L160.587,402.5624 L170.6304,402.8376 L180.6739,401.3535 L190.7174,402.2011 L200.7609,401.736 L210.8043,401.7934 L220.8478,402.2138 L230.8913,401.3829 L240.9348,403.0429 L250.9783,401.4643 L261.0217,402.041 L271.0652,402.8806 L281.1087,402.1903 L291.1522,402.3957 L301.1957,402.2621 L311.2391,402.5427 L321.2826,402.6235 L331.3261,403.0856 L341.3696,403.1994 L351.413,403.2104 L361.4565,402.6442 L371.5,402.9228 L381.5435,403.241 L391.587,401.3431 L401.6304,403.2094 L411.6739,401.9093 L421.7174,403.0164 L431.7609,401.6447 L441.8043,402.2134 L451.8478,403.2935 L461.8913,402.2397 L471.9348,402.4451 L481.9783,402.7562 L492.0217,402.8597 L502.0652,402.2995 L512.1087,402.6876 L522.1522,401.5415 L532.1957,402.6839 L542.2391,403.0356 L552.2826,402.8974 L562.3261,403.1221 L572.3696,401.6606 L582.413,401.4351 L592.4565,401.4762 L602.5,402.2262 L612.5435,402.0426 L622.587,403.2132 L632.6304,402.0718 L642.6739,401.8473 L652.7174,402.609 L662.7609,401.4156 L672.8043,401.6125 L682.8478,403.17 L692.8913,402.8856 L702.9348,403.284 L712.9783,401.8756 L723.0217,402.7303 L733.0652,403.0919 L743.1087,401.6748 L753.1522,402.1769 L763.1957,402.4727 L773.2391,403.1737 L783.2826,402.2991 L793.3261,402.9214 L803.3696,401.5663 L813.413,401.4017 L823.4565,402.9762 L833.5,401.3488 L843.5435,402.9833 L853.587,402.5802 L863.6304,401.9475 L873.6739,401.833 L883.7174,402.9164 L893.7609,401.9056 L903.8043,403.0938 L913.8478,401.5677 L923.8913,403.1279 L933.9348,402.9504 L943.9783,402.6313 L954.0217,402.3676 L964.0652,403.2735 L974.1087,403.1228 L984.1522,402.5304 L994.1957,402.6623 L1004.2391,402.131 L1014.2826,403.26 L1024.3261,402.5112 L1034.3696,402.5348 L1044.413,401.4936 L1054.4565,401.7644 L1064.5,402.3047 " fill="none" style="stroke:#181818;stroke-width:1.0;"/><text fill="#000000" font-family="FG Virgil" font-size="13" lengthAdjust="spacing" textLength="159" x="147.5" y="397.5498">getMecanographicNumber()</text><polygon fill="#181818" points="383.5,456.8281,383.526,456.8932,385.4487,457.4999,387.5239,458.4879,389.5495,459.3518,391.4117,459.8073,393.5,460.8281,393.4904,460.8041,391.4472,461.4961,389.4525,462.3094,387.4916,463.207,385.4144,463.8142,383.5,464.8281,383.6305,464.9586,384.1514,463.8796,385.0534,463.1815,386.0018,462.5299,386.6798,461.6079,387.5,460.8281,387.5161,460.8442,386.6925,460.0206,385.9421,459.2702,385.1564,458.4845,384.438,457.7662,383.5,456.8281" style="stroke:#181818;stroke-width:1.0;"/><path d="M140.5,460.8281 L140.5,461.1084 L150.46,460.2757 L160.42,461.0858 L170.38,461.361 L180.34,459.8769 L190.3,460.7245 L200.26,460.2595 L210.22,460.3168 L220.18,460.7372 L230.14,459.9063 L240.1,461.5663 L250.06,459.9878 L260.02,460.5644 L269.98,461.4041 L279.94,460.7138 L289.9,460.9191 L299.86,460.7855 L309.82,461.0662 L319.78,461.147 L329.74,461.609 L339.7,461.7229 L349.66,461.7338 L359.62,461.1676 L369.58,461.4462 L379.54,461.7644 L389.5,460.8281 " fill="none" style="stroke:#181818;stroke-width:1.0;"/><text fill="#000000" font-family="FG Virgil" font-size="13" lengthAdjust="spacing" textLength="236" x="147.5" y="456.0732">listFutureExams(mecanographicNumber)</text><polygon fill="#181818" points="934,485.3516,934.026,485.4166,935.9487,486.0233,938.0239,487.0114,940.0495,487.8753,941.9117,488.3308,944,489.3516,943.9904,489.3275,941.9472,490.0196,939.9525,490.8329,937.9916,491.7305,935.9144,492.3376,934,493.3516,934.1305,493.4821,934.6514,492.403,935.5534,491.7049,936.5018,491.0534,937.1798,490.1313,938,489.3516,938.0161,489.3676,937.1925,488.544,936.4421,487.7936,935.6564,487.0079,934.938,486.2896,934,485.3516" style="stroke:#181818;stroke-width:1.0;"/><path d="M405.5,489.3516 L405.5,489.6318 L415.5849,488.7991 L425.6698,489.6093 L435.7547,489.8845 L445.8396,488.4004 L455.9245,489.2479 L466.0094,488.7829 L476.0943,488.8402 L486.1792,489.2607 L496.2642,488.4297 L506.3491,490.0898 L516.434,488.5112 L526.5189,489.0879 L536.6038,489.9275 L546.6887,489.2372 L556.7736,489.4425 L566.8585,489.309 L576.9434,489.5896 L587.0283,489.6704 L597.1132,490.1325 L607.1981,490.2463 L617.283,490.2572 L627.3679,489.6911 L637.4528,489.9697 L647.5377,490.2879 L657.6226,488.39 L667.7075,490.2562 L677.7925,488.9562 L687.8774,490.0633 L697.9623,488.6915 L708.0472,489.2602 L718.1321,490.3404 L728.217,489.2866 L738.3019,489.492 L748.3868,489.8031 L758.4717,489.9065 L768.5566,489.3464 L778.6415,489.7345 L788.7264,488.5883 L798.8113,489.7307 L808.8962,490.0825 L818.9811,489.9443 L829.066,490.1689 L839.1509,488.7075 L849.2358,488.482 L859.3208,488.523 L869.4057,489.2731 L879.4906,489.0895 L889.5755,490.2601 L899.6604,489.1187 L909.7453,488.8942 L919.8302,489.6559 L929.9151,488.4624 L940,489.3516 " fill="none" style="stroke:#181818;stroke-width:1.0;"/><text fill="#000000" font-family="FG Virgil" font-size="13" lengthAdjust="spacing" textLength="214" x="412.5" y="484.5967">futureExams(mecanographicNumber)</text><polygon fill="#181818" points="1237,528.3984,1237.026,528.4635,1238.9487,529.0702,1241.0239,530.0583,1243.0495,530.9221,1244.9117,531.3776,1247,532.3984,1246.9904,532.3744,1244.9472,533.0664,1242.9525,533.8797,1240.9916,534.7773,1238.9144,535.3845,1237,536.3984,1237.1305,536.5289,1237.6514,535.4499,1238.5534,534.7518,1239.5018,534.1002,1240.1798,533.1782,1241,532.3984,1241.0161,532.4145,1240.1925,531.5909,1239.4421,530.8405,1238.6564,530.0548,1237.938,529.3365,1237,528.3984" style="stroke:#181818;stroke-width:1.0;"/><path d="M956,532.3984 L956,532.6787 L965.8966,531.846 L975.7931,532.6562 L985.6897,532.9313 L995.5862,531.4472 L1005.4828,532.2948 L1015.3793,531.8298 L1025.2759,531.8871 L1035.1724,532.3076 L1045.069,531.4766 L1054.9655,533.1366 L1064.8621,531.5581 L1074.7586,532.1347 L1084.6552,532.9744 L1094.5517,532.2841 L1104.4483,532.4894 L1114.3448,532.3558 L1124.2414,532.6365 L1134.1379,532.7173 L1144.0345,533.1794 L1153.931,533.2932 L1163.8276,533.3041 L1173.7241,532.7379 L1183.6207,533.0166 L1193.5172,533.3347 L1203.4138,531.4369 L1213.3103,533.3031 L1223.2069,532.0031 L1233.1034,533.1102 L1243,532.3984 " fill="none" style="stroke:#181818;stroke-width:1.0;"/><text fill="#000000" font-family="FG Virgil" font-size="13" lengthAdjust="spacing" textLength="114" x="963" y="513.1201">findFutureExamsBy</text><text fill="#000000" font-family="FG Virgil" font-size="13" lengthAdjust="spacing" textLength="274" x="963" y="527.6436">MecanographicNumber(mecanographicNumber)</text><polygon fill="#181818" points="967,556.9219,967.026,556.9869,964.9487,557.5936,963.0239,558.5817,961.0495,559.4456,958.9117,559.9011,957,560.9219,956.9904,560.8978,958.9472,561.5899,960.9525,562.4032,962.9916,563.3008,964.9144,563.9079,967,564.9219,967.1305,565.0524,966.0514,563.9733,965.3534,563.2753,964.7018,562.6237,963.7798,561.7017,963,560.9219,963.0161,560.938,963.7925,560.1143,964.6421,559.364,965.4564,558.5782,966.338,557.8599,967,556.9219" style="stroke:#181818;stroke-width:1.0;"/><path d="M961,560.9219 L961,561.2021 L971.069,560.3694 L981.1379,561.1796 L991.2069,561.4548 L1001.2759,559.9707 L1011.3448,560.8183 L1021.4138,560.3532 L1031.4828,560.4105 L1041.5517,560.831 L1051.6207,560 L1061.6897,561.6601 L1071.7586,560.0815 L1081.8276,560.6582 L1091.8966,561.4978 L1101.9655,560.8075 L1112.0345,561.0129 L1122.1034,560.8793 L1132.1724,561.1599 L1142.2414,561.2407 L1152.3103,561.7028 L1162.3793,561.8166 L1172.4483,561.8276 L1182.5172,561.2614 L1192.5862,561.54 L1202.6552,561.8582 L1212.7241,559.9603 L1222.7931,561.8266 L1232.8621,560.5265 L1242.931,561.6336 L1253,560.9219 " fill="none" style="stroke:#181818;stroke-width:1.0;stroke-dasharray:2.0,2.0;"/><text fill="#000000" font-family="FG Virgil" font-size="13" lengthAdjust="spacing" textLength="39" x="973" y="556.167">exams</text><polygon fill="#181818" points="416.5,585.4453,416.526,585.5104,414.4487,586.1171,412.5239,587.1051,410.5495,587.969,408.4117,588.4245,406.5,589.4453,406.4904,589.4213,408.4472,590.1133,410.4525,590.9266,412.4916,591.8242,414.4144,592.4313,416.5,593.4453,416.6305,593.5758,415.5514,592.4968,414.8534,591.7987,414.2018,591.1471,413.2798,590.2251,412.5,589.4453,412.5161,589.4614,413.2925,588.6378,414.1421,587.8874,414.9564,587.1017,415.838,586.3834,416.5,585.4453" style="stroke:#181818;stroke-width:1.0;"/><path d="M410.5,589.4453 L410.5,589.7256 L420.4907,588.8929 L430.4815,589.703 L440.4722,589.9782 L450.463,588.4941 L460.4537,589.3417 L470.4444,588.8767 L480.4352,588.934 L490.4259,589.3544 L500.4167,588.5235 L510.4074,590.1835 L520.3981,588.6049 L530.3889,589.1816 L540.3796,590.0212 L550.3704,589.3309 L560.3611,589.5363 L570.3519,589.4027 L580.3426,589.6833 L590.3333,589.7642 L600.3241,590.2262 L610.3148,590.3401 L620.3056,590.351 L630.2963,589.7848 L640.287,590.0634 L650.2778,590.3816 L660.2685,588.4837 L670.2593,590.35 L680.25,589.05 L690.2407,590.1571 L700.2315,588.7853 L710.2222,589.354 L720.213,590.4341 L730.2037,589.3803 L740.1944,589.5857 L750.1852,589.8968 L760.1759,590.0003 L770.1667,589.4401 L780.1574,589.8283 L790.1481,588.6821 L800.1389,589.8245 L810.1296,590.1762 L820.1204,590.038 L830.1111,590.2627 L840.1019,588.8012 L850.0926,588.5757 L860.0833,588.6168 L870.0741,589.3668 L880.0648,589.1833 L890.0556,590.3539 L900.0463,589.2124 L910.037,588.9879 L920.0278,589.7497 L930.0185,588.5562 L940.0093,588.7531 L950,589.4453 " fill="none" style="stroke:#181818;stroke-width:1.0;stroke-dasharray:2.0,2.0;"/><text fill="#000000" font-family="FG Virgil" font-size="13" lengthAdjust="spacing" textLength="39" x="422.5" y="584.6904">exams</text><polygon fill="#181818" points="151.5,613.9688,151.526,614.0338,149.4487,614.6405,147.5239,615.6286,145.5495,616.4924,143.4117,616.948,141.5,617.9688,141.4904,617.9447,143.4472,618.6368,145.4525,619.4501,147.4916,620.3477,149.4144,620.9548,151.5,621.9688,151.6305,622.0992,150.5514,621.0202,149.8534,620.3221,149.2018,619.6706,148.2798,618.7485,147.5,617.9688,147.5161,617.9848,148.2925,617.1612,149.1421,616.4108,149.9564,615.6251,150.838,614.9068,151.5,613.9688" style="stroke:#181818;stroke-width:1.0;"/><path d="M145.5,617.9688 L145.5,618.249 L155.66,617.4163 L165.82,618.2265 L175.98,618.5017 L186.14,617.0176 L196.3,617.8651 L206.46,617.4001 L216.62,617.4574 L226.78,617.8779 L236.94,617.0469 L247.1,618.7069 L257.26,617.1284 L267.42,617.7051 L277.58,618.5447 L287.74,617.8544 L297.9,618.0597 L308.06,617.9262 L318.22,618.2068 L328.38,618.2876 L338.54,618.7497 L348.7,618.8635 L358.86,618.8744 L369.02,618.3083 L379.18,618.5869 L389.34,618.9051 L399.5,617.9688 " fill="none" style="stroke:#181818;stroke-width:1.0;stroke-dasharray:2.0,2.0;"/><text fill="#000000" font-family="FG Virgil" font-size="13" lengthAdjust="spacing" textLength="39" x="157.5" y="613.2139">exams</text><polygon fill="#181818" points="43.5,642.4922,43.526,642.5572,41.4487,643.164,39.5239,644.152,37.5495,645.0159,35.4117,645.4714,33.5,646.4922,33.4904,646.4681,35.4472,647.1602,37.4525,647.9735,39.4916,648.8711,41.4144,649.4782,43.5,650.4922,43.6305,650.6227,42.5514,649.5436,41.8534,648.8456,41.2018,648.194,40.2798,647.272,39.5,646.4922,39.5161,646.5083,40.2925,645.6847,41.1421,644.9343,41.9564,644.1486,42.838,643.4302,43.5,642.4922" style="stroke:#181818;stroke-width:1.0;"/><path d="M37.5,646.4922 L37.5,646.7724 L47.2,645.9398 L56.9,646.7499 L66.6,647.0251 L76.3,645.541 L86,646.3886 L95.7,645.9235 L105.4,645.9809 L115.1,646.4013 L124.8,645.5704 L134.5,646.4922 " fill="none" style="stroke:#181818;stroke-width:1.0;stroke-dasharray:2.0,2.0;"/><text fill="#000000" font-family="FG Virgil" font-size="13" lengthAdjust="spacing" textLength="67" x="49.5" y="641.7373">lists exams</text><!--MD5=[5c102adfbefd9bbe023f6b88f6a7298e]
@startuml
'http://plantuml.com/skinparam.html
skinparam handwritten true
skinparam monochrome true
skinparam packageStyle rect
skinparam defaultFontName FG Virgil
skinparam shadowing false

actor Student as Actor
participant ListFutureExamsUI as UI
participant ListFutureExamsController as Controller
participant AuthzRegistry as AuthzRes
participant AuthorizationService as AuthzSvc
participant UserSession as UserS
participant ListFutureExamsService as Service
participant Student as Student
participant ExamRepository as Repo

-> UI: Show future exams
activate UI
    UI -> AuthzRes : authz=authorizationService()
    activate AuthzRes
    deactivate AuthzRes
    UI -> AuthzSvc : s=session()
    activate AuthzSvc
    deactivate AuthzSvc
    UI -> UserS : myUser=authenticatedUser()
    activate UserS
    deactivate UserS

    UI -> Controller: create(authz, examRepository)
    activate Controller
        Controller -> Service : create(authz, examRepository)
        activate Service
        deactivate Service
    deactivate Controller
    UI -> Student : getMecanographicNumber()
    activate Student
    deactivate Student
    UI -> Controller: listFutureExams(mecanographicNumber)

    activate Controller
        Controller -> Service: futureExams(mecanographicNumber)

        activate Service
            Service -> Repo: findFutureExamsBy\nMecanographicNumber(mecanographicNumber)
            activate Repo
            Repo - -> Service : exams
            deactivate Repo
            Service - -> Controller : exams
        deactivate Service

        Controller - -> UI: exams
    deactivate Controller

        UI- ->Actor: lists exams
deactivate UI
@enduml

@startuml
skinparam handwritten true
skinparam monochrome true
skinparam packageStyle rect
skinparam defaultFontName FG Virgil
skinparam shadowing false

actor Student as Actor
participant ListFutureExamsUI as UI
participant ListFutureExamsController as Controller
participant AuthzRegistry as AuthzRes
participant AuthorizationService as AuthzSvc
participant UserSession as UserS
participant ListFutureExamsService as Service
participant Student as Student
participant ExamRepository as Repo

-> UI: Show future exams
activate UI
    UI -> AuthzRes : authz=authorizationService()
    activate AuthzRes
    deactivate AuthzRes
    UI -> AuthzSvc : s=session()
    activate AuthzSvc
    deactivate AuthzSvc
    UI -> UserS : myUser=authenticatedUser()
    activate UserS
    deactivate UserS

    UI -> Controller: create(authz, examRepository)
    activate Controller
        Controller -> Service : create(authz, examRepository)
        activate Service
        deactivate Service
    deactivate Controller
    UI -> Student : getMecanographicNumber()
    activate Student
    deactivate Student
    UI -> Controller: listFutureExams(mecanographicNumber)

    activate Controller
        Controller -> Service: futureExams(mecanographicNumber)

        activate Service
            Service -> Repo: findFutureExamsBy\nMecanographicNumber(mecanographicNumber)
            activate Repo
            Repo - -> Service : exams
            deactivate Repo
            Service - -> Controller : exams
        deactivate Service

        Controller - -> UI: exams
    deactivate Controller

        UI- ->Actor: lists exams
deactivate UI
@enduml

PlantUML version 1.2022.7(Mon Aug 22 18:01:30 WEST 2022)
(GPL source distribution)
Java Runtime: OpenJDK Runtime Environment
JVM: OpenJDK 64-Bit Server VM
Default Encoding: Cp1252
Language: pt
Country: PT
--></g></svg>