<?xml version="1.0" encoding="us-ascii" standalone="no"?><svg xmlns="http://www.w3.org/2000/svg" xmlns:xlink="http://www.w3.org/1999/xlink" contentStyleType="text/css" height="608px" preserveAspectRatio="none" style="width:1405px;height:608px;background:#FFFFFF;" version="1.1" viewBox="0 0 1405 608" width="1405px" zoomAndPan="magnify"><defs/><g><polygon fill="#FFFFFF" points="342.5,114.9609,342.5,115.031,344.5,114.8228,346.5,115.0254,348.5,115.0942,350.5,114.7231,352.5,114.9609,352.4223,114.9609,352.0735,125.0076,352.1165,135.0543,352.4318,145.101,351.8086,155.1477,353.0536,165.1943,351.8697,175.241,352.3022,185.2877,352.9319,195.3344,352.4142,205.3811,352.5682,215.4277,352.4681,225.4744,352.6785,235.5211,352.7391,245.5678,353.0857,255.6145,353.1711,265.6611,353.1793,275.7078,352.7546,285.7545,352.9636,295.8012,353.2022,305.8479,351.7788,315.8945,353.1785,325.9412,352.2035,335.9879,353.0338,346.0346,352.005,356.0812,352.4315,366.1279,353.2416,376.1746,352.4513,386.2213,352.6053,396.268,352.8386,406.3146,352.9162,416.3613,352.4961,426.408,352.7872,436.4547,351.9276,446.5014,352.7844,456.548,353.0482,466.5947,352.9445,476.6414,353.113,486.6881,352.0169,496.7348,351.8478,506.7814,352.5,516.8281,352.5,516.621,350.5,516.8085,348.5,516.7626,346.5,517.0553,344.5,516.7699,342.5,516.8281,342.1569,516.8281,342.7283,506.7814,341.8332,496.7348,341.9809,486.6881,343.149,476.6414,342.9357,466.5947,343.2345,456.548,342.1782,446.5014,342.8192,436.4547,343.0904,426.408,342.0276,416.3613,342.4041,406.3146,342.626,396.268,343.1518,386.2213,342.4958,376.1746,342.9626,366.1279,341.9462,356.0813,341.8227,346.0346,343.0036,335.9879,341.7831,325.9412,343.009,315.8945,342.7066,305.8479,342.2321,295.8012,342.1462,285.7545,342.9588,275.7078,342.2007,265.6611,343.0919,255.6145,341.9473,245.5678,343.1174,235.5211,342.9843,225.4744,342.745,215.4277,342.5472,205.3811,343.2266,195.3344,343.1136,185.2877,342.6693,175.241,342.7682,165.1943,342.3697,155.1477,343.2165,145.101,342.6549,135.0543,342.6726,125.0076,342.5,114.9609" style="stroke:#181818;stroke-width:1.0;"/><polygon fill="#FFFFFF" points="543.5,145.3125,543.5,145.3826,545.5,145.1744,547.5,145.3769,549.5,145.4457,551.5,145.0747,553.5,145.3125,553.4223,145.3125,553.0735,155.2337,553.1165,165.1549,553.4318,175.0762,552.8086,184.9974,554.0536,194.9186,552.8697,204.8398,553.3022,214.7611,553.9319,224.6823,553.4142,234.6035,553.5682,244.5247,553.4681,254.446,553.5,264.3672,553.5,264.4267,551.5,264.4469,549.5,264.5624,547.5,264.5909,545.5,264.5936,543.5,264.3672,543.7546,264.3672,543.9636,254.446,544.2022,244.5247,542.7788,234.6035,544.1785,224.6823,543.2035,214.7611,544.0338,204.8398,543.005,194.9186,543.4315,184.9974,544.2416,175.0762,543.4513,165.1549,543.6053,155.2337,543.5,145.3125" style="stroke:#181818;stroke-width:1.0;"/><polygon fill="#FFFFFF" points="543.5,352.4219,543.5,352.4919,545.5,352.2838,547.5,352.4863,549.5,352.5551,551.5,352.1841,553.5,352.4219,553.4223,352.4219,553.0735,362.3431,553.1165,372.2643,553.4318,382.1855,552.8086,392.1068,554.0536,402.028,552.8697,411.9492,553.3022,421.8704,553.9319,431.7917,553.4142,441.7129,553.5682,451.6341,553.4681,461.5553,553.5,471.4766,553.5,471.5361,551.5,471.5563,549.5,471.6718,547.5,471.7002,545.5,471.703,543.5,471.4766,543.7546,471.4766,543.9636,461.5553,544.2022,451.6341,542.7788,441.7129,544.1785,431.7917,543.2035,421.8704,544.0338,411.9492,543.005,402.028,543.4315,392.1068,544.2416,382.1855,543.4513,372.2643,543.6053,362.3431,543.5,352.4219" style="stroke:#181818;stroke-width:1.0;"/><polygon fill="#FFFFFF" points="758.5,175.6641,758.5,175.7341,760.5,175.526,762.5,175.7285,764.5,175.7973,766.5,175.4263,768.5,175.6641,768.4223,175.6641,768.0735,185.3893,768.1165,195.1146,768.4318,204.8398,767.8086,214.5651,769.0536,224.2904,768.5,234.0156,768.5,233.8055,766.5,233.9497,764.5,234.1596,762.5,233.987,760.5,234.0384,758.5,234.0156,758.4681,234.0156,758.6785,224.2904,758.7391,214.5651,759.0857,204.8398,759.1711,195.1146,759.1793,185.3893,758.5,175.6641" style="stroke:#181818;stroke-width:1.0;"/><polygon fill="#FFFFFF" points="758.5,382.7734,758.5,382.8435,760.5,382.6353,762.5,382.8379,764.5,382.9067,766.5,382.5356,768.5,382.7734,768.4223,382.7734,768.0735,392.4987,768.1165,402.224,768.4318,411.9492,767.8086,421.6745,769.0536,431.3997,768.5,441.125,768.5,440.9149,766.5,441.0591,764.5,441.269,762.5,441.0964,760.5,441.1477,758.5,441.125,758.4681,441.125,758.6785,431.3997,758.7391,421.6745,759.0857,411.9492,759.1711,402.224,759.1793,392.4987,758.5,382.7734" style="stroke:#181818;stroke-width:1.0;"/><polygon fill="#FFFFFF" points="973.5,206.0156,973.5,206.0857,975.5,205.8775,977.5,206.0801,979.5,206.1489,981.5,205.7778,983.5,206.0156,983.4741,206.0156,983.3578,208.8156,983.3722,211.6156,983.4773,214.4156,983.2695,217.2156,983.5,220.0156,983.5,220.2002,981.5,219.8055,979.5,219.9497,977.5,220.1596,975.5,219.987,973.5,220.0156,973.5227,220.0156,973.4894,217.2156,973.5595,214.4156,973.5797,211.6156,973.6952,208.8156,973.5,206.0156" style="stroke:#181818;stroke-width:1.0;"/><polygon fill="#FFFFFF" points="1107,413.125,1107,413.1951,1109,412.9869,1111,413.1894,1113,413.2582,1115,412.8872,1117,413.125,1116.9741,413.125,1116.8578,415.925,1116.8722,418.725,1116.9773,421.525,1116.7695,424.325,1117,427.125,1117,427.3095,1115,426.9149,1113,427.0591,1111,427.269,1109,427.0964,1107,427.125,1107.0227,427.125,1106.9894,424.325,1107.0595,421.525,1107.0797,418.725,1107.1952,415.925,1107,413.125" style="stroke:#181818;stroke-width:1.0;"/><polygon fill="none" points="10,279.3672,10,279.5774,19.9957,278.9529,29.9915,279.5605,39.9872,279.7669,49.9829,278.6538,59.9786,279.2895,69.9744,278.9407,79.9701,278.9837,89.9658,279.299,99.9615,278.6758,109.9573,279.9208,119.953,278.7369,129.9487,279.1694,139.9444,279.7991,149.9402,279.2814,159.9359,279.4354,169.9316,279.3352,179.9274,279.5457,189.9231,279.6063,199.9188,279.9529,209.9145,280.0382,219.9103,280.0464,229.906,279.6218,239.9017,279.8308,249.8974,280.0694,259.8932,278.646,269.8889,280.0457,279.8846,279.0707,289.8803,279.901,299.8761,278.8722,309.8718,279.2987,319.8675,280.1088,329.8632,279.3185,339.859,279.4725,349.8547,279.7058,359.8504,279.7834,369.8462,279.3633,379.8419,279.6544,389.8376,278.7948,399.8333,279.6516,409.8291,279.9154,419.8248,279.8117,429.8205,279.9802,439.8162,278.8841,449.812,278.715,459.8077,278.7458,469.8034,279.3083,479.7991,279.1707,489.7949,280.0486,499.7906,279.1925,509.7863,279.0241,519.7821,279.5955,529.7778,278.7003,539.7735,278.8481,549.7692,280.0161,559.765,279.8029,569.7607,280.1017,579.7564,279.0454,589.7521,279.6864,599.7479,279.9576,609.7436,278.8948,619.7393,279.2713,629.735,279.4932,639.7308,280.0189,649.7265,279.363,659.7222,279.8298,669.7179,278.8134,679.7137,278.6899,689.7094,279.8708,699.7051,278.6502,709.7009,279.8761,719.6966,279.5738,729.6923,279.0993,739.688,279.0134,749.6838,279.8259,759.6795,279.0679,769.6752,279.959,779.6709,278.8144,789.6667,279.9846,799.6624,279.8515,809.6581,279.6122,819.6538,279.4144,829.6496,280.0938,839.6453,279.9808,849.641,279.5364,859.6368,279.6354,869.6325,279.2369,879.6282,280.0836,889.6239,279.5221,899.6197,279.5398,909.6154,278.7588,919.6111,278.962,929.6068,279.8979,939.6026,279.7969,949.5983,279.3243,959.594,279.045,969.5897,279.1483,979.5855,278.681,989.5812,279.7819,999.5769,280.1068,1009.5726,279.8936,1019.5684,280.0621,1029.5641,279.2305,1039.5598,279.4544,1049.5556,278.9796,1059.5513,279.6512,1069.547,279.614,1079.5427,279.9196,1089.5385,279.1375,1099.5342,279.2328,1109.5299,279.8106,1119.5256,279.9345,1129.5214,278.8547,1139.5171,279.1733,1149.5128,279.5165,1159.5085,278.7563,1169.5043,279.7206,1179.5,279.3672,1179.758,279.3672,1179.3992,289.3872,1179.6422,299.4073,1180.2287,309.4273,1179.1871,319.4474,1179.815,329.4674,1179.7856,339.4874,1179.6158,349.5075,1179.6409,359.5275,1179.6135,369.5476,1178.8758,379.5676,1179.0992,389.5876,1179.0385,399.6077,1179.5638,409.6277,1179.5881,419.6478,1179.6617,429.6678,1179.209,439.6878,1179.4325,449.7079,1179.3798,459.7279,1180.0769,469.748,1179.9266,479.768,1179.0145,489.788,1179.4271,499.8081,1179.5,509.8281,1179.5,509.2509,1169.5043,510.1165,1159.5085,510.4366,1149.5128,510.3727,1139.5171,509.3926,1129.5214,510.2921,1119.5256,509.0853,1109.5299,510.0283,1099.5342,509.5288,1089.5385,509.9248,1079.5427,510.0685,1069.547,510.3002,1059.5513,509.1082,1049.5556,510.3036,1039.5598,510.0063,1029.5641,510.1835,1019.5684,510.5759,1009.5726,509.8336,999.5769,510.0034,989.5812,510.0416,979.5855,510.0254,969.5897,509.8273,959.594,510.5388,949.5983,509.2184,939.6026,510.3934,929.6068,509.2041,919.6111,509.2878,909.6154,509.8681,899.6197,509.8564,889.6239,509.3353,879.6282,510.2418,869.6325,509.937,859.6368,510.5548,849.641,510.4952,839.6453,509.3799,829.6496,509.4302,819.6538,509.6989,809.6581,510.1836,799.6624,510.2311,789.6667,510.1293,779.6709,509.4862,769.6752,510.4645,759.6795,510.4619,749.6838,509.7808,739.688,509.5891,729.6923,509.4267,719.6966,509.6135,709.7009,509.9655,699.7051,509.7597,689.7094,509.4103,679.7137,510.3155,669.7179,509.3692,659.7222,510.3305,649.7265,510.2554,639.7308,510.2,629.735,510.5206,619.7393,509.5822,609.7436,509.5275,599.7479,510.347,589.7521,509.2312,579.7564,509.5941,569.7607,509.9436,559.765,509.8968,549.7692,509.4697,539.7735,509.7851,529.7778,510.5727,519.7821,510.4766,509.7863,509.2318,499.7906,509.9066,489.7949,509.3142,479.7991,509.8018,469.8034,510.1211,459.8077,510.248,449.812,509.1634,439.8162,510.2287,429.8205,509.8365,419.8248,509.2728,409.8291,509.3571,399.8333,510.1547,389.8376,510.078,379.8419,509.8117,369.8462,509.156,359.8504,510.4863,349.8547,509.5163,339.859,509.3001,329.8632,509.7608,319.8675,510.4178,309.8718,510.4435,299.8761,509.8633,289.8803,509.677,279.8846,509.9979,269.8889,510.0143,259.8932,509.3203,249.8974,510.2421,239.9017,510.3869,229.906,509.6124,219.9103,509.3989,209.9145,510.5028,199.9188,509.8491,189.9231,509.828,179.9274,510.1272,169.9316,509.1824,159.9359,510.3581,149.9402,509.8127,139.9444,510.4969,129.9487,509.6123,119.953,510.2371,109.9573,509.3841,99.9615,510.0731,89.9658,510.2074,79.9701,509.5008,69.9744,510.1911,59.9786,509.2567,49.9829,509.3576,39.9872,510.511,29.9915,510.5125,19.9957,510.3966,10,509.8281,9.6396,509.8281,10.3842,499.8081,9.5279,489.788,10.0582,479.768,9.9987,469.748,9.7376,459.7279,10.6159,449.7079,10.4433,439.6878,9.6792,429.6678,10.5266,419.6478,10.0919,409.6277,9.4164,399.6077,9.7667,389.5876,9.4747,379.5676,9.8609,369.5476,9.371,359.5275,9.3998,349.5075,10.0703,339.4874,9.8796,329.4674,9.9414,319.4474,9.8568,309.4273,10.1673,299.4073,9.4449,289.3872,10,279.3672" style="stroke:#000000;stroke-width:1.5;"/><path d="M60,82.6094 L60.2802,82.6094 L59.4476,92.7053 L60.2577,102.8011 L60.5329,112.897 L59.0488,122.9929 L59.8964,133.0888 L59.4313,143.1847 L59.4887,153.2805 L59.9091,163.3764 L59.0782,173.4723 L60.7382,183.5682 L59.1596,193.6641 L59.7363,203.7599 L60.5759,213.8558 L59.8856,223.9517 L60.091,234.0476 L59.9574,244.1435 L60.238,254.2393 L60.3188,264.3352 L60.7809,274.4311 L60.8947,284.527 L60.9057,294.6229 L60.3395,304.7188 L60.6181,314.8146 L60.9363,324.9105 L59.0384,335.0064 L60.9047,345.1023 L59.6047,355.1982 L60.7117,365.294 L59.34,375.3899 L59.9087,385.4858 L60.9888,395.5817 L59.935,405.6776 L60.1404,415.7734 L60.4515,425.8693 L60.555,435.9652 L59.9948,446.0611 L60.383,456.157 L59.2368,466.2528 L60.3792,476.3487 L60.7309,486.4446 L60.5927,496.5405 L60.8174,506.6364 L59.3559,516.7322 L60,526.8281 " fill="none" style="stroke:#181818;stroke-width:0.5;stroke-dasharray:5.0,5.0;"/><path d="M347,82.6094 L347.2802,82.6094 L346.4476,92.7053 L347.2577,102.8011 L347.5329,112.897 L346.0488,122.9929 L346.8964,133.0888 L346.4313,143.1847 L346.4887,153.2805 L346.9091,163.3764 L346.0782,173.4723 L347.7382,183.5682 L346.1596,193.6641 L346.7363,203.7599 L347.5759,213.8558 L346.8856,223.9517 L347.091,234.0476 L346.9574,244.1435 L347.238,254.2393 L347.3188,264.3352 L347.7809,274.4311 L347.8947,284.527 L347.9057,294.6229 L347.3395,304.7188 L347.6181,314.8146 L347.9363,324.9105 L346.0384,335.0064 L347.9047,345.1023 L346.6047,355.1982 L347.7117,365.294 L346.34,375.3899 L346.9087,385.4858 L347.9888,395.5817 L346.935,405.6776 L347.1404,415.7734 L347.4515,425.8693 L347.555,435.9652 L346.9948,446.0611 L347.383,456.157 L346.2368,466.2528 L347.3792,476.3487 L347.7309,486.4446 L347.5927,496.5405 L347.8174,506.6364 L346.3559,516.7322 L347,526.8281 " fill="none" style="stroke:#181818;stroke-width:0.5;stroke-dasharray:5.0,5.0;"/><path d="M548,82.6094 L548.2802,82.6094 L547.4476,92.7053 L548.2577,102.8011 L548.5329,112.897 L547.0488,122.9929 L547.8964,133.0888 L547.4313,143.1847 L547.4887,153.2805 L547.9091,163.3764 L547.0782,173.4723 L548.7382,183.5682 L547.1596,193.6641 L547.7363,203.7599 L548.5759,213.8558 L547.8856,223.9517 L548.091,234.0476 L547.9574,244.1435 L548.238,254.2393 L548.3188,264.3352 L548.7809,274.4311 L548.8947,284.527 L548.9057,294.6229 L548.3395,304.7188 L548.6181,314.8146 L548.9363,324.9105 L547.0384,335.0064 L548.9047,345.1023 L547.6047,355.1982 L548.7117,365.294 L547.34,375.3899 L547.9087,385.4858 L548.9888,395.5817 L547.935,405.6776 L548.1404,415.7734 L548.4515,425.8693 L548.555,435.9652 L547.9948,446.0611 L548.383,456.157 L547.2368,466.2528 L548.3792,476.3487 L548.7309,486.4446 L548.5927,496.5405 L548.8174,506.6364 L547.3559,516.7322 L548,526.8281 " fill="none" style="stroke:#181818;stroke-width:0.5;stroke-dasharray:5.0,5.0;"/><path d="M763.5,82.6094 L763.7802,82.6094 L762.9476,92.7053 L763.7577,102.8011 L764.0329,112.897 L762.5488,122.9929 L763.3964,133.0888 L762.9313,143.1847 L762.9887,153.2805 L763.4091,163.3764 L762.5782,173.4723 L764.2382,183.5682 L762.6596,193.6641 L763.2363,203.7599 L764.0759,213.8558 L763.3856,223.9517 L763.591,234.0476 L763.4574,244.1435 L763.738,254.2393 L763.8188,264.3352 L764.2809,274.4311 L764.3947,284.527 L764.4057,294.6229 L763.8395,304.7188 L764.1181,314.8146 L764.4363,324.9105 L762.5384,335.0064 L764.4047,345.1023 L763.1047,355.1982 L764.2117,365.294 L762.84,375.3899 L763.4087,385.4858 L764.4888,395.5817 L763.435,405.6776 L763.6404,415.7734 L763.9515,425.8693 L764.055,435.9652 L763.4948,446.0611 L763.883,456.157 L762.7368,466.2528 L763.8792,476.3487 L764.2309,486.4446 L764.0927,496.5405 L764.3174,506.6364 L762.8559,516.7322 L763.5,526.8281 " fill="none" style="stroke:#181818;stroke-width:0.5;stroke-dasharray:5.0,5.0;"/><path d="M978.5,82.6094 L978.7802,82.6094 L977.9476,92.7053 L978.7577,102.8011 L979.0329,112.897 L977.5488,122.9929 L978.3964,133.0888 L977.9313,143.1847 L977.9887,153.2805 L978.4091,163.3764 L977.5782,173.4723 L979.2382,183.5682 L977.6596,193.6641 L978.2363,203.7599 L979.0759,213.8558 L978.3856,223.9517 L978.591,234.0476 L978.4574,244.1435 L978.738,254.2393 L978.8188,264.3352 L979.2809,274.4311 L979.3947,284.527 L979.4057,294.6229 L978.8395,304.7188 L979.1181,314.8146 L979.4363,324.9105 L977.5384,335.0064 L979.4047,345.1023 L978.1047,355.1982 L979.2117,365.294 L977.84,375.3899 L978.4087,385.4858 L979.4888,395.5817 L978.435,405.6776 L978.6404,415.7734 L978.9515,425.8693 L979.055,435.9652 L978.4948,446.0611 L978.883,456.157 L977.7368,466.2528 L978.8792,476.3487 L979.2309,486.4446 L979.0927,496.5405 L979.3174,506.6364 L977.8559,516.7322 L978.5,526.8281 " fill="none" style="stroke:#181818;stroke-width:0.5;stroke-dasharray:5.0,5.0;"/><path d="M1111.5,82.6094 L1111.7802,82.6094 L1110.9476,92.7053 L1111.7577,102.8011 L1112.0329,112.897 L1110.5488,122.9929 L1111.3964,133.0888 L1110.9313,143.1847 L1110.9887,153.2805 L1111.4091,163.3764 L1110.5782,173.4723 L1112.2382,183.5682 L1110.6596,193.6641 L1111.2363,203.7599 L1112.0759,213.8558 L1111.3856,223.9517 L1111.591,234.0476 L1111.4574,244.1435 L1111.738,254.2393 L1111.8188,264.3352 L1112.2809,274.4311 L1112.3947,284.527 L1112.4057,294.6229 L1111.8395,304.7188 L1112.1181,314.8146 L1112.4363,324.9105 L1110.5384,335.0064 L1112.4047,345.1023 L1111.1047,355.1982 L1112.2117,365.294 L1110.84,375.3899 L1111.4087,385.4858 L1112.4888,395.5817 L1111.435,405.6776 L1111.6404,415.7734 L1111.9515,425.8693 L1112.055,435.9652 L1111.4948,446.0611 L1111.883,456.157 L1110.7368,466.2528 L1111.8792,476.3487 L1112.2309,486.4446 L1112.0927,496.5405 L1112.3174,506.6364 L1110.8559,516.7322 L1111.5,526.8281 " fill="none" style="stroke:#181818;stroke-width:0.5;stroke-dasharray:5.0,5.0;"/><path d="M1211.5,82.6094 L1211.7802,82.6094 L1210.9476,92.7053 L1211.7577,102.8011 L1212.0329,112.897 L1210.5488,122.9929 L1211.3964,133.0888 L1210.9313,143.1847 L1210.9887,153.2805 L1211.4091,163.3764 L1210.5782,173.4723 L1212.2382,183.5682 L1210.6596,193.6641 L1211.2363,203.7599 L1212.0759,213.8558 L1211.3856,223.9517 L1211.591,234.0476 L1211.4574,244.1435 L1211.738,254.2393 L1211.8188,264.3352 L1212.2809,274.4311 L1212.3947,284.527 L1212.4057,294.6229 L1211.8395,304.7188 L1212.1181,314.8146 L1212.4363,324.9105 L1210.5384,335.0064 L1212.4047,345.1023 L1211.1047,355.1982 L1212.2117,365.294 L1210.84,375.3899 L1211.4087,385.4858 L1212.4888,395.5817 L1211.435,405.6776 L1211.6404,415.7734 L1211.9515,425.8693 L1212.055,435.9652 L1211.4948,446.0611 L1211.883,456.157 L1210.7368,466.2528 L1211.8792,476.3487 L1212.2309,486.4446 L1212.0927,496.5405 L1212.3174,506.6364 L1210.8559,516.7322 L1211.5,526.8281 " fill="none" style="stroke:#181818;stroke-width:0.5;stroke-dasharray:5.0,5.0;"/><path d="M1276.5,82.6094 L1276.7802,82.6094 L1275.9476,92.7053 L1276.7577,102.8011 L1277.0329,112.897 L1275.5488,122.9929 L1276.3964,133.0888 L1275.9313,143.1847 L1275.9887,153.2805 L1276.4091,163.3764 L1275.5782,173.4723 L1277.2382,183.5682 L1275.6596,193.6641 L1276.2363,203.7599 L1277.0759,213.8558 L1276.3856,223.9517 L1276.591,234.0476 L1276.4574,244.1435 L1276.738,254.2393 L1276.8188,264.3352 L1277.2809,274.4311 L1277.3947,284.527 L1277.4057,294.6229 L1276.8395,304.7188 L1277.1181,314.8146 L1277.4363,324.9105 L1275.5384,335.0064 L1277.4047,345.1023 L1276.1047,355.1982 L1277.2117,365.294 L1275.84,375.3899 L1276.4087,385.4858 L1277.4888,395.5817 L1276.435,405.6776 L1276.6404,415.7734 L1276.9515,425.8693 L1277.055,435.9652 L1276.4948,446.0611 L1276.883,456.157 L1275.7368,466.2528 L1276.8792,476.3487 L1277.2309,486.4446 L1277.0927,496.5405 L1277.3174,506.6364 L1275.8559,516.7322 L1276.5,526.8281 " fill="none" style="stroke:#181818;stroke-width:0.5;stroke-dasharray:5.0,5.0;"/><path d="M1354.5,82.6094 L1354.7802,82.6094 L1353.9476,92.7053 L1354.7577,102.8011 L1355.0329,112.897 L1353.5488,122.9929 L1354.3964,133.0888 L1353.9313,143.1847 L1353.9887,153.2805 L1354.4091,163.3764 L1353.5782,173.4723 L1355.2382,183.5682 L1353.6596,193.6641 L1354.2363,203.7599 L1355.0759,213.8558 L1354.3856,223.9517 L1354.591,234.0476 L1354.4574,244.1435 L1354.738,254.2393 L1354.8188,264.3352 L1355.2809,274.4311 L1355.3947,284.527 L1355.4057,294.6229 L1354.8395,304.7188 L1355.1181,314.8146 L1355.4363,324.9105 L1353.5384,335.0064 L1355.4047,345.1023 L1354.1047,355.1982 L1355.2117,365.294 L1353.84,375.3899 L1354.4087,385.4858 L1355.4888,395.5817 L1354.435,405.6776 L1354.6404,415.7734 L1354.9515,425.8693 L1355.055,435.9652 L1354.4948,446.0611 L1354.883,456.157 L1353.7368,466.2528 L1354.8792,476.3487 L1355.2309,486.4446 L1355.0927,496.5405 L1355.3174,506.6364 L1353.8559,516.7322 L1354.5,526.8281 " fill="none" style="stroke:#181818;stroke-width:0.5;stroke-dasharray:5.0,5.0;"/><text fill="#000000" font-family="FG Virgil" font-size="14" lengthAdjust="spacing" textLength="75" x="20" y="79.5332">SystemUser</text><polygon fill="#E3E3E3" points="68.5442,15.4459,67.3715,17.0482,65.9845,19.3951,64.0008,20.9767,61.9163,21.8415,60.2542,21.9166,58.118,20.8349,56.1023,20.1283,54.5724,18.6936,53.7699,17.0511,53.2939,15.7433,52.8277,14.0351,52.0709,12.5651,52.6525,11.1298,53.162,9.5576,55.074,8.3142,56.4192,6.7008,58.0843,6.165,60.0637,5.7037,62.6021,5.9778,63.9924,6.6335,65.6089,6.9307,67.5743,8.9443,68.2595,11.0701,68.5571,12.5206,68.22,14.9108" style="stroke:#181818;stroke-width:0.5;"/><path d="M60.5,21.5 L60.6868,21.5 L60.1317,26.9 L60.6718,32.3 L60.8553,37.7 L59.8659,43.1 L60.5,48.5 M47.5,29.5 L47.5,29.4309 L52.7,29.1209 L57.9,29.1591 L63.1,29.4394 L68.3,28.8854 L73.5,29.5 M60.5,48.5 L60.8719,48.8223 L57.4766,51.1331 L55.1672,54.3849 L52.9901,57.7515 L50.0424,60.4501 L47.5,63.5 M60.5,48.5 L60.5458,48.5397 L63.0785,51.4814 L65.8199,54.6039 L68.4606,57.6392 L71.2934,60.841 L73.5,63.5 " fill="none" style="stroke:#181818;stroke-width:0.5;"/><text fill="#000000" font-family="FG Virgil" font-size="14" lengthAdjust="spacing" textLength="75" x="20" y="540.3613">SystemUser</text><polygon fill="#E3E3E3" points="68.5442,553.8834,67.3715,555.4857,65.9845,557.8326,64.0008,559.4142,61.9163,560.279,60.2542,560.3541,58.118,559.2724,56.1023,558.5658,54.5724,557.1311,53.7699,555.4886,53.2939,554.1808,52.8277,552.4726,52.0709,551.0026,52.6525,549.5673,53.162,547.9951,55.074,546.7517,56.4192,545.1383,58.0843,544.6025,60.0637,544.1412,62.6021,544.4153,63.9924,545.071,65.6089,545.3682,67.5743,547.3818,68.2595,549.5076,68.5571,550.9581,68.22,553.3483" style="stroke:#181818;stroke-width:0.5;"/><path d="M60.5,559.9375 L60.6868,559.9375 L60.1317,565.3375 L60.6718,570.7375 L60.8553,576.1375 L59.8659,581.5375 L60.5,586.9375 M47.5,567.9375 L47.5,567.8684 L52.7,567.5584 L57.9,567.5966 L63.1,567.8769 L68.3,567.3229 L73.5,567.9375 M60.5,586.9375 L60.8719,587.2598 L57.4766,589.5706 L55.1672,592.8224 L52.9901,596.189 L50.0424,598.8876 L47.5,601.9375 M60.5,586.9375 L60.5458,586.9772 L63.0785,589.9189 L65.8199,593.0414 L68.4606,596.0767 L71.2934,599.2785 L73.5,601.9375 " fill="none" style="stroke:#181818;stroke-width:0.5;"/><polygon fill="#E3E3E3" points="292.5,50,292.5,50.2102,302.5,49.5857,312.5,50.1933,322.5,50.3997,332.5,49.2866,342.5,49.9223,352.5,49.5735,362.5,49.6165,372.5,49.9318,382.5,49.3086,392.5,50.5536,402.5,50,402.4196,49.8059,402.8283,50.0855,403.2622,50.4259,403.5497,50.4129,403.9229,50.6068,404.2678,50.7322,404.2579,50.7282,404.4692,51.1086,404.6343,51.4698,404.8875,51.8676,405.0602,52.232,405,52.5,405.2264,52.5,405.0849,57.8219,405.1545,63.1438,405.2341,68.4656,404.7596,73.7875,405,79.1094,405.209,79.1959,404.7622,79.4251,404.8715,79.8846,404.4082,80.1069,404.3931,80.5149,404.2678,80.8771,404.3624,81.1055,403.908,81.0086,403.5741,81.2025,403.2503,81.4208,402.9066,81.5911,402.5,81.6094,402.5,81.6055,392.5,81.8966,382.5,81.037,372.5,81.8938,362.5,82.1576,352.5,82.0539,342.5,82.2224,332.5,81.1263,322.5,80.9572,312.5,80.988,302.5,81.5505,292.5,81.6094,292.4749,81.5489,292.2334,81.6728,291.7706,81.2627,291.3956,81.0644,291.1149,81.0939,290.7322,80.8771,290.5269,80.7921,290.4259,80.4574,290.6392,80.2528,290.4271,79.8721,290.3726,79.5566,290,79.1094,289.8927,79.1094,290.1064,73.7875,290.1968,68.4656,289.8425,63.1438,289.968,57.8219,290,52.5,290.0388,52.5161,290.3472,52.2296,290.2916,51.7924,290.5818,51.4983,290.4152,51.0151,290.7322,50.7322,290.6458,50.5237,291.15,50.7409,291.3479,50.2186,291.8578,50.4496,292.1728,50.2101,292.5,50" style="stroke:#181818;stroke-width:0.5;"/><text fill="#000000" font-family="FG Virgil" font-size="14" lengthAdjust="spacing" textLength="101" x="297" y="71.5332">ListParticipantUI</text><polygon fill="#E3E3E3" points="292.5,525.8281,292.5,526.0383,302.5,525.4138,312.5,526.0214,322.5,526.2278,332.5,525.1147,342.5,525.7504,352.5,525.4016,362.5,525.4446,372.5,525.76,382.5,525.1368,392.5,526.3818,402.5,525.8281,402.4196,525.634,402.8283,525.9137,403.2622,526.254,403.5497,526.241,403.9229,526.4349,404.2678,526.5604,404.2579,526.5563,404.4692,526.9367,404.6343,527.298,404.8875,527.6957,405.0602,528.0602,405,528.3281,405.2264,528.3281,405.0849,533.65,405.1545,538.9719,405.2341,544.2938,404.7596,549.6156,405,554.9375,405.209,555.0241,404.7622,555.2532,404.8715,555.7127,404.4082,555.935,404.3931,556.343,404.2678,556.7053,404.3624,556.9337,403.908,556.8367,403.5741,557.0306,403.2503,557.2489,402.9066,557.4192,402.5,557.4375,402.5,557.4336,392.5,557.7247,382.5,556.8651,372.5,557.7219,362.5,557.9857,352.5,557.882,342.5,558.0505,332.5,556.9544,322.5,556.7853,312.5,556.8161,302.5,557.3786,292.5,557.4375,292.4749,557.377,292.2334,557.5009,291.7706,557.0908,291.3956,556.8925,291.1149,556.922,290.7322,556.7053,290.5269,556.6202,290.4259,556.2855,290.6392,556.0809,290.4271,555.7002,290.3726,555.3847,290,554.9375,289.8927,554.9375,290.1064,549.6156,290.1968,544.2938,289.8425,538.9719,289.968,533.65,290,528.3281,290.0388,528.3442,290.3472,528.0577,290.2916,527.6205,290.5818,527.3265,290.4152,526.8433,290.7322,526.5604,290.6458,526.3518,291.15,526.569,291.3479,526.0467,291.8578,526.2778,292.1728,526.0382,292.5,525.8281" style="stroke:#181818;stroke-width:0.5;"/><text fill="#000000" font-family="FG Virgil" font-size="14" lengthAdjust="spacing" textLength="101" x="297" y="547.3613">ListParticipantUI</text><polygon fill="#E3E3E3" points="468.5,50,468.5,50.2102,478.5,49.5857,488.5,50.1933,498.5,50.3997,508.5,49.2866,518.5,49.9223,528.5,49.5735,538.5,49.6165,548.5,49.9318,558.5,49.3086,568.5,50.5536,578.5,49.3697,588.5,49.8022,598.5,50.4319,608.5,49.9142,618.5,50.0682,628.5,50,628.4959,49.9902,628.8763,50.2014,629.2376,50.3665,629.6354,50.6197,629.9998,50.7924,630.2678,50.7322,630.477,50.8189,630.4926,51.1183,630.7034,51.4985,630.9234,51.8825,630.6315,52.0545,631,52.5,631.2262,52.5,630.9012,57.8219,631.1779,63.1438,630.835,68.4656,630.9772,73.7875,631,79.1094,631.2284,79.204,630.8385,79.4567,630.7395,79.8299,630.6649,80.2132,630.5424,80.5767,630.2678,80.8771,630.2673,80.8759,629.9509,81.112,629.4876,80.9938,629.2434,81.4041,628.9235,81.6318,628.5,81.6094,628.5,82.0539,618.5,82.2224,608.5,81.1263,598.5,80.9572,588.5,80.988,578.5,81.5505,568.5,81.4128,558.5,82.2908,548.5,81.4347,538.5,81.2663,528.5,81.8376,518.5,80.9425,508.5,81.0902,498.5,82.2583,488.5,82.045,478.5,82.3439,468.5,81.6094,468.459,81.5103,468.1872,81.5612,467.8682,81.4983,467.3791,81.0246,467.0736,80.9941,466.7322,80.8771,466.771,80.8932,466.7865,80.6067,466.438,80.1695,466.4353,79.8755,465.9759,79.3923,466,79.1094,465.7742,79.1094,466.1679,73.7875,465.761,68.4656,466.1697,63.1438,466.0689,57.8219,466,52.5,465.9175,52.4658,466.0375,52.1013,466.4342,51.8514,466.3472,51.4012,466.7681,51.1613,466.7322,50.7322,466.6617,50.562,467.1645,50.7759,467.5011,50.5885,467.8241,50.3683,468.1525,50.161,468.5,50" style="stroke:#181818;stroke-width:0.5;"/><text fill="#000000" font-family="FG Virgil" font-size="14" lengthAdjust="spacing" textLength="151" x="473" y="71.5332">ListParticipantController</text><polygon fill="#E3E3E3" points="468.5,525.8281,468.5,526.0383,478.5,525.4138,488.5,526.0214,498.5,526.2278,508.5,525.1147,518.5,525.7504,528.5,525.4016,538.5,525.4446,548.5,525.76,558.5,525.1368,568.5,526.3818,578.5,525.1978,588.5,525.6304,598.5,526.2601,608.5,525.7423,618.5,525.8964,628.5,525.8281,628.4959,525.8183,628.8763,526.0296,629.2376,526.1947,629.6354,526.4478,629.9998,526.6206,630.2678,526.5604,630.477,526.647,630.4926,526.9464,630.7034,527.3266,630.9234,527.7106,630.6315,527.8826,631,528.3281,631.2262,528.3281,630.9012,533.65,631.1779,538.9719,630.835,544.2938,630.9772,549.6156,631,554.9375,631.2284,555.0321,630.8385,555.2848,630.7395,555.658,630.6649,556.0414,630.5424,556.4048,630.2678,556.7053,630.2673,556.7041,629.9509,556.9402,629.4876,556.8219,629.2434,557.2322,628.9235,557.4599,628.5,557.4375,628.5,557.882,618.5,558.0505,608.5,556.9544,598.5,556.7853,588.5,556.8161,578.5,557.3786,568.5,557.241,558.5,558.1189,548.5,557.2628,538.5,557.0944,528.5,557.6658,518.5,556.7707,508.5,556.9184,498.5,558.0865,488.5,557.8732,478.5,558.172,468.5,557.4375,468.459,557.3384,468.1872,557.3894,467.8682,557.3264,467.3791,556.8527,467.0736,556.8222,466.7322,556.7053,466.771,556.7213,466.7865,556.4349,466.438,555.9976,466.4353,555.7036,465.9759,555.2204,466,554.9375,465.7742,554.9375,466.1679,549.6156,465.761,544.2938,466.1697,538.9719,466.0689,533.65,466,528.3281,465.9175,528.2939,466.0375,527.9294,466.4342,527.6795,466.3472,527.2293,466.7681,526.9894,466.7322,526.5604,466.6617,526.3901,467.1645,526.6041,467.5011,526.4166,467.8241,526.1965,468.1525,525.9891,468.5,525.8281" style="stroke:#181818;stroke-width:0.5;"/><text fill="#000000" font-family="FG Virgil" font-size="14" lengthAdjust="spacing" textLength="151" x="473" y="547.3613">ListParticipantController</text><polygon fill="#E3E3E3" points="691,50,691,50.2102,700.6667,49.5857,710.3333,50.1933,720,50.3997,729.6667,49.2866,739.3333,49.9223,749,49.5735,758.6667,49.6165,768.3333,49.9318,778,49.3086,787.6667,50.5536,797.3333,49.3697,807,49.8022,816.6667,50.4319,826.3333,49.9142,836,50,836.0087,50.021,836.3495,50.1366,836.7299,50.3479,837.0912,50.513,837.4889,50.7662,837.7678,50.7322,837.9744,50.8178,838.1234,51.1724,838.1391,51.4718,838.3499,51.852,838.5698,52.236,838.5,52.5,838.2596,52.5,838.7262,57.8219,838.4012,63.1438,838.6779,68.4656,838.335,73.7875,838.5,79.1094,838.4789,79.1006,838.5819,79.5575,838.1921,79.8103,838.0931,80.1835,838.0185,80.5668,837.7678,80.8771,837.8209,81.0053,837.4137,81.0224,837.0973,81.2585,836.6341,81.1402,836.3898,81.5505,836,81.6094,836,82.1576,826.3333,82.0539,816.6667,82.2224,807,81.1263,797.3333,80.9572,787.6667,80.988,778,81.5505,768.3333,81.4128,758.6667,82.2908,749,81.4347,739.3333,81.2663,729.6667,81.8376,720,80.9425,710.3333,81.0902,700.6667,82.2583,691,81.6094,691.0556,81.7435,690.7401,81.6891,690.2518,81.2174,689.9801,81.2683,689.6611,81.2054,689.2322,80.8771,689.0868,80.8169,689.0563,80.5114,688.9781,80.1861,688.9936,79.8996,688.6452,79.4624,688.5,79.1094,688.6542,79.1094,688.3154,73.7875,688.2742,68.4656,688.6679,63.1438,688.261,57.8219,688.5,52.5,688.6567,52.5649,688.7101,52.1728,688.7104,51.7587,688.8304,51.3942,689.2271,51.1443,689.2322,50.7322,689.194,50.6401,689.6613,50.7681,689.8688,50.2691,690.3717,50.483,690.7082,50.2956,691,50" style="stroke:#181818;stroke-width:0.5;"/><text fill="#000000" font-family="FG Virgil" font-size="14" lengthAdjust="spacing" textLength="136" x="695.5" y="71.5332">ListParticipantService</text><polygon fill="#E3E3E3" points="691,525.8281,691,526.0383,700.6667,525.4138,710.3333,526.0214,720,526.2278,729.6667,525.1147,739.3333,525.7504,749,525.4016,758.6667,525.4446,768.3333,525.76,778,525.1368,787.6667,526.3818,797.3333,525.1978,807,525.6304,816.6667,526.2601,826.3333,525.7423,836,525.8281,836.0087,525.8491,836.3495,525.9647,836.7299,526.176,837.0912,526.3411,837.4889,526.5943,837.7678,526.5604,837.9744,526.646,838.1234,527.0006,838.1391,527.2999,838.3499,527.6802,838.5698,528.0641,838.5,528.3281,838.2596,528.3281,838.7262,533.65,838.4012,538.9719,838.6779,544.2938,838.335,549.6156,838.5,554.9375,838.4789,554.9288,838.5819,555.3857,838.1921,555.6384,838.0931,556.0116,838.0185,556.3949,837.7678,556.7053,837.8209,556.8334,837.4137,556.8505,837.0973,557.0866,836.6341,556.9683,836.3898,557.3786,836,557.4375,836,557.9857,826.3333,557.882,816.6667,558.0505,807,556.9544,797.3333,556.7853,787.6667,556.8161,778,557.3786,768.3333,557.241,758.6667,558.1189,749,557.2628,739.3333,557.0944,729.6667,557.6658,720,556.7707,710.3333,556.9184,700.6667,558.0865,691,557.4375,691.0556,557.5717,690.7401,557.5172,690.2518,557.0455,689.9801,557.0965,689.6611,557.0335,689.2322,556.7053,689.0868,556.645,689.0563,556.3395,688.9781,556.0142,688.9936,555.7277,688.6452,555.2905,688.5,554.9375,688.6542,554.9375,688.3154,549.6156,688.2742,544.2938,688.6679,538.9719,688.261,533.65,688.5,528.3281,688.6567,528.393,688.7101,528.0009,688.7104,527.5868,688.8304,527.2223,689.2271,526.9724,689.2322,526.5604,689.194,526.4682,689.6613,526.5962,689.8688,526.0972,690.3717,526.3112,690.7082,526.1237,691,525.8281" style="stroke:#181818;stroke-width:0.5;"/><text fill="#000000" font-family="FG Virgil" font-size="14" lengthAdjust="spacing" textLength="136" x="695.5" y="547.3613">ListParticipantService</text><polygon fill="#E3E3E3" points="915,50,915,50.2102,924.7692,49.5857,934.5385,50.1933,944.3077,50.3997,954.0769,49.2866,963.8462,49.9223,973.6154,49.5735,983.3846,49.6165,993.1538,49.9318,1002.9231,49.3086,1012.6923,50.5536,1022.4615,49.3697,1032.2308,49.8022,1042,50,1042.0551,50.133,1042.3426,50.12,1042.7158,50.3139,1043.0566,50.4295,1043.437,50.6408,1043.7678,50.7322,1043.8414,50.7627,1044.0946,51.1605,1044.2673,51.5249,1044.4163,51.8795,1044.432,52.1789,1044.5,52.5,1044.6545,52.5,1044.7341,57.8219,1044.2596,63.1438,1044.7262,68.4656,1044.4012,73.7875,1044.5,79.1094,1044.6644,79.1775,1044.2011,79.3998,1044.186,79.8077,1044.289,80.2646,1043.8992,80.5174,1043.7678,80.8771,1043.7812,80.9096,1043.4574,81.1279,1043.1138,81.2982,1042.7066,81.3153,1042.3902,81.5514,1042,81.6094,1042,81.037,1032.2308,81.8938,1022.4615,82.1576,1012.6923,82.0539,1002.9231,82.2224,993.1538,81.1263,983.3846,80.9572,973.6154,80.988,963.8462,81.5505,954.0769,81.4128,944.3077,82.2908,934.5385,81.4347,924.7692,81.2663,915,81.6094,915.0291,81.6797,914.5614,81.2576,914.2267,81.1566,914.0221,81.3699,913.6414,81.1578,913.2322,80.8771,913.4584,80.9708,912.9867,80.4825,913.0376,80.2108,912.9747,79.8918,912.501,79.4027,912.5,79.1094,912.468,79.1094,912.542,73.7875,912.7173,68.4656,912.4986,63.1438,912.6542,57.8219,912.5,52.5,912.3295,52.4294,912.4379,52.0601,912.948,51.8571,912.7186,51.3479,913.2425,51.1507,913.2322,50.7322,913.2586,50.7959,913.5516,50.5033,913.8942,50.3304,914.3514,50.4342,914.6083,50.0543,915,50" style="stroke:#181818;stroke-width:0.5;"/><text fill="#000000" font-family="FG Virgil" font-size="14" lengthAdjust="spacing" textLength="118" x="919.5" y="71.5332">MeetingRepository</text><polygon fill="#E3E3E3" points="915,525.8281,915,526.0383,924.7692,525.4138,934.5385,526.0214,944.3077,526.2278,954.0769,525.1147,963.8462,525.7504,973.6154,525.4016,983.3846,525.4446,993.1538,525.76,1002.9231,525.1368,1012.6923,526.3818,1022.4615,525.1978,1032.2308,525.6304,1042,525.8281,1042.0551,525.9611,1042.3426,525.9482,1042.7158,526.142,1043.0566,526.2576,1043.437,526.4689,1043.7678,526.5604,1043.8414,526.5909,1044.0946,526.9886,1044.2673,527.3531,1044.4163,527.7077,1044.432,528.0071,1044.5,528.3281,1044.6545,528.3281,1044.7341,533.65,1044.2596,538.9719,1044.7262,544.2938,1044.4012,549.6156,1044.5,554.9375,1044.6644,555.0056,1044.2011,555.2279,1044.186,555.6359,1044.289,556.0928,1043.8992,556.3455,1043.7678,556.7053,1043.7812,556.7377,1043.4574,556.956,1043.1138,557.1263,1042.7066,557.1434,1042.3902,557.3795,1042,557.4375,1042,556.8651,1032.2308,557.7219,1022.4615,557.9857,1012.6923,557.882,1002.9231,558.0505,993.1538,556.9544,983.3846,556.7853,973.6154,556.8161,963.8462,557.3786,954.0769,557.241,944.3077,558.1189,934.5385,557.2628,924.7692,557.0944,915,557.4375,915.0291,557.5078,914.5614,557.0857,914.2267,556.9847,914.0221,557.198,913.6414,556.9859,913.2322,556.7053,913.4584,556.799,912.9867,556.3107,913.0376,556.0389,912.9747,555.7199,912.501,555.2308,912.5,554.9375,912.468,554.9375,912.542,549.6156,912.7173,544.2938,912.4986,538.9719,912.6542,533.65,912.5,528.3281,912.3295,528.2575,912.4379,527.8882,912.948,527.6853,912.7186,527.176,913.2425,526.9788,913.2322,526.5604,913.2586,526.624,913.5516,526.3314,913.8942,526.1585,914.3514,526.2623,914.6083,525.8824,915,525.8281" style="stroke:#181818;stroke-width:0.5;"/><text fill="#000000" font-family="FG Virgil" font-size="14" lengthAdjust="spacing" textLength="118" x="919.5" y="547.3613">MeetingRepository</text><polygon fill="#E3E3E3" points="1057,50,1057,50.2102,1067,49.5857,1077,50.1933,1087,50.3997,1097,49.2866,1107,49.9223,1117,49.5735,1127,49.6165,1137,49.9318,1147,49.3086,1157,50.5536,1167,50,1166.9196,49.8059,1167.3283,50.0855,1167.7622,50.4259,1168.0497,50.4129,1168.4229,50.6068,1168.7678,50.7322,1168.7579,50.7282,1168.9692,51.1086,1169.1343,51.4698,1169.3875,51.8676,1169.5602,52.232,1169.5,52.5,1169.7264,52.5,1169.5849,57.8219,1169.6545,63.1438,1169.7341,68.4656,1169.2596,73.7875,1169.5,79.1094,1169.709,79.1959,1169.2622,79.4251,1169.3715,79.8846,1168.9082,80.1069,1168.8931,80.5149,1168.7678,80.8771,1168.8624,81.1055,1168.408,81.0086,1168.0741,81.2025,1167.7503,81.4208,1167.4066,81.5911,1167,81.6094,1167,81.6055,1157,81.8966,1147,81.037,1137,81.8938,1127,82.1576,1117,82.0539,1107,82.2224,1097,81.1263,1087,80.9572,1077,80.988,1067,81.5505,1057,81.6094,1056.9749,81.5489,1056.7334,81.6728,1056.2706,81.2627,1055.8956,81.0644,1055.6149,81.0939,1055.2322,80.8771,1055.0269,80.7921,1054.9259,80.4574,1055.1392,80.2528,1054.9271,79.8721,1054.8726,79.5566,1054.5,79.1094,1054.3927,79.1094,1054.6064,73.7875,1054.6968,68.4656,1054.3425,63.1438,1054.468,57.8219,1054.5,52.5,1054.5388,52.5161,1054.8472,52.2296,1054.7916,51.7924,1055.0818,51.4983,1054.9152,51.0151,1055.2322,50.7322,1055.1458,50.5237,1055.65,50.7409,1055.8479,50.2186,1056.3578,50.4496,1056.6728,50.2101,1057,50" style="stroke:#181818;stroke-width:0.5;"/><text fill="#000000" font-family="FG Virgil" font-size="14" lengthAdjust="spacing" textLength="101" x="1061.5" y="71.5332">InviteRepository</text><polygon fill="#E3E3E3" points="1057,525.8281,1057,526.0383,1067,525.4138,1077,526.0214,1087,526.2278,1097,525.1147,1107,525.7504,1117,525.4016,1127,525.4446,1137,525.76,1147,525.1368,1157,526.3818,1167,525.8281,1166.9196,525.634,1167.3283,525.9137,1167.7622,526.254,1168.0497,526.241,1168.4229,526.4349,1168.7678,526.5604,1168.7579,526.5563,1168.9692,526.9367,1169.1343,527.298,1169.3875,527.6957,1169.5602,528.0602,1169.5,528.3281,1169.7264,528.3281,1169.5849,533.65,1169.6545,538.9719,1169.7341,544.2938,1169.2596,549.6156,1169.5,554.9375,1169.709,555.0241,1169.2622,555.2532,1169.3715,555.7127,1168.9082,555.935,1168.8931,556.343,1168.7678,556.7053,1168.8624,556.9337,1168.408,556.8367,1168.0741,557.0306,1167.7503,557.2489,1167.4066,557.4192,1167,557.4375,1167,557.4336,1157,557.7247,1147,556.8651,1137,557.7219,1127,557.9857,1117,557.882,1107,558.0505,1097,556.9544,1087,556.7853,1077,556.8161,1067,557.3786,1057,557.4375,1056.9749,557.377,1056.7334,557.5009,1056.2706,557.0908,1055.8956,556.8925,1055.6149,556.922,1055.2322,556.7053,1055.0269,556.6202,1054.9259,556.2855,1055.1392,556.0809,1054.9271,555.7002,1054.8726,555.3847,1054.5,554.9375,1054.3927,554.9375,1054.6064,549.6156,1054.6968,544.2938,1054.3425,538.9719,1054.468,533.65,1054.5,528.3281,1054.5388,528.3442,1054.8472,528.0577,1054.7916,527.6205,1055.0818,527.3265,1054.9152,526.8433,1055.2322,526.5604,1055.1458,526.3518,1055.65,526.569,1055.8479,526.0467,1056.3578,526.2778,1056.6728,526.0382,1057,525.8281" style="stroke:#181818;stroke-width:0.5;"/><text fill="#000000" font-family="FG Virgil" font-size="14" lengthAdjust="spacing" textLength="101" x="1061.5" y="547.3613">InviteRepository</text><polygon fill="#E3E3E3" points="1182,50,1182,50.2102,1191.8333,49.5857,1201.6667,50.1933,1211.5,50.3997,1221.3333,49.2866,1231.1667,49.9223,1241,50,1240.9456,49.8687,1241.3046,50.0283,1241.6984,50.2719,1241.9725,50.2264,1242.4848,50.7563,1242.7678,50.7322,1242.5737,50.6518,1242.8533,51.0606,1243.1937,51.4944,1243.1807,51.782,1243.3746,52.1552,1243.5,52.5,1243.4894,52.5,1243.5595,57.8219,1243.5797,63.1438,1243.6952,68.4656,1243.7237,73.7875,1243.5,79.1094,1243.7092,79.196,1243.432,79.4954,1243.3499,79.8756,1243.2769,80.2596,1242.6921,80.4316,1242.7678,80.8771,1242.8543,81.0861,1242.3764,80.9323,1242.1288,81.3344,1241.644,81.164,1241.3448,81.4418,1241,81.6094,1241,82.351,1231.1667,81.5606,1221.3333,81.7147,1211.5,81.948,1201.6667,82.0256,1191.8333,81.6055,1182,81.6094,1182.0366,81.6978,1181.5734,81.2866,1181.3292,81.4041,1181.0093,81.3389,1180.6425,81.1605,1180.2322,80.8771,1180.421,80.9553,1179.937,80.462,1179.7385,80.0868,1179.6015,79.7372,1179.6283,79.4554,1179.5,79.1094,1179.4345,79.1094,1179.7271,73.7875,1179.4418,68.4656,1179.3856,63.1438,1179.5761,57.8219,1179.5,52.5,1179.2946,52.4149,1179.4866,52.0802,1179.9927,51.8757,1180.0735,51.4949,1180.312,51.1795,1180.2322,50.7322,1180.1912,50.6331,1180.6265,50.6841,1181.0147,50.6212,1181.2326,50.1474,1181.6342,50.1169,1182,50" style="stroke:#181818;stroke-width:0.5;"/><text fill="#000000" font-family="FG Virgil" font-size="14" lengthAdjust="spacing" textLength="50" x="1186.5" y="71.5332">Meeting</text><polygon fill="#E3E3E3" points="1182,525.8281,1182,526.0383,1191.8333,525.4138,1201.6667,526.0214,1211.5,526.2278,1221.3333,525.1147,1231.1667,525.7504,1241,525.8281,1240.9456,525.6968,1241.3046,525.8565,1241.6984,526.1,1241.9725,526.0546,1242.4848,526.5844,1242.7678,526.5604,1242.5737,526.48,1242.8533,526.8887,1243.1937,527.3226,1243.1807,527.6101,1243.3746,527.9833,1243.5,528.3281,1243.4894,528.3281,1243.5595,533.65,1243.5797,538.9719,1243.6952,544.2938,1243.7237,549.6156,1243.5,554.9375,1243.7092,555.0241,1243.432,555.3235,1243.3499,555.7037,1243.2769,556.0877,1242.6921,556.2597,1242.7678,556.7053,1242.8543,556.9142,1242.3764,556.7604,1242.1288,557.1626,1241.644,556.9922,1241.3448,557.27,1241,557.4375,1241,558.1791,1231.1667,557.3888,1221.3333,557.5428,1211.5,557.7761,1201.6667,557.8537,1191.8333,557.4336,1182,557.4375,1182.0366,557.526,1181.5734,557.1148,1181.3292,557.2322,1181.0093,557.167,1180.6425,556.9886,1180.2322,556.7053,1180.421,556.7835,1179.937,556.2901,1179.7385,555.915,1179.6015,555.5653,1179.6283,555.2835,1179.5,554.9375,1179.4345,554.9375,1179.7271,549.6156,1179.4418,544.2938,1179.3856,538.9719,1179.5761,533.65,1179.5,528.3281,1179.2946,528.2431,1179.4866,527.9084,1179.9927,527.7038,1180.0735,527.323,1180.312,527.0076,1180.2322,526.5604,1180.1912,526.4613,1180.6265,526.5122,1181.0147,526.4493,1181.2326,525.9755,1181.6342,525.9451,1182,525.8281" style="stroke:#181818;stroke-width:0.5;"/><text fill="#000000" font-family="FG Virgil" font-size="14" lengthAdjust="spacing" textLength="50" x="1186.5" y="547.3613">Meeting</text><polygon fill="#E3E3E3" points="1256,50,1256,50.0701,1264.4,49.8619,1272.8,50.0644,1281.2,50.1332,1289.6,49.7622,1298,50,1297.9901,49.9761,1298.2991,50.0151,1298.6582,50.1748,1299.052,50.4184,1299.326,50.3729,1299.7678,50.7322,1299.9383,50.8029,1299.7201,51.0054,1299.9998,51.4141,1300.3401,51.848,1300.3271,52.1355,1300.5,52.5,1300.5227,52.5,1300.4894,57.8219,1300.5595,63.1438,1300.5797,68.4656,1300.6952,73.7875,1300.5,79.1094,1300.7067,79.195,1300.5627,79.5496,1300.2855,79.849,1300.2034,80.2292,1300.1305,80.6132,1299.7678,80.8771,1299.6758,80.655,1299.5008,81.2325,1299.0228,81.0787,1298.7752,81.4809,1298.2904,81.3105,1298,81.6094,1298,81.5865,1289.6,81.8566,1281.2,81.5931,1272.8,81.6445,1264.4,81.7223,1256,81.6094,1256.0531,81.7376,1255.6459,81.4617,1255.3295,81.4049,1254.8663,80.9938,1254.6221,81.1112,1254.2322,80.8771,1254.4011,80.9471,1254.2227,80.5803,1254.1281,80.2482,1253.6441,79.7549,1253.4456,79.3797,1253.5,79.1094,1253.2929,79.1094,1253.4804,73.7875,1253.4345,68.4656,1253.7271,63.1438,1253.4418,57.8219,1253.5,52.5,1253.3944,52.4562,1253.7167,52.1756,1253.5875,51.7078,1253.7795,51.3731,1254.2856,51.1686,1254.2322,50.7322,1254.2878,50.8664,1254.6795,50.812,1254.8983,50.3402,1255.3336,50.3912,1255.7218,50.3283,1256,50" style="stroke:#181818;stroke-width:0.5;"/><text fill="#000000" font-family="FG Virgil" font-size="14" lengthAdjust="spacing" textLength="33" x="1260.5" y="71.5332">Invite</text><polygon fill="#E3E3E3" points="1256,525.8281,1256,525.8982,1264.4,525.69,1272.8,525.8926,1281.2,525.9614,1289.6,525.5903,1298,525.8281,1297.9901,525.8042,1298.2991,525.8432,1298.6582,526.0029,1299.052,526.2465,1299.326,526.201,1299.7678,526.5604,1299.9383,526.631,1299.7201,526.8335,1299.9998,527.2422,1300.3401,527.6761,1300.3271,527.9636,1300.5,528.3281,1300.5227,528.3281,1300.4894,533.65,1300.5595,538.9719,1300.5797,544.2938,1300.6952,549.6156,1300.5,554.9375,1300.7067,555.0231,1300.5627,555.3777,1300.2855,555.6771,1300.2034,556.0573,1300.1305,556.4413,1299.7678,556.7053,1299.6758,556.4832,1299.5008,557.0607,1299.0228,556.9068,1298.7752,557.309,1298.2904,557.1386,1298,557.4375,1298,557.4147,1289.6,557.6847,1281.2,557.4213,1272.8,557.4726,1264.4,557.5504,1256,557.4375,1256.0531,557.5657,1255.6459,557.2899,1255.3295,557.2331,1254.8663,556.8219,1254.6221,556.9393,1254.2322,556.7053,1254.4011,556.7752,1254.2227,556.4084,1254.1281,556.0764,1253.6441,555.583,1253.4456,555.2079,1253.5,554.9375,1253.2929,554.9375,1253.4804,549.6156,1253.4345,544.2938,1253.7271,538.9719,1253.4418,533.65,1253.5,528.3281,1253.3944,528.2844,1253.7167,528.0037,1253.5875,527.536,1253.7795,527.2012,1254.2856,526.9967,1254.2322,526.5604,1254.2878,526.6945,1254.6795,526.6401,1254.8983,526.1684,1255.3336,526.2193,1255.7218,526.1564,1256,525.8281" style="stroke:#181818;stroke-width:0.5;"/><text fill="#000000" font-family="FG Virgil" font-size="14" lengthAdjust="spacing" textLength="33" x="1260.5" y="547.3613">Invite</text><polygon fill="#E3E3E3" points="1313,50,1313,50.2102,1323.5,49.5857,1334,50.1933,1344.5,50.3997,1355,49.2866,1365.5,49.9223,1376,49.5735,1386.5,49.6165,1397,50,1396.9913,49.979,1397.2654,49.9335,1397.7777,50.4634,1397.9803,50.2452,1398.389,50.5249,1398.7678,50.7322,1398.9008,50.7873,1398.8878,51.0748,1399.0817,51.448,1399.1973,51.7888,1399.4085,52.1692,1399.5,52.5,1399.5797,52.5,1399.6952,57.8219,1399.7237,63.1438,1399.7264,68.4656,1399.5849,73.7875,1399.5,79.1094,1399.6428,79.1685,1399.5698,79.5525,1398.985,79.7245,1399.2696,80.2566,1398.8229,80.4858,1398.7678,80.8771,1398.8359,81.0415,1398.3511,80.8711,1398.0519,81.1489,1397.8017,81.5449,1397.3473,81.4479,1397,81.6094,1397,81.7147,1386.5,81.948,1376,82.0256,1365.5,81.6055,1355,81.8966,1344.5,81.037,1334,81.8938,1323.5,82.1576,1313,81.6094,1313.0567,81.7463,1312.7246,81.6517,1312.2313,81.1677,1311.8561,80.9692,1311.5065,80.8322,1311.2322,80.8771,1311.2141,80.8696,1311.0253,80.4985,1311.1492,80.257,1310.7391,79.7942,1310.5408,79.4192,1310.5,79.1094,1310.5761,79.1094,1310.2777,73.7875,1310.327,68.4656,1310.7163,63.1438,1310.6452,57.8219,1310.5,52.5,1310.7262,52.5937,1310.5473,52.1054,1310.8912,51.8336,1311.1212,51.5147,1310.9403,51.0255,1311.2322,50.7322,1311.22,50.7027,1311.6019,50.6246,1312.0225,50.6401,1312.2924,50.2916,1312.7055,50.2889,1313,50" style="stroke:#181818;stroke-width:0.5;"/><text fill="#000000" font-family="FG Virgil" font-size="14" lengthAdjust="spacing" textLength="75" x="1317.5" y="71.5332">SystemUser</text><polygon fill="#E3E3E3" points="1313,525.8281,1313,526.0383,1323.5,525.4138,1334,526.0214,1344.5,526.2278,1355,525.1147,1365.5,525.7504,1376,525.4016,1386.5,525.4446,1397,525.8281,1396.9913,525.8071,1397.2654,525.7617,1397.7777,526.2915,1397.9803,526.0734,1398.389,526.353,1398.7678,526.5604,1398.9008,526.6155,1398.8878,526.903,1399.0817,527.2762,1399.1973,527.6169,1399.4085,527.9973,1399.5,528.3281,1399.5797,528.3281,1399.6952,533.65,1399.7237,538.9719,1399.7264,544.2938,1399.5849,549.6156,1399.5,554.9375,1399.6428,554.9966,1399.5698,555.3806,1398.985,555.5526,1399.2696,556.0847,1398.8229,556.3139,1398.7678,556.7053,1398.8359,556.8697,1398.3511,556.6993,1398.0519,556.9771,1397.8017,557.373,1397.3473,557.276,1397,557.4375,1397,557.5428,1386.5,557.7761,1376,557.8537,1365.5,557.4336,1355,557.7247,1344.5,556.8651,1334,557.7219,1323.5,557.9857,1313,557.4375,1313.0567,557.5744,1312.7246,557.4798,1312.2313,556.9958,1311.8561,556.7973,1311.5065,556.6603,1311.2322,556.7053,1311.2141,556.6978,1311.0253,556.3266,1311.1492,556.0851,1310.7391,555.6223,1310.5408,555.2473,1310.5,554.9375,1310.5761,554.9375,1310.2777,549.6156,1310.327,544.2938,1310.7163,538.9719,1310.6452,533.65,1310.5,528.3281,1310.7262,528.4218,1310.5473,527.9335,1310.8912,527.6617,1311.1212,527.3428,1310.9403,526.8537,1311.2322,526.5604,1311.22,526.5308,1311.6019,526.4527,1312.0225,526.4682,1312.2924,526.1197,1312.7055,526.117,1313,525.8281" style="stroke:#181818;stroke-width:0.5;"/><text fill="#000000" font-family="FG Virgil" font-size="14" lengthAdjust="spacing" textLength="75" x="1317.5" y="547.3613">SystemUser</text><polygon fill="#FFFFFF" points="342.5,114.9609,342.5,115.031,344.5,114.8228,346.5,115.0254,348.5,115.0942,350.5,114.7231,352.5,114.9609,352.4223,114.9609,352.0735,125.0076,352.1165,135.0543,352.4318,145.101,351.8086,155.1477,353.0536,165.1943,351.8697,175.241,352.3022,185.2877,352.9319,195.3344,352.4142,205.3811,352.5682,215.4277,352.4681,225.4744,352.6785,235.5211,352.7391,245.5678,353.0857,255.6145,353.1711,265.6611,353.1793,275.7078,352.7546,285.7545,352.9636,295.8012,353.2022,305.8479,351.7788,315.8945,353.1785,325.9412,352.2035,335.9879,353.0338,346.0346,352.005,356.0812,352.4315,366.1279,353.2416,376.1746,352.4513,386.2213,352.6053,396.268,352.8386,406.3146,352.9162,416.3613,352.4961,426.408,352.7872,436.4547,351.9276,446.5014,352.7844,456.548,353.0482,466.5947,352.9445,476.6414,353.113,486.6881,352.0169,496.7348,351.8478,506.7814,352.5,516.8281,352.5,516.621,350.5,516.8085,348.5,516.7626,346.5,517.0553,344.5,516.7699,342.5,516.8281,342.1569,516.8281,342.7283,506.7814,341.8332,496.7348,341.9809,486.6881,343.149,476.6414,342.9357,466.5947,343.2345,456.548,342.1782,446.5014,342.8192,436.4547,343.0904,426.408,342.0276,416.3613,342.4041,406.3146,342.626,396.268,343.1518,386.2213,342.4958,376.1746,342.9626,366.1279,341.9462,356.0813,341.8227,346.0346,343.0036,335.9879,341.7831,325.9412,343.009,315.8945,342.7066,305.8479,342.2321,295.8012,342.1462,285.7545,342.9588,275.7078,342.2007,265.6611,343.0919,255.6145,341.9473,245.5678,343.1174,235.5211,342.9843,225.4744,342.745,215.4277,342.5472,205.3811,343.2266,195.3344,343.1136,185.2877,342.6693,175.241,342.7682,165.1943,342.3697,155.1477,343.2165,145.101,342.6549,135.0543,342.6726,125.0076,342.5,114.9609" style="stroke:#181818;stroke-width:1.0;"/><polygon fill="#FFFFFF" points="543.5,145.3125,543.5,145.3826,545.5,145.1744,547.5,145.3769,549.5,145.4457,551.5,145.0747,553.5,145.3125,553.4223,145.3125,553.0735,155.2337,553.1165,165.1549,553.4318,175.0762,552.8086,184.9974,554.0536,194.9186,552.8697,204.8398,553.3022,214.7611,553.9319,224.6823,553.4142,234.6035,553.5682,244.5247,553.4681,254.446,553.5,264.3672,553.5,264.4267,551.5,264.4469,549.5,264.5624,547.5,264.5909,545.5,264.5936,543.5,264.3672,543.7546,264.3672,543.9636,254.446,544.2022,244.5247,542.7788,234.6035,544.1785,224.6823,543.2035,214.7611,544.0338,204.8398,543.005,194.9186,543.4315,184.9974,544.2416,175.0762,543.4513,165.1549,543.6053,155.2337,543.5,145.3125" style="stroke:#181818;stroke-width:1.0;"/><polygon fill="#FFFFFF" points="543.5,352.4219,543.5,352.4919,545.5,352.2838,547.5,352.4863,549.5,352.5551,551.5,352.1841,553.5,352.4219,553.4223,352.4219,553.0735,362.3431,553.1165,372.2643,553.4318,382.1855,552.8086,392.1068,554.0536,402.028,552.8697,411.9492,553.3022,421.8704,553.9319,431.7917,553.4142,441.7129,553.5682,451.6341,553.4681,461.5553,553.5,471.4766,553.5,471.5361,551.5,471.5563,549.5,471.6718,547.5,471.7002,545.5,471.703,543.5,471.4766,543.7546,471.4766,543.9636,461.5553,544.2022,451.6341,542.7788,441.7129,544.1785,431.7917,543.2035,421.8704,544.0338,411.9492,543.005,402.028,543.4315,392.1068,544.2416,382.1855,543.4513,372.2643,543.6053,362.3431,543.5,352.4219" style="stroke:#181818;stroke-width:1.0;"/><polygon fill="#FFFFFF" points="758.5,175.6641,758.5,175.7341,760.5,175.526,762.5,175.7285,764.5,175.7973,766.5,175.4263,768.5,175.6641,768.4223,175.6641,768.0735,185.3893,768.1165,195.1146,768.4318,204.8398,767.8086,214.5651,769.0536,224.2904,768.5,234.0156,768.5,233.8055,766.5,233.9497,764.5,234.1596,762.5,233.987,760.5,234.0384,758.5,234.0156,758.4681,234.0156,758.6785,224.2904,758.7391,214.5651,759.0857,204.8398,759.1711,195.1146,759.1793,185.3893,758.5,175.6641" style="stroke:#181818;stroke-width:1.0;"/><polygon fill="#FFFFFF" points="758.5,382.7734,758.5,382.8435,760.5,382.6353,762.5,382.8379,764.5,382.9067,766.5,382.5356,768.5,382.7734,768.4223,382.7734,768.0735,392.4987,768.1165,402.224,768.4318,411.9492,767.8086,421.6745,769.0536,431.3997,768.5,441.125,768.5,440.9149,766.5,441.0591,764.5,441.269,762.5,441.0964,760.5,441.1477,758.5,441.125,758.4681,441.125,758.6785,431.3997,758.7391,421.6745,759.0857,411.9492,759.1711,402.224,759.1793,392.4987,758.5,382.7734" style="stroke:#181818;stroke-width:1.0;"/><polygon fill="#FFFFFF" points="973.5,206.0156,973.5,206.0857,975.5,205.8775,977.5,206.0801,979.5,206.1489,981.5,205.7778,983.5,206.0156,983.4741,206.0156,983.3578,208.8156,983.3722,211.6156,983.4773,214.4156,983.2695,217.2156,983.5,220.0156,983.5,220.2002,981.5,219.8055,979.5,219.9497,977.5,220.1596,975.5,219.987,973.5,220.0156,973.5227,220.0156,973.4894,217.2156,973.5595,214.4156,973.5797,211.6156,973.6952,208.8156,973.5,206.0156" style="stroke:#181818;stroke-width:1.0;"/><polygon fill="#FFFFFF" points="1107,413.125,1107,413.1951,1109,412.9869,1111,413.1894,1113,413.2582,1115,412.8872,1117,413.125,1116.9741,413.125,1116.8578,415.925,1116.8722,418.725,1116.9773,421.525,1116.7695,424.325,1117,427.125,1117,427.3095,1115,426.9149,1113,427.0591,1111,427.269,1109,427.0964,1107,427.125,1107.0227,427.125,1106.9894,424.325,1107.0595,421.525,1107.0797,418.725,1107.1952,415.925,1107,413.125" style="stroke:#181818;stroke-width:1.0;"/><polygon fill="#181818" points="330.5,110.9609,330.526,111.026,332.4487,111.6327,334.5239,112.6208,336.5495,113.4846,338.4117,113.9401,340.5,114.9609,340.4904,114.9369,338.4472,115.6289,336.4525,116.4422,334.4916,117.3398,332.4144,117.947,330.5,118.9609,330.6305,119.0914,331.1514,118.0124,332.0534,117.3143,333.0018,116.6627,333.6798,115.7407,334.5,114.9609,334.5161,114.977,333.6925,114.1534,332.9421,113.403,332.1564,112.6173,331.438,111.899,330.5,110.9609" style="stroke:#181818;stroke-width:1.0;"/><path d="M0,114.9609 L0,115.2412 L9.8971,114.4085 L19.7941,115.2187 L29.6912,115.4938 L39.5882,114.0097 L49.4853,114.8573 L59.3824,114.3923 L69.2794,114.4496 L79.1765,114.8701 L89.0735,114.0391 L98.9706,115.6991 L108.8676,114.1206 L118.7647,114.6972 L128.6618,115.5369 L138.5588,114.8466 L148.4559,115.0519 L158.3529,114.9183 L168.25,115.199 L178.1471,115.2798 L188.0441,115.7419 L197.9412,115.8557 L207.8382,115.8666 L217.7353,115.3004 L227.6324,115.5791 L237.5294,115.8972 L247.4265,113.9994 L257.3235,115.8656 L267.2206,114.5656 L277.1176,115.6727 L287.0147,114.3009 L296.9118,114.8696 L306.8088,115.9497 L316.7059,114.896 L326.6029,115.1013 L336.5,114.9609 " fill="none" style="stroke:#181818;stroke-width:1.0;"/><text fill="#000000" font-family="FG Virgil" font-size="13" lengthAdjust="spacing" textLength="174" x="7" y="110.1045">View participants of a meeting</text><polygon fill="#181818" points="531.5,141.3125,531.526,141.3775,533.4487,141.9843,535.5239,142.9723,537.5495,143.8362,539.4117,144.2917,541.5,145.3125,541.4904,145.2884,539.4472,145.9805,537.4525,146.7938,535.4916,147.6914,533.4144,148.2985,531.5,149.3125,531.6305,149.443,532.1514,148.3639,533.0534,147.6659,534.0018,147.0143,534.6798,146.0923,535.5,145.3125,535.5161,145.3286,534.6925,144.505,533.9421,143.7546,533.1564,142.9689,532.438,142.2505,531.5,141.3125" style="stroke:#181818;stroke-width:1.0;"/><path d="M352.5,145.3125 L352.5,145.5927 L362.2368,144.7601 L371.9737,145.5702 L381.7105,145.8454 L391.4474,144.3613 L401.1842,145.2089 L410.9211,144.7438 L420.6579,144.8012 L430.3947,145.2216 L440.1316,144.3907 L449.8684,146.0507 L459.6053,144.4721 L469.3421,145.0488 L479.0789,145.8884 L488.8158,145.1981 L498.5526,145.4035 L508.2895,145.2699 L518.0263,145.5505 L527.7632,145.6313 L537.5,145.3125 " fill="none" style="stroke:#181818;stroke-width:1.0;"/><text fill="#000000" font-family="FG Virgil" font-size="13" lengthAdjust="spacing" textLength="168" x="359.5" y="140.4561">getMeetingById(meetingTitle)</text><polygon fill="#181818" points="746.5,171.6641,746.526,171.7291,748.4487,172.3358,750.5239,173.3239,752.5495,174.1878,754.4117,174.6433,756.5,175.6641,756.4904,175.64,754.4472,176.3321,752.4525,177.1454,750.4916,178.043,748.4144,178.6501,746.5,179.6641,746.6305,179.7946,747.1514,178.7155,748.0534,178.0174,749.0018,177.3659,749.6798,176.4438,750.5,175.6641,750.5161,175.6801,749.6925,174.8565,748.9421,174.1061,748.1564,173.3204,747.438,172.6021,746.5,171.6641" style="stroke:#181818;stroke-width:1.0;"/><path d="M553.5,175.6641 L553.5,175.9443 L563.45,175.1116 L573.4,175.9218 L583.35,176.197 L593.3,174.7129 L603.25,175.5604 L613.2,175.0954 L623.15,175.1527 L633.1,175.5732 L643.05,174.7422 L653,176.4023 L662.95,174.8237 L672.9,175.4004 L682.85,176.24 L692.8,175.5497 L702.75,175.755 L712.7,175.6215 L722.65,175.9021 L732.6,175.9829 L742.55,176.445 L752.5,175.6641 " fill="none" style="stroke:#181818;stroke-width:1.0;"/><text fill="#000000" font-family="FG Virgil" font-size="13" lengthAdjust="spacing" textLength="186" x="560.5" y="170.8076">findByMeetingById(meetingTitle)</text><polygon fill="#181818" points="961.5,202.0156,961.526,202.0807,963.4487,202.6874,965.5239,203.6754,967.5495,204.5393,969.4117,204.9948,971.5,206.0156,971.4904,205.9916,969.4472,206.6836,967.4525,207.4969,965.4916,208.3945,963.4144,209.0017,961.5,210.0156,961.6305,210.1461,962.1514,209.0671,963.0534,208.369,964.0018,207.7174,964.6798,206.7954,965.5,206.0156,965.5161,206.0317,964.6925,205.2081,963.9421,204.4577,963.1564,203.672,962.438,202.9537,961.5,202.0156" style="stroke:#181818;stroke-width:1.0;"/><path d="M768.5,206.0156 L768.5,206.2959 L778.45,205.4632 L788.4,206.2733 L798.35,206.5485 L808.3,205.0644 L818.25,205.912 L828.2,205.447 L838.15,205.5043 L848.1,205.9247 L858.05,205.0938 L868,206.7538 L877.95,205.1753 L887.9,205.7519 L897.85,206.5916 L907.8,205.9013 L917.75,206.1066 L927.7,205.973 L937.65,206.2537 L947.6,206.3345 L957.55,206.7965 L967.5,206.0156 " fill="none" style="stroke:#181818;stroke-width:1.0;"/><text fill="#000000" font-family="FG Virgil" font-size="13" lengthAdjust="spacing" textLength="186" x="775.5" y="201.1592">findByMeetingById(meetingTitle)</text><polygon fill="#181818" points="779.5,216.0156,779.526,216.0807,777.4487,216.6874,775.5239,217.6754,773.5495,218.5393,771.4117,218.9948,769.5,220.0156,769.4904,219.9916,771.4472,220.6836,773.4525,221.4969,775.4916,222.3945,777.4144,223.0017,779.5,224.0156,779.6305,224.1461,778.5514,223.0671,777.8534,222.369,777.2018,221.7174,776.2798,220.7954,775.5,220.0156,775.5161,220.0317,776.2925,219.2081,777.1421,218.4577,777.9564,217.672,778.838,216.9537,779.5,216.0156" style="stroke:#181818;stroke-width:1.0;"/><path d="M773.5,220.0156 L773.5,220.2959 L783.7,219.4632 L793.9,220.2733 L804.1,220.5485 L814.3,219.0644 L824.5,219.912 L834.7,219.447 L844.9,219.5043 L855.1,219.9247 L865.3,219.0938 L875.5,220.7538 L885.7,219.1753 L895.9,219.7519 L906.1,220.5916 L916.3,219.9013 L926.5,220.1066 L936.7,219.973 L946.9,220.2537 L957.1,220.3345 L967.3,220.7965 L977.5,220.0156 " fill="none" style="stroke:#181818;stroke-width:1.0;stroke-dasharray:2.0,2.0;"/><polygon fill="#181818" points="564.5,230.0156,564.526,230.0807,562.4487,230.6874,560.5239,231.6754,558.5495,232.5393,556.4117,232.9948,554.5,234.0156,554.4904,233.9916,556.4472,234.6836,558.4525,235.4969,560.4916,236.3945,562.4144,237.0017,564.5,238.0156,564.6305,238.1461,563.5514,237.0671,562.8534,236.369,562.2018,235.7174,561.2798,234.7954,560.5,234.0156,560.5161,234.0317,561.2925,233.2081,562.1421,232.4577,562.9564,231.672,563.838,230.9537,564.5,230.0156" style="stroke:#181818;stroke-width:1.0;"/><path d="M558.5,234.0156 L558.5,234.2959 L568.7,233.4632 L578.9,234.2733 L589.1,234.5485 L599.3,233.0644 L609.5,233.912 L619.7,233.447 L629.9,233.5043 L640.1,233.9247 L650.3,233.0938 L660.5,234.7538 L670.7,233.1753 L680.9,233.7519 L691.1,234.5916 L701.3,233.9013 L711.5,234.1066 L721.7,233.973 L731.9,234.2537 L742.1,234.3345 L752.3,234.7965 L762.5,234.0156 " fill="none" style="stroke:#181818;stroke-width:1.0;stroke-dasharray:2.0,2.0;"/><polygon fill="#181818" points="363.5,260.3672,363.526,260.4322,361.4487,261.039,359.5239,262.027,357.5495,262.8909,355.4117,263.3464,353.5,264.3672,353.4904,264.3431,355.4472,265.0352,357.4525,265.8485,359.4916,266.7461,361.4144,267.3532,363.5,268.3672,363.6305,268.4977,362.5514,267.4186,361.8534,266.7206,361.2018,266.069,360.2798,265.147,359.5,264.3672,359.5161,264.3833,360.2925,263.5597,361.1421,262.8093,361.9564,262.0236,362.838,261.3052,363.5,260.3672" style="stroke:#181818;stroke-width:1.0;"/><path d="M357.5,264.3672 L357.5,264.6474 L367.5,263.8148 L377.5,264.6249 L387.5,264.9001 L397.5,263.416 L407.5,264.2636 L417.5,263.7985 L427.5,263.8559 L437.5,264.2763 L447.5,263.4454 L457.5,265.1054 L467.5,263.5268 L477.5,264.1035 L487.5,264.9431 L497.5,264.2528 L507.5,264.4582 L517.5,264.3246 L527.5,264.6052 L537.5,264.686 L547.5,264.3672 " fill="none" style="stroke:#181818;stroke-width:1.0;"/><text fill="#000000" font-family="FG Virgil" font-size="13" lengthAdjust="spacing" textLength="46" x="369.5" y="259.5107">meeting</text><path d="M10,279.3672 L10,279.9277 L20.1667,278.2623 L30.3333,279.8826 L40.5,280.433 L50.6667,277.4648 L60.8333,279.16 L71,279.3672 L70.6209,279.3672 L70.6591,281.0375 L70.9394,282.7078 L70.3854,284.3781 L71.4921,286.0484 L71,287.7188 L70.6038,287.3226 L68.8757,289.5944 L67.2715,291.9902 L64.9461,293.6648 L63.0429,295.7616 L61,297.7188 L61,297.6336 L50.8,298.1948 L40.6,298.3564 L30.4,299.2806 L20.2,299.5082 L10,297.7188 L10.6038,297.7188 L10.2263,294.0484 L10.4121,290.3781 L10.6242,286.7078 L9.3589,283.0375 L10,279.3672 " fill="#EEEEEE" style="stroke:#000000;stroke-width:1.5;"/><polygon fill="none" points="10,279.3672,10,279.5774,19.9957,278.9529,29.9915,279.5605,39.9872,279.7669,49.9829,278.6538,59.9786,279.2895,69.9744,278.9407,79.9701,278.9837,89.9658,279.299,99.9615,278.6758,109.9573,279.9208,119.953,278.7369,129.9487,279.1694,139.9444,279.7991,149.9402,279.2814,159.9359,279.4354,169.9316,279.3352,179.9274,279.5457,189.9231,279.6063,199.9188,279.9529,209.9145,280.0382,219.9103,280.0464,229.906,279.6218,239.9017,279.8308,249.8974,280.0694,259.8932,278.646,269.8889,280.0457,279.8846,279.0707,289.8803,279.901,299.8761,278.8722,309.8718,279.2987,319.8675,280.1088,329.8632,279.3185,339.859,279.4725,349.8547,279.7058,359.8504,279.7834,369.8462,279.3633,379.8419,279.6544,389.8376,278.7948,399.8333,279.6516,409.8291,279.9154,419.8248,279.8117,429.8205,279.9802,439.8162,278.8841,449.812,278.715,459.8077,278.7458,469.8034,279.3083,479.7991,279.1707,489.7949,280.0486,499.7906,279.1925,509.7863,279.0241,519.7821,279.5955,529.7778,278.7003,539.7735,278.8481,549.7692,280.0161,559.765,279.8029,569.7607,280.1017,579.7564,279.0454,589.7521,279.6864,599.7479,279.9576,609.7436,278.8948,619.7393,279.2713,629.735,279.4932,639.7308,280.0189,649.7265,279.363,659.7222,279.8298,669.7179,278.8134,679.7137,278.6899,689.7094,279.8708,699.7051,278.6502,709.7009,279.8761,719.6966,279.5738,729.6923,279.0993,739.688,279.0134,749.6838,279.8259,759.6795,279.0679,769.6752,279.959,779.6709,278.8144,789.6667,279.9846,799.6624,279.8515,809.6581,279.6122,819.6538,279.4144,829.6496,280.0938,839.6453,279.9808,849.641,279.5364,859.6368,279.6354,869.6325,279.2369,879.6282,280.0836,889.6239,279.5221,899.6197,279.5398,909.6154,278.7588,919.6111,278.962,929.6068,279.8979,939.6026,279.7969,949.5983,279.3243,959.594,279.045,969.5897,279.1483,979.5855,278.681,989.5812,279.7819,999.5769,280.1068,1009.5726,279.8936,1019.5684,280.0621,1029.5641,279.2305,1039.5598,279.4544,1049.5556,278.9796,1059.5513,279.6512,1069.547,279.614,1079.5427,279.9196,1089.5385,279.1375,1099.5342,279.2328,1109.5299,279.8106,1119.5256,279.9345,1129.5214,278.8547,1139.5171,279.1733,1149.5128,279.5165,1159.5085,278.7563,1169.5043,279.7206,1179.5,279.3672,1179.758,279.3672,1179.3992,289.3872,1179.6422,299.4073,1180.2287,309.4273,1179.1871,319.4474,1179.815,329.4674,1179.7856,339.4874,1179.6158,349.5075,1179.6409,359.5275,1179.6135,369.5476,1178.8758,379.5676,1179.0992,389.5876,1179.0385,399.6077,1179.5638,409.6277,1179.5881,419.6478,1179.6617,429.6678,1179.209,439.6878,1179.4325,449.7079,1179.3798,459.7279,1180.0769,469.748,1179.9266,479.768,1179.0145,489.788,1179.4271,499.8081,1179.5,509.8281,1179.5,509.2509,1169.5043,510.1165,1159.5085,510.4366,1149.5128,510.3727,1139.5171,509.3926,1129.5214,510.2921,1119.5256,509.0853,1109.5299,510.0283,1099.5342,509.5288,1089.5385,509.9248,1079.5427,510.0685,1069.547,510.3002,1059.5513,509.1082,1049.5556,510.3036,1039.5598,510.0063,1029.5641,510.1835,1019.5684,510.5759,1009.5726,509.8336,999.5769,510.0034,989.5812,510.0416,979.5855,510.0254,969.5897,509.8273,959.594,510.5388,949.5983,509.2184,939.6026,510.3934,929.6068,509.2041,919.6111,509.2878,909.6154,509.8681,899.6197,509.8564,889.6239,509.3353,879.6282,510.2418,869.6325,509.937,859.6368,510.5548,849.641,510.4952,839.6453,509.3799,829.6496,509.4302,819.6538,509.6989,809.6581,510.1836,799.6624,510.2311,789.6667,510.1293,779.6709,509.4862,769.6752,510.4645,759.6795,510.4619,749.6838,509.7808,739.688,509.5891,729.6923,509.4267,719.6966,509.6135,709.7009,509.9655,699.7051,509.7597,689.7094,509.4103,679.7137,510.3155,669.7179,509.3692,659.7222,510.3305,649.7265,510.2554,639.7308,510.2,629.735,510.5206,619.7393,509.5822,609.7436,509.5275,599.7479,510.347,589.7521,509.2312,579.7564,509.5941,569.7607,509.9436,559.765,509.8968,549.7692,509.4697,539.7735,509.7851,529.7778,510.5727,519.7821,510.4766,509.7863,509.2318,499.7906,509.9066,489.7949,509.3142,479.7991,509.8018,469.8034,510.1211,459.8077,510.248,449.812,509.1634,439.8162,510.2287,429.8205,509.8365,419.8248,509.2728,409.8291,509.3571,399.8333,510.1547,389.8376,510.078,379.8419,509.8117,369.8462,509.156,359.8504,510.4863,349.8547,509.5163,339.859,509.3001,329.8632,509.7608,319.8675,510.4178,309.8718,510.4435,299.8761,509.8633,289.8803,509.677,279.8846,509.9979,269.8889,510.0143,259.8932,509.3203,249.8974,510.2421,239.9017,510.3869,229.906,509.6124,219.9103,509.3989,209.9145,510.5028,199.9188,509.8491,189.9231,509.828,179.9274,510.1272,169.9316,509.1824,159.9359,510.3581,149.9402,509.8127,139.9444,510.4969,129.9487,509.6123,119.953,510.2371,109.9573,509.3841,99.9615,510.0731,89.9658,510.2074,79.9701,509.5008,69.9744,510.1911,59.9786,509.2567,49.9829,509.3576,39.9872,510.511,29.9915,510.5125,19.9957,510.3966,10,509.8281,9.6396,509.8281,10.3842,499.8081,9.5279,489.788,10.0582,479.768,9.9987,469.748,9.7376,459.7279,10.6159,449.7079,10.4433,439.6878,9.6792,429.6678,10.5266,419.6478,10.0919,409.6277,9.4164,399.6077,9.7667,389.5876,9.4747,379.5676,9.8609,369.5476,9.371,359.5275,9.3998,349.5075,10.0703,339.4874,9.8796,329.4674,9.9414,319.4474,9.8568,309.4273,10.1673,299.4073,9.4449,289.3872,10,279.3672" style="stroke:#000000;stroke-width:1.5;"/><text fill="#000000" font-family="FG Virgil" font-size="13" font-weight="bold" lengthAdjust="spacing" textLength="16" x="25" y="293.8623">alt</text><text fill="#000000" font-family="FG Virgil" font-size="11" font-weight="bold" lengthAdjust="spacing" textLength="90" x="86" y="292.7861">[meeting is null]</text><polygon fill="#181818" points="71.5,316.0703,71.526,316.1354,69.4487,316.7421,67.5239,317.7301,65.5495,318.594,63.4117,319.0495,61.5,320.0703,61.4904,320.0463,63.4472,320.7383,65.4525,321.5516,67.4916,322.4492,69.4144,323.0563,71.5,324.0703,71.6305,324.2008,70.5514,323.1218,69.8534,322.4237,69.2018,321.7721,68.2798,320.8501,67.5,320.0703,67.5161,320.0864,68.2925,319.2628,69.1421,318.5124,69.9564,317.7267,70.838,317.0084,71.5,316.0703" style="stroke:#181818;stroke-width:1.0;"/><path d="M65.5,320.0703 L65.5,320.3506 L75.3571,319.5179 L85.2143,320.328 L95.0714,320.6032 L104.9286,319.1191 L114.7857,319.9667 L124.6429,319.5017 L134.5,319.559 L144.3571,319.9794 L154.2143,319.1485 L164.0714,320.8085 L173.9286,319.2299 L183.7857,319.8066 L193.6429,320.6462 L203.5,319.9559 L213.3571,320.1613 L223.2143,320.0277 L233.0714,320.3083 L242.9286,320.3892 L252.7857,320.8512 L262.6429,320.9651 L272.5,320.976 L282.3571,320.4098 L292.2143,320.6884 L302.0714,321.0066 L311.9286,319.1087 L321.7857,320.975 L331.6429,319.675 L341.5,320.0703 " fill="none" style="stroke:#181818;stroke-width:1.0;"/><text fill="#000000" font-family="FG Virgil" font-size="13" lengthAdjust="spacing" textLength="258" x="77.5" y="315.2139">display "No meeting found with the given ID."</text><path d="M10,329.0703 L10,329.3506 L19.9957,328.5179 L29.9915,329.328 L39.9872,329.6032 L49.9829,328.1191 L59.9786,328.9667 L69.9744,328.5017 L79.9701,328.559 L89.9658,328.9794 L99.9615,328.1485 L109.9573,329.8085 L119.953,328.2299 L129.9487,328.8066 L139.9444,329.6462 L149.9402,328.9559 L159.9359,329.1613 L169.9316,329.0277 L179.9274,329.3083 L189.9231,329.3892 L199.9188,329.8512 L209.9145,329.9651 L219.9103,329.976 L229.906,329.4098 L239.9017,329.6884 L249.8974,330.0066 L259.8932,328.1087 L269.8889,329.975 L279.8846,328.675 L289.8803,329.7821 L299.8761,328.4103 L309.8718,328.979 L319.8675,330.0591 L329.8632,329.0053 L339.859,329.2107 L349.8547,329.5218 L359.8504,329.6253 L369.8462,329.0651 L379.8419,329.4533 L389.8376,328.3071 L399.8333,329.4495 L409.8291,329.8012 L419.8248,329.663 L429.8205,329.8877 L439.8162,328.4262 L449.812,328.2007 L459.8077,328.2418 L469.8034,328.9918 L479.7991,328.8083 L489.7949,329.9789 L499.7906,328.8374 L509.7863,328.6129 L519.7821,329.3747 L529.7778,328.1812 L539.7735,328.3781 L549.7692,329.9356 L559.765,329.6512 L569.7607,330.0496 L579.7564,328.6413 L589.7521,329.4959 L599.7479,329.8575 L609.7436,328.4404 L619.7393,328.9425 L629.735,329.2383 L639.7308,329.9393 L649.7265,329.0647 L659.7222,329.6871 L669.7179,328.3319 L679.7137,328.1673 L689.7094,329.7418 L699.7051,328.1144 L709.7009,329.7489 L719.6966,329.3458 L729.6923,328.7131 L739.688,328.5986 L749.6838,329.682 L759.6795,328.6712 L769.6752,329.8595 L779.6709,328.3333 L789.6667,329.8935 L799.6624,329.7161 L809.6581,329.3969 L819.6538,329.1333 L829.6496,330.0391 L839.6453,329.8884 L849.641,329.296 L859.6368,329.4279 L869.6325,328.8966 L879.6282,330.0256 L889.6239,329.2768 L899.6197,329.3004 L909.6154,328.2592 L919.6111,328.53 L929.6068,329.778 L939.6026,329.6433 L949.5983,329.0131 L959.594,328.6408 L969.5897,328.7784 L979.5855,328.1554 L989.5812,329.6233 L999.5769,330.0564 L1009.5726,329.7722 L1019.5684,329.9969 L1029.5641,328.888 L1039.5598,329.1866 L1049.5556,328.5535 L1059.5513,329.449 L1069.547,329.3993 L1079.5427,329.8068 L1089.5385,328.7641 L1099.5342,328.8911 L1109.5299,329.6616 L1119.5256,329.8268 L1129.5214,328.3869 L1139.5171,328.8118 L1149.5128,329.2693 L1159.5085,328.2559 L1169.5043,329.5415 L1179.5,329.0703 " fill="none" style="stroke:#000000;stroke-width:1.0;stroke-dasharray:2.0,2.0;"/><polygon fill="#181818" points="531.5,348.4219,531.526,348.4869,533.4487,349.0936,535.5239,350.0817,537.5495,350.9456,539.4117,351.4011,541.5,352.4219,541.4904,352.3978,539.4472,353.0899,537.4525,353.9032,535.4916,354.8008,533.4144,355.4079,531.5,356.4219,531.6305,356.5524,532.1514,355.4733,533.0534,354.7753,534.0018,354.1237,534.6798,353.2017,535.5,352.4219,535.5161,352.438,534.6925,351.6143,533.9421,350.864,533.1564,350.0782,532.438,349.3599,531.5,348.4219" style="stroke:#181818;stroke-width:1.0;"/><path d="M352.5,352.4219 L352.5,352.7021 L362.2368,351.8694 L371.9737,352.6796 L381.7105,352.9548 L391.4474,351.4707 L401.1842,352.3183 L410.9211,351.8532 L420.6579,351.9105 L430.3947,352.331 L440.1316,351.5 L449.8684,353.1601 L459.6053,351.5815 L469.3421,352.1582 L479.0789,352.9978 L488.8158,352.3075 L498.5526,352.5129 L508.2895,352.3793 L518.0263,352.6599 L527.7632,352.7407 L537.5,352.4219 " fill="none" style="stroke:#181818;stroke-width:1.0;"/><text fill="#000000" font-family="FG Virgil" font-size="13" lengthAdjust="spacing" textLength="172" x="359.5" y="347.5654">findInvitesByMeeting(meeting)</text><polygon fill="#181818" points="746.5,378.7734,746.526,378.8385,748.4487,379.4452,750.5239,380.4333,752.5495,381.2971,754.4117,381.7526,756.5,382.7734,756.4904,382.7494,754.4472,383.4414,752.4525,384.2547,750.4916,385.1523,748.4144,385.7595,746.5,386.7734,746.6305,386.9039,747.1514,385.8249,748.0534,385.1268,749.0018,384.4752,749.6798,383.5532,750.5,382.7734,750.5161,382.7895,749.6925,381.9659,748.9421,381.2155,748.1564,380.4298,747.438,379.7115,746.5,378.7734" style="stroke:#181818;stroke-width:1.0;"/><path d="M553.5,382.7734 L553.5,383.0537 L563.45,382.221 L573.4,383.0312 L583.35,383.3063 L593.3,381.8222 L603.25,382.6698 L613.2,382.2048 L623.15,382.2621 L633.1,382.6826 L643.05,381.8516 L653,383.5116 L662.95,381.9331 L672.9,382.5097 L682.85,383.3494 L692.8,382.6591 L702.75,382.8644 L712.7,382.7308 L722.65,383.0115 L732.6,383.0923 L742.55,383.5544 L752.5,382.7734 " fill="none" style="stroke:#181818;stroke-width:1.0;"/><text fill="#000000" font-family="FG Virgil" font-size="13" lengthAdjust="spacing" textLength="172" x="560.5" y="377.917">findInvitesByMeeting(meeting)</text><polygon fill="#181818" points="1095,409.125,1095.026,409.19,1096.9487,409.7968,1099.0239,410.7848,1101.0495,411.6487,1102.9117,412.1042,1105,413.125,1104.9904,413.1009,1102.9472,413.793,1100.9525,414.6063,1098.9916,415.5039,1096.9144,416.111,1095,417.125,1095.1305,417.2555,1095.6514,416.1764,1096.5534,415.4784,1097.5018,414.8268,1098.1798,413.9048,1099,413.125,1099.0161,413.1411,1098.1925,412.3175,1097.4421,411.5671,1096.6564,410.7814,1095.938,410.063,1095,409.125" style="stroke:#181818;stroke-width:1.0;"/><path d="M768.5,413.125 L768.5,413.4052 L778.5758,412.5726 L788.6515,413.3827 L798.7273,413.6579 L808.803,412.1738 L818.8788,413.0214 L828.9545,412.5563 L839.0303,412.6137 L849.1061,413.0341 L859.1818,412.2032 L869.2576,413.8632 L879.3333,412.2846 L889.4091,412.8613 L899.4848,413.7009 L909.5606,413.0106 L919.6364,413.216 L929.7121,413.0824 L939.7879,413.363 L949.8636,413.4438 L959.9394,413.9059 L970.0152,414.0197 L980.0909,414.0307 L990.1667,413.4645 L1000.2424,413.7431 L1010.3182,414.0613 L1020.3939,412.1634 L1030.4697,414.0297 L1040.5455,412.7297 L1050.6212,413.8367 L1060.697,412.465 L1070.7727,413.0337 L1080.8485,414.1138 L1090.9242,413.06 L1101,413.125 " fill="none" style="stroke:#181818;stroke-width:1.0;"/><text fill="#000000" font-family="FG Virgil" font-size="13" lengthAdjust="spacing" textLength="172" x="775.5" y="408.2686">findInvitesByMeeting(meeting)</text><polygon fill="#181818" points="779.5,423.125,779.526,423.19,777.4487,423.7968,775.5239,424.7848,773.5495,425.6487,771.4117,426.1042,769.5,427.125,769.4904,427.1009,771.4472,427.793,773.4525,428.6063,775.4916,429.5039,777.4144,430.111,779.5,431.125,779.6305,431.2555,778.5514,430.1764,777.8534,429.4784,777.2018,428.8268,776.2798,427.9048,775.5,427.125,775.5161,427.1411,776.2925,426.3175,777.1421,425.5671,777.9564,424.7814,778.838,424.063,779.5,423.125" style="stroke:#181818;stroke-width:1.0;"/><path d="M773.5,427.125 L773.5,427.4052 L783.4265,426.5726 L793.3529,427.3827 L803.2794,427.6579 L813.2059,426.1738 L823.1324,427.0214 L833.0588,426.5563 L842.9853,426.6137 L852.9118,427.0341 L862.8382,426.2032 L872.7647,427.8632 L882.6912,426.2846 L892.6176,426.8613 L902.5441,427.7009 L912.4706,427.0106 L922.3971,427.216 L932.3235,427.0824 L942.25,427.363 L952.1765,427.4438 L962.1029,427.9059 L972.0294,428.0197 L981.9559,428.0307 L991.8824,427.4645 L1001.8088,427.7431 L1011.7353,428.0613 L1021.6618,426.1634 L1031.5882,428.0297 L1041.5147,426.7297 L1051.4412,427.8367 L1061.3676,426.465 L1071.2941,427.0337 L1081.2206,428.1138 L1091.1471,427.06 L1101.0735,427.2654 L1111,427.125 " fill="none" style="stroke:#181818;stroke-width:1.0;stroke-dasharray:2.0,2.0;"/><polygon fill="#181818" points="564.5,437.125,564.526,437.19,562.4487,437.7968,560.5239,438.7848,558.5495,439.6487,556.4117,440.1042,554.5,441.125,554.4904,441.1009,556.4472,441.793,558.4525,442.6063,560.4916,443.5039,562.4144,444.111,564.5,445.125,564.6305,445.2555,563.5514,444.1764,562.8534,443.4784,562.2018,442.8268,561.2798,441.9048,560.5,441.125,560.5161,441.1411,561.2925,440.3175,562.1421,439.5671,562.9564,438.7814,563.838,438.063,564.5,437.125" style="stroke:#181818;stroke-width:1.0;"/><path d="M558.5,441.125 L558.5,441.4052 L568.7,440.5726 L578.9,441.3827 L589.1,441.6579 L599.3,440.1738 L609.5,441.0214 L619.7,440.5563 L629.9,440.6137 L640.1,441.0341 L650.3,440.2032 L660.5,441.8632 L670.7,440.2846 L680.9,440.8613 L691.1,441.7009 L701.3,441.0106 L711.5,441.216 L721.7,441.0824 L731.9,441.363 L742.1,441.4438 L752.3,441.9059 L762.5,441.125 " fill="none" style="stroke:#181818;stroke-width:1.0;stroke-dasharray:2.0,2.0;"/><polygon fill="#181818" points="363.5,467.4766,363.526,467.5416,361.4487,468.1483,359.5239,469.1364,357.5495,470.0003,355.4117,470.4558,353.5,471.4766,353.4904,471.4525,355.4472,472.1446,357.4525,472.9579,359.4916,473.8555,361.4144,474.4626,363.5,475.4766,363.6305,475.6071,362.5514,474.528,361.8534,473.8299,361.2018,473.1784,360.2798,472.2563,359.5,471.4766,359.5161,471.4926,360.2925,470.669,361.1421,469.9186,361.9564,469.1329,362.838,468.4146,363.5,467.4766" style="stroke:#181818;stroke-width:1.0;"/><path d="M357.5,471.4766 L357.5,471.7568 L367.5,470.9241 L377.5,471.7343 L387.5,472.0095 L397.5,470.5254 L407.5,471.3729 L417.5,470.9079 L427.5,470.9652 L437.5,471.3857 L447.5,470.5547 L457.5,472.2148 L467.5,470.6362 L477.5,471.2129 L487.5,472.0525 L497.5,471.3622 L507.5,471.5675 L517.5,471.434 L527.5,471.7146 L537.5,471.7954 L547.5,471.4766 " fill="none" style="stroke:#181818;stroke-width:1.0;"/><text fill="#000000" font-family="FG Virgil" font-size="13" lengthAdjust="spacing" textLength="105" x="369.5" y="466.6201">participantsStatus</text><polygon fill="#181818" points="71.5,497.8281,71.526,497.8932,69.4487,498.4999,67.5239,499.4879,65.5495,500.3518,63.4117,500.8073,61.5,501.8281,61.4904,501.8041,63.4472,502.4961,65.4525,503.3094,67.4916,504.207,69.4144,504.8142,71.5,505.8281,71.6305,505.9586,70.5514,504.8796,69.8534,504.1815,69.2018,503.5299,68.2798,502.6079,67.5,501.8281,67.5161,501.8442,68.2925,501.0206,69.1421,500.2702,69.9564,499.4845,70.838,498.7662,71.5,497.8281" style="stroke:#181818;stroke-width:1.0;"/><path d="M65.5,501.8281 L65.5,502.1084 L75.3571,501.2757 L85.2143,502.0858 L95.0714,502.361 L104.9286,500.8769 L114.7857,501.7245 L124.6429,501.2595 L134.5,501.3168 L144.3571,501.7372 L154.2143,500.9063 L164.0714,502.5663 L173.9286,500.9878 L183.7857,501.5644 L193.6429,502.4041 L203.5,501.7138 L213.3571,501.9191 L223.2143,501.7855 L233.0714,502.0662 L242.9286,502.147 L252.7857,502.609 L262.6429,502.7229 L272.5,502.7338 L282.3571,502.1676 L292.2143,502.4462 L302.0714,502.7644 L311.9286,500.8665 L321.7857,502.7328 L331.6429,501.4328 L341.5,501.8281 " fill="none" style="stroke:#181818;stroke-width:1.0;"/><text fill="#000000" font-family="FG Virgil" font-size="13" lengthAdjust="spacing" textLength="133" x="77.5" y="496.9717">display participants list</text><!--SRC=[bLJBRjim4BphAnQvj3d4lkjG86cHGa0R57MSEo6k928KAP0h6_hxhcmzI46HKrviaZEprEoGNogY9jtl6oqCjRNUvRRU-tTb6k54lQkeriaqXKeOUNQA20sGQp7OggsnUULiZSkTHkJleiG3THh1OKx1diH2j9gUhQ4NmTJdd_2cNAd2ehuIqfwLAQ4GscEIY9oiWqFd2UkZHmV2msE_bZ21LAuQ_XRufJpzcUV7h8STiotCTpw6irfV9UVP5kU0xgHox0d3tmZz6v7uw7-niLxn4RiU62n6uCoS566CdTVMT0Er5QMP7st6plM_IVBmZRr9sNmyGu3rO0iGK0ybs7br4YpCFW8FDfM9ir4fb4Z3UPwwJ7uTYA-ADDvVA9D4O2yC8_2VPGSxKoYKaK_TjcmaFJO2WZ7sYOK3-pyl7XK86nW2WdLuc3yXmaZSb9dE6HcRhB13yTYvlfDZonQaXQJGD291UJ2jrbEfQtCl5oi5gJm_4HtSlTY9KDZMI3Whge0gX5AT-5d8VkpkBXBOtzLOAmnAx_irctwoVxH-fQKhLjn8p6tncvbPv6Q-YlzJ8QeItEObPjxwC3gBNduWTYD16obQJrBu71n8KElNqhXIQJL0qUEY-IszXiN8910xPly0]--></g></svg>